%TF.GenerationSoftware,KiCad,Pcbnew,(5.1.8)-1*%
%TF.CreationDate,2021-03-04T12:58:27-05:00*%
%TF.ProjectId,DRV8353S_dev_board,44525638-3335-4335-935f-6465765f626f,rev?*%
%TF.SameCoordinates,Original*%
%TF.FileFunction,Soldermask,Bot*%
%TF.FilePolarity,Negative*%
%FSLAX46Y46*%
G04 Gerber Fmt 4.6, Leading zero omitted, Abs format (unit mm)*
G04 Created by KiCad (PCBNEW (5.1.8)-1) date 2021-03-04 12:58:27*
%MOMM*%
%LPD*%
G01*
G04 APERTURE LIST*
%ADD10C,6.000001*%
%ADD11C,0.800000*%
%ADD12C,3.600000*%
%ADD13C,4.000000*%
%ADD14R,1.000000X1.000000*%
%ADD15O,1.000000X1.000000*%
%ADD16O,1.950000X1.700000*%
%ADD17C,2.000000*%
G04 APERTURE END LIST*
D10*
%TO.C,REF\u002A\u002A*%
X145000000Y-130000000D03*
D11*
X147250000Y-130000000D03*
X146590990Y-131590990D03*
X145000000Y-132250000D03*
X143409010Y-131590990D03*
X142750000Y-130000000D03*
X143409010Y-128409010D03*
X145000000Y-127750000D03*
X146590990Y-128409010D03*
%TD*%
%TO.C,REF\u002A\u002A*%
X56590990Y-128409010D03*
X55000000Y-127750000D03*
X53409010Y-128409010D03*
X52750000Y-130000000D03*
X53409010Y-131590990D03*
X55000000Y-132250000D03*
X56590990Y-131590990D03*
X57250000Y-130000000D03*
D10*
X55000000Y-130000000D03*
%TD*%
%TO.C,REF\u002A\u002A*%
X55000000Y-55000000D03*
D11*
X57250000Y-55000000D03*
X56590990Y-56590990D03*
X55000000Y-57250000D03*
X53409010Y-56590990D03*
X52750000Y-55000000D03*
X53409010Y-53409010D03*
X55000000Y-52750000D03*
X56590990Y-53409010D03*
%TD*%
%TO.C,REF\u002A\u002A*%
X146590990Y-53409010D03*
X145000000Y-52750000D03*
X143409010Y-53409010D03*
X142750000Y-55000000D03*
X143409010Y-56590990D03*
X145000000Y-57250000D03*
X146590990Y-56590990D03*
X147250000Y-55000000D03*
D10*
X145000000Y-55000000D03*
%TD*%
%TO.C,C14*%
G36*
G01*
X79979500Y-118057000D02*
X80929500Y-118057000D01*
G75*
G02*
X81179500Y-118307000I0J-250000D01*
G01*
X81179500Y-118807000D01*
G75*
G02*
X80929500Y-119057000I-250000J0D01*
G01*
X79979500Y-119057000D01*
G75*
G02*
X79729500Y-118807000I0J250000D01*
G01*
X79729500Y-118307000D01*
G75*
G02*
X79979500Y-118057000I250000J0D01*
G01*
G37*
G36*
G01*
X79979500Y-119957000D02*
X80929500Y-119957000D01*
G75*
G02*
X81179500Y-120207000I0J-250000D01*
G01*
X81179500Y-120707000D01*
G75*
G02*
X80929500Y-120957000I-250000J0D01*
G01*
X79979500Y-120957000D01*
G75*
G02*
X79729500Y-120707000I0J250000D01*
G01*
X79729500Y-120207000D01*
G75*
G02*
X79979500Y-119957000I250000J0D01*
G01*
G37*
%TD*%
%TO.C,C15*%
G36*
G01*
X72547500Y-119242500D02*
X71597500Y-119242500D01*
G75*
G02*
X71347500Y-118992500I0J250000D01*
G01*
X71347500Y-118492500D01*
G75*
G02*
X71597500Y-118242500I250000J0D01*
G01*
X72547500Y-118242500D01*
G75*
G02*
X72797500Y-118492500I0J-250000D01*
G01*
X72797500Y-118992500D01*
G75*
G02*
X72547500Y-119242500I-250000J0D01*
G01*
G37*
G36*
G01*
X72547500Y-117342500D02*
X71597500Y-117342500D01*
G75*
G02*
X71347500Y-117092500I0J250000D01*
G01*
X71347500Y-116592500D01*
G75*
G02*
X71597500Y-116342500I250000J0D01*
G01*
X72547500Y-116342500D01*
G75*
G02*
X72797500Y-116592500I0J-250000D01*
G01*
X72797500Y-117092500D01*
G75*
G02*
X72547500Y-117342500I-250000J0D01*
G01*
G37*
%TD*%
%TO.C,C16*%
G36*
G01*
X79979500Y-116464500D02*
X80929500Y-116464500D01*
G75*
G02*
X81179500Y-116714500I0J-250000D01*
G01*
X81179500Y-117214500D01*
G75*
G02*
X80929500Y-117464500I-250000J0D01*
G01*
X79979500Y-117464500D01*
G75*
G02*
X79729500Y-117214500I0J250000D01*
G01*
X79729500Y-116714500D01*
G75*
G02*
X79979500Y-116464500I250000J0D01*
G01*
G37*
G36*
G01*
X79979500Y-114564500D02*
X80929500Y-114564500D01*
G75*
G02*
X81179500Y-114814500I0J-250000D01*
G01*
X81179500Y-115314500D01*
G75*
G02*
X80929500Y-115564500I-250000J0D01*
G01*
X79979500Y-115564500D01*
G75*
G02*
X79729500Y-115314500I0J250000D01*
G01*
X79729500Y-114814500D01*
G75*
G02*
X79979500Y-114564500I250000J0D01*
G01*
G37*
%TD*%
D12*
%TO.C,MOT_DC*%
X63754000Y-80835500D03*
D13*
X72754000Y-75005500D03*
X77754000Y-75105500D03*
X72754000Y-65105500D03*
X77754000Y-65105500D03*
D12*
X63754000Y-59375500D03*
%TD*%
D14*
%TO.C,SWD*%
X54038500Y-119443500D03*
D15*
X52768500Y-119443500D03*
X54038500Y-120713500D03*
X52768500Y-120713500D03*
X54038500Y-121983500D03*
X52768500Y-121983500D03*
%TD*%
D16*
%TO.C,EXTERNAL UART*%
X57277000Y-106736500D03*
X57277000Y-109236500D03*
X57277000Y-111736500D03*
G36*
G01*
X58002000Y-115086500D02*
X56552000Y-115086500D01*
G75*
G02*
X56302000Y-114836500I0J250000D01*
G01*
X56302000Y-113636500D01*
G75*
G02*
X56552000Y-113386500I250000J0D01*
G01*
X58002000Y-113386500D01*
G75*
G02*
X58252000Y-113636500I0J-250000D01*
G01*
X58252000Y-114836500D01*
G75*
G02*
X58002000Y-115086500I-250000J0D01*
G01*
G37*
%TD*%
D13*
%TO.C,MOT_AC*%
X136398000Y-60452000D03*
X127398000Y-66182000D03*
X122398000Y-66182000D03*
X127398000Y-76182000D03*
X122398000Y-76182000D03*
X122398000Y-86182000D03*
X127398000Y-86182000D03*
X136398000Y-91912000D03*
%TD*%
D17*
%TO.C,CURR_C*%
X73500000Y-92000000D03*
%TD*%
%TO.C,CURR_B*%
X73500000Y-95500000D03*
%TD*%
%TO.C,CS*%
X74485000Y-104746000D03*
%TD*%
%TO.C,MOSI*%
X63985000Y-104746000D03*
%TD*%
%TO.C,MISO*%
X67485000Y-104746000D03*
%TD*%
%TO.C,CURR_A*%
X73500000Y-99000000D03*
%TD*%
%TO.C,SCLK*%
X70985000Y-104746000D03*
%TD*%
%TO.C,SPEED PWM*%
X76327000Y-128333500D03*
%TD*%
%TO.C,HGA*%
X99500000Y-103500000D03*
%TD*%
%TO.C,HGB*%
X90000000Y-90000000D03*
%TD*%
%TO.C,HGC*%
X86000000Y-90000000D03*
%TD*%
%TO.C,LGA*%
X99500000Y-98500000D03*
%TD*%
%TO.C,LGB*%
X95000000Y-90000000D03*
%TD*%
%TO.C,LGC*%
X81000000Y-90000000D03*
%TD*%
%TO.C,TEMP*%
X133900000Y-95700000D03*
%TD*%
%TO.C,ENCA*%
X130400000Y-95700000D03*
%TD*%
%TO.C,ENCB*%
X126900000Y-95700000D03*
%TD*%
%TO.C,ENCC*%
X123400000Y-95700000D03*
%TD*%
M02*
