%TF.GenerationSoftware,KiCad,Pcbnew,(5.1.8)-1*%
%TF.CreationDate,2021-03-09T13:11:08-05:00*%
%TF.ProjectId,DRV8353S_dev_board,44525638-3335-4335-935f-6465765f626f,rev?*%
%TF.SameCoordinates,Original*%
%TF.FileFunction,Paste,Bot*%
%TF.FilePolarity,Positive*%
%FSLAX46Y46*%
G04 Gerber Fmt 4.6, Leading zero omitted, Abs format (unit mm)*
G04 Created by KiCad (PCBNEW (5.1.8)-1) date 2021-03-09 13:11:08*
%MOMM*%
%LPD*%
G01*
G04 APERTURE LIST*
%ADD10R,0.600000X0.450000*%
G04 APERTURE END LIST*
D10*
%TO.C,D4*%
X130717000Y-112077500D03*
X128617000Y-112077500D03*
%TD*%
%TO.C,C15*%
G36*
G01*
X123504500Y-105951000D02*
X123504500Y-106901000D01*
G75*
G02*
X123254500Y-107151000I-250000J0D01*
G01*
X122754500Y-107151000D01*
G75*
G02*
X122504500Y-106901000I0J250000D01*
G01*
X122504500Y-105951000D01*
G75*
G02*
X122754500Y-105701000I250000J0D01*
G01*
X123254500Y-105701000D01*
G75*
G02*
X123504500Y-105951000I0J-250000D01*
G01*
G37*
G36*
G01*
X125404500Y-105951000D02*
X125404500Y-106901000D01*
G75*
G02*
X125154500Y-107151000I-250000J0D01*
G01*
X124654500Y-107151000D01*
G75*
G02*
X124404500Y-106901000I0J250000D01*
G01*
X124404500Y-105951000D01*
G75*
G02*
X124654500Y-105701000I250000J0D01*
G01*
X125154500Y-105701000D01*
G75*
G02*
X125404500Y-105951000I0J-250000D01*
G01*
G37*
%TD*%
%TO.C,C16*%
G36*
G01*
X114120000Y-113759000D02*
X114120000Y-112809000D01*
G75*
G02*
X114370000Y-112559000I250000J0D01*
G01*
X114870000Y-112559000D01*
G75*
G02*
X115120000Y-112809000I0J-250000D01*
G01*
X115120000Y-113759000D01*
G75*
G02*
X114870000Y-114009000I-250000J0D01*
G01*
X114370000Y-114009000D01*
G75*
G02*
X114120000Y-113759000I0J250000D01*
G01*
G37*
G36*
G01*
X116020000Y-113759000D02*
X116020000Y-112809000D01*
G75*
G02*
X116270000Y-112559000I250000J0D01*
G01*
X116770000Y-112559000D01*
G75*
G02*
X117020000Y-112809000I0J-250000D01*
G01*
X117020000Y-113759000D01*
G75*
G02*
X116770000Y-114009000I-250000J0D01*
G01*
X116270000Y-114009000D01*
G75*
G02*
X116020000Y-113759000I0J250000D01*
G01*
G37*
%TD*%
%TO.C,C37*%
G36*
G01*
X121716500Y-104744500D02*
X121716500Y-105694500D01*
G75*
G02*
X121466500Y-105944500I-250000J0D01*
G01*
X120966500Y-105944500D01*
G75*
G02*
X120716500Y-105694500I0J250000D01*
G01*
X120716500Y-104744500D01*
G75*
G02*
X120966500Y-104494500I250000J0D01*
G01*
X121466500Y-104494500D01*
G75*
G02*
X121716500Y-104744500I0J-250000D01*
G01*
G37*
G36*
G01*
X119816500Y-104744500D02*
X119816500Y-105694500D01*
G75*
G02*
X119566500Y-105944500I-250000J0D01*
G01*
X119066500Y-105944500D01*
G75*
G02*
X118816500Y-105694500I0J250000D01*
G01*
X118816500Y-104744500D01*
G75*
G02*
X119066500Y-104494500I250000J0D01*
G01*
X119566500Y-104494500D01*
G75*
G02*
X119816500Y-104744500I0J-250000D01*
G01*
G37*
%TD*%
%TO.C,R36*%
G36*
G01*
X123679500Y-108542500D02*
X123679500Y-107992500D01*
G75*
G02*
X123879500Y-107792500I200000J0D01*
G01*
X124279500Y-107792500D01*
G75*
G02*
X124479500Y-107992500I0J-200000D01*
G01*
X124479500Y-108542500D01*
G75*
G02*
X124279500Y-108742500I-200000J0D01*
G01*
X123879500Y-108742500D01*
G75*
G02*
X123679500Y-108542500I0J200000D01*
G01*
G37*
G36*
G01*
X125329500Y-108542500D02*
X125329500Y-107992500D01*
G75*
G02*
X125529500Y-107792500I200000J0D01*
G01*
X125929500Y-107792500D01*
G75*
G02*
X126129500Y-107992500I0J-200000D01*
G01*
X126129500Y-108542500D01*
G75*
G02*
X125929500Y-108742500I-200000J0D01*
G01*
X125529500Y-108742500D01*
G75*
G02*
X125329500Y-108542500I0J200000D01*
G01*
G37*
%TD*%
M02*
