M48
; DRILL file {KiCad (5.1.8)-1} date 03/09/21 13:11:21
; FORMAT={-:-/ absolute / inch / decimal}
; #@! TF.CreationDate,2021-03-09T13:11:21-05:00
; #@! TF.GenerationSoftware,Kicad,Pcbnew,(5.1.8)-1
; #@! TF.FileFunction,Plated,1,4,PTH
FMAT,2
INCH
T1C0.0079
T2C0.0157
T3C0.0197
T4C0.0276
T5C0.0374
T6C0.0394
T7C0.1122
T8C0.1181
%
G90
G05
T1
X3.3743Y-3.9343
X3.3743Y-3.9746
X3.3743Y-4.015
X3.3743Y-4.0554
X3.3743Y-4.0957
X3.4146Y-3.9343
X3.4146Y-3.9746
X3.4146Y-4.015
X3.4146Y-4.0554
X3.4146Y-4.0957
X3.455Y-3.9343
X3.455Y-3.9746
X3.455Y-4.015
X3.455Y-4.0554
X3.455Y-4.0957
X3.4954Y-3.9343
X3.4954Y-3.9746
X3.4954Y-4.015
X3.4954Y-4.0554
X3.4954Y-4.0957
X3.5357Y-3.9343
X3.5357Y-3.9746
X3.5357Y-4.015
X3.5357Y-4.0554
X3.5357Y-4.0957
T2
X2.06Y-4.12
X2.1Y-3.91
X2.13Y-4.32
X2.2Y-3.485
X2.205Y-3.81
X2.3Y-2.0
X2.3Y-2.9
X2.3Y-3.1
X2.3Y-3.23
X2.32Y-3.5775
X2.37Y-4.65
X2.39Y-3.38
X2.3925Y-3.6925
X2.4Y-2.8
X2.4Y-3.0
X2.435Y-4.385
X2.435Y-4.425
X2.44Y-3.46
X2.44Y-3.7775
X2.455Y-3.515
X2.465Y-3.8125
X2.5Y-2.0
X2.5Y-2.1
X2.5Y-2.2
X2.5Y-2.5
X2.5Y-2.6
X2.5Y-2.7
X2.5Y-2.9
X2.5025Y-4.46
X2.5025Y-4.59
X2.5325Y-4.24
X2.5325Y-4.2975
X2.5325Y-4.5025
X2.5325Y-4.56
X2.54Y-3.565
X2.6Y-2.8
X2.6Y-3.0
X2.62Y-3.8075
X2.625Y-3.305
X2.625Y-3.405
X2.625Y-3.52
X2.625Y-3.6225
X2.625Y-3.6725
X2.625Y-3.7225
X2.6367Y-4.3962
X2.6368Y-4.6562
X2.65Y-2.5
X2.65Y-2.6
X2.65Y-2.7
X2.675Y-3.305
X2.675Y-3.355
X2.675Y-3.405
X2.675Y-3.6225
X2.675Y-3.6725
X2.675Y-3.7225
X2.7Y-2.0
X2.7Y-2.1
X2.7Y-2.2
X2.7Y-2.3
X2.7Y-2.4
X2.7Y-2.9
X2.7Y-3.1
X2.705Y-4.4625
X2.7075Y-4.59
X2.7375Y-4.24
X2.7375Y-4.3
X2.7375Y-4.5025
X2.7375Y-4.56
X2.75Y-2.7
X2.8Y-2.8
X2.8Y-3.2
X2.8401Y-4.3962
X2.8405Y-4.6562
X2.86Y-2.7
X2.9Y-2.0
X2.9Y-2.1
X2.9Y-2.2
X2.9Y-2.3
X2.9Y-2.4
X2.9Y-3.1
X2.9Y-3.3
X2.9475Y-4.3725
X2.95Y-2.7
X3.0Y-2.8
X3.0Y-3.2
X3.0362Y-3.9634
X3.04Y-4.6106
X3.0525Y-4.3125
X3.0525Y-4.37
X3.06Y-2.7
X3.0625Y-4.005
X3.0625Y-4.155
X3.1Y-2.0
X3.1Y-2.1
X3.1Y-2.2
X3.1Y-2.3
X3.1Y-2.4
X3.1Y-3.1
X3.1Y-3.3
X3.13Y-3.635
X3.15Y-2.7
X3.15Y-2.8
X3.15Y-2.85
X3.153Y-4.1658
X3.1598Y-4.2644
X3.1619Y-4.2251
X3.1827Y-4.1917
X3.2Y-2.52
X3.2Y-2.56
X3.2Y-2.95
X3.2Y-3.0
X3.2Y-3.2
X3.21Y-3.9425
X3.219Y-4.2519
X3.23Y-3.635
X3.2425Y-4.3515
X3.2425Y-4.395
X3.245Y-4.4375
X3.2454Y-4.5159
X3.25Y-2.52
X3.25Y-2.56
X3.25Y-2.95
X3.25Y-3.0
X3.2538Y-3.9359
X3.2582Y-4.2547
X3.2732Y-4.5437
X3.2913Y-3.9176
X3.2925Y-3.6325
X3.2975Y-4.2575
X3.3Y-2.0
X3.3Y-2.1
X3.3Y-2.2
X3.3Y-2.3
X3.3Y-2.4
X3.3Y-2.52
X3.3Y-2.56
X3.3Y-2.95
X3.3Y-3.0
X3.3Y-3.1
X3.3Y-3.3
X3.3375Y-4.255
X3.35Y-2.52
X3.35Y-2.56
X3.35Y-2.95
X3.35Y-3.0
X3.35Y-3.635
X3.4Y-2.52
X3.4Y-2.56
X3.4Y-2.95
X3.4Y-3.0
X3.4Y-3.2
X3.4125Y-3.6325
X3.45Y-2.52
X3.45Y-2.56
X3.45Y-2.6
X3.45Y-2.64
X3.45Y-2.68
X3.45Y-2.72
X3.45Y-2.8
X3.45Y-2.85
X3.45Y-2.9
X3.45Y-2.95
X3.45Y-3.0
X3.4737Y-4.2175
X3.485Y-4.355
X3.4982Y-4.1867
X3.5Y-2.0
X3.5Y-2.1
X3.5Y-2.2
X3.5Y-2.3
X3.5Y-2.4
X3.5Y-2.5
X3.5Y-2.6
X3.5Y-2.64
X3.5Y-2.68
X3.5Y-2.72
X3.5Y-2.8
X3.5Y-2.85
X3.5Y-2.9
X3.5Y-2.95
X3.5Y-3.1
X3.5Y-3.3
X3.5225Y-3.6325
X3.565Y-4.355
X3.58Y-3.635
X3.6425Y-3.6325
X3.65Y-4.25
X3.65Y-4.3
X3.65Y-4.35
X3.7Y-2.0
X3.7Y-2.1
X3.7Y-2.2
X3.7Y-2.3
X3.7Y-2.4
X3.7Y-2.5
X3.7Y-2.6
X3.7Y-2.7
X3.7Y-2.8
X3.7Y-2.9
X3.7Y-3.0
X3.7Y-3.1
X3.7Y-3.2
X3.7Y-3.3
X3.7Y-3.4
X3.705Y-3.635
X3.76Y-3.635
X3.85Y-4.23
X3.9Y-2.0
X3.9Y-2.1
X3.9Y-2.2
X3.9Y-2.3
X3.9Y-2.4
X3.9Y-2.5
X3.9Y-2.6
X3.9Y-2.7
X3.9Y-2.8
X3.9Y-2.9
X3.9Y-3.0
X3.9Y-3.1
X3.9Y-3.2
X3.9Y-3.3
X3.9Y-3.4
X4.0Y-2.05
X4.0Y-2.1
X4.0Y-2.14
X4.0Y-2.625
X4.0Y-2.675
X4.0Y-2.725
X4.0Y-2.775
X4.0Y-3.25
X4.0Y-3.3
X4.0Y-3.35
X4.0Y-3.4
X4.0075Y-4.3737
X4.05Y-2.35
X4.05Y-2.4
X4.05Y-2.975
X4.05Y-3.025
X4.05Y-3.6
X4.05Y-3.65
X4.0529Y-4.124
X4.0675Y-4.504
X4.0922Y-4.124
X4.1Y-2.35
X4.1Y-2.4
X4.1Y-2.975
X4.1Y-3.025
X4.1Y-3.6
X4.1Y-3.65
X4.1069Y-4.5052
X4.1316Y-4.124
X4.1462Y-4.504
X4.15Y-2.35
X4.15Y-2.4
X4.15Y-2.975
X4.15Y-3.025
X4.15Y-3.6
X4.15Y-3.65
X4.2Y-2.35
X4.2Y-2.4
X4.2Y-2.975
X4.2Y-3.025
X4.2Y-3.6
X4.2Y-3.65
X4.24Y-4.5191
X4.245Y-4.6472
X4.25Y-2.35
X4.25Y-2.4
X4.25Y-2.975
X4.25Y-3.025
X4.25Y-3.6
X4.25Y-3.65
X4.2675Y-4.4115
X4.2725Y-4.4685
X4.2741Y-2.5
X4.2852Y-4.647
X4.295Y-3.9163
X4.32Y-3.155
X4.325Y-2.05
X4.325Y-2.1
X4.325Y-2.135
X4.325Y-2.625
X4.325Y-2.675
X4.325Y-2.725
X4.325Y-2.775
X4.325Y-3.25
X4.325Y-3.3
X4.325Y-3.35
X4.325Y-3.4
X4.3275Y-4.5
X4.39Y-4.3775
X4.3925Y-4.08
X4.3925Y-4.5575
X4.4362Y-4.5666
X4.445Y-4.6289
X4.4673Y-4.5907
X4.5035Y-4.3842
X4.5125Y-2.2441
X4.5125Y-2.5416
X4.5125Y-2.8716
X4.5125Y-4.46
X4.515Y-3.1666
X4.515Y-3.501
X4.5225Y-4.0225
X4.56Y-2.2
X4.56Y-2.24
X4.56Y-2.28
X4.56Y-2.32
X4.56Y-2.36
X4.56Y-2.4
X4.56Y-2.44
X4.56Y-2.82
X4.56Y-2.86
X4.56Y-2.9
X4.56Y-2.94
X4.56Y-2.98
X4.56Y-3.02
X4.56Y-3.06
X4.56Y-3.1
X4.56Y-3.18
X4.56Y-3.48
X4.56Y-3.52
X4.56Y-3.56
X4.56Y-3.6
X4.56Y-3.64
X4.56Y-3.68
X4.56Y-3.72
X4.59Y-4.46
X4.6Y-2.5
X4.6Y-2.62
X4.6Y-2.74
X4.6Y-2.88
X4.6Y-3.0
X4.6Y-3.12
X4.6Y-3.3
X4.6Y-3.42
X4.6Y-3.54
X4.6Y-3.66
X4.606Y-4.5628
X4.63Y-2.06
X4.64Y-2.2
X4.64Y-2.32
X4.64Y-2.44
X4.64Y-2.56
X4.64Y-2.68
X4.64Y-2.82
X4.64Y-2.94
X4.64Y-3.06
X4.64Y-3.18
X4.64Y-3.24
X4.64Y-3.36
X4.64Y-3.48
X4.64Y-3.6
X4.64Y-3.72
X4.6445Y-4.5225
X4.645Y-4.02
X4.675Y-4.275
X4.675Y-4.375
X4.68Y-2.26
X4.68Y-2.38
X4.68Y-2.5
X4.68Y-2.62
X4.68Y-2.74
X4.68Y-2.88
X4.68Y-3.0
X4.68Y-3.12
X4.68Y-3.3
X4.68Y-3.42
X4.68Y-3.54
X4.68Y-3.66
X4.7Y-4.1275
X4.72Y-2.2
X4.72Y-2.32
X4.72Y-2.44
X4.72Y-2.56
X4.72Y-2.68
X4.72Y-2.82
X4.72Y-2.94
X4.72Y-3.06
X4.72Y-3.18
X4.72Y-3.24
X4.72Y-3.36
X4.72Y-3.48
X4.72Y-3.6
X4.725Y-4.275
X4.725Y-4.325
X4.725Y-4.375
X4.73Y-4.6275
X4.76Y-2.38
X4.76Y-2.5
X4.76Y-2.74
X4.76Y-2.88
X4.76Y-3.12
X4.76Y-3.3
X4.76Y-3.54
X4.7625Y-4.0225
X4.775Y-4.275
X4.775Y-4.375
X4.7925Y-4.69
X4.795Y-4.625
X4.8Y-2.44
X4.8Y-2.82
X4.8Y-3.18
X4.8Y-3.24
X4.8Y-3.6
X4.8123Y-4.4777
X4.8225Y-4.083
X4.83Y-4.1306
X4.84Y-2.5
X4.84Y-2.74
X4.84Y-2.88
X4.84Y-3.12
X4.84Y-3.54
X4.84Y-4.2075
X4.85Y-2.29
X4.855Y-3.845
X4.86Y-3.924
X4.875Y-4.4525
X4.88Y-2.44
X4.88Y-2.7
X4.88Y-2.82
X4.88Y-3.18
X4.88Y-3.24
X4.88Y-3.48
X4.88Y-3.6
X4.885Y-4.2575
X4.9075Y-4.5873
X4.9175Y-4.19
X4.92Y-2.5
X4.92Y-2.74
X4.92Y-2.88
X4.92Y-3.06
X4.92Y-3.12
X4.92Y-3.3
X4.92Y-3.42
X4.92Y-3.54
X4.96Y-2.44
X4.96Y-2.7
X4.96Y-2.82
X4.96Y-3.18
X4.96Y-3.24
X4.96Y-3.48
X4.96Y-3.6
X4.9602Y-4.1352
X4.9625Y-4.2125
X4.9726Y-4.6902
X4.995Y-3.924
X4.9961Y-3.8439
X5.0Y-2.5
X5.0Y-2.74
X5.0Y-2.88
X5.0Y-3.12
X5.0Y-3.54
X5.0225Y-4.43
X5.03Y-4.5775
X5.04Y-2.44
X5.04Y-2.82
X5.04Y-3.18
X5.04Y-3.24
X5.04Y-3.6
X5.05Y-4.075
X5.08Y-2.5
X5.08Y-2.74
X5.08Y-2.88
X5.08Y-3.12
X5.08Y-3.3
X5.08Y-3.54
X5.12Y-2.44
X5.12Y-2.56
X5.12Y-2.68
X5.12Y-2.82
X5.12Y-2.94
X5.12Y-3.06
X5.12Y-3.18
X5.12Y-3.24
X5.12Y-3.36
X5.12Y-3.48
X5.12Y-3.6
X5.1365Y-4.606
X5.16Y-2.5
X5.16Y-2.62
X5.16Y-2.74
X5.16Y-2.88
X5.16Y-3.0
X5.16Y-3.12
X5.16Y-3.3
X5.16Y-3.42
X5.16Y-3.54
X5.1725Y-4.2125
X5.175Y-4.0875
X5.1975Y-4.595
X5.3215Y-4.2275
X5.345Y-4.4775
X5.355Y-4.01
X5.355Y-4.13
X5.356Y-3.886
X5.3865Y-4.3035
X5.395Y-3.81
X5.4Y-2.9
X5.405Y-4.371
X5.41Y-4.6625
X5.42Y-2.58
X5.4424Y-4.3833
X5.4575Y-3.7125
X5.475Y-4.6625
X5.5Y-3.3
X5.54Y-4.665
X5.57Y-4.18
X5.6Y-2.0
X5.62Y-4.35
X5.626Y-3.749
X5.69Y-3.055
X5.77Y-3.72
X5.79Y-3.31
X5.8Y-2.7
X5.8Y-3.6
X5.86Y-2.28
T3
X5.6201Y-4.5276
X5.646Y-4.4649
X5.646Y-4.5902
X5.7087Y-4.439
X5.7087Y-4.6161
X5.7713Y-4.4649
X5.7713Y-4.5902
X5.7972Y-4.5276
X5.6201Y-2.1654
X5.646Y-2.1027
X5.646Y-2.228
X5.7087Y-2.0768
X5.7087Y-2.2539
X5.7713Y-2.1027
X5.7713Y-2.228
X5.7972Y-2.1654
X2.0768Y-4.5276
X2.1027Y-4.4649
X2.1027Y-4.5902
X2.1654Y-4.439
X2.1654Y-4.6161
X2.228Y-4.4649
X2.228Y-4.5902
X2.2539Y-4.5276
X2.0768Y-2.1654
X2.1027Y-2.1027
X2.1027Y-2.228
X2.1654Y-2.0768
X2.1654Y-2.2539
X2.228Y-2.1027
X2.228Y-2.228
X2.2539Y-2.1654
T4
X5.2025Y-4.41
X5.2025Y-4.46
X5.2025Y-4.51
X5.2525Y-4.41
X5.2525Y-4.46
X5.2525Y-4.51
T5
X2.265Y-3.9497
X2.265Y-4.0481
X2.265Y-4.1466
X2.265Y-4.245
T6
X3.9173Y-4.0748
X2.8125Y-4.0825
X3.3858Y-3.5433
X5.1339Y-3.7677
X2.9487Y-3.6673
X2.9487Y-3.8051
X2.8141Y-3.9464
X3.5433Y-3.5433
X3.9173Y-3.878
X3.189Y-3.5433
X2.95Y-4.0814
X5.2717Y-3.7677
X4.8583Y-3.7677
X2.95Y-3.9425
X4.215Y-4.1125
X2.9487Y-3.5295
X4.9961Y-3.7677
X3.7402Y-3.5433
T7
X4.8188Y-2.6056
X4.8188Y-2.9993
X4.8188Y-3.393
X5.0157Y-2.6056
X5.0157Y-2.9993
X5.0157Y-3.393
X2.8643Y-2.5632
X2.8643Y-2.953
X3.0612Y-2.5632
X3.0612Y-2.9569
T8
X5.7087Y-2.1654
X2.1654Y-4.5276
X2.1654Y-2.1654
X5.7087Y-4.5289
T0
M30
