%TF.GenerationSoftware,KiCad,Pcbnew,(5.1.8)-1*%
%TF.CreationDate,2021-03-09T13:11:08-05:00*%
%TF.ProjectId,DRV8353S_dev_board,44525638-3335-4335-935f-6465765f626f,rev?*%
%TF.SameCoordinates,Original*%
%TF.FileFunction,Legend,Top*%
%TF.FilePolarity,Positive*%
%FSLAX46Y46*%
G04 Gerber Fmt 4.6, Leading zero omitted, Abs format (unit mm)*
G04 Created by KiCad (PCBNEW (5.1.8)-1) date 2021-03-09 13:11:08*
%MOMM*%
%LPD*%
G01*
G04 APERTURE LIST*
%ADD10C,0.152400*%
%ADD11C,0.010000*%
%ADD12C,0.120000*%
%ADD13C,0.150000*%
G04 APERTURE END LIST*
D10*
X118656583Y-51320095D02*
X118656583Y-50507295D01*
X118850107Y-50507295D01*
X118966221Y-50546000D01*
X119043631Y-50623409D01*
X119082336Y-50700819D01*
X119121040Y-50855638D01*
X119121040Y-50971752D01*
X119082336Y-51126571D01*
X119043631Y-51203980D01*
X118966221Y-51281390D01*
X118850107Y-51320095D01*
X118656583Y-51320095D01*
X119933840Y-51320095D02*
X119662907Y-50933047D01*
X119469383Y-51320095D02*
X119469383Y-50507295D01*
X119779021Y-50507295D01*
X119856431Y-50546000D01*
X119895136Y-50584704D01*
X119933840Y-50662114D01*
X119933840Y-50778228D01*
X119895136Y-50855638D01*
X119856431Y-50894342D01*
X119779021Y-50933047D01*
X119469383Y-50933047D01*
X120166069Y-50507295D02*
X120437002Y-51320095D01*
X120707936Y-50507295D01*
X121094983Y-50855638D02*
X121017574Y-50816933D01*
X120978869Y-50778228D01*
X120940164Y-50700819D01*
X120940164Y-50662114D01*
X120978869Y-50584704D01*
X121017574Y-50546000D01*
X121094983Y-50507295D01*
X121249802Y-50507295D01*
X121327212Y-50546000D01*
X121365917Y-50584704D01*
X121404621Y-50662114D01*
X121404621Y-50700819D01*
X121365917Y-50778228D01*
X121327212Y-50816933D01*
X121249802Y-50855638D01*
X121094983Y-50855638D01*
X121017574Y-50894342D01*
X120978869Y-50933047D01*
X120940164Y-51010457D01*
X120940164Y-51165276D01*
X120978869Y-51242685D01*
X121017574Y-51281390D01*
X121094983Y-51320095D01*
X121249802Y-51320095D01*
X121327212Y-51281390D01*
X121365917Y-51242685D01*
X121404621Y-51165276D01*
X121404621Y-51010457D01*
X121365917Y-50933047D01*
X121327212Y-50894342D01*
X121249802Y-50855638D01*
X121675555Y-50507295D02*
X122178717Y-50507295D01*
X121907783Y-50816933D01*
X122023898Y-50816933D01*
X122101307Y-50855638D01*
X122140012Y-50894342D01*
X122178717Y-50971752D01*
X122178717Y-51165276D01*
X122140012Y-51242685D01*
X122101307Y-51281390D01*
X122023898Y-51320095D01*
X121791669Y-51320095D01*
X121714260Y-51281390D01*
X121675555Y-51242685D01*
X122914107Y-50507295D02*
X122527060Y-50507295D01*
X122488355Y-50894342D01*
X122527060Y-50855638D01*
X122604469Y-50816933D01*
X122797993Y-50816933D01*
X122875402Y-50855638D01*
X122914107Y-50894342D01*
X122952812Y-50971752D01*
X122952812Y-51165276D01*
X122914107Y-51242685D01*
X122875402Y-51281390D01*
X122797993Y-51320095D01*
X122604469Y-51320095D01*
X122527060Y-51281390D01*
X122488355Y-51242685D01*
X123223745Y-50507295D02*
X123726907Y-50507295D01*
X123455974Y-50816933D01*
X123572088Y-50816933D01*
X123649498Y-50855638D01*
X123688202Y-50894342D01*
X123726907Y-50971752D01*
X123726907Y-51165276D01*
X123688202Y-51242685D01*
X123649498Y-51281390D01*
X123572088Y-51320095D01*
X123339860Y-51320095D01*
X123262450Y-51281390D01*
X123223745Y-51242685D01*
X124036545Y-51281390D02*
X124152660Y-51320095D01*
X124346183Y-51320095D01*
X124423593Y-51281390D01*
X124462298Y-51242685D01*
X124501002Y-51165276D01*
X124501002Y-51087866D01*
X124462298Y-51010457D01*
X124423593Y-50971752D01*
X124346183Y-50933047D01*
X124191364Y-50894342D01*
X124113955Y-50855638D01*
X124075250Y-50816933D01*
X124036545Y-50739523D01*
X124036545Y-50662114D01*
X124075250Y-50584704D01*
X124113955Y-50546000D01*
X124191364Y-50507295D01*
X124384888Y-50507295D01*
X124501002Y-50546000D01*
X124849345Y-51320095D02*
X124849345Y-50507295D01*
X125120279Y-51087866D01*
X125391212Y-50507295D01*
X125391212Y-51320095D01*
X126397536Y-50894342D02*
X126668469Y-50894342D01*
X126784583Y-51320095D02*
X126397536Y-51320095D01*
X126397536Y-50507295D01*
X126784583Y-50507295D01*
X127055517Y-50778228D02*
X127249040Y-51320095D01*
X127442564Y-50778228D01*
X128100545Y-51320095D02*
X128100545Y-50894342D01*
X128061840Y-50816933D01*
X127984431Y-50778228D01*
X127829612Y-50778228D01*
X127752202Y-50816933D01*
X128100545Y-51281390D02*
X128023136Y-51320095D01*
X127829612Y-51320095D01*
X127752202Y-51281390D01*
X127713498Y-51203980D01*
X127713498Y-51126571D01*
X127752202Y-51049161D01*
X127829612Y-51010457D01*
X128023136Y-51010457D01*
X128100545Y-50971752D01*
X128603707Y-51320095D02*
X128526298Y-51281390D01*
X128487593Y-51203980D01*
X128487593Y-50507295D01*
X129261688Y-50778228D02*
X129261688Y-51320095D01*
X128913345Y-50778228D02*
X128913345Y-51203980D01*
X128952050Y-51281390D01*
X129029460Y-51320095D01*
X129145574Y-51320095D01*
X129222983Y-51281390D01*
X129261688Y-51242685D01*
X129997079Y-51320095D02*
X129997079Y-50894342D01*
X129958374Y-50816933D01*
X129880964Y-50778228D01*
X129726145Y-50778228D01*
X129648736Y-50816933D01*
X129997079Y-51281390D02*
X129919669Y-51320095D01*
X129726145Y-51320095D01*
X129648736Y-51281390D01*
X129610031Y-51203980D01*
X129610031Y-51126571D01*
X129648736Y-51049161D01*
X129726145Y-51010457D01*
X129919669Y-51010457D01*
X129997079Y-50971752D01*
X130268012Y-50778228D02*
X130577650Y-50778228D01*
X130384126Y-50507295D02*
X130384126Y-51203980D01*
X130422831Y-51281390D01*
X130500240Y-51320095D01*
X130577650Y-51320095D01*
X130848583Y-51320095D02*
X130848583Y-50778228D01*
X130848583Y-50507295D02*
X130809879Y-50546000D01*
X130848583Y-50584704D01*
X130887288Y-50546000D01*
X130848583Y-50507295D01*
X130848583Y-50584704D01*
X131351745Y-51320095D02*
X131274336Y-51281390D01*
X131235631Y-51242685D01*
X131196926Y-51165276D01*
X131196926Y-50933047D01*
X131235631Y-50855638D01*
X131274336Y-50816933D01*
X131351745Y-50778228D01*
X131467860Y-50778228D01*
X131545269Y-50816933D01*
X131583974Y-50855638D01*
X131622679Y-50933047D01*
X131622679Y-51165276D01*
X131583974Y-51242685D01*
X131545269Y-51281390D01*
X131467860Y-51320095D01*
X131351745Y-51320095D01*
X131971021Y-50778228D02*
X131971021Y-51320095D01*
X131971021Y-50855638D02*
X132009726Y-50816933D01*
X132087136Y-50778228D01*
X132203250Y-50778228D01*
X132280660Y-50816933D01*
X132319364Y-50894342D01*
X132319364Y-51320095D01*
X133596621Y-50894342D02*
X133712736Y-50933047D01*
X133751440Y-50971752D01*
X133790145Y-51049161D01*
X133790145Y-51165276D01*
X133751440Y-51242685D01*
X133712736Y-51281390D01*
X133635326Y-51320095D01*
X133325688Y-51320095D01*
X133325688Y-50507295D01*
X133596621Y-50507295D01*
X133674031Y-50546000D01*
X133712736Y-50584704D01*
X133751440Y-50662114D01*
X133751440Y-50739523D01*
X133712736Y-50816933D01*
X133674031Y-50855638D01*
X133596621Y-50894342D01*
X133325688Y-50894342D01*
X134254602Y-51320095D02*
X134177193Y-51281390D01*
X134138488Y-51242685D01*
X134099783Y-51165276D01*
X134099783Y-50933047D01*
X134138488Y-50855638D01*
X134177193Y-50816933D01*
X134254602Y-50778228D01*
X134370717Y-50778228D01*
X134448126Y-50816933D01*
X134486831Y-50855638D01*
X134525536Y-50933047D01*
X134525536Y-51165276D01*
X134486831Y-51242685D01*
X134448126Y-51281390D01*
X134370717Y-51320095D01*
X134254602Y-51320095D01*
X135222221Y-51320095D02*
X135222221Y-50894342D01*
X135183517Y-50816933D01*
X135106107Y-50778228D01*
X134951288Y-50778228D01*
X134873879Y-50816933D01*
X135222221Y-51281390D02*
X135144812Y-51320095D01*
X134951288Y-51320095D01*
X134873879Y-51281390D01*
X134835174Y-51203980D01*
X134835174Y-51126571D01*
X134873879Y-51049161D01*
X134951288Y-51010457D01*
X135144812Y-51010457D01*
X135222221Y-50971752D01*
X135609269Y-51320095D02*
X135609269Y-50778228D01*
X135609269Y-50933047D02*
X135647974Y-50855638D01*
X135686679Y-50816933D01*
X135764088Y-50778228D01*
X135841498Y-50778228D01*
X136460774Y-51320095D02*
X136460774Y-50507295D01*
X136460774Y-51281390D02*
X136383364Y-51320095D01*
X136228545Y-51320095D01*
X136151136Y-51281390D01*
X136112431Y-51242685D01*
X136073726Y-51165276D01*
X136073726Y-50933047D01*
X136112431Y-50855638D01*
X136151136Y-50816933D01*
X136228545Y-50778228D01*
X136383364Y-50778228D01*
X136460774Y-50816933D01*
X118656583Y-52691695D02*
X118656583Y-51878895D01*
X118850107Y-51878895D01*
X118966221Y-51917600D01*
X119043631Y-51995009D01*
X119082336Y-52072419D01*
X119121040Y-52227238D01*
X119121040Y-52343352D01*
X119082336Y-52498171D01*
X119043631Y-52575580D01*
X118966221Y-52652990D01*
X118850107Y-52691695D01*
X118656583Y-52691695D01*
X119779021Y-52652990D02*
X119701612Y-52691695D01*
X119546793Y-52691695D01*
X119469383Y-52652990D01*
X119430679Y-52575580D01*
X119430679Y-52265942D01*
X119469383Y-52188533D01*
X119546793Y-52149828D01*
X119701612Y-52149828D01*
X119779021Y-52188533D01*
X119817726Y-52265942D01*
X119817726Y-52343352D01*
X119430679Y-52420761D01*
X120127364Y-52652990D02*
X120204774Y-52691695D01*
X120359593Y-52691695D01*
X120437002Y-52652990D01*
X120475707Y-52575580D01*
X120475707Y-52536876D01*
X120437002Y-52459466D01*
X120359593Y-52420761D01*
X120243479Y-52420761D01*
X120166069Y-52382057D01*
X120127364Y-52304647D01*
X120127364Y-52265942D01*
X120166069Y-52188533D01*
X120243479Y-52149828D01*
X120359593Y-52149828D01*
X120437002Y-52188533D01*
X120824050Y-52691695D02*
X120824050Y-52149828D01*
X120824050Y-51878895D02*
X120785345Y-51917600D01*
X120824050Y-51956304D01*
X120862755Y-51917600D01*
X120824050Y-51878895D01*
X120824050Y-51956304D01*
X121559440Y-52149828D02*
X121559440Y-52807809D01*
X121520736Y-52885219D01*
X121482031Y-52923923D01*
X121404621Y-52962628D01*
X121288507Y-52962628D01*
X121211098Y-52923923D01*
X121559440Y-52652990D02*
X121482031Y-52691695D01*
X121327212Y-52691695D01*
X121249802Y-52652990D01*
X121211098Y-52614285D01*
X121172393Y-52536876D01*
X121172393Y-52304647D01*
X121211098Y-52227238D01*
X121249802Y-52188533D01*
X121327212Y-52149828D01*
X121482031Y-52149828D01*
X121559440Y-52188533D01*
X121946488Y-52149828D02*
X121946488Y-52691695D01*
X121946488Y-52227238D02*
X121985193Y-52188533D01*
X122062602Y-52149828D01*
X122178717Y-52149828D01*
X122256126Y-52188533D01*
X122294831Y-52265942D01*
X122294831Y-52691695D01*
X122991517Y-52652990D02*
X122914107Y-52691695D01*
X122759288Y-52691695D01*
X122681879Y-52652990D01*
X122643174Y-52575580D01*
X122643174Y-52265942D01*
X122681879Y-52188533D01*
X122759288Y-52149828D01*
X122914107Y-52149828D01*
X122991517Y-52188533D01*
X123030221Y-52265942D01*
X123030221Y-52343352D01*
X122643174Y-52420761D01*
X123726907Y-52691695D02*
X123726907Y-51878895D01*
X123726907Y-52652990D02*
X123649498Y-52691695D01*
X123494679Y-52691695D01*
X123417269Y-52652990D01*
X123378564Y-52614285D01*
X123339860Y-52536876D01*
X123339860Y-52304647D01*
X123378564Y-52227238D01*
X123417269Y-52188533D01*
X123494679Y-52149828D01*
X123649498Y-52149828D01*
X123726907Y-52188533D01*
X124733231Y-52691695D02*
X124733231Y-51878895D01*
X124733231Y-52188533D02*
X124810640Y-52149828D01*
X124965460Y-52149828D01*
X125042869Y-52188533D01*
X125081574Y-52227238D01*
X125120279Y-52304647D01*
X125120279Y-52536876D01*
X125081574Y-52614285D01*
X125042869Y-52652990D01*
X124965460Y-52691695D01*
X124810640Y-52691695D01*
X124733231Y-52652990D01*
X125391212Y-52149828D02*
X125584736Y-52691695D01*
X125778260Y-52149828D02*
X125584736Y-52691695D01*
X125507326Y-52885219D01*
X125468621Y-52923923D01*
X125391212Y-52962628D01*
X126087898Y-52614285D02*
X126126602Y-52652990D01*
X126087898Y-52691695D01*
X126049193Y-52652990D01*
X126087898Y-52614285D01*
X126087898Y-52691695D01*
X126087898Y-52188533D02*
X126126602Y-52227238D01*
X126087898Y-52265942D01*
X126049193Y-52227238D01*
X126087898Y-52188533D01*
X126087898Y-52265942D01*
X127365155Y-52265942D02*
X127094221Y-52265942D01*
X127094221Y-52691695D02*
X127094221Y-51878895D01*
X127481269Y-51878895D01*
X127790907Y-52691695D02*
X127790907Y-52149828D01*
X127790907Y-52304647D02*
X127829612Y-52227238D01*
X127868317Y-52188533D01*
X127945726Y-52149828D01*
X128023136Y-52149828D01*
X128642412Y-52691695D02*
X128642412Y-52265942D01*
X128603707Y-52188533D01*
X128526298Y-52149828D01*
X128371479Y-52149828D01*
X128294069Y-52188533D01*
X128642412Y-52652990D02*
X128565002Y-52691695D01*
X128371479Y-52691695D01*
X128294069Y-52652990D01*
X128255364Y-52575580D01*
X128255364Y-52498171D01*
X128294069Y-52420761D01*
X128371479Y-52382057D01*
X128565002Y-52382057D01*
X128642412Y-52343352D01*
X129029460Y-52149828D02*
X129029460Y-52691695D01*
X129029460Y-52227238D02*
X129068164Y-52188533D01*
X129145574Y-52149828D01*
X129261688Y-52149828D01*
X129339098Y-52188533D01*
X129377802Y-52265942D01*
X129377802Y-52691695D01*
X130113193Y-52652990D02*
X130035783Y-52691695D01*
X129880964Y-52691695D01*
X129803555Y-52652990D01*
X129764850Y-52614285D01*
X129726145Y-52536876D01*
X129726145Y-52304647D01*
X129764850Y-52227238D01*
X129803555Y-52188533D01*
X129880964Y-52149828D01*
X130035783Y-52149828D01*
X130113193Y-52188533D01*
X130461536Y-52691695D02*
X130461536Y-52149828D01*
X130461536Y-51878895D02*
X130422831Y-51917600D01*
X130461536Y-51956304D01*
X130500240Y-51917600D01*
X130461536Y-51878895D01*
X130461536Y-51956304D01*
X130809879Y-52652990D02*
X130887288Y-52691695D01*
X131042107Y-52691695D01*
X131119517Y-52652990D01*
X131158221Y-52575580D01*
X131158221Y-52536876D01*
X131119517Y-52459466D01*
X131042107Y-52420761D01*
X130925993Y-52420761D01*
X130848583Y-52382057D01*
X130809879Y-52304647D01*
X130809879Y-52265942D01*
X130848583Y-52188533D01*
X130925993Y-52149828D01*
X131042107Y-52149828D01*
X131119517Y-52188533D01*
X132048431Y-51878895D02*
X132241955Y-52691695D01*
X132396774Y-52111123D01*
X132551593Y-52691695D01*
X132745117Y-51878895D01*
X133403098Y-52691695D02*
X133403098Y-52265942D01*
X133364393Y-52188533D01*
X133286983Y-52149828D01*
X133132164Y-52149828D01*
X133054755Y-52188533D01*
X133403098Y-52652990D02*
X133325688Y-52691695D01*
X133132164Y-52691695D01*
X133054755Y-52652990D01*
X133016050Y-52575580D01*
X133016050Y-52498171D01*
X133054755Y-52420761D01*
X133132164Y-52382057D01*
X133325688Y-52382057D01*
X133403098Y-52343352D01*
X133906260Y-52691695D02*
X133828850Y-52652990D01*
X133790145Y-52575580D01*
X133790145Y-51878895D01*
X134177193Y-52652990D02*
X134254602Y-52691695D01*
X134409421Y-52691695D01*
X134486831Y-52652990D01*
X134525536Y-52575580D01*
X134525536Y-52536876D01*
X134486831Y-52459466D01*
X134409421Y-52420761D01*
X134293307Y-52420761D01*
X134215898Y-52382057D01*
X134177193Y-52304647D01*
X134177193Y-52265942D01*
X134215898Y-52188533D01*
X134293307Y-52149828D01*
X134409421Y-52149828D01*
X134486831Y-52188533D01*
X134873879Y-52691695D02*
X134873879Y-51878895D01*
X135222221Y-52691695D02*
X135222221Y-52265942D01*
X135183517Y-52188533D01*
X135106107Y-52149828D01*
X134989993Y-52149828D01*
X134912583Y-52188533D01*
X134873879Y-52227238D01*
X118656583Y-54063295D02*
X118656583Y-53250495D01*
X118927517Y-53831066D01*
X119198450Y-53250495D01*
X119198450Y-54063295D01*
X119933840Y-54063295D02*
X119933840Y-53637542D01*
X119895136Y-53560133D01*
X119817726Y-53521428D01*
X119662907Y-53521428D01*
X119585498Y-53560133D01*
X119933840Y-54024590D02*
X119856431Y-54063295D01*
X119662907Y-54063295D01*
X119585498Y-54024590D01*
X119546793Y-53947180D01*
X119546793Y-53869771D01*
X119585498Y-53792361D01*
X119662907Y-53753657D01*
X119856431Y-53753657D01*
X119933840Y-53714952D01*
X120320888Y-54063295D02*
X120320888Y-53521428D01*
X120320888Y-53676247D02*
X120359593Y-53598838D01*
X120398298Y-53560133D01*
X120475707Y-53521428D01*
X120553117Y-53521428D01*
X121172393Y-54024590D02*
X121094983Y-54063295D01*
X120940164Y-54063295D01*
X120862755Y-54024590D01*
X120824050Y-53985885D01*
X120785345Y-53908476D01*
X120785345Y-53676247D01*
X120824050Y-53598838D01*
X120862755Y-53560133D01*
X120940164Y-53521428D01*
X121094983Y-53521428D01*
X121172393Y-53560133D01*
X121520736Y-54063295D02*
X121520736Y-53250495D01*
X121869079Y-54063295D02*
X121869079Y-53637542D01*
X121830374Y-53560133D01*
X121752964Y-53521428D01*
X121636850Y-53521428D01*
X121559440Y-53560133D01*
X121520736Y-53598838D01*
X122294831Y-54024590D02*
X122294831Y-54063295D01*
X122256126Y-54140704D01*
X122217421Y-54179409D01*
X123223745Y-53327904D02*
X123262450Y-53289200D01*
X123339860Y-53250495D01*
X123533383Y-53250495D01*
X123610793Y-53289200D01*
X123649498Y-53327904D01*
X123688202Y-53405314D01*
X123688202Y-53482723D01*
X123649498Y-53598838D01*
X123185040Y-54063295D01*
X123688202Y-54063295D01*
X124191364Y-53250495D02*
X124268774Y-53250495D01*
X124346183Y-53289200D01*
X124384888Y-53327904D01*
X124423593Y-53405314D01*
X124462298Y-53560133D01*
X124462298Y-53753657D01*
X124423593Y-53908476D01*
X124384888Y-53985885D01*
X124346183Y-54024590D01*
X124268774Y-54063295D01*
X124191364Y-54063295D01*
X124113955Y-54024590D01*
X124075250Y-53985885D01*
X124036545Y-53908476D01*
X123997840Y-53753657D01*
X123997840Y-53560133D01*
X124036545Y-53405314D01*
X124075250Y-53327904D01*
X124113955Y-53289200D01*
X124191364Y-53250495D01*
X124771936Y-53327904D02*
X124810640Y-53289200D01*
X124888050Y-53250495D01*
X125081574Y-53250495D01*
X125158983Y-53289200D01*
X125197688Y-53327904D01*
X125236393Y-53405314D01*
X125236393Y-53482723D01*
X125197688Y-53598838D01*
X124733231Y-54063295D01*
X125236393Y-54063295D01*
X126010488Y-54063295D02*
X125546031Y-54063295D01*
X125778260Y-54063295D02*
X125778260Y-53250495D01*
X125700850Y-53366609D01*
X125623440Y-53444019D01*
X125546031Y-53482723D01*
D11*
%TO.C,G\u002A\u002A\u002A*%
G36*
X130576645Y-57550173D02*
G01*
X130638237Y-57577191D01*
X130667564Y-57620038D01*
X130666576Y-57662317D01*
X130646831Y-57704150D01*
X130624792Y-57723525D01*
X130578612Y-57735748D01*
X130518605Y-57744980D01*
X130458580Y-57749963D01*
X130412352Y-57749440D01*
X130394808Y-57744454D01*
X130386198Y-57717609D01*
X130380929Y-57666214D01*
X130380154Y-57635205D01*
X130380154Y-57540769D01*
X130485451Y-57540769D01*
X130576645Y-57550173D01*
G37*
X130576645Y-57550173D02*
X130638237Y-57577191D01*
X130667564Y-57620038D01*
X130666576Y-57662317D01*
X130646831Y-57704150D01*
X130624792Y-57723525D01*
X130578612Y-57735748D01*
X130518605Y-57744980D01*
X130458580Y-57749963D01*
X130412352Y-57749440D01*
X130394808Y-57744454D01*
X130386198Y-57717609D01*
X130380929Y-57666214D01*
X130380154Y-57635205D01*
X130380154Y-57540769D01*
X130485451Y-57540769D01*
X130576645Y-57550173D01*
G36*
X132384150Y-57708025D02*
G01*
X132408507Y-57756481D01*
X132430010Y-57809423D01*
X132470199Y-57912000D01*
X132370702Y-57912000D01*
X132312665Y-57910375D01*
X132285672Y-57903376D01*
X132281751Y-57887817D01*
X132285130Y-57877807D01*
X132300038Y-57838663D01*
X132320817Y-57781264D01*
X132328661Y-57759032D01*
X132348074Y-57711213D01*
X132365288Y-57693573D01*
X132384150Y-57708025D01*
G37*
X132384150Y-57708025D02*
X132408507Y-57756481D01*
X132430010Y-57809423D01*
X132470199Y-57912000D01*
X132370702Y-57912000D01*
X132312665Y-57910375D01*
X132285672Y-57903376D01*
X132281751Y-57887817D01*
X132285130Y-57877807D01*
X132300038Y-57838663D01*
X132320817Y-57781264D01*
X132328661Y-57759032D01*
X132348074Y-57711213D01*
X132365288Y-57693573D01*
X132384150Y-57708025D01*
G36*
X129350832Y-57556821D02*
G01*
X129432414Y-57603437D01*
X129488545Y-57678308D01*
X129517064Y-57779124D01*
X129520316Y-57833846D01*
X129505986Y-57944340D01*
X129463896Y-58030080D01*
X129395396Y-58088618D01*
X129374123Y-58098791D01*
X129301507Y-58118259D01*
X129218761Y-58125032D01*
X129146001Y-58117929D01*
X129129693Y-58113124D01*
X129058103Y-58067889D01*
X129000411Y-57995320D01*
X128963591Y-57906545D01*
X128953846Y-57832592D01*
X128971230Y-57727068D01*
X129020076Y-57640663D01*
X129095432Y-57578325D01*
X129192342Y-57545004D01*
X129245962Y-57540769D01*
X129350832Y-57556821D01*
G37*
X129350832Y-57556821D02*
X129432414Y-57603437D01*
X129488545Y-57678308D01*
X129517064Y-57779124D01*
X129520316Y-57833846D01*
X129505986Y-57944340D01*
X129463896Y-58030080D01*
X129395396Y-58088618D01*
X129374123Y-58098791D01*
X129301507Y-58118259D01*
X129218761Y-58125032D01*
X129146001Y-58117929D01*
X129129693Y-58113124D01*
X129058103Y-58067889D01*
X129000411Y-57995320D01*
X128963591Y-57906545D01*
X128953846Y-57832592D01*
X128971230Y-57727068D01*
X129020076Y-57640663D01*
X129095432Y-57578325D01*
X129192342Y-57545004D01*
X129245962Y-57540769D01*
X129350832Y-57556821D01*
G36*
X132590887Y-58212297D02*
G01*
X132626424Y-58302769D01*
X132119730Y-58302769D01*
X132155268Y-58212297D01*
X132190805Y-58121826D01*
X132555349Y-58121826D01*
X132590887Y-58212297D01*
G37*
X132590887Y-58212297D02*
X132626424Y-58302769D01*
X132119730Y-58302769D01*
X132155268Y-58212297D01*
X132190805Y-58121826D01*
X132555349Y-58121826D01*
X132590887Y-58212297D01*
G36*
X130452196Y-57936308D02*
G01*
X130475722Y-57954587D01*
X130503203Y-57992330D01*
X130539246Y-58055491D01*
X130571590Y-58117154D01*
X130667298Y-58302769D01*
X130380154Y-58302769D01*
X130380154Y-58117154D01*
X130380515Y-58031161D01*
X130382855Y-57976927D01*
X130389062Y-57947131D01*
X130401022Y-57934457D01*
X130420624Y-57931583D01*
X130428019Y-57931538D01*
X130452196Y-57936308D01*
G37*
X130452196Y-57936308D02*
X130475722Y-57954587D01*
X130503203Y-57992330D01*
X130539246Y-58055491D01*
X130571590Y-58117154D01*
X130667298Y-58302769D01*
X130380154Y-58302769D01*
X130380154Y-58117154D01*
X130380515Y-58031161D01*
X130382855Y-57976927D01*
X130389062Y-57947131D01*
X130401022Y-57934457D01*
X130420624Y-57931583D01*
X130428019Y-57931538D01*
X130452196Y-57936308D01*
G36*
X128089084Y-57675309D02*
G01*
X128091237Y-57723872D01*
X128092893Y-57799120D01*
X128093906Y-57894858D01*
X128094154Y-57977128D01*
X128094154Y-58302769D01*
X127861597Y-58302769D01*
X127970303Y-57985269D01*
X128006337Y-57880799D01*
X128038218Y-57789832D01*
X128063736Y-57718555D01*
X128080683Y-57673156D01*
X128086582Y-57659628D01*
X128089084Y-57675309D01*
G37*
X128089084Y-57675309D02*
X128091237Y-57723872D01*
X128092893Y-57799120D01*
X128093906Y-57894858D01*
X128094154Y-57977128D01*
X128094154Y-58302769D01*
X127861597Y-58302769D01*
X127970303Y-57985269D01*
X128006337Y-57880799D01*
X128038218Y-57789832D01*
X128063736Y-57718555D01*
X128080683Y-57673156D01*
X128086582Y-57659628D01*
X128089084Y-57675309D01*
G36*
X127473644Y-57685713D02*
G01*
X127493457Y-57743610D01*
X127520953Y-57824804D01*
X127553794Y-57922406D01*
X127578125Y-57995038D01*
X127681022Y-58302769D01*
X127449385Y-58302769D01*
X127450927Y-57965730D01*
X127452038Y-57858446D01*
X127454170Y-57768602D01*
X127457087Y-57701787D01*
X127460556Y-57663587D01*
X127463848Y-57658000D01*
X127473644Y-57685713D01*
G37*
X127473644Y-57685713D02*
X127493457Y-57743610D01*
X127520953Y-57824804D01*
X127553794Y-57922406D01*
X127578125Y-57995038D01*
X127681022Y-58302769D01*
X127449385Y-58302769D01*
X127450927Y-57965730D01*
X127452038Y-57858446D01*
X127454170Y-57768602D01*
X127457087Y-57701787D01*
X127460556Y-57663587D01*
X127463848Y-57658000D01*
X127473644Y-57685713D01*
G36*
X125430652Y-57676114D02*
G01*
X125433314Y-57724291D01*
X125435362Y-57799216D01*
X125436615Y-57894725D01*
X125436923Y-57977128D01*
X125436923Y-58302769D01*
X125205302Y-58302769D01*
X125311749Y-57986491D01*
X125347258Y-57882018D01*
X125378857Y-57790985D01*
X125404323Y-57719643D01*
X125421434Y-57674243D01*
X125427560Y-57660850D01*
X125430652Y-57676114D01*
G37*
X125430652Y-57676114D02*
X125433314Y-57724291D01*
X125435362Y-57799216D01*
X125436615Y-57894725D01*
X125436923Y-57977128D01*
X125436923Y-58302769D01*
X125205302Y-58302769D01*
X125311749Y-57986491D01*
X125347258Y-57882018D01*
X125378857Y-57790985D01*
X125404323Y-57719643D01*
X125421434Y-57674243D01*
X125427560Y-57660850D01*
X125430652Y-57676114D01*
G36*
X124808211Y-57660412D02*
G01*
X124826505Y-57711771D01*
X124852671Y-57788041D01*
X124884603Y-57883095D01*
X124915171Y-57975500D01*
X125022706Y-58302769D01*
X124792154Y-58302769D01*
X124792154Y-57967359D01*
X124792579Y-57858516D01*
X124793755Y-57765364D01*
X124795540Y-57694014D01*
X124797788Y-57650576D01*
X124799895Y-57640089D01*
X124808211Y-57660412D01*
G37*
X124808211Y-57660412D02*
X124826505Y-57711771D01*
X124852671Y-57788041D01*
X124884603Y-57883095D01*
X124915171Y-57975500D01*
X125022706Y-58302769D01*
X124792154Y-58302769D01*
X124792154Y-57967359D01*
X124792579Y-57858516D01*
X124793755Y-57765364D01*
X124795540Y-57694014D01*
X124797788Y-57650576D01*
X124799895Y-57640089D01*
X124808211Y-57660412D01*
G36*
X133585039Y-53652221D02*
G01*
X133635986Y-53652510D01*
X133679266Y-53652615D01*
X134053385Y-53652615D01*
X134053385Y-58302769D01*
X133858000Y-58302769D01*
X133858000Y-58107384D01*
X133468075Y-58107384D01*
X133462768Y-57731269D01*
X133457462Y-57355154D01*
X133242539Y-57355154D01*
X133242539Y-58302785D01*
X133064950Y-58302777D01*
X132887362Y-58302769D01*
X132777555Y-58053654D01*
X132725605Y-57935368D01*
X132668099Y-57803747D01*
X132612466Y-57675826D01*
X132570957Y-57579846D01*
X132474166Y-57355154D01*
X132385358Y-57349232D01*
X132324120Y-57349355D01*
X132289068Y-57362226D01*
X132275013Y-57378539D01*
X132261436Y-57405777D01*
X132234783Y-57463509D01*
X132197465Y-57546350D01*
X132151893Y-57648919D01*
X132100479Y-57765831D01*
X132062278Y-57853384D01*
X131871081Y-58293000D01*
X131702351Y-58298640D01*
X131533622Y-58304280D01*
X131523154Y-57355154D01*
X131298462Y-57343434D01*
X131298462Y-58302769D01*
X130936844Y-58302769D01*
X130822572Y-58112582D01*
X130773491Y-58029632D01*
X130742941Y-57973519D01*
X130728546Y-57938068D01*
X130727928Y-57917102D01*
X130738709Y-57904445D01*
X130741728Y-57902543D01*
X130820065Y-57847104D01*
X130868429Y-57788654D01*
X130890212Y-57736990D01*
X130902694Y-57634017D01*
X130880880Y-57537347D01*
X130828994Y-57454561D01*
X130751263Y-57393240D01*
X130684134Y-57367246D01*
X130627867Y-57358099D01*
X130545218Y-57350832D01*
X130448872Y-57346361D01*
X130381271Y-57345384D01*
X130165231Y-57345384D01*
X130165231Y-58302769D01*
X129818423Y-58302696D01*
X129694649Y-58302575D01*
X129605503Y-58301895D01*
X129546534Y-58300090D01*
X129513294Y-58296597D01*
X129501334Y-58290850D01*
X129506204Y-58282283D01*
X129523455Y-58270332D01*
X129530231Y-58266095D01*
X129632500Y-58185142D01*
X129702437Y-58087876D01*
X129742333Y-57969836D01*
X129754494Y-57829589D01*
X129740548Y-57686283D01*
X129698265Y-57568268D01*
X129625553Y-57471883D01*
X129520325Y-57393469D01*
X129498506Y-57381373D01*
X129448013Y-57358200D01*
X129395602Y-57344337D01*
X129328855Y-57337623D01*
X129237154Y-57335895D01*
X129111494Y-57342415D01*
X129012972Y-57364731D01*
X128931431Y-57406981D01*
X128856712Y-57473303D01*
X128832083Y-57500870D01*
X128763864Y-57608214D01*
X128726186Y-57729261D01*
X128717953Y-57856430D01*
X128738072Y-57982139D01*
X128785449Y-58098806D01*
X128858987Y-58198849D01*
X128942519Y-58265929D01*
X129002693Y-58302623D01*
X128666001Y-58302696D01*
X128329310Y-58302769D01*
X128324078Y-57828961D01*
X128318846Y-57355154D01*
X127986907Y-57355154D01*
X127775193Y-57955978D01*
X127675789Y-57674981D01*
X127640127Y-57575458D01*
X127607980Y-57488126D01*
X127582018Y-57420065D01*
X127564916Y-57378357D01*
X127560578Y-57369684D01*
X127530046Y-57355229D01*
X127462134Y-57347153D01*
X127389616Y-57345384D01*
X127234462Y-57345384D01*
X127234462Y-58302769D01*
X126804616Y-58302769D01*
X126804616Y-58108624D01*
X126577239Y-58103120D01*
X126349863Y-58097615D01*
X126347662Y-58014562D01*
X126345462Y-57931508D01*
X126556521Y-57931523D01*
X126767581Y-57931538D01*
X126761675Y-57828961D01*
X126755770Y-57726384D01*
X126550158Y-57720884D01*
X126344547Y-57715383D01*
X126351941Y-57637845D01*
X126359336Y-57560307D01*
X126787119Y-57560307D01*
X126781214Y-57457730D01*
X126775308Y-57355154D01*
X126448039Y-57349796D01*
X126120770Y-57344439D01*
X126120770Y-58302769D01*
X125650014Y-58302769D01*
X125652918Y-57828961D01*
X125655822Y-57355154D01*
X125330685Y-57355154D01*
X125299127Y-57443077D01*
X125279520Y-57498111D01*
X125251184Y-57578155D01*
X125218314Y-57671339D01*
X125192852Y-57743735D01*
X125118135Y-57956471D01*
X125018645Y-57675228D01*
X124982968Y-57575661D01*
X124950806Y-57488284D01*
X124924829Y-57420173D01*
X124907707Y-57378408D01*
X124903347Y-57369684D01*
X124872815Y-57355229D01*
X124804903Y-57347153D01*
X124732386Y-57345384D01*
X124577231Y-57345384D01*
X124577231Y-58302769D01*
X124391616Y-58302769D01*
X124311854Y-58301774D01*
X124249262Y-58299100D01*
X124212325Y-58295214D01*
X124206000Y-58292581D01*
X124215853Y-58271600D01*
X124240764Y-58230315D01*
X124255299Y-58207897D01*
X124286576Y-58149528D01*
X124319276Y-58071156D01*
X124343682Y-57998277D01*
X124358809Y-57941410D01*
X124368864Y-57888261D01*
X124374371Y-57830013D01*
X124375854Y-57757849D01*
X124373836Y-57662953D01*
X124369792Y-57558588D01*
X124365231Y-57426906D01*
X124364720Y-57320222D01*
X124369000Y-57224601D01*
X124378808Y-57126103D01*
X124394885Y-57010792D01*
X124400933Y-56971535D01*
X124445048Y-56689047D01*
X124386337Y-56572716D01*
X124348522Y-56480600D01*
X124316914Y-56372280D01*
X124303134Y-56304493D01*
X124291457Y-56224524D01*
X124288117Y-56169980D01*
X124293738Y-56127979D01*
X124308944Y-56085637D01*
X124314324Y-56073473D01*
X124350006Y-55994344D01*
X124290356Y-55938596D01*
X124258008Y-55896444D01*
X124216253Y-55824210D01*
X124168362Y-55728777D01*
X124117605Y-55617027D01*
X124067253Y-55495843D01*
X124020577Y-55372106D01*
X124018852Y-55367257D01*
X124003825Y-55320001D01*
X124005435Y-55297336D01*
X124026150Y-55287437D01*
X124035956Y-55285292D01*
X124194859Y-55260275D01*
X124382558Y-55243730D01*
X124589553Y-55236356D01*
X124700371Y-55236362D01*
X124839248Y-55236503D01*
X124958580Y-55232370D01*
X125069766Y-55222625D01*
X125184207Y-55205931D01*
X125313303Y-55180950D01*
X125468455Y-55146345D01*
X125469216Y-55146169D01*
X125604542Y-55118057D01*
X125748594Y-55094991D01*
X125907657Y-55076331D01*
X126088014Y-55061436D01*
X126295948Y-55049664D01*
X126492000Y-55041874D01*
X126892539Y-55028305D01*
X127770747Y-54798227D01*
X128048748Y-54724596D01*
X128291140Y-54658619D01*
X128500464Y-54599512D01*
X128679267Y-54546491D01*
X128830093Y-54498774D01*
X128955486Y-54455577D01*
X129057990Y-54416116D01*
X129140151Y-54379608D01*
X129156464Y-54371533D01*
X129207061Y-54353645D01*
X129293492Y-54332449D01*
X129412712Y-54308579D01*
X129561676Y-54282668D01*
X129654694Y-54267852D01*
X129767967Y-54249981D01*
X129912901Y-54226585D01*
X130082653Y-54198798D01*
X130270379Y-54167752D01*
X130469235Y-54134582D01*
X130672378Y-54100421D01*
X130872965Y-54066402D01*
X130937000Y-54055474D01*
X131286123Y-53995765D01*
X131598998Y-53942234D01*
X131877911Y-53894545D01*
X132125144Y-53852362D01*
X132342982Y-53815350D01*
X132533708Y-53783172D01*
X132699606Y-53755495D01*
X132842959Y-53731981D01*
X132966051Y-53712297D01*
X133071166Y-53696105D01*
X133160588Y-53683071D01*
X133236599Y-53672860D01*
X133301485Y-53665135D01*
X133357529Y-53659562D01*
X133407013Y-53655804D01*
X133452223Y-53653527D01*
X133495442Y-53652394D01*
X133538952Y-53652070D01*
X133585039Y-53652221D01*
G37*
X133585039Y-53652221D02*
X133635986Y-53652510D01*
X133679266Y-53652615D01*
X134053385Y-53652615D01*
X134053385Y-58302769D01*
X133858000Y-58302769D01*
X133858000Y-58107384D01*
X133468075Y-58107384D01*
X133462768Y-57731269D01*
X133457462Y-57355154D01*
X133242539Y-57355154D01*
X133242539Y-58302785D01*
X133064950Y-58302777D01*
X132887362Y-58302769D01*
X132777555Y-58053654D01*
X132725605Y-57935368D01*
X132668099Y-57803747D01*
X132612466Y-57675826D01*
X132570957Y-57579846D01*
X132474166Y-57355154D01*
X132385358Y-57349232D01*
X132324120Y-57349355D01*
X132289068Y-57362226D01*
X132275013Y-57378539D01*
X132261436Y-57405777D01*
X132234783Y-57463509D01*
X132197465Y-57546350D01*
X132151893Y-57648919D01*
X132100479Y-57765831D01*
X132062278Y-57853384D01*
X131871081Y-58293000D01*
X131702351Y-58298640D01*
X131533622Y-58304280D01*
X131523154Y-57355154D01*
X131298462Y-57343434D01*
X131298462Y-58302769D01*
X130936844Y-58302769D01*
X130822572Y-58112582D01*
X130773491Y-58029632D01*
X130742941Y-57973519D01*
X130728546Y-57938068D01*
X130727928Y-57917102D01*
X130738709Y-57904445D01*
X130741728Y-57902543D01*
X130820065Y-57847104D01*
X130868429Y-57788654D01*
X130890212Y-57736990D01*
X130902694Y-57634017D01*
X130880880Y-57537347D01*
X130828994Y-57454561D01*
X130751263Y-57393240D01*
X130684134Y-57367246D01*
X130627867Y-57358099D01*
X130545218Y-57350832D01*
X130448872Y-57346361D01*
X130381271Y-57345384D01*
X130165231Y-57345384D01*
X130165231Y-58302769D01*
X129818423Y-58302696D01*
X129694649Y-58302575D01*
X129605503Y-58301895D01*
X129546534Y-58300090D01*
X129513294Y-58296597D01*
X129501334Y-58290850D01*
X129506204Y-58282283D01*
X129523455Y-58270332D01*
X129530231Y-58266095D01*
X129632500Y-58185142D01*
X129702437Y-58087876D01*
X129742333Y-57969836D01*
X129754494Y-57829589D01*
X129740548Y-57686283D01*
X129698265Y-57568268D01*
X129625553Y-57471883D01*
X129520325Y-57393469D01*
X129498506Y-57381373D01*
X129448013Y-57358200D01*
X129395602Y-57344337D01*
X129328855Y-57337623D01*
X129237154Y-57335895D01*
X129111494Y-57342415D01*
X129012972Y-57364731D01*
X128931431Y-57406981D01*
X128856712Y-57473303D01*
X128832083Y-57500870D01*
X128763864Y-57608214D01*
X128726186Y-57729261D01*
X128717953Y-57856430D01*
X128738072Y-57982139D01*
X128785449Y-58098806D01*
X128858987Y-58198849D01*
X128942519Y-58265929D01*
X129002693Y-58302623D01*
X128666001Y-58302696D01*
X128329310Y-58302769D01*
X128324078Y-57828961D01*
X128318846Y-57355154D01*
X127986907Y-57355154D01*
X127775193Y-57955978D01*
X127675789Y-57674981D01*
X127640127Y-57575458D01*
X127607980Y-57488126D01*
X127582018Y-57420065D01*
X127564916Y-57378357D01*
X127560578Y-57369684D01*
X127530046Y-57355229D01*
X127462134Y-57347153D01*
X127389616Y-57345384D01*
X127234462Y-57345384D01*
X127234462Y-58302769D01*
X126804616Y-58302769D01*
X126804616Y-58108624D01*
X126577239Y-58103120D01*
X126349863Y-58097615D01*
X126347662Y-58014562D01*
X126345462Y-57931508D01*
X126556521Y-57931523D01*
X126767581Y-57931538D01*
X126761675Y-57828961D01*
X126755770Y-57726384D01*
X126550158Y-57720884D01*
X126344547Y-57715383D01*
X126351941Y-57637845D01*
X126359336Y-57560307D01*
X126787119Y-57560307D01*
X126781214Y-57457730D01*
X126775308Y-57355154D01*
X126448039Y-57349796D01*
X126120770Y-57344439D01*
X126120770Y-58302769D01*
X125650014Y-58302769D01*
X125652918Y-57828961D01*
X125655822Y-57355154D01*
X125330685Y-57355154D01*
X125299127Y-57443077D01*
X125279520Y-57498111D01*
X125251184Y-57578155D01*
X125218314Y-57671339D01*
X125192852Y-57743735D01*
X125118135Y-57956471D01*
X125018645Y-57675228D01*
X124982968Y-57575661D01*
X124950806Y-57488284D01*
X124924829Y-57420173D01*
X124907707Y-57378408D01*
X124903347Y-57369684D01*
X124872815Y-57355229D01*
X124804903Y-57347153D01*
X124732386Y-57345384D01*
X124577231Y-57345384D01*
X124577231Y-58302769D01*
X124391616Y-58302769D01*
X124311854Y-58301774D01*
X124249262Y-58299100D01*
X124212325Y-58295214D01*
X124206000Y-58292581D01*
X124215853Y-58271600D01*
X124240764Y-58230315D01*
X124255299Y-58207897D01*
X124286576Y-58149528D01*
X124319276Y-58071156D01*
X124343682Y-57998277D01*
X124358809Y-57941410D01*
X124368864Y-57888261D01*
X124374371Y-57830013D01*
X124375854Y-57757849D01*
X124373836Y-57662953D01*
X124369792Y-57558588D01*
X124365231Y-57426906D01*
X124364720Y-57320222D01*
X124369000Y-57224601D01*
X124378808Y-57126103D01*
X124394885Y-57010792D01*
X124400933Y-56971535D01*
X124445048Y-56689047D01*
X124386337Y-56572716D01*
X124348522Y-56480600D01*
X124316914Y-56372280D01*
X124303134Y-56304493D01*
X124291457Y-56224524D01*
X124288117Y-56169980D01*
X124293738Y-56127979D01*
X124308944Y-56085637D01*
X124314324Y-56073473D01*
X124350006Y-55994344D01*
X124290356Y-55938596D01*
X124258008Y-55896444D01*
X124216253Y-55824210D01*
X124168362Y-55728777D01*
X124117605Y-55617027D01*
X124067253Y-55495843D01*
X124020577Y-55372106D01*
X124018852Y-55367257D01*
X124003825Y-55320001D01*
X124005435Y-55297336D01*
X124026150Y-55287437D01*
X124035956Y-55285292D01*
X124194859Y-55260275D01*
X124382558Y-55243730D01*
X124589553Y-55236356D01*
X124700371Y-55236362D01*
X124839248Y-55236503D01*
X124958580Y-55232370D01*
X125069766Y-55222625D01*
X125184207Y-55205931D01*
X125313303Y-55180950D01*
X125468455Y-55146345D01*
X125469216Y-55146169D01*
X125604542Y-55118057D01*
X125748594Y-55094991D01*
X125907657Y-55076331D01*
X126088014Y-55061436D01*
X126295948Y-55049664D01*
X126492000Y-55041874D01*
X126892539Y-55028305D01*
X127770747Y-54798227D01*
X128048748Y-54724596D01*
X128291140Y-54658619D01*
X128500464Y-54599512D01*
X128679267Y-54546491D01*
X128830093Y-54498774D01*
X128955486Y-54455577D01*
X129057990Y-54416116D01*
X129140151Y-54379608D01*
X129156464Y-54371533D01*
X129207061Y-54353645D01*
X129293492Y-54332449D01*
X129412712Y-54308579D01*
X129561676Y-54282668D01*
X129654694Y-54267852D01*
X129767967Y-54249981D01*
X129912901Y-54226585D01*
X130082653Y-54198798D01*
X130270379Y-54167752D01*
X130469235Y-54134582D01*
X130672378Y-54100421D01*
X130872965Y-54066402D01*
X130937000Y-54055474D01*
X131286123Y-53995765D01*
X131598998Y-53942234D01*
X131877911Y-53894545D01*
X132125144Y-53852362D01*
X132342982Y-53815350D01*
X132533708Y-53783172D01*
X132699606Y-53755495D01*
X132842959Y-53731981D01*
X132966051Y-53712297D01*
X133071166Y-53696105D01*
X133160588Y-53683071D01*
X133236599Y-53672860D01*
X133301485Y-53665135D01*
X133357529Y-53659562D01*
X133407013Y-53655804D01*
X133452223Y-53653527D01*
X133495442Y-53652394D01*
X133538952Y-53652070D01*
X133585039Y-53652221D01*
G36*
X133777372Y-58735286D02*
G01*
X133798988Y-58741830D01*
X133799385Y-58742960D01*
X133789083Y-58762029D01*
X133760772Y-58807398D01*
X133718339Y-58873004D01*
X133665674Y-58952784D01*
X133643805Y-58985529D01*
X133488225Y-59217753D01*
X133482612Y-59409915D01*
X133477000Y-59602077D01*
X133423270Y-59608259D01*
X133369539Y-59614441D01*
X133369539Y-59243920D01*
X133217087Y-59012691D01*
X133161018Y-58927513D01*
X133112051Y-58852868D01*
X133074528Y-58795395D01*
X133052793Y-58761735D01*
X133049857Y-58757038D01*
X133050858Y-58740487D01*
X133083528Y-58733362D01*
X133109501Y-58732716D01*
X133142683Y-58734070D01*
X133168759Y-58741884D01*
X133193603Y-58761951D01*
X133223094Y-58800059D01*
X133263108Y-58861999D01*
X133297880Y-58918332D01*
X133344189Y-58992590D01*
X133382994Y-59052695D01*
X133409866Y-59091926D01*
X133420092Y-59103846D01*
X133433267Y-59088425D01*
X133462781Y-59046562D01*
X133504108Y-58984855D01*
X133547389Y-58918230D01*
X133599896Y-58837505D01*
X133637574Y-58784318D01*
X133666128Y-58752962D01*
X133691263Y-58737727D01*
X133718685Y-58732907D01*
X133732908Y-58732615D01*
X133777372Y-58735286D01*
G37*
X133777372Y-58735286D02*
X133798988Y-58741830D01*
X133799385Y-58742960D01*
X133789083Y-58762029D01*
X133760772Y-58807398D01*
X133718339Y-58873004D01*
X133665674Y-58952784D01*
X133643805Y-58985529D01*
X133488225Y-59217753D01*
X133482612Y-59409915D01*
X133477000Y-59602077D01*
X133423270Y-59608259D01*
X133369539Y-59614441D01*
X133369539Y-59243920D01*
X133217087Y-59012691D01*
X133161018Y-58927513D01*
X133112051Y-58852868D01*
X133074528Y-58795395D01*
X133052793Y-58761735D01*
X133049857Y-58757038D01*
X133050858Y-58740487D01*
X133083528Y-58733362D01*
X133109501Y-58732716D01*
X133142683Y-58734070D01*
X133168759Y-58741884D01*
X133193603Y-58761951D01*
X133223094Y-58800059D01*
X133263108Y-58861999D01*
X133297880Y-58918332D01*
X133344189Y-58992590D01*
X133382994Y-59052695D01*
X133409866Y-59091926D01*
X133420092Y-59103846D01*
X133433267Y-59088425D01*
X133462781Y-59046562D01*
X133504108Y-58984855D01*
X133547389Y-58918230D01*
X133599896Y-58837505D01*
X133637574Y-58784318D01*
X133666128Y-58752962D01*
X133691263Y-58737727D01*
X133718685Y-58732907D01*
X133732908Y-58732615D01*
X133777372Y-58735286D01*
G36*
X132763846Y-58781461D02*
G01*
X132761835Y-58806981D01*
X132750125Y-58821586D01*
X132720200Y-58828318D01*
X132663547Y-58830218D01*
X132627077Y-58830307D01*
X132490308Y-58830307D01*
X132490308Y-59611846D01*
X132373903Y-59611846D01*
X132368606Y-59225961D01*
X132363308Y-58840077D01*
X132221654Y-58834336D01*
X132148604Y-58830608D01*
X132106268Y-58824704D01*
X132086296Y-58813457D01*
X132080336Y-58793699D01*
X132080000Y-58780605D01*
X132080000Y-58732615D01*
X132763846Y-58732615D01*
X132763846Y-58781461D01*
G37*
X132763846Y-58781461D02*
X132761835Y-58806981D01*
X132750125Y-58821586D01*
X132720200Y-58828318D01*
X132663547Y-58830218D01*
X132627077Y-58830307D01*
X132490308Y-58830307D01*
X132490308Y-59611846D01*
X132373903Y-59611846D01*
X132368606Y-59225961D01*
X132363308Y-58840077D01*
X132221654Y-58834336D01*
X132148604Y-58830608D01*
X132106268Y-58824704D01*
X132086296Y-58813457D01*
X132080336Y-58793699D01*
X132080000Y-58780605D01*
X132080000Y-58732615D01*
X132763846Y-58732615D01*
X132763846Y-58781461D01*
G36*
X131708770Y-59611846D02*
G01*
X131591539Y-59611846D01*
X131591539Y-58732615D01*
X131708770Y-58732615D01*
X131708770Y-59611846D01*
G37*
X131708770Y-59611846D02*
X131591539Y-59611846D01*
X131591539Y-58732615D01*
X131708770Y-58732615D01*
X131708770Y-59611846D01*
G36*
X129927146Y-58733479D02*
G01*
X129994401Y-58737073D01*
X130041307Y-58744897D01*
X130077218Y-58758451D01*
X130108611Y-58777291D01*
X130173581Y-58842902D01*
X130207242Y-58926445D01*
X130206081Y-59018382D01*
X130202651Y-59032432D01*
X130175799Y-59088388D01*
X130131907Y-59142562D01*
X130081923Y-59183934D01*
X130036798Y-59201483D01*
X130034642Y-59201538D01*
X130019303Y-59203704D01*
X130013980Y-59213589D01*
X130020928Y-59236273D01*
X130042401Y-59276836D01*
X130080653Y-59340358D01*
X130134358Y-59426230D01*
X130245055Y-59602077D01*
X130193723Y-59608418D01*
X130145576Y-59609880D01*
X130117723Y-59605294D01*
X130098564Y-59585255D01*
X130065741Y-59538305D01*
X130024195Y-59471895D01*
X129987489Y-59408863D01*
X129940822Y-59327093D01*
X129907510Y-59273483D01*
X129881864Y-59242070D01*
X129858193Y-59226892D01*
X129830807Y-59221988D01*
X129808654Y-59221488D01*
X129735385Y-59221077D01*
X129735385Y-59416461D01*
X129735017Y-59505147D01*
X129732806Y-59561887D01*
X129727086Y-59593811D01*
X129716194Y-59608049D01*
X129698467Y-59611731D01*
X129689795Y-59611846D01*
X129648762Y-59606795D01*
X129631180Y-59598820D01*
X129627370Y-59576281D01*
X129624000Y-59520495D01*
X129621242Y-59437288D01*
X129619269Y-59332490D01*
X129618253Y-59211929D01*
X129618154Y-59159205D01*
X129618154Y-58830307D01*
X129735385Y-58830307D01*
X129735385Y-58963820D01*
X129737393Y-59033112D01*
X129742658Y-59086424D01*
X129750039Y-59112211D01*
X129782062Y-59122681D01*
X129838692Y-59123858D01*
X129907006Y-59117339D01*
X129974083Y-59104719D01*
X130026998Y-59087596D01*
X130046894Y-59075539D01*
X130081853Y-59020475D01*
X130085885Y-58955946D01*
X130059732Y-58895380D01*
X130035596Y-58870802D01*
X129993115Y-58846155D01*
X129937644Y-58833659D01*
X129859750Y-58830307D01*
X129735385Y-58830307D01*
X129618154Y-58830307D01*
X129618154Y-58732615D01*
X129830188Y-58732615D01*
X129927146Y-58733479D01*
G37*
X129927146Y-58733479D02*
X129994401Y-58737073D01*
X130041307Y-58744897D01*
X130077218Y-58758451D01*
X130108611Y-58777291D01*
X130173581Y-58842902D01*
X130207242Y-58926445D01*
X130206081Y-59018382D01*
X130202651Y-59032432D01*
X130175799Y-59088388D01*
X130131907Y-59142562D01*
X130081923Y-59183934D01*
X130036798Y-59201483D01*
X130034642Y-59201538D01*
X130019303Y-59203704D01*
X130013980Y-59213589D01*
X130020928Y-59236273D01*
X130042401Y-59276836D01*
X130080653Y-59340358D01*
X130134358Y-59426230D01*
X130245055Y-59602077D01*
X130193723Y-59608418D01*
X130145576Y-59609880D01*
X130117723Y-59605294D01*
X130098564Y-59585255D01*
X130065741Y-59538305D01*
X130024195Y-59471895D01*
X129987489Y-59408863D01*
X129940822Y-59327093D01*
X129907510Y-59273483D01*
X129881864Y-59242070D01*
X129858193Y-59226892D01*
X129830807Y-59221988D01*
X129808654Y-59221488D01*
X129735385Y-59221077D01*
X129735385Y-59416461D01*
X129735017Y-59505147D01*
X129732806Y-59561887D01*
X129727086Y-59593811D01*
X129716194Y-59608049D01*
X129698467Y-59611731D01*
X129689795Y-59611846D01*
X129648762Y-59606795D01*
X129631180Y-59598820D01*
X129627370Y-59576281D01*
X129624000Y-59520495D01*
X129621242Y-59437288D01*
X129619269Y-59332490D01*
X129618253Y-59211929D01*
X129618154Y-59159205D01*
X129618154Y-58830307D01*
X129735385Y-58830307D01*
X129735385Y-58963820D01*
X129737393Y-59033112D01*
X129742658Y-59086424D01*
X129750039Y-59112211D01*
X129782062Y-59122681D01*
X129838692Y-59123858D01*
X129907006Y-59117339D01*
X129974083Y-59104719D01*
X130026998Y-59087596D01*
X130046894Y-59075539D01*
X130081853Y-59020475D01*
X130085885Y-58955946D01*
X130059732Y-58895380D01*
X130035596Y-58870802D01*
X129993115Y-58846155D01*
X129937644Y-58833659D01*
X129859750Y-58830307D01*
X129735385Y-58830307D01*
X129618154Y-58830307D01*
X129618154Y-58732615D01*
X129830188Y-58732615D01*
X129927146Y-58733479D01*
G36*
X129173438Y-58780866D02*
G01*
X129182661Y-58829116D01*
X128955908Y-58834596D01*
X128729154Y-58840077D01*
X128723377Y-58971961D01*
X128717599Y-59103846D01*
X129151827Y-59103846D01*
X129145644Y-59157577D01*
X129139462Y-59211307D01*
X128929423Y-59216853D01*
X128719385Y-59222399D01*
X128719385Y-59493412D01*
X129198077Y-59504384D01*
X129198077Y-59602077D01*
X128913642Y-59607462D01*
X128811900Y-59608488D01*
X128724345Y-59607670D01*
X128658270Y-59605207D01*
X128620968Y-59601298D01*
X128615681Y-59599321D01*
X128611724Y-59576630D01*
X128608223Y-59520701D01*
X128605359Y-59437370D01*
X128603311Y-59332474D01*
X128602257Y-59211850D01*
X128602154Y-59159205D01*
X128602154Y-58732615D01*
X129164214Y-58732615D01*
X129173438Y-58780866D01*
G37*
X129173438Y-58780866D02*
X129182661Y-58829116D01*
X128955908Y-58834596D01*
X128729154Y-58840077D01*
X128723377Y-58971961D01*
X128717599Y-59103846D01*
X129151827Y-59103846D01*
X129145644Y-59157577D01*
X129139462Y-59211307D01*
X128929423Y-59216853D01*
X128719385Y-59222399D01*
X128719385Y-59493412D01*
X129198077Y-59504384D01*
X129198077Y-59602077D01*
X128913642Y-59607462D01*
X128811900Y-59608488D01*
X128724345Y-59607670D01*
X128658270Y-59605207D01*
X128620968Y-59601298D01*
X128615681Y-59599321D01*
X128611724Y-59576630D01*
X128608223Y-59520701D01*
X128605359Y-59437370D01*
X128603311Y-59332474D01*
X128602257Y-59211850D01*
X128602154Y-59159205D01*
X128602154Y-58732615D01*
X129164214Y-58732615D01*
X129173438Y-58780866D01*
G36*
X127592844Y-58742384D02*
G01*
X127715734Y-59081914D01*
X127755026Y-59189757D01*
X127789975Y-59284330D01*
X127818357Y-59359724D01*
X127837949Y-59410031D01*
X127846477Y-59429297D01*
X127855400Y-59414407D01*
X127875621Y-59368282D01*
X127904931Y-59296359D01*
X127941120Y-59204070D01*
X127981981Y-59096852D01*
X127986477Y-59084882D01*
X128118624Y-58732615D01*
X128246818Y-58732615D01*
X128133504Y-59020807D01*
X128070395Y-59181367D01*
X128019936Y-59309339D01*
X127980352Y-59408453D01*
X127949868Y-59482441D01*
X127926710Y-59535032D01*
X127909103Y-59569956D01*
X127895272Y-59590942D01*
X127883442Y-59601722D01*
X127871840Y-59606025D01*
X127858689Y-59607581D01*
X127854088Y-59608081D01*
X127811606Y-59604602D01*
X127790661Y-59591261D01*
X127779830Y-59567122D01*
X127757198Y-59511966D01*
X127724946Y-59431268D01*
X127685251Y-59330501D01*
X127640290Y-59215140D01*
X127614881Y-59149460D01*
X127453206Y-58730484D01*
X127592844Y-58742384D01*
G37*
X127592844Y-58742384D02*
X127715734Y-59081914D01*
X127755026Y-59189757D01*
X127789975Y-59284330D01*
X127818357Y-59359724D01*
X127837949Y-59410031D01*
X127846477Y-59429297D01*
X127855400Y-59414407D01*
X127875621Y-59368282D01*
X127904931Y-59296359D01*
X127941120Y-59204070D01*
X127981981Y-59096852D01*
X127986477Y-59084882D01*
X128118624Y-58732615D01*
X128246818Y-58732615D01*
X128133504Y-59020807D01*
X128070395Y-59181367D01*
X128019936Y-59309339D01*
X127980352Y-59408453D01*
X127949868Y-59482441D01*
X127926710Y-59535032D01*
X127909103Y-59569956D01*
X127895272Y-59590942D01*
X127883442Y-59601722D01*
X127871840Y-59606025D01*
X127858689Y-59607581D01*
X127854088Y-59608081D01*
X127811606Y-59604602D01*
X127790661Y-59591261D01*
X127779830Y-59567122D01*
X127757198Y-59511966D01*
X127724946Y-59431268D01*
X127685251Y-59330501D01*
X127640290Y-59215140D01*
X127614881Y-59149460D01*
X127453206Y-58730484D01*
X127592844Y-58742384D01*
G36*
X127093182Y-59167346D02*
G01*
X127087923Y-59602077D01*
X127034193Y-59608259D01*
X126980462Y-59614441D01*
X126980462Y-58732615D01*
X127098440Y-58732615D01*
X127093182Y-59167346D01*
G37*
X127093182Y-59167346D02*
X127087923Y-59602077D01*
X127034193Y-59608259D01*
X126980462Y-59614441D01*
X126980462Y-58732615D01*
X127098440Y-58732615D01*
X127093182Y-59167346D01*
G36*
X126365000Y-59445769D02*
G01*
X126370326Y-59089192D01*
X126375651Y-58732615D01*
X126492000Y-58732615D01*
X126492000Y-59611846D01*
X126343079Y-59611846D01*
X126100040Y-59255269D01*
X125857000Y-58898692D01*
X125846350Y-59611846D01*
X125730000Y-59611846D01*
X125730000Y-58732615D01*
X125885782Y-58732615D01*
X126365000Y-59445769D01*
G37*
X126365000Y-59445769D02*
X126370326Y-59089192D01*
X126375651Y-58732615D01*
X126492000Y-58732615D01*
X126492000Y-59611846D01*
X126343079Y-59611846D01*
X126100040Y-59255269D01*
X125857000Y-58898692D01*
X125846350Y-59611846D01*
X125730000Y-59611846D01*
X125730000Y-58732615D01*
X125885782Y-58732615D01*
X126365000Y-59445769D01*
G36*
X130984198Y-58723375D02*
G01*
X131063243Y-58744570D01*
X131092261Y-58759440D01*
X131145847Y-58794551D01*
X131060009Y-58885921D01*
X130998504Y-58848418D01*
X130918797Y-58817133D01*
X130842229Y-58817587D01*
X130777413Y-58847820D01*
X130732964Y-58905868D01*
X130731531Y-58909223D01*
X130719039Y-58963876D01*
X130733043Y-59010588D01*
X130776659Y-59052380D01*
X130853003Y-59092278D01*
X130961176Y-59131994D01*
X131053364Y-59173804D01*
X131111366Y-59229935D01*
X131138785Y-59304761D01*
X131142154Y-59351682D01*
X131127848Y-59454768D01*
X131084062Y-59532982D01*
X131009494Y-59588525D01*
X130999205Y-59593414D01*
X130881861Y-59626358D01*
X130762924Y-59620971D01*
X130680526Y-59593913D01*
X130615646Y-59559560D01*
X130586074Y-59529036D01*
X130589028Y-59497440D01*
X130610486Y-59470523D01*
X130650175Y-59430834D01*
X130708681Y-59472494D01*
X130778810Y-59505256D01*
X130853950Y-59513368D01*
X130924976Y-59499529D01*
X130982765Y-59466434D01*
X131018191Y-59416783D01*
X131024923Y-59378994D01*
X131014027Y-59328000D01*
X130977931Y-59286014D01*
X130911528Y-59248611D01*
X130844765Y-59222954D01*
X130775766Y-59196671D01*
X130715173Y-59169287D01*
X130687946Y-59154136D01*
X130630191Y-59095430D01*
X130600885Y-59020133D01*
X130599017Y-58937326D01*
X130623571Y-58856086D01*
X130673535Y-58785493D01*
X130734037Y-58741251D01*
X130803324Y-58720890D01*
X130892135Y-58715206D01*
X130984198Y-58723375D01*
G37*
X130984198Y-58723375D02*
X131063243Y-58744570D01*
X131092261Y-58759440D01*
X131145847Y-58794551D01*
X131060009Y-58885921D01*
X130998504Y-58848418D01*
X130918797Y-58817133D01*
X130842229Y-58817587D01*
X130777413Y-58847820D01*
X130732964Y-58905868D01*
X130731531Y-58909223D01*
X130719039Y-58963876D01*
X130733043Y-59010588D01*
X130776659Y-59052380D01*
X130853003Y-59092278D01*
X130961176Y-59131994D01*
X131053364Y-59173804D01*
X131111366Y-59229935D01*
X131138785Y-59304761D01*
X131142154Y-59351682D01*
X131127848Y-59454768D01*
X131084062Y-59532982D01*
X131009494Y-59588525D01*
X130999205Y-59593414D01*
X130881861Y-59626358D01*
X130762924Y-59620971D01*
X130680526Y-59593913D01*
X130615646Y-59559560D01*
X130586074Y-59529036D01*
X130589028Y-59497440D01*
X130610486Y-59470523D01*
X130650175Y-59430834D01*
X130708681Y-59472494D01*
X130778810Y-59505256D01*
X130853950Y-59513368D01*
X130924976Y-59499529D01*
X130982765Y-59466434D01*
X131018191Y-59416783D01*
X131024923Y-59378994D01*
X131014027Y-59328000D01*
X130977931Y-59286014D01*
X130911528Y-59248611D01*
X130844765Y-59222954D01*
X130775766Y-59196671D01*
X130715173Y-59169287D01*
X130687946Y-59154136D01*
X130630191Y-59095430D01*
X130600885Y-59020133D01*
X130599017Y-58937326D01*
X130623571Y-58856086D01*
X130673535Y-58785493D01*
X130734037Y-58741251D01*
X130803324Y-58720890D01*
X130892135Y-58715206D01*
X130984198Y-58723375D01*
G36*
X124694462Y-59026320D02*
G01*
X124696148Y-59165693D01*
X124702057Y-59271915D01*
X124713463Y-59350800D01*
X124731641Y-59408161D01*
X124757866Y-59449813D01*
X124793412Y-59481570D01*
X124794438Y-59482292D01*
X124855871Y-59506586D01*
X124932562Y-59512824D01*
X125005667Y-59500902D01*
X125041918Y-59483660D01*
X125078152Y-59453611D01*
X125104811Y-59417489D01*
X125123294Y-59369147D01*
X125135003Y-59302444D01*
X125141338Y-59211233D01*
X125143700Y-59089372D01*
X125143846Y-59036431D01*
X125143846Y-58732615D01*
X125261077Y-58732615D01*
X125261077Y-59051927D01*
X125260698Y-59172459D01*
X125259022Y-59261159D01*
X125255245Y-59325268D01*
X125248560Y-59372027D01*
X125238163Y-59408678D01*
X125223246Y-59442461D01*
X125216085Y-59456319D01*
X125150320Y-59541566D01*
X125061533Y-59599101D01*
X124956635Y-59626330D01*
X124842539Y-59620660D01*
X124803754Y-59611040D01*
X124734809Y-59574880D01*
X124667941Y-59514615D01*
X124616172Y-59443650D01*
X124596687Y-59397789D01*
X124589870Y-59353884D01*
X124584100Y-59279844D01*
X124579848Y-59184605D01*
X124577584Y-59077106D01*
X124577340Y-59030577D01*
X124577231Y-58732615D01*
X124694462Y-58732615D01*
X124694462Y-59026320D01*
G37*
X124694462Y-59026320D02*
X124696148Y-59165693D01*
X124702057Y-59271915D01*
X124713463Y-59350800D01*
X124731641Y-59408161D01*
X124757866Y-59449813D01*
X124793412Y-59481570D01*
X124794438Y-59482292D01*
X124855871Y-59506586D01*
X124932562Y-59512824D01*
X125005667Y-59500902D01*
X125041918Y-59483660D01*
X125078152Y-59453611D01*
X125104811Y-59417489D01*
X125123294Y-59369147D01*
X125135003Y-59302444D01*
X125141338Y-59211233D01*
X125143700Y-59089372D01*
X125143846Y-59036431D01*
X125143846Y-58732615D01*
X125261077Y-58732615D01*
X125261077Y-59051927D01*
X125260698Y-59172459D01*
X125259022Y-59261159D01*
X125255245Y-59325268D01*
X125248560Y-59372027D01*
X125238163Y-59408678D01*
X125223246Y-59442461D01*
X125216085Y-59456319D01*
X125150320Y-59541566D01*
X125061533Y-59599101D01*
X124956635Y-59626330D01*
X124842539Y-59620660D01*
X124803754Y-59611040D01*
X124734809Y-59574880D01*
X124667941Y-59514615D01*
X124616172Y-59443650D01*
X124596687Y-59397789D01*
X124589870Y-59353884D01*
X124584100Y-59279844D01*
X124579848Y-59184605D01*
X124577584Y-59077106D01*
X124577340Y-59030577D01*
X124577231Y-58732615D01*
X124694462Y-58732615D01*
X124694462Y-59026320D01*
D12*
%TO.C,R26*%
X110506742Y-117870500D02*
X110981258Y-117870500D01*
X110506742Y-116825500D02*
X110981258Y-116825500D01*
%TO.C,C19*%
X110884580Y-115314000D02*
X110603420Y-115314000D01*
X110884580Y-116334000D02*
X110603420Y-116334000D01*
%TO.C,R12*%
X110980758Y-109205500D02*
X110506242Y-109205500D01*
X110980758Y-110250500D02*
X110506242Y-110250500D01*
%TO.C,R13*%
X110981758Y-113298500D02*
X110507242Y-113298500D01*
X110981758Y-112253500D02*
X110507242Y-112253500D01*
%TO.C,R11*%
X110981258Y-108726500D02*
X110506742Y-108726500D01*
X110981258Y-107681500D02*
X110506742Y-107681500D01*
%TO.C,R14*%
X110981758Y-106157500D02*
X110507242Y-106157500D01*
X110981758Y-107202500D02*
X110507242Y-107202500D01*
%TO.C,R15*%
X110980758Y-104633500D02*
X110506242Y-104633500D01*
X110980758Y-105678500D02*
X110506242Y-105678500D01*
%TO.C,R19*%
X110981758Y-113777500D02*
X110507242Y-113777500D01*
X110981758Y-114822500D02*
X110507242Y-114822500D01*
%TO.C,R33*%
X110506742Y-110729500D02*
X110981258Y-110729500D01*
X110506742Y-111774500D02*
X110981258Y-111774500D01*
D13*
%TO.C,TP13*%
X108461000Y-104457500D02*
G75*
G03*
X108461000Y-104457500I-1400000J0D01*
G01*
D12*
%TO.C,R34*%
X110980758Y-104154500D02*
X110506242Y-104154500D01*
X110980758Y-103109500D02*
X110506242Y-103109500D01*
D10*
%TO.C,C9*%
X71221020Y-109717300D02*
X71502180Y-109717300D01*
X71221020Y-108697300D02*
X71502180Y-108697300D01*
%TO.C,C10*%
X66013420Y-115314000D02*
X66294580Y-115314000D01*
X66013420Y-116334000D02*
X66294580Y-116334000D01*
%TO.C,C11*%
X71208020Y-116321300D02*
X71489180Y-116321300D01*
X71208020Y-115301300D02*
X71489180Y-115301300D01*
%TO.C,C8*%
X66051820Y-108722700D02*
X66332980Y-108722700D01*
X66051820Y-109742700D02*
X66332980Y-109742700D01*
%TO.C,C7*%
X75832280Y-109014800D02*
X75551120Y-109014800D01*
X75832280Y-110034800D02*
X75551120Y-110034800D01*
%TO.C,SWD*%
X134363500Y-115249000D02*
X133721030Y-115249000D01*
X133105970Y-115249000D02*
X132903500Y-115249000D01*
X134363500Y-115249000D02*
X134363500Y-111319000D01*
X131835970Y-111319000D02*
X131193500Y-111319000D01*
X134363500Y-111319000D02*
X133721030Y-111319000D01*
X133105970Y-111319000D02*
X132451030Y-111319000D01*
X131193500Y-113919000D02*
X131193500Y-111319000D01*
X131383500Y-113919000D02*
X131193500Y-113919000D01*
X131193500Y-115314000D02*
X131193500Y-114554000D01*
X132143500Y-115314000D02*
X131193500Y-115314000D01*
%TO.C,R8*%
X136891500Y-117364742D02*
X136891500Y-117839258D01*
X137936500Y-117364742D02*
X137936500Y-117839258D01*
%TO.C,Q1*%
X132399500Y-116085500D02*
X132399500Y-117015500D01*
X132399500Y-119245500D02*
X132399500Y-118315500D01*
X132399500Y-119245500D02*
X134559500Y-119245500D01*
X132399500Y-116085500D02*
X133859500Y-116085500D01*
%TO.C,R7*%
X138542500Y-117364242D02*
X138542500Y-117838758D01*
X139587500Y-117364242D02*
X139587500Y-117838758D01*
%TO.C,EXT UART*%
X56941000Y-109213000D02*
X59141000Y-109213000D01*
X59141000Y-109213000D02*
X59141000Y-110433000D01*
X59141000Y-110433000D02*
X50721000Y-110433000D01*
X50721000Y-110433000D02*
X50721000Y-97713000D01*
X50721000Y-97713000D02*
X59141000Y-97713000D01*
X59141000Y-97713000D02*
X59141000Y-98933000D01*
X59141000Y-98933000D02*
X56941000Y-98933000D01*
X51941000Y-110433000D02*
X51941000Y-109213000D01*
X51941000Y-109213000D02*
X56941000Y-109213000D01*
X56941000Y-109213000D02*
X56941000Y-110433000D01*
X51941000Y-97713000D02*
X51941000Y-98933000D01*
X51941000Y-98933000D02*
X56941000Y-98933000D01*
X56941000Y-98933000D02*
X56941000Y-97713000D01*
X55941000Y-109213000D02*
X55941000Y-98933000D01*
X55941000Y-107823000D02*
X55941000Y-108143000D01*
X55941000Y-108143000D02*
X52521000Y-108143000D01*
X52521000Y-108143000D02*
X52441000Y-107823000D01*
X52441000Y-107823000D02*
X52521000Y-107503000D01*
X52521000Y-107503000D02*
X55941000Y-107503000D01*
X55941000Y-107503000D02*
X55941000Y-107823000D01*
X56941000Y-106653000D02*
X56941000Y-106493000D01*
X55941000Y-105323000D02*
X55941000Y-105643000D01*
X55941000Y-105643000D02*
X52521000Y-105643000D01*
X52521000Y-105643000D02*
X52441000Y-105323000D01*
X52441000Y-105323000D02*
X52521000Y-105003000D01*
X52521000Y-105003000D02*
X55941000Y-105003000D01*
X55941000Y-105003000D02*
X55941000Y-105323000D01*
X56941000Y-104153000D02*
X56941000Y-103993000D01*
X55941000Y-102823000D02*
X55941000Y-103143000D01*
X55941000Y-103143000D02*
X52521000Y-103143000D01*
X52521000Y-103143000D02*
X52441000Y-102823000D01*
X52441000Y-102823000D02*
X52521000Y-102503000D01*
X52521000Y-102503000D02*
X55941000Y-102503000D01*
X55941000Y-102503000D02*
X55941000Y-102823000D01*
X56941000Y-101653000D02*
X56941000Y-101493000D01*
X55941000Y-100323000D02*
X55941000Y-100643000D01*
X55941000Y-100643000D02*
X52521000Y-100643000D01*
X52521000Y-100643000D02*
X52441000Y-100323000D01*
X52441000Y-100323000D02*
X52521000Y-100003000D01*
X52521000Y-100003000D02*
X55941000Y-100003000D01*
X55941000Y-100003000D02*
X55941000Y-100323000D01*
X59031000Y-107823000D02*
X59631000Y-108123000D01*
X59631000Y-108123000D02*
X59631000Y-107523000D01*
X59631000Y-107523000D02*
X59031000Y-107823000D01*
%TO.C,R6*%
X140193500Y-117365242D02*
X140193500Y-117839758D01*
X141238500Y-117365242D02*
X141238500Y-117839758D01*
%TO.C,R35*%
X136285500Y-117428242D02*
X136285500Y-117902758D01*
X135240500Y-117428242D02*
X135240500Y-117902758D01*
%TO.C,R40*%
X95139242Y-103173000D02*
X95613758Y-103173000D01*
X95139242Y-104218000D02*
X95613758Y-104218000D01*
%TO.C,RESET*%
X72099500Y-116868000D02*
X72099500Y-117168000D01*
X68799500Y-116868000D02*
X72099500Y-116868000D01*
X68799500Y-117168000D02*
X68799500Y-116868000D01*
X72099500Y-119668000D02*
X72099500Y-119368000D01*
X68799500Y-119668000D02*
X72099500Y-119668000D01*
X68799500Y-119368000D02*
X68799500Y-119668000D01*
%TO.C,BRAKE*%
X63623500Y-119368000D02*
X63623500Y-119668000D01*
X63623500Y-119668000D02*
X66923500Y-119668000D01*
X66923500Y-119668000D02*
X66923500Y-119368000D01*
X63623500Y-117168000D02*
X63623500Y-116868000D01*
X63623500Y-116868000D02*
X66923500Y-116868000D01*
X66923500Y-116868000D02*
X66923500Y-117168000D01*
%TO.C,R3*%
X71585858Y-107173500D02*
X71111342Y-107173500D01*
X71585858Y-108218500D02*
X71111342Y-108218500D01*
%TO.C,R4*%
X66365658Y-114822500D02*
X65891142Y-114822500D01*
X66365658Y-113777500D02*
X65891142Y-113777500D01*
%TO.C,R5*%
X71611258Y-113777500D02*
X71136742Y-113777500D01*
X71611258Y-114822500D02*
X71136742Y-114822500D01*
%TO.C,SDOW*%
X72088500Y-110264000D02*
X72088500Y-110564000D01*
X68788500Y-110264000D02*
X72088500Y-110264000D01*
X68788500Y-110564000D02*
X68788500Y-110264000D01*
X72088500Y-113064000D02*
X72088500Y-112764000D01*
X68788500Y-113064000D02*
X72088500Y-113064000D01*
X68788500Y-112764000D02*
X68788500Y-113064000D01*
%TO.C,R2*%
X66441858Y-108180400D02*
X65967342Y-108180400D01*
X66441858Y-107135400D02*
X65967342Y-107135400D01*
%TO.C,R1*%
X75454742Y-111584000D02*
X75929258Y-111584000D01*
X75454742Y-110539000D02*
X75929258Y-110539000D01*
%TO.C,SUP*%
X63622000Y-112764000D02*
X63622000Y-113064000D01*
X63622000Y-113064000D02*
X66922000Y-113064000D01*
X66922000Y-113064000D02*
X66922000Y-112764000D01*
X63622000Y-110564000D02*
X63622000Y-110264000D01*
X63622000Y-110264000D02*
X66922000Y-110264000D01*
X66922000Y-110264000D02*
X66922000Y-110564000D01*
%TO.C,MOT DIR*%
X77180000Y-118262500D02*
X77180000Y-112741500D01*
X75170000Y-118841500D02*
X75170000Y-118262500D01*
X74520000Y-118262500D02*
X75170000Y-118262500D01*
X74520000Y-118262500D02*
X74520000Y-112741500D01*
X74520000Y-112741500D02*
X75230000Y-112741500D01*
X76470000Y-118262500D02*
X77180000Y-118262500D01*
X76470000Y-112741500D02*
X77180000Y-112741500D01*
%TO.C,MOSI*%
X72878000Y-100237500D02*
G75*
G03*
X72878000Y-100237500I-1400000J0D01*
G01*
%TO.C,MISO*%
X72837500Y-103695500D02*
G75*
G03*
X72837500Y-103695500I-1400000J0D01*
G01*
%TO.C,SCLK*%
X76330000Y-100139500D02*
G75*
G03*
X76330000Y-100139500I-1400000J0D01*
G01*
%TO.C,CS*%
X76329500Y-103666500D02*
G75*
G03*
X76329500Y-103666500I-1400000J0D01*
G01*
%TO.C,L4*%
X141451000Y-115328500D02*
X141451000Y-113043500D01*
X141451000Y-113043500D02*
X139981000Y-113043500D01*
X139981000Y-113043500D02*
X139981000Y-115328500D01*
%TO.C,L2*%
X136679000Y-113069000D02*
X136679000Y-115354000D01*
X138149000Y-113069000D02*
X136679000Y-113069000D01*
X138149000Y-115354000D02*
X138149000Y-113069000D01*
%TO.C,C32*%
X91847580Y-106936000D02*
X91566420Y-106936000D01*
X91847580Y-105916000D02*
X91566420Y-105916000D01*
%TO.C,C27*%
X79959252Y-102335500D02*
X78536748Y-102335500D01*
X79959252Y-105055500D02*
X78536748Y-105055500D01*
%TO.C,C31*%
X95699252Y-106145000D02*
X95176748Y-106145000D01*
X95699252Y-104675000D02*
X95176748Y-104675000D01*
%TO.C,L3*%
X138330000Y-113069000D02*
X138330000Y-115354000D01*
X139800000Y-113069000D02*
X138330000Y-113069000D01*
X139800000Y-115354000D02*
X139800000Y-113069000D01*
%TO.C,C25*%
X95179248Y-108177000D02*
X95701752Y-108177000D01*
X95179248Y-106707000D02*
X95701752Y-106707000D01*
%TO.C,C24*%
X96737752Y-111532500D02*
X95315248Y-111532500D01*
X96737752Y-108812500D02*
X95315248Y-108812500D01*
%TO.C,D5*%
X60936000Y-112737000D02*
X58386000Y-112737000D01*
X60936000Y-111037000D02*
X58386000Y-111037000D01*
X60936000Y-112737000D02*
X60936000Y-111037000D01*
%TO.C,L1*%
X136498000Y-115328500D02*
X136498000Y-113043500D01*
X136498000Y-113043500D02*
X135028000Y-113043500D01*
X135028000Y-113043500D02*
X135028000Y-115328500D01*
%TO.C,C28*%
X89879500Y-109339748D02*
X89879500Y-109862252D01*
X91349500Y-109339748D02*
X91349500Y-109862252D01*
%TO.C,C26*%
X89317500Y-109339748D02*
X89317500Y-109862252D01*
X87847500Y-109339748D02*
X87847500Y-109862252D01*
%TO.C,C5*%
X56380748Y-86323500D02*
X56903252Y-86323500D01*
X56380748Y-87793500D02*
X56903252Y-87793500D01*
%TO.C,C34*%
X86866000Y-66550000D02*
X86366000Y-66550000D01*
X86366000Y-73150000D02*
X86866000Y-73150000D01*
X80266000Y-73150000D02*
X80266000Y-66550000D01*
X86866000Y-73150000D02*
X86866000Y-66550000D01*
X80266000Y-66550000D02*
X80766000Y-66550000D01*
X80266000Y-73150000D02*
X80766000Y-73150000D01*
%TO.C,C2*%
X56732500Y-91305748D02*
X56732500Y-91828252D01*
X58202500Y-91305748D02*
X58202500Y-91828252D01*
%TO.C,C3*%
X58202500Y-83177748D02*
X58202500Y-83700252D01*
X56732500Y-83177748D02*
X56732500Y-83700252D01*
%TO.C,C4*%
X56380748Y-94642000D02*
X56903252Y-94642000D01*
X56380748Y-96112000D02*
X56903252Y-96112000D01*
%TO.C,C12*%
X63219500Y-94538748D02*
X63219500Y-95961252D01*
X65939500Y-94538748D02*
X65939500Y-95961252D01*
%TO.C,C13*%
X65812500Y-87109248D02*
X65812500Y-88531752D01*
X63092500Y-87109248D02*
X63092500Y-88531752D01*
%TO.C,FB1*%
X80083779Y-101729000D02*
X79758221Y-101729000D01*
X80083779Y-100709000D02*
X79758221Y-100709000D01*
%TO.C,HC_DC*%
X50194000Y-59375500D02*
X50194000Y-80835500D01*
X65754000Y-59375500D02*
X71194000Y-59375500D01*
X50194000Y-59375500D02*
X61754000Y-59375500D01*
X50194000Y-80835500D02*
X61754000Y-80835500D01*
X65754000Y-80835500D02*
X71194000Y-80835500D01*
%TO.C,HC_AC*%
X149958000Y-91412000D02*
X149958000Y-60452000D01*
X132298000Y-60452000D02*
X128958000Y-60452000D01*
X132298000Y-91412000D02*
X128958000Y-91412000D01*
X149958000Y-91412000D02*
X140398000Y-91412000D01*
X149958000Y-60452000D02*
X140398000Y-60452000D01*
%TO.C,R9*%
X138382258Y-99227000D02*
X137907742Y-99227000D01*
X138382258Y-98182000D02*
X137907742Y-98182000D01*
%TO.C,R10*%
X138382258Y-102325000D02*
X137907742Y-102325000D01*
X138382258Y-101280000D02*
X137907742Y-101280000D01*
%TO.C,R20*%
X139048000Y-95767242D02*
X139048000Y-96241758D01*
X138003000Y-95767242D02*
X138003000Y-96241758D01*
%TO.C,R21*%
X138382258Y-104391500D02*
X137907742Y-104391500D01*
X138382258Y-105436500D02*
X137907742Y-105436500D01*
%TO.C,R22*%
X139590500Y-95767742D02*
X139590500Y-96242258D01*
X140635500Y-95767742D02*
X140635500Y-96242258D01*
%TO.C,R23*%
X138382758Y-99706000D02*
X137908242Y-99706000D01*
X138382758Y-100751000D02*
X137908242Y-100751000D01*
%TO.C,R24*%
X138381758Y-103912500D02*
X137907242Y-103912500D01*
X138381758Y-102867500D02*
X137907242Y-102867500D01*
%TO.C,R25*%
X138382258Y-105915500D02*
X137907742Y-105915500D01*
X138382258Y-106960500D02*
X137907742Y-106960500D01*
%TO.C,R38*%
X107799564Y-96960000D02*
X103445436Y-96960000D01*
X107799564Y-93540000D02*
X103445436Y-93540000D01*
%TO.C,R39*%
X107777564Y-77919000D02*
X103423436Y-77919000D01*
X107777564Y-81339000D02*
X103423436Y-81339000D01*
%TO.C,R41*%
X95140242Y-101649000D02*
X95614758Y-101649000D01*
X95140242Y-102694000D02*
X95614758Y-102694000D01*
%TO.C,R42*%
X95139742Y-101170000D02*
X95614258Y-101170000D01*
X95139742Y-100125000D02*
X95614258Y-100125000D01*
%TO.C,R43*%
X95139242Y-98601000D02*
X95613758Y-98601000D01*
X95139242Y-99646000D02*
X95613758Y-99646000D01*
%TO.C,R44*%
X95139742Y-98122000D02*
X95614258Y-98122000D01*
X95139742Y-97077000D02*
X95614258Y-97077000D01*
%TO.C,R45*%
X88949000Y-94471258D02*
X88949000Y-93996742D01*
X89994000Y-94471258D02*
X89994000Y-93996742D01*
%TO.C,R46*%
X91518000Y-94470758D02*
X91518000Y-93996242D01*
X90473000Y-94470758D02*
X90473000Y-93996242D01*
%TO.C,R47*%
X91997000Y-94471258D02*
X91997000Y-93996742D01*
X93042000Y-94471258D02*
X93042000Y-93996742D01*
%TO.C,R48*%
X94566000Y-94471258D02*
X94566000Y-93996742D01*
X93521000Y-94471258D02*
X93521000Y-93996742D01*
%TO.C,R49*%
X95045000Y-94471258D02*
X95045000Y-93996742D01*
X96090000Y-94471258D02*
X96090000Y-93996742D01*
%TO.C,R50*%
X87200000Y-94534258D02*
X87200000Y-94059742D01*
X86155000Y-94534258D02*
X86155000Y-94059742D01*
%TO.C,R51*%
X84631000Y-94534758D02*
X84631000Y-94060242D01*
X85676000Y-94534758D02*
X85676000Y-94060242D01*
%TO.C,R52*%
X84152000Y-94534758D02*
X84152000Y-94060242D01*
X83107000Y-94534758D02*
X83107000Y-94060242D01*
%TO.C,R53*%
X81519500Y-94535258D02*
X81519500Y-94060742D01*
X82564500Y-94535258D02*
X82564500Y-94060742D01*
%TO.C,R54*%
X81040500Y-94534758D02*
X81040500Y-94060242D01*
X79995500Y-94534758D02*
X79995500Y-94060242D01*
%TO.C,R55*%
X107777564Y-65210000D02*
X103423436Y-65210000D01*
X107777564Y-61790000D02*
X103423436Y-61790000D01*
%TO.C,+3V3*%
X65216000Y-92138500D02*
G75*
G03*
X65216000Y-92138500I-700000J0D01*
G01*
%TO.C,+5V0*%
X65216000Y-84455000D02*
G75*
G03*
X65216000Y-84455000I-700000J0D01*
G01*
%TO.C,U3*%
X62266000Y-95349500D02*
X62266000Y-95199500D01*
X59146000Y-95349500D02*
X62266000Y-95349500D01*
X60706000Y-92229500D02*
X62266000Y-92229500D01*
X59146000Y-95349500D02*
X59146000Y-95199500D01*
X62266000Y-92229500D02*
X62266000Y-92379500D01*
%TO.C,U4*%
X62202500Y-84101500D02*
X62202500Y-84251500D01*
X59082500Y-87221500D02*
X59082500Y-87071500D01*
X60642500Y-84101500D02*
X62202500Y-84101500D01*
X59082500Y-87221500D02*
X62202500Y-87221500D01*
X62202500Y-87221500D02*
X62202500Y-87071500D01*
%TO.C,U5*%
X85122000Y-105091000D02*
X84647000Y-105091000D01*
X84647000Y-105091000D02*
X84647000Y-104616000D01*
X90392000Y-98871000D02*
X90867000Y-98871000D01*
X90867000Y-98871000D02*
X90867000Y-99346000D01*
X85122000Y-98871000D02*
X84647000Y-98871000D01*
X84647000Y-98871000D02*
X84647000Y-99346000D01*
X90392000Y-105091000D02*
X90867000Y-105091000D01*
%TO.C,C29*%
X109027500Y-83718500D02*
X108527500Y-83718500D01*
X108527500Y-90318500D02*
X109027500Y-90318500D01*
X102427500Y-90318500D02*
X102427500Y-83718500D01*
X109027500Y-90318500D02*
X109027500Y-83718500D01*
X102427500Y-83718500D02*
X102927500Y-83718500D01*
X102427500Y-90318500D02*
X102927500Y-90318500D01*
%TO.C,C30*%
X102364000Y-74316500D02*
X102864000Y-74316500D01*
X102364000Y-67716500D02*
X102864000Y-67716500D01*
X108964000Y-74316500D02*
X108964000Y-67716500D01*
X102364000Y-74316500D02*
X102364000Y-67716500D01*
X108464000Y-74316500D02*
X108964000Y-74316500D01*
X108964000Y-67716500D02*
X108464000Y-67716500D01*
%TO.C,C33*%
X108964000Y-51754500D02*
X108464000Y-51754500D01*
X108464000Y-58354500D02*
X108964000Y-58354500D01*
X102364000Y-58354500D02*
X102364000Y-51754500D01*
X108964000Y-58354500D02*
X108964000Y-51754500D01*
X102364000Y-51754500D02*
X102864000Y-51754500D01*
X102364000Y-58354500D02*
X102864000Y-58354500D01*
%TO.C,ENCODER*%
X143427500Y-96171500D02*
X146027500Y-96171500D01*
X149327500Y-96171500D02*
X148727500Y-96171500D01*
X149327500Y-108171500D02*
X148727500Y-108171500D01*
X143427500Y-108171500D02*
X146127500Y-108171500D01*
X143377500Y-96171500D02*
X143377500Y-97671500D01*
X143377500Y-108171500D02*
X143377500Y-106671500D01*
X142947500Y-106971500D02*
G75*
G03*
X142947500Y-106971500I-120000J0D01*
G01*
X149377500Y-96171500D02*
X149377500Y-108171500D01*
%TO.C,I_C*%
X76297000Y-89650500D02*
G75*
G03*
X76297000Y-89650500I-1400000J0D01*
G01*
%TO.C,I_B*%
X76297000Y-93150500D02*
G75*
G03*
X76297000Y-93150500I-1400000J0D01*
G01*
%TO.C,I_A*%
X76297000Y-96650500D02*
G75*
G03*
X76297000Y-96650500I-1400000J0D01*
G01*
%TO.C,GHA*%
X100900000Y-103500000D02*
G75*
G03*
X100900000Y-103500000I-1400000J0D01*
G01*
%TO.C,GHB*%
X91400000Y-90000000D02*
G75*
G03*
X91400000Y-90000000I-1400000J0D01*
G01*
%TO.C,GHC*%
X87400000Y-90000000D02*
G75*
G03*
X87400000Y-90000000I-1400000J0D01*
G01*
%TO.C,GLA*%
X100900000Y-98500000D02*
G75*
G03*
X100900000Y-98500000I-1400000J0D01*
G01*
%TO.C,GLB*%
X96400000Y-90000000D02*
G75*
G03*
X96400000Y-90000000I-1400000J0D01*
G01*
%TO.C,GLC*%
X82400000Y-90000000D02*
G75*
G03*
X82400000Y-90000000I-1400000J0D01*
G01*
%TO.C,TEMP*%
X135300000Y-95700000D02*
G75*
G03*
X135300000Y-95700000I-1400000J0D01*
G01*
%TO.C,C36*%
X142260000Y-96140580D02*
X142260000Y-95859420D01*
X141240000Y-96140580D02*
X141240000Y-95859420D01*
%TO.C,ENCA*%
X131800000Y-95700000D02*
G75*
G03*
X131800000Y-95700000I-1400000J0D01*
G01*
%TO.C,ENCB*%
X128300000Y-95700000D02*
G75*
G03*
X128300000Y-95700000I-1400000J0D01*
G01*
%TO.C,ENCC*%
X124800000Y-95700000D02*
G75*
G03*
X124800000Y-95700000I-1400000J0D01*
G01*
D12*
%TO.C,C1*%
X128780000Y-102602420D02*
X128780000Y-102883580D01*
X127760000Y-102602420D02*
X127760000Y-102883580D01*
%TO.C,C6*%
X121981500Y-102792920D02*
X121981500Y-103074080D01*
X123001500Y-102792920D02*
X123001500Y-103074080D01*
%TO.C,C14*%
X122547748Y-113501500D02*
X123070252Y-113501500D01*
X122547748Y-114971500D02*
X123070252Y-114971500D01*
%TO.C,C17*%
X120457500Y-103061080D02*
X120457500Y-102779920D01*
X121477500Y-103061080D02*
X121477500Y-102779920D01*
%TO.C,C18*%
X117409500Y-103061080D02*
X117409500Y-102779920D01*
X118429500Y-103061080D02*
X118429500Y-102779920D01*
%TO.C,C20*%
X115318000Y-103061080D02*
X115318000Y-102779920D01*
X114298000Y-103061080D02*
X114298000Y-102779920D01*
%TO.C,C21*%
X132129920Y-104396000D02*
X132411080Y-104396000D01*
X132129920Y-103376000D02*
X132411080Y-103376000D01*
%TO.C,C22*%
X128335500Y-118159920D02*
X128335500Y-118441080D01*
X127315500Y-118159920D02*
X127315500Y-118441080D01*
%TO.C,C23*%
X119695500Y-118159920D02*
X119695500Y-118441080D01*
X120715500Y-118159920D02*
X120715500Y-118441080D01*
%TO.C,C35*%
X116334000Y-116331420D02*
X116334000Y-116612580D01*
X115314000Y-116331420D02*
X115314000Y-116612580D01*
%TO.C,R16*%
X123776000Y-118063242D02*
X123776000Y-118537758D01*
X122731000Y-118063242D02*
X122731000Y-118537758D01*
%TO.C,R17*%
X125780499Y-118068243D02*
X125780499Y-118542759D01*
X126825499Y-118068243D02*
X126825499Y-118542759D01*
%TO.C,R18*%
X132032742Y-104887500D02*
X132507258Y-104887500D01*
X132032742Y-105932500D02*
X132507258Y-105932500D01*
%TO.C,R27*%
X132033242Y-107456500D02*
X132507758Y-107456500D01*
X132033242Y-106411500D02*
X132507758Y-106411500D01*
%TO.C,R28*%
X124255000Y-118542759D02*
X124255000Y-118068243D01*
X125300000Y-118542759D02*
X125300000Y-118068243D01*
%TO.C,R29*%
X112698000Y-103171258D02*
X112698000Y-102696742D01*
X113743000Y-103171258D02*
X113743000Y-102696742D01*
%TO.C,R30*%
X115809500Y-103171258D02*
X115809500Y-102696742D01*
X116854500Y-103171258D02*
X116854500Y-102696742D01*
%TO.C,R31*%
X119966000Y-103170258D02*
X119966000Y-102695742D01*
X118921000Y-103170258D02*
X118921000Y-102695742D01*
%TO.C,R32*%
X121207000Y-118537258D02*
X121207000Y-118062742D01*
X122252000Y-118537258D02*
X122252000Y-118062742D01*
%TO.C,R56*%
X113777500Y-116221742D02*
X113777500Y-116696258D01*
X114822500Y-116221742D02*
X114822500Y-116696258D01*
%TO.C,U2*%
X122871000Y-107406500D02*
X122871000Y-106681500D01*
X116651000Y-112901500D02*
X117376000Y-112901500D01*
X116651000Y-112176500D02*
X116651000Y-112901500D01*
X116651000Y-106681500D02*
X117376000Y-106681500D01*
X116651000Y-107406500D02*
X116651000Y-106681500D01*
X122871000Y-112901500D02*
X122146000Y-112901500D01*
X122871000Y-112176500D02*
X122871000Y-112901500D01*
%TO.C,R26*%
D13*
X107053142Y-117546380D02*
X106719809Y-117070190D01*
X106481714Y-117546380D02*
X106481714Y-116546380D01*
X106862666Y-116546380D01*
X106957904Y-116594000D01*
X107005523Y-116641619D01*
X107053142Y-116736857D01*
X107053142Y-116879714D01*
X107005523Y-116974952D01*
X106957904Y-117022571D01*
X106862666Y-117070190D01*
X106481714Y-117070190D01*
X107434095Y-116641619D02*
X107481714Y-116594000D01*
X107576952Y-116546380D01*
X107815047Y-116546380D01*
X107910285Y-116594000D01*
X107957904Y-116641619D01*
X108005523Y-116736857D01*
X108005523Y-116832095D01*
X107957904Y-116974952D01*
X107386476Y-117546380D01*
X108005523Y-117546380D01*
X108862666Y-116546380D02*
X108672190Y-116546380D01*
X108576952Y-116594000D01*
X108529333Y-116641619D01*
X108434095Y-116784476D01*
X108386476Y-116974952D01*
X108386476Y-117355904D01*
X108434095Y-117451142D01*
X108481714Y-117498761D01*
X108576952Y-117546380D01*
X108767428Y-117546380D01*
X108862666Y-117498761D01*
X108910285Y-117451142D01*
X108957904Y-117355904D01*
X108957904Y-117117809D01*
X108910285Y-117022571D01*
X108862666Y-116974952D01*
X108767428Y-116927333D01*
X108576952Y-116927333D01*
X108481714Y-116974952D01*
X108434095Y-117022571D01*
X108386476Y-117117809D01*
%TO.C,C19*%
X107053142Y-116181142D02*
X107005523Y-116228761D01*
X106862666Y-116276380D01*
X106767428Y-116276380D01*
X106624571Y-116228761D01*
X106529333Y-116133523D01*
X106481714Y-116038285D01*
X106434095Y-115847809D01*
X106434095Y-115704952D01*
X106481714Y-115514476D01*
X106529333Y-115419238D01*
X106624571Y-115324000D01*
X106767428Y-115276380D01*
X106862666Y-115276380D01*
X107005523Y-115324000D01*
X107053142Y-115371619D01*
X108005523Y-116276380D02*
X107434095Y-116276380D01*
X107719809Y-116276380D02*
X107719809Y-115276380D01*
X107624571Y-115419238D01*
X107529333Y-115514476D01*
X107434095Y-115562095D01*
X108481714Y-116276380D02*
X108672190Y-116276380D01*
X108767428Y-116228761D01*
X108815047Y-116181142D01*
X108910285Y-116038285D01*
X108957904Y-115847809D01*
X108957904Y-115466857D01*
X108910285Y-115371619D01*
X108862666Y-115324000D01*
X108767428Y-115276380D01*
X108576952Y-115276380D01*
X108481714Y-115324000D01*
X108434095Y-115371619D01*
X108386476Y-115466857D01*
X108386476Y-115704952D01*
X108434095Y-115800190D01*
X108481714Y-115847809D01*
X108576952Y-115895428D01*
X108767428Y-115895428D01*
X108862666Y-115847809D01*
X108910285Y-115800190D01*
X108957904Y-115704952D01*
%TO.C,R12*%
X106799142Y-110180380D02*
X106465809Y-109704190D01*
X106227714Y-110180380D02*
X106227714Y-109180380D01*
X106608666Y-109180380D01*
X106703904Y-109228000D01*
X106751523Y-109275619D01*
X106799142Y-109370857D01*
X106799142Y-109513714D01*
X106751523Y-109608952D01*
X106703904Y-109656571D01*
X106608666Y-109704190D01*
X106227714Y-109704190D01*
X107751523Y-110180380D02*
X107180095Y-110180380D01*
X107465809Y-110180380D02*
X107465809Y-109180380D01*
X107370571Y-109323238D01*
X107275333Y-109418476D01*
X107180095Y-109466095D01*
X108132476Y-109275619D02*
X108180095Y-109228000D01*
X108275333Y-109180380D01*
X108513428Y-109180380D01*
X108608666Y-109228000D01*
X108656285Y-109275619D01*
X108703904Y-109370857D01*
X108703904Y-109466095D01*
X108656285Y-109608952D01*
X108084857Y-110180380D01*
X108703904Y-110180380D01*
%TO.C,R13*%
X106799142Y-113228380D02*
X106465809Y-112752190D01*
X106227714Y-113228380D02*
X106227714Y-112228380D01*
X106608666Y-112228380D01*
X106703904Y-112276000D01*
X106751523Y-112323619D01*
X106799142Y-112418857D01*
X106799142Y-112561714D01*
X106751523Y-112656952D01*
X106703904Y-112704571D01*
X106608666Y-112752190D01*
X106227714Y-112752190D01*
X107751523Y-113228380D02*
X107180095Y-113228380D01*
X107465809Y-113228380D02*
X107465809Y-112228380D01*
X107370571Y-112371238D01*
X107275333Y-112466476D01*
X107180095Y-112514095D01*
X108084857Y-112228380D02*
X108703904Y-112228380D01*
X108370571Y-112609333D01*
X108513428Y-112609333D01*
X108608666Y-112656952D01*
X108656285Y-112704571D01*
X108703904Y-112799809D01*
X108703904Y-113037904D01*
X108656285Y-113133142D01*
X108608666Y-113180761D01*
X108513428Y-113228380D01*
X108227714Y-113228380D01*
X108132476Y-113180761D01*
X108084857Y-113133142D01*
%TO.C,R11*%
X106799142Y-108656380D02*
X106465809Y-108180190D01*
X106227714Y-108656380D02*
X106227714Y-107656380D01*
X106608666Y-107656380D01*
X106703904Y-107704000D01*
X106751523Y-107751619D01*
X106799142Y-107846857D01*
X106799142Y-107989714D01*
X106751523Y-108084952D01*
X106703904Y-108132571D01*
X106608666Y-108180190D01*
X106227714Y-108180190D01*
X107751523Y-108656380D02*
X107180095Y-108656380D01*
X107465809Y-108656380D02*
X107465809Y-107656380D01*
X107370571Y-107799238D01*
X107275333Y-107894476D01*
X107180095Y-107942095D01*
X108703904Y-108656380D02*
X108132476Y-108656380D01*
X108418190Y-108656380D02*
X108418190Y-107656380D01*
X108322952Y-107799238D01*
X108227714Y-107894476D01*
X108132476Y-107942095D01*
%TO.C,R14*%
X106799142Y-107132380D02*
X106465809Y-106656190D01*
X106227714Y-107132380D02*
X106227714Y-106132380D01*
X106608666Y-106132380D01*
X106703904Y-106180000D01*
X106751523Y-106227619D01*
X106799142Y-106322857D01*
X106799142Y-106465714D01*
X106751523Y-106560952D01*
X106703904Y-106608571D01*
X106608666Y-106656190D01*
X106227714Y-106656190D01*
X107751523Y-107132380D02*
X107180095Y-107132380D01*
X107465809Y-107132380D02*
X107465809Y-106132380D01*
X107370571Y-106275238D01*
X107275333Y-106370476D01*
X107180095Y-106418095D01*
X108608666Y-106465714D02*
X108608666Y-107132380D01*
X108370571Y-106084761D02*
X108132476Y-106799047D01*
X108751523Y-106799047D01*
%TO.C,R15*%
X113149142Y-105608380D02*
X112815809Y-105132190D01*
X112577714Y-105608380D02*
X112577714Y-104608380D01*
X112958666Y-104608380D01*
X113053904Y-104656000D01*
X113101523Y-104703619D01*
X113149142Y-104798857D01*
X113149142Y-104941714D01*
X113101523Y-105036952D01*
X113053904Y-105084571D01*
X112958666Y-105132190D01*
X112577714Y-105132190D01*
X114101523Y-105608380D02*
X113530095Y-105608380D01*
X113815809Y-105608380D02*
X113815809Y-104608380D01*
X113720571Y-104751238D01*
X113625333Y-104846476D01*
X113530095Y-104894095D01*
X115006285Y-104608380D02*
X114530095Y-104608380D01*
X114482476Y-105084571D01*
X114530095Y-105036952D01*
X114625333Y-104989333D01*
X114863428Y-104989333D01*
X114958666Y-105036952D01*
X115006285Y-105084571D01*
X115053904Y-105179809D01*
X115053904Y-105417904D01*
X115006285Y-105513142D01*
X114958666Y-105560761D01*
X114863428Y-105608380D01*
X114625333Y-105608380D01*
X114530095Y-105560761D01*
X114482476Y-105513142D01*
%TO.C,R19*%
X113149142Y-114752380D02*
X112815809Y-114276190D01*
X112577714Y-114752380D02*
X112577714Y-113752380D01*
X112958666Y-113752380D01*
X113053904Y-113800000D01*
X113101523Y-113847619D01*
X113149142Y-113942857D01*
X113149142Y-114085714D01*
X113101523Y-114180952D01*
X113053904Y-114228571D01*
X112958666Y-114276190D01*
X112577714Y-114276190D01*
X114101523Y-114752380D02*
X113530095Y-114752380D01*
X113815809Y-114752380D02*
X113815809Y-113752380D01*
X113720571Y-113895238D01*
X113625333Y-113990476D01*
X113530095Y-114038095D01*
X114577714Y-114752380D02*
X114768190Y-114752380D01*
X114863428Y-114704761D01*
X114911047Y-114657142D01*
X115006285Y-114514285D01*
X115053904Y-114323809D01*
X115053904Y-113942857D01*
X115006285Y-113847619D01*
X114958666Y-113800000D01*
X114863428Y-113752380D01*
X114672952Y-113752380D01*
X114577714Y-113800000D01*
X114530095Y-113847619D01*
X114482476Y-113942857D01*
X114482476Y-114180952D01*
X114530095Y-114276190D01*
X114577714Y-114323809D01*
X114672952Y-114371428D01*
X114863428Y-114371428D01*
X114958666Y-114323809D01*
X115006285Y-114276190D01*
X115053904Y-114180952D01*
%TO.C,R33*%
X106799142Y-111704380D02*
X106465809Y-111228190D01*
X106227714Y-111704380D02*
X106227714Y-110704380D01*
X106608666Y-110704380D01*
X106703904Y-110752000D01*
X106751523Y-110799619D01*
X106799142Y-110894857D01*
X106799142Y-111037714D01*
X106751523Y-111132952D01*
X106703904Y-111180571D01*
X106608666Y-111228190D01*
X106227714Y-111228190D01*
X107132476Y-110704380D02*
X107751523Y-110704380D01*
X107418190Y-111085333D01*
X107561047Y-111085333D01*
X107656285Y-111132952D01*
X107703904Y-111180571D01*
X107751523Y-111275809D01*
X107751523Y-111513904D01*
X107703904Y-111609142D01*
X107656285Y-111656761D01*
X107561047Y-111704380D01*
X107275333Y-111704380D01*
X107180095Y-111656761D01*
X107132476Y-111609142D01*
X108084857Y-110704380D02*
X108703904Y-110704380D01*
X108370571Y-111085333D01*
X108513428Y-111085333D01*
X108608666Y-111132952D01*
X108656285Y-111180571D01*
X108703904Y-111275809D01*
X108703904Y-111513904D01*
X108656285Y-111609142D01*
X108608666Y-111656761D01*
X108513428Y-111704380D01*
X108227714Y-111704380D01*
X108132476Y-111656761D01*
X108084857Y-111609142D01*
%TO.C,TP13*%
X105322904Y-101309880D02*
X105894333Y-101309880D01*
X105608619Y-102309880D02*
X105608619Y-101309880D01*
X106227666Y-102309880D02*
X106227666Y-101309880D01*
X106608619Y-101309880D01*
X106703857Y-101357500D01*
X106751476Y-101405119D01*
X106799095Y-101500357D01*
X106799095Y-101643214D01*
X106751476Y-101738452D01*
X106703857Y-101786071D01*
X106608619Y-101833690D01*
X106227666Y-101833690D01*
X107751476Y-102309880D02*
X107180047Y-102309880D01*
X107465761Y-102309880D02*
X107465761Y-101309880D01*
X107370523Y-101452738D01*
X107275285Y-101547976D01*
X107180047Y-101595595D01*
X108084809Y-101309880D02*
X108703857Y-101309880D01*
X108370523Y-101690833D01*
X108513380Y-101690833D01*
X108608619Y-101738452D01*
X108656238Y-101786071D01*
X108703857Y-101881309D01*
X108703857Y-102119404D01*
X108656238Y-102214642D01*
X108608619Y-102262261D01*
X108513380Y-102309880D01*
X108227666Y-102309880D01*
X108132428Y-102262261D01*
X108084809Y-102214642D01*
%TO.C,R34*%
X110100642Y-102560380D02*
X109767309Y-102084190D01*
X109529214Y-102560380D02*
X109529214Y-101560380D01*
X109910166Y-101560380D01*
X110005404Y-101608000D01*
X110053023Y-101655619D01*
X110100642Y-101750857D01*
X110100642Y-101893714D01*
X110053023Y-101988952D01*
X110005404Y-102036571D01*
X109910166Y-102084190D01*
X109529214Y-102084190D01*
X110433976Y-101560380D02*
X111053023Y-101560380D01*
X110719690Y-101941333D01*
X110862547Y-101941333D01*
X110957785Y-101988952D01*
X111005404Y-102036571D01*
X111053023Y-102131809D01*
X111053023Y-102369904D01*
X111005404Y-102465142D01*
X110957785Y-102512761D01*
X110862547Y-102560380D01*
X110576833Y-102560380D01*
X110481595Y-102512761D01*
X110433976Y-102465142D01*
X111910166Y-101893714D02*
X111910166Y-102560380D01*
X111672071Y-101512761D02*
X111433976Y-102227047D01*
X112053023Y-102227047D01*
%TO.C,C9*%
D10*
X73524533Y-108494285D02*
X73485828Y-108532990D01*
X73369714Y-108571695D01*
X73292304Y-108571695D01*
X73176190Y-108532990D01*
X73098780Y-108455580D01*
X73060076Y-108378171D01*
X73021371Y-108223352D01*
X73021371Y-108107238D01*
X73060076Y-107952419D01*
X73098780Y-107875009D01*
X73176190Y-107797600D01*
X73292304Y-107758895D01*
X73369714Y-107758895D01*
X73485828Y-107797600D01*
X73524533Y-107836304D01*
X73911580Y-108571695D02*
X74066400Y-108571695D01*
X74143809Y-108532990D01*
X74182514Y-108494285D01*
X74259923Y-108378171D01*
X74298628Y-108223352D01*
X74298628Y-107913714D01*
X74259923Y-107836304D01*
X74221219Y-107797600D01*
X74143809Y-107758895D01*
X73988990Y-107758895D01*
X73911580Y-107797600D01*
X73872876Y-107836304D01*
X73834171Y-107913714D01*
X73834171Y-108107238D01*
X73872876Y-108184647D01*
X73911580Y-108223352D01*
X73988990Y-108262057D01*
X74143809Y-108262057D01*
X74221219Y-108223352D01*
X74259923Y-108184647D01*
X74298628Y-108107238D01*
%TO.C,C10*%
X62215485Y-115860285D02*
X62176780Y-115898990D01*
X62060666Y-115937695D01*
X61983257Y-115937695D01*
X61867142Y-115898990D01*
X61789733Y-115821580D01*
X61751028Y-115744171D01*
X61712323Y-115589352D01*
X61712323Y-115473238D01*
X61751028Y-115318419D01*
X61789733Y-115241009D01*
X61867142Y-115163600D01*
X61983257Y-115124895D01*
X62060666Y-115124895D01*
X62176780Y-115163600D01*
X62215485Y-115202304D01*
X62989580Y-115937695D02*
X62525123Y-115937695D01*
X62757352Y-115937695D02*
X62757352Y-115124895D01*
X62679942Y-115241009D01*
X62602533Y-115318419D01*
X62525123Y-115357123D01*
X63492742Y-115124895D02*
X63570152Y-115124895D01*
X63647561Y-115163600D01*
X63686266Y-115202304D01*
X63724971Y-115279714D01*
X63763676Y-115434533D01*
X63763676Y-115628057D01*
X63724971Y-115782876D01*
X63686266Y-115860285D01*
X63647561Y-115898990D01*
X63570152Y-115937695D01*
X63492742Y-115937695D01*
X63415333Y-115898990D01*
X63376628Y-115860285D01*
X63337923Y-115782876D01*
X63299219Y-115628057D01*
X63299219Y-115434533D01*
X63337923Y-115279714D01*
X63376628Y-115202304D01*
X63415333Y-115163600D01*
X63492742Y-115124895D01*
%TO.C,C8*%
X62602533Y-109510285D02*
X62563828Y-109548990D01*
X62447714Y-109587695D01*
X62370304Y-109587695D01*
X62254190Y-109548990D01*
X62176780Y-109471580D01*
X62138076Y-109394171D01*
X62099371Y-109239352D01*
X62099371Y-109123238D01*
X62138076Y-108968419D01*
X62176780Y-108891009D01*
X62254190Y-108813600D01*
X62370304Y-108774895D01*
X62447714Y-108774895D01*
X62563828Y-108813600D01*
X62602533Y-108852304D01*
X63066990Y-109123238D02*
X62989580Y-109084533D01*
X62950876Y-109045828D01*
X62912171Y-108968419D01*
X62912171Y-108929714D01*
X62950876Y-108852304D01*
X62989580Y-108813600D01*
X63066990Y-108774895D01*
X63221809Y-108774895D01*
X63299219Y-108813600D01*
X63337923Y-108852304D01*
X63376628Y-108929714D01*
X63376628Y-108968419D01*
X63337923Y-109045828D01*
X63299219Y-109084533D01*
X63221809Y-109123238D01*
X63066990Y-109123238D01*
X62989580Y-109161942D01*
X62950876Y-109200647D01*
X62912171Y-109278057D01*
X62912171Y-109432876D01*
X62950876Y-109510285D01*
X62989580Y-109548990D01*
X63066990Y-109587695D01*
X63221809Y-109587695D01*
X63299219Y-109548990D01*
X63337923Y-109510285D01*
X63376628Y-109432876D01*
X63376628Y-109278057D01*
X63337923Y-109200647D01*
X63299219Y-109161942D01*
X63221809Y-109123238D01*
%TO.C,C7*%
X78858533Y-109827785D02*
X78819828Y-109866490D01*
X78703714Y-109905195D01*
X78626304Y-109905195D01*
X78510190Y-109866490D01*
X78432780Y-109789080D01*
X78394076Y-109711671D01*
X78355371Y-109556852D01*
X78355371Y-109440738D01*
X78394076Y-109285919D01*
X78432780Y-109208509D01*
X78510190Y-109131100D01*
X78626304Y-109092395D01*
X78703714Y-109092395D01*
X78819828Y-109131100D01*
X78858533Y-109169804D01*
X79129466Y-109092395D02*
X79671333Y-109092395D01*
X79322990Y-109905195D01*
%TO.C,SWD*%
X131738914Y-110818990D02*
X131855028Y-110857695D01*
X132048552Y-110857695D01*
X132125961Y-110818990D01*
X132164666Y-110780285D01*
X132203371Y-110702876D01*
X132203371Y-110625466D01*
X132164666Y-110548057D01*
X132125961Y-110509352D01*
X132048552Y-110470647D01*
X131893733Y-110431942D01*
X131816323Y-110393238D01*
X131777619Y-110354533D01*
X131738914Y-110277123D01*
X131738914Y-110199714D01*
X131777619Y-110122304D01*
X131816323Y-110083600D01*
X131893733Y-110044895D01*
X132087257Y-110044895D01*
X132203371Y-110083600D01*
X132474304Y-110044895D02*
X132667828Y-110857695D01*
X132822647Y-110277123D01*
X132977466Y-110857695D01*
X133170990Y-110044895D01*
X133480628Y-110857695D02*
X133480628Y-110044895D01*
X133674152Y-110044895D01*
X133790266Y-110083600D01*
X133867676Y-110161009D01*
X133906380Y-110238419D01*
X133945085Y-110393238D01*
X133945085Y-110509352D01*
X133906380Y-110664171D01*
X133867676Y-110741580D01*
X133790266Y-110818990D01*
X133674152Y-110857695D01*
X133480628Y-110857695D01*
%TO.C,Q1*%
X131240590Y-119571104D02*
X131163180Y-119532400D01*
X131085771Y-119454990D01*
X130969657Y-119338876D01*
X130892247Y-119300171D01*
X130814838Y-119300171D01*
X130853542Y-119493695D02*
X130776133Y-119454990D01*
X130698723Y-119377580D01*
X130660019Y-119222761D01*
X130660019Y-118951828D01*
X130698723Y-118797009D01*
X130776133Y-118719600D01*
X130853542Y-118680895D01*
X131008361Y-118680895D01*
X131085771Y-118719600D01*
X131163180Y-118797009D01*
X131201885Y-118951828D01*
X131201885Y-119222761D01*
X131163180Y-119377580D01*
X131085771Y-119454990D01*
X131008361Y-119493695D01*
X130853542Y-119493695D01*
X131975980Y-119493695D02*
X131511523Y-119493695D01*
X131743752Y-119493695D02*
X131743752Y-118680895D01*
X131666342Y-118797009D01*
X131588933Y-118874419D01*
X131511523Y-118913123D01*
%TO.C,EXT UART*%
X60393942Y-103762628D02*
X60393942Y-103491695D01*
X60819695Y-103375580D02*
X60819695Y-103762628D01*
X60006895Y-103762628D01*
X60006895Y-103375580D01*
X60006895Y-103104647D02*
X60819695Y-102562780D01*
X60006895Y-102562780D02*
X60819695Y-103104647D01*
X60006895Y-102369257D02*
X60006895Y-101904800D01*
X60819695Y-102137028D02*
X60006895Y-102137028D01*
X60006895Y-101014590D02*
X60664876Y-101014590D01*
X60742285Y-100975885D01*
X60780990Y-100937180D01*
X60819695Y-100859771D01*
X60819695Y-100704952D01*
X60780990Y-100627542D01*
X60742285Y-100588838D01*
X60664876Y-100550133D01*
X60006895Y-100550133D01*
X60587466Y-100201790D02*
X60587466Y-99814742D01*
X60819695Y-100279200D02*
X60006895Y-100008266D01*
X60819695Y-99737333D01*
X60819695Y-99001942D02*
X60432647Y-99272876D01*
X60819695Y-99466400D02*
X60006895Y-99466400D01*
X60006895Y-99156761D01*
X60045600Y-99079352D01*
X60084304Y-99040647D01*
X60161714Y-99001942D01*
X60277828Y-99001942D01*
X60355238Y-99040647D01*
X60393942Y-99079352D01*
X60432647Y-99156761D01*
X60432647Y-99466400D01*
X60006895Y-98769714D02*
X60006895Y-98305257D01*
X60819695Y-98537485D02*
X60006895Y-98537485D01*
%TO.C,R40*%
X92187485Y-103999695D02*
X91916552Y-103612647D01*
X91723028Y-103999695D02*
X91723028Y-103186895D01*
X92032666Y-103186895D01*
X92110076Y-103225600D01*
X92148780Y-103264304D01*
X92187485Y-103341714D01*
X92187485Y-103457828D01*
X92148780Y-103535238D01*
X92110076Y-103573942D01*
X92032666Y-103612647D01*
X91723028Y-103612647D01*
X92884171Y-103457828D02*
X92884171Y-103999695D01*
X92690647Y-103148190D02*
X92497123Y-103728761D01*
X93000285Y-103728761D01*
X93464742Y-103186895D02*
X93542152Y-103186895D01*
X93619561Y-103225600D01*
X93658266Y-103264304D01*
X93696971Y-103341714D01*
X93735676Y-103496533D01*
X93735676Y-103690057D01*
X93696971Y-103844876D01*
X93658266Y-103922285D01*
X93619561Y-103960990D01*
X93542152Y-103999695D01*
X93464742Y-103999695D01*
X93387333Y-103960990D01*
X93348628Y-103922285D01*
X93309923Y-103844876D01*
X93271219Y-103690057D01*
X93271219Y-103496533D01*
X93309923Y-103341714D01*
X93348628Y-103264304D01*
X93387333Y-103225600D01*
X93464742Y-103186895D01*
%TO.C,RESET*%
X60033504Y-119747695D02*
X59762571Y-119360647D01*
X59569047Y-119747695D02*
X59569047Y-118934895D01*
X59878685Y-118934895D01*
X59956095Y-118973600D01*
X59994800Y-119012304D01*
X60033504Y-119089714D01*
X60033504Y-119205828D01*
X59994800Y-119283238D01*
X59956095Y-119321942D01*
X59878685Y-119360647D01*
X59569047Y-119360647D01*
X60381847Y-119321942D02*
X60652780Y-119321942D01*
X60768895Y-119747695D02*
X60381847Y-119747695D01*
X60381847Y-118934895D01*
X60768895Y-118934895D01*
X61078533Y-119708990D02*
X61194647Y-119747695D01*
X61388171Y-119747695D01*
X61465580Y-119708990D01*
X61504285Y-119670285D01*
X61542990Y-119592876D01*
X61542990Y-119515466D01*
X61504285Y-119438057D01*
X61465580Y-119399352D01*
X61388171Y-119360647D01*
X61233352Y-119321942D01*
X61155942Y-119283238D01*
X61117238Y-119244533D01*
X61078533Y-119167123D01*
X61078533Y-119089714D01*
X61117238Y-119012304D01*
X61155942Y-118973600D01*
X61233352Y-118934895D01*
X61426876Y-118934895D01*
X61542990Y-118973600D01*
X61891333Y-119321942D02*
X62162266Y-119321942D01*
X62278380Y-119747695D02*
X61891333Y-119747695D01*
X61891333Y-118934895D01*
X62278380Y-118934895D01*
X62510609Y-118934895D02*
X62975066Y-118934895D01*
X62742838Y-119747695D02*
X62742838Y-118934895D01*
%TO.C,BRAKE*%
X55425219Y-119321942D02*
X55541333Y-119360647D01*
X55580038Y-119399352D01*
X55618742Y-119476761D01*
X55618742Y-119592876D01*
X55580038Y-119670285D01*
X55541333Y-119708990D01*
X55463923Y-119747695D01*
X55154285Y-119747695D01*
X55154285Y-118934895D01*
X55425219Y-118934895D01*
X55502628Y-118973600D01*
X55541333Y-119012304D01*
X55580038Y-119089714D01*
X55580038Y-119167123D01*
X55541333Y-119244533D01*
X55502628Y-119283238D01*
X55425219Y-119321942D01*
X55154285Y-119321942D01*
X56431542Y-119747695D02*
X56160609Y-119360647D01*
X55967085Y-119747695D02*
X55967085Y-118934895D01*
X56276723Y-118934895D01*
X56354133Y-118973600D01*
X56392838Y-119012304D01*
X56431542Y-119089714D01*
X56431542Y-119205828D01*
X56392838Y-119283238D01*
X56354133Y-119321942D01*
X56276723Y-119360647D01*
X55967085Y-119360647D01*
X56741180Y-119515466D02*
X57128228Y-119515466D01*
X56663771Y-119747695D02*
X56934704Y-118934895D01*
X57205638Y-119747695D01*
X57476571Y-119747695D02*
X57476571Y-118934895D01*
X57941028Y-119747695D02*
X57592685Y-119283238D01*
X57941028Y-118934895D02*
X57476571Y-119399352D01*
X58289371Y-119321942D02*
X58560304Y-119321942D01*
X58676419Y-119747695D02*
X58289371Y-119747695D01*
X58289371Y-118934895D01*
X58676419Y-118934895D01*
%TO.C,R3*%
X73524533Y-107301695D02*
X73253600Y-106914647D01*
X73060076Y-107301695D02*
X73060076Y-106488895D01*
X73369714Y-106488895D01*
X73447123Y-106527600D01*
X73485828Y-106566304D01*
X73524533Y-106643714D01*
X73524533Y-106759828D01*
X73485828Y-106837238D01*
X73447123Y-106875942D01*
X73369714Y-106914647D01*
X73060076Y-106914647D01*
X73795466Y-106488895D02*
X74298628Y-106488895D01*
X74027695Y-106798533D01*
X74143809Y-106798533D01*
X74221219Y-106837238D01*
X74259923Y-106875942D01*
X74298628Y-106953352D01*
X74298628Y-107146876D01*
X74259923Y-107224285D01*
X74221219Y-107262990D01*
X74143809Y-107301695D01*
X73911580Y-107301695D01*
X73834171Y-107262990D01*
X73795466Y-107224285D01*
%TO.C,R4*%
X62666033Y-114667695D02*
X62395100Y-114280647D01*
X62201576Y-114667695D02*
X62201576Y-113854895D01*
X62511214Y-113854895D01*
X62588623Y-113893600D01*
X62627328Y-113932304D01*
X62666033Y-114009714D01*
X62666033Y-114125828D01*
X62627328Y-114203238D01*
X62588623Y-114241942D01*
X62511214Y-114280647D01*
X62201576Y-114280647D01*
X63362719Y-114125828D02*
X63362719Y-114667695D01*
X63169195Y-113816190D02*
X62975671Y-114396761D01*
X63478833Y-114396761D01*
%TO.C,R5*%
X68190533Y-114667695D02*
X67919600Y-114280647D01*
X67726076Y-114667695D02*
X67726076Y-113854895D01*
X68035714Y-113854895D01*
X68113123Y-113893600D01*
X68151828Y-113932304D01*
X68190533Y-114009714D01*
X68190533Y-114125828D01*
X68151828Y-114203238D01*
X68113123Y-114241942D01*
X68035714Y-114280647D01*
X67726076Y-114280647D01*
X68925923Y-113854895D02*
X68538876Y-113854895D01*
X68500171Y-114241942D01*
X68538876Y-114203238D01*
X68616285Y-114164533D01*
X68809809Y-114164533D01*
X68887219Y-114203238D01*
X68925923Y-114241942D01*
X68964628Y-114319352D01*
X68964628Y-114512876D01*
X68925923Y-114590285D01*
X68887219Y-114628990D01*
X68809809Y-114667695D01*
X68616285Y-114667695D01*
X68538876Y-114628990D01*
X68500171Y-114590285D01*
%TO.C,SDOW*%
X59685161Y-118438990D02*
X59801276Y-118477695D01*
X59994800Y-118477695D01*
X60072209Y-118438990D01*
X60110914Y-118400285D01*
X60149619Y-118322876D01*
X60149619Y-118245466D01*
X60110914Y-118168057D01*
X60072209Y-118129352D01*
X59994800Y-118090647D01*
X59839980Y-118051942D01*
X59762571Y-118013238D01*
X59723866Y-117974533D01*
X59685161Y-117897123D01*
X59685161Y-117819714D01*
X59723866Y-117742304D01*
X59762571Y-117703600D01*
X59839980Y-117664895D01*
X60033504Y-117664895D01*
X60149619Y-117703600D01*
X60497961Y-118477695D02*
X60497961Y-117664895D01*
X60691485Y-117664895D01*
X60807600Y-117703600D01*
X60885009Y-117781009D01*
X60923714Y-117858419D01*
X60962419Y-118013238D01*
X60962419Y-118129352D01*
X60923714Y-118284171D01*
X60885009Y-118361580D01*
X60807600Y-118438990D01*
X60691485Y-118477695D01*
X60497961Y-118477695D01*
X61465580Y-117664895D02*
X61620400Y-117664895D01*
X61697809Y-117703600D01*
X61775219Y-117781009D01*
X61813923Y-117935828D01*
X61813923Y-118206761D01*
X61775219Y-118361580D01*
X61697809Y-118438990D01*
X61620400Y-118477695D01*
X61465580Y-118477695D01*
X61388171Y-118438990D01*
X61310761Y-118361580D01*
X61272057Y-118206761D01*
X61272057Y-117935828D01*
X61310761Y-117781009D01*
X61388171Y-117703600D01*
X61465580Y-117664895D01*
X62084857Y-117664895D02*
X62278380Y-118477695D01*
X62433200Y-117897123D01*
X62588019Y-118477695D01*
X62781542Y-117664895D01*
%TO.C,R2*%
X62602533Y-108063695D02*
X62331600Y-107676647D01*
X62138076Y-108063695D02*
X62138076Y-107250895D01*
X62447714Y-107250895D01*
X62525123Y-107289600D01*
X62563828Y-107328304D01*
X62602533Y-107405714D01*
X62602533Y-107521828D01*
X62563828Y-107599238D01*
X62525123Y-107637942D01*
X62447714Y-107676647D01*
X62138076Y-107676647D01*
X62912171Y-107328304D02*
X62950876Y-107289600D01*
X63028285Y-107250895D01*
X63221809Y-107250895D01*
X63299219Y-107289600D01*
X63337923Y-107328304D01*
X63376628Y-107405714D01*
X63376628Y-107483123D01*
X63337923Y-107599238D01*
X62873466Y-108063695D01*
X63376628Y-108063695D01*
%TO.C,R1*%
X78858533Y-111365695D02*
X78587600Y-110978647D01*
X78394076Y-111365695D02*
X78394076Y-110552895D01*
X78703714Y-110552895D01*
X78781123Y-110591600D01*
X78819828Y-110630304D01*
X78858533Y-110707714D01*
X78858533Y-110823828D01*
X78819828Y-110901238D01*
X78781123Y-110939942D01*
X78703714Y-110978647D01*
X78394076Y-110978647D01*
X79632628Y-111365695D02*
X79168171Y-111365695D01*
X79400400Y-111365695D02*
X79400400Y-110552895D01*
X79322990Y-110669009D01*
X79245580Y-110746419D01*
X79168171Y-110785123D01*
%TO.C,SUP*%
X57101619Y-118438990D02*
X57217733Y-118477695D01*
X57411257Y-118477695D01*
X57488666Y-118438990D01*
X57527371Y-118400285D01*
X57566076Y-118322876D01*
X57566076Y-118245466D01*
X57527371Y-118168057D01*
X57488666Y-118129352D01*
X57411257Y-118090647D01*
X57256438Y-118051942D01*
X57179028Y-118013238D01*
X57140323Y-117974533D01*
X57101619Y-117897123D01*
X57101619Y-117819714D01*
X57140323Y-117742304D01*
X57179028Y-117703600D01*
X57256438Y-117664895D01*
X57449961Y-117664895D01*
X57566076Y-117703600D01*
X57914419Y-117664895D02*
X57914419Y-118322876D01*
X57953123Y-118400285D01*
X57991828Y-118438990D01*
X58069238Y-118477695D01*
X58224057Y-118477695D01*
X58301466Y-118438990D01*
X58340171Y-118400285D01*
X58378876Y-118322876D01*
X58378876Y-117664895D01*
X58765923Y-118477695D02*
X58765923Y-117664895D01*
X59075561Y-117664895D01*
X59152971Y-117703600D01*
X59191676Y-117742304D01*
X59230380Y-117819714D01*
X59230380Y-117935828D01*
X59191676Y-118013238D01*
X59152971Y-118051942D01*
X59075561Y-118090647D01*
X58765923Y-118090647D01*
%TO.C,MOT DIR*%
X78599695Y-117638285D02*
X77786895Y-117638285D01*
X78367466Y-117367352D01*
X77786895Y-117096419D01*
X78599695Y-117096419D01*
X77786895Y-116554552D02*
X77786895Y-116399733D01*
X77825600Y-116322323D01*
X77903009Y-116244914D01*
X78057828Y-116206209D01*
X78328761Y-116206209D01*
X78483580Y-116244914D01*
X78560990Y-116322323D01*
X78599695Y-116399733D01*
X78599695Y-116554552D01*
X78560990Y-116631961D01*
X78483580Y-116709371D01*
X78328761Y-116748076D01*
X78057828Y-116748076D01*
X77903009Y-116709371D01*
X77825600Y-116631961D01*
X77786895Y-116554552D01*
X77786895Y-115973980D02*
X77786895Y-115509523D01*
X78599695Y-115741752D02*
X77786895Y-115741752D01*
X78599695Y-114619314D02*
X77786895Y-114619314D01*
X77786895Y-114425790D01*
X77825600Y-114309676D01*
X77903009Y-114232266D01*
X77980419Y-114193561D01*
X78135238Y-114154857D01*
X78251352Y-114154857D01*
X78406171Y-114193561D01*
X78483580Y-114232266D01*
X78560990Y-114309676D01*
X78599695Y-114425790D01*
X78599695Y-114619314D01*
X78599695Y-113806514D02*
X77786895Y-113806514D01*
X78599695Y-112955009D02*
X78212647Y-113225942D01*
X78599695Y-113419466D02*
X77786895Y-113419466D01*
X77786895Y-113109828D01*
X77825600Y-113032419D01*
X77864304Y-112993714D01*
X77941714Y-112955009D01*
X78057828Y-112955009D01*
X78135238Y-112993714D01*
X78173942Y-113032419D01*
X78212647Y-113109828D01*
X78212647Y-113419466D01*
%TO.C,MOSI*%
X63492742Y-100697695D02*
X63492742Y-99884895D01*
X63763676Y-100465466D01*
X64034609Y-99884895D01*
X64034609Y-100697695D01*
X64576476Y-99884895D02*
X64731295Y-99884895D01*
X64808704Y-99923600D01*
X64886114Y-100001009D01*
X64924819Y-100155828D01*
X64924819Y-100426761D01*
X64886114Y-100581580D01*
X64808704Y-100658990D01*
X64731295Y-100697695D01*
X64576476Y-100697695D01*
X64499066Y-100658990D01*
X64421657Y-100581580D01*
X64382952Y-100426761D01*
X64382952Y-100155828D01*
X64421657Y-100001009D01*
X64499066Y-99923600D01*
X64576476Y-99884895D01*
X65234457Y-100658990D02*
X65350571Y-100697695D01*
X65544095Y-100697695D01*
X65621504Y-100658990D01*
X65660209Y-100620285D01*
X65698914Y-100542876D01*
X65698914Y-100465466D01*
X65660209Y-100388057D01*
X65621504Y-100349352D01*
X65544095Y-100310647D01*
X65389276Y-100271942D01*
X65311866Y-100233238D01*
X65273161Y-100194533D01*
X65234457Y-100117123D01*
X65234457Y-100039714D01*
X65273161Y-99962304D01*
X65311866Y-99923600D01*
X65389276Y-99884895D01*
X65582800Y-99884895D01*
X65698914Y-99923600D01*
X66047257Y-100697695D02*
X66047257Y-99884895D01*
%TO.C,MISO*%
X63492742Y-103491695D02*
X63492742Y-102678895D01*
X63763676Y-103259466D01*
X64034609Y-102678895D01*
X64034609Y-103491695D01*
X64421657Y-103491695D02*
X64421657Y-102678895D01*
X64770000Y-103452990D02*
X64886114Y-103491695D01*
X65079638Y-103491695D01*
X65157047Y-103452990D01*
X65195752Y-103414285D01*
X65234457Y-103336876D01*
X65234457Y-103259466D01*
X65195752Y-103182057D01*
X65157047Y-103143352D01*
X65079638Y-103104647D01*
X64924819Y-103065942D01*
X64847409Y-103027238D01*
X64808704Y-102988533D01*
X64770000Y-102911123D01*
X64770000Y-102833714D01*
X64808704Y-102756304D01*
X64847409Y-102717600D01*
X64924819Y-102678895D01*
X65118342Y-102678895D01*
X65234457Y-102717600D01*
X65737619Y-102678895D02*
X65892438Y-102678895D01*
X65969847Y-102717600D01*
X66047257Y-102795009D01*
X66085961Y-102949828D01*
X66085961Y-103220761D01*
X66047257Y-103375580D01*
X65969847Y-103452990D01*
X65892438Y-103491695D01*
X65737619Y-103491695D01*
X65660209Y-103452990D01*
X65582800Y-103375580D01*
X65544095Y-103220761D01*
X65544095Y-102949828D01*
X65582800Y-102795009D01*
X65660209Y-102717600D01*
X65737619Y-102678895D01*
%TO.C,SCLK*%
X66697980Y-100658990D02*
X66814095Y-100697695D01*
X67007619Y-100697695D01*
X67085028Y-100658990D01*
X67123733Y-100620285D01*
X67162438Y-100542876D01*
X67162438Y-100465466D01*
X67123733Y-100388057D01*
X67085028Y-100349352D01*
X67007619Y-100310647D01*
X66852800Y-100271942D01*
X66775390Y-100233238D01*
X66736685Y-100194533D01*
X66697980Y-100117123D01*
X66697980Y-100039714D01*
X66736685Y-99962304D01*
X66775390Y-99923600D01*
X66852800Y-99884895D01*
X67046323Y-99884895D01*
X67162438Y-99923600D01*
X67975238Y-100620285D02*
X67936533Y-100658990D01*
X67820419Y-100697695D01*
X67743009Y-100697695D01*
X67626895Y-100658990D01*
X67549485Y-100581580D01*
X67510780Y-100504171D01*
X67472076Y-100349352D01*
X67472076Y-100233238D01*
X67510780Y-100078419D01*
X67549485Y-100001009D01*
X67626895Y-99923600D01*
X67743009Y-99884895D01*
X67820419Y-99884895D01*
X67936533Y-99923600D01*
X67975238Y-99962304D01*
X68710628Y-100697695D02*
X68323580Y-100697695D01*
X68323580Y-99884895D01*
X68981561Y-100697695D02*
X68981561Y-99884895D01*
X69446019Y-100697695D02*
X69097676Y-100233238D01*
X69446019Y-99884895D02*
X68981561Y-100349352D01*
%TO.C,CS*%
X67936533Y-103414285D02*
X67897828Y-103452990D01*
X67781714Y-103491695D01*
X67704304Y-103491695D01*
X67588190Y-103452990D01*
X67510780Y-103375580D01*
X67472076Y-103298171D01*
X67433371Y-103143352D01*
X67433371Y-103027238D01*
X67472076Y-102872419D01*
X67510780Y-102795009D01*
X67588190Y-102717600D01*
X67704304Y-102678895D01*
X67781714Y-102678895D01*
X67897828Y-102717600D01*
X67936533Y-102756304D01*
X68246171Y-103452990D02*
X68362285Y-103491695D01*
X68555809Y-103491695D01*
X68633219Y-103452990D01*
X68671923Y-103414285D01*
X68710628Y-103336876D01*
X68710628Y-103259466D01*
X68671923Y-103182057D01*
X68633219Y-103143352D01*
X68555809Y-103104647D01*
X68400990Y-103065942D01*
X68323580Y-103027238D01*
X68284876Y-102988533D01*
X68246171Y-102911123D01*
X68246171Y-102833714D01*
X68284876Y-102756304D01*
X68323580Y-102717600D01*
X68400990Y-102678895D01*
X68594514Y-102678895D01*
X68710628Y-102717600D01*
%TO.C,L4*%
X140644033Y-112699195D02*
X140256985Y-112699195D01*
X140256985Y-111886395D01*
X141263309Y-112157328D02*
X141263309Y-112699195D01*
X141069785Y-111847690D02*
X140876261Y-112428261D01*
X141379423Y-112428261D01*
%TO.C,L2*%
X137342033Y-112699195D02*
X136954985Y-112699195D01*
X136954985Y-111886395D01*
X137574261Y-111963804D02*
X137612966Y-111925100D01*
X137690376Y-111886395D01*
X137883900Y-111886395D01*
X137961309Y-111925100D01*
X138000014Y-111963804D01*
X138038719Y-112041214D01*
X138038719Y-112118623D01*
X138000014Y-112234738D01*
X137535557Y-112699195D01*
X138038719Y-112699195D01*
%TO.C,C32*%
X89393485Y-107732285D02*
X89354780Y-107770990D01*
X89238666Y-107809695D01*
X89161257Y-107809695D01*
X89045142Y-107770990D01*
X88967733Y-107693580D01*
X88929028Y-107616171D01*
X88890323Y-107461352D01*
X88890323Y-107345238D01*
X88929028Y-107190419D01*
X88967733Y-107113009D01*
X89045142Y-107035600D01*
X89161257Y-106996895D01*
X89238666Y-106996895D01*
X89354780Y-107035600D01*
X89393485Y-107074304D01*
X89664419Y-106996895D02*
X90167580Y-106996895D01*
X89896647Y-107306533D01*
X90012761Y-107306533D01*
X90090171Y-107345238D01*
X90128876Y-107383942D01*
X90167580Y-107461352D01*
X90167580Y-107654876D01*
X90128876Y-107732285D01*
X90090171Y-107770990D01*
X90012761Y-107809695D01*
X89780533Y-107809695D01*
X89703123Y-107770990D01*
X89664419Y-107732285D01*
X90477219Y-107074304D02*
X90515923Y-107035600D01*
X90593333Y-106996895D01*
X90786857Y-106996895D01*
X90864266Y-107035600D01*
X90902971Y-107074304D01*
X90941676Y-107151714D01*
X90941676Y-107229123D01*
X90902971Y-107345238D01*
X90438514Y-107809695D01*
X90941676Y-107809695D01*
%TO.C,C27*%
X78725485Y-106285785D02*
X78686780Y-106324490D01*
X78570666Y-106363195D01*
X78493257Y-106363195D01*
X78377142Y-106324490D01*
X78299733Y-106247080D01*
X78261028Y-106169671D01*
X78222323Y-106014852D01*
X78222323Y-105898738D01*
X78261028Y-105743919D01*
X78299733Y-105666509D01*
X78377142Y-105589100D01*
X78493257Y-105550395D01*
X78570666Y-105550395D01*
X78686780Y-105589100D01*
X78725485Y-105627804D01*
X79035123Y-105627804D02*
X79073828Y-105589100D01*
X79151238Y-105550395D01*
X79344761Y-105550395D01*
X79422171Y-105589100D01*
X79460876Y-105627804D01*
X79499580Y-105705214D01*
X79499580Y-105782623D01*
X79460876Y-105898738D01*
X78996419Y-106363195D01*
X79499580Y-106363195D01*
X79770514Y-105550395D02*
X80312380Y-105550395D01*
X79964038Y-106363195D01*
%TO.C,C31*%
X92060485Y-105319285D02*
X92021780Y-105357990D01*
X91905666Y-105396695D01*
X91828257Y-105396695D01*
X91712142Y-105357990D01*
X91634733Y-105280580D01*
X91596028Y-105203171D01*
X91557323Y-105048352D01*
X91557323Y-104932238D01*
X91596028Y-104777419D01*
X91634733Y-104700009D01*
X91712142Y-104622600D01*
X91828257Y-104583895D01*
X91905666Y-104583895D01*
X92021780Y-104622600D01*
X92060485Y-104661304D01*
X92331419Y-104583895D02*
X92834580Y-104583895D01*
X92563647Y-104893533D01*
X92679761Y-104893533D01*
X92757171Y-104932238D01*
X92795876Y-104970942D01*
X92834580Y-105048352D01*
X92834580Y-105241876D01*
X92795876Y-105319285D01*
X92757171Y-105357990D01*
X92679761Y-105396695D01*
X92447533Y-105396695D01*
X92370123Y-105357990D01*
X92331419Y-105319285D01*
X93608676Y-105396695D02*
X93144219Y-105396695D01*
X93376447Y-105396695D02*
X93376447Y-104583895D01*
X93299038Y-104700009D01*
X93221628Y-104777419D01*
X93144219Y-104816123D01*
%TO.C,L3*%
X138866033Y-112699195D02*
X138478985Y-112699195D01*
X138478985Y-111886395D01*
X139059557Y-111886395D02*
X139562719Y-111886395D01*
X139291785Y-112196033D01*
X139407900Y-112196033D01*
X139485309Y-112234738D01*
X139524014Y-112273442D01*
X139562719Y-112350852D01*
X139562719Y-112544376D01*
X139524014Y-112621785D01*
X139485309Y-112660490D01*
X139407900Y-112699195D01*
X139175671Y-112699195D01*
X139098261Y-112660490D01*
X139059557Y-112621785D01*
%TO.C,C25*%
X99172485Y-107732285D02*
X99133780Y-107770990D01*
X99017666Y-107809695D01*
X98940257Y-107809695D01*
X98824142Y-107770990D01*
X98746733Y-107693580D01*
X98708028Y-107616171D01*
X98669323Y-107461352D01*
X98669323Y-107345238D01*
X98708028Y-107190419D01*
X98746733Y-107113009D01*
X98824142Y-107035600D01*
X98940257Y-106996895D01*
X99017666Y-106996895D01*
X99133780Y-107035600D01*
X99172485Y-107074304D01*
X99482123Y-107074304D02*
X99520828Y-107035600D01*
X99598238Y-106996895D01*
X99791761Y-106996895D01*
X99869171Y-107035600D01*
X99907876Y-107074304D01*
X99946580Y-107151714D01*
X99946580Y-107229123D01*
X99907876Y-107345238D01*
X99443419Y-107809695D01*
X99946580Y-107809695D01*
X100681971Y-106996895D02*
X100294923Y-106996895D01*
X100256219Y-107383942D01*
X100294923Y-107345238D01*
X100372333Y-107306533D01*
X100565857Y-107306533D01*
X100643266Y-107345238D01*
X100681971Y-107383942D01*
X100720676Y-107461352D01*
X100720676Y-107654876D01*
X100681971Y-107732285D01*
X100643266Y-107770990D01*
X100565857Y-107809695D01*
X100372333Y-107809695D01*
X100294923Y-107770990D01*
X100256219Y-107732285D01*
%TO.C,C24*%
X99172485Y-110526285D02*
X99133780Y-110564990D01*
X99017666Y-110603695D01*
X98940257Y-110603695D01*
X98824142Y-110564990D01*
X98746733Y-110487580D01*
X98708028Y-110410171D01*
X98669323Y-110255352D01*
X98669323Y-110139238D01*
X98708028Y-109984419D01*
X98746733Y-109907009D01*
X98824142Y-109829600D01*
X98940257Y-109790895D01*
X99017666Y-109790895D01*
X99133780Y-109829600D01*
X99172485Y-109868304D01*
X99482123Y-109868304D02*
X99520828Y-109829600D01*
X99598238Y-109790895D01*
X99791761Y-109790895D01*
X99869171Y-109829600D01*
X99907876Y-109868304D01*
X99946580Y-109945714D01*
X99946580Y-110023123D01*
X99907876Y-110139238D01*
X99443419Y-110603695D01*
X99946580Y-110603695D01*
X100643266Y-110061828D02*
X100643266Y-110603695D01*
X100449742Y-109752190D02*
X100256219Y-110332761D01*
X100759380Y-110332761D01*
%TO.C,D5*%
X58836076Y-114104695D02*
X58836076Y-113291895D01*
X59029600Y-113291895D01*
X59145714Y-113330600D01*
X59223123Y-113408009D01*
X59261828Y-113485419D01*
X59300533Y-113640238D01*
X59300533Y-113756352D01*
X59261828Y-113911171D01*
X59223123Y-113988580D01*
X59145714Y-114065990D01*
X59029600Y-114104695D01*
X58836076Y-114104695D01*
X60035923Y-113291895D02*
X59648876Y-113291895D01*
X59610171Y-113678942D01*
X59648876Y-113640238D01*
X59726285Y-113601533D01*
X59919809Y-113601533D01*
X59997219Y-113640238D01*
X60035923Y-113678942D01*
X60074628Y-113756352D01*
X60074628Y-113949876D01*
X60035923Y-114027285D01*
X59997219Y-114065990D01*
X59919809Y-114104695D01*
X59726285Y-114104695D01*
X59648876Y-114065990D01*
X59610171Y-114027285D01*
%TO.C,L1*%
X135564033Y-112699195D02*
X135176985Y-112699195D01*
X135176985Y-111886395D01*
X136260719Y-112699195D02*
X135796261Y-112699195D01*
X136028490Y-112699195D02*
X136028490Y-111886395D01*
X135951080Y-112002509D01*
X135873671Y-112079919D01*
X135796261Y-112118623D01*
%TO.C,C28*%
X90968285Y-112917514D02*
X91006990Y-112956219D01*
X91045695Y-113072333D01*
X91045695Y-113149742D01*
X91006990Y-113265857D01*
X90929580Y-113343266D01*
X90852171Y-113381971D01*
X90697352Y-113420676D01*
X90581238Y-113420676D01*
X90426419Y-113381971D01*
X90349009Y-113343266D01*
X90271600Y-113265857D01*
X90232895Y-113149742D01*
X90232895Y-113072333D01*
X90271600Y-112956219D01*
X90310304Y-112917514D01*
X90310304Y-112607876D02*
X90271600Y-112569171D01*
X90232895Y-112491761D01*
X90232895Y-112298238D01*
X90271600Y-112220828D01*
X90310304Y-112182123D01*
X90387714Y-112143419D01*
X90465123Y-112143419D01*
X90581238Y-112182123D01*
X91045695Y-112646580D01*
X91045695Y-112143419D01*
X90581238Y-111678961D02*
X90542533Y-111756371D01*
X90503828Y-111795076D01*
X90426419Y-111833780D01*
X90387714Y-111833780D01*
X90310304Y-111795076D01*
X90271600Y-111756371D01*
X90232895Y-111678961D01*
X90232895Y-111524142D01*
X90271600Y-111446733D01*
X90310304Y-111408028D01*
X90387714Y-111369323D01*
X90426419Y-111369323D01*
X90503828Y-111408028D01*
X90542533Y-111446733D01*
X90581238Y-111524142D01*
X90581238Y-111678961D01*
X90619942Y-111756371D01*
X90658647Y-111795076D01*
X90736057Y-111833780D01*
X90890876Y-111833780D01*
X90968285Y-111795076D01*
X91006990Y-111756371D01*
X91045695Y-111678961D01*
X91045695Y-111524142D01*
X91006990Y-111446733D01*
X90968285Y-111408028D01*
X90890876Y-111369323D01*
X90736057Y-111369323D01*
X90658647Y-111408028D01*
X90619942Y-111446733D01*
X90581238Y-111524142D01*
%TO.C,C26*%
X88809285Y-112917514D02*
X88847990Y-112956219D01*
X88886695Y-113072333D01*
X88886695Y-113149742D01*
X88847990Y-113265857D01*
X88770580Y-113343266D01*
X88693171Y-113381971D01*
X88538352Y-113420676D01*
X88422238Y-113420676D01*
X88267419Y-113381971D01*
X88190009Y-113343266D01*
X88112600Y-113265857D01*
X88073895Y-113149742D01*
X88073895Y-113072333D01*
X88112600Y-112956219D01*
X88151304Y-112917514D01*
X88151304Y-112607876D02*
X88112600Y-112569171D01*
X88073895Y-112491761D01*
X88073895Y-112298238D01*
X88112600Y-112220828D01*
X88151304Y-112182123D01*
X88228714Y-112143419D01*
X88306123Y-112143419D01*
X88422238Y-112182123D01*
X88886695Y-112646580D01*
X88886695Y-112143419D01*
X88073895Y-111446733D02*
X88073895Y-111601552D01*
X88112600Y-111678961D01*
X88151304Y-111717666D01*
X88267419Y-111795076D01*
X88422238Y-111833780D01*
X88731876Y-111833780D01*
X88809285Y-111795076D01*
X88847990Y-111756371D01*
X88886695Y-111678961D01*
X88886695Y-111524142D01*
X88847990Y-111446733D01*
X88809285Y-111408028D01*
X88731876Y-111369323D01*
X88538352Y-111369323D01*
X88460942Y-111408028D01*
X88422238Y-111446733D01*
X88383533Y-111524142D01*
X88383533Y-111678961D01*
X88422238Y-111756371D01*
X88460942Y-111795076D01*
X88538352Y-111833780D01*
%TO.C,C5*%
X56506533Y-85668785D02*
X56467828Y-85707490D01*
X56351714Y-85746195D01*
X56274304Y-85746195D01*
X56158190Y-85707490D01*
X56080780Y-85630080D01*
X56042076Y-85552671D01*
X56003371Y-85397852D01*
X56003371Y-85281738D01*
X56042076Y-85126919D01*
X56080780Y-85049509D01*
X56158190Y-84972100D01*
X56274304Y-84933395D01*
X56351714Y-84933395D01*
X56467828Y-84972100D01*
X56506533Y-85010804D01*
X57241923Y-84933395D02*
X56854876Y-84933395D01*
X56816171Y-85320442D01*
X56854876Y-85281738D01*
X56932285Y-85243033D01*
X57125809Y-85243033D01*
X57203219Y-85281738D01*
X57241923Y-85320442D01*
X57280628Y-85397852D01*
X57280628Y-85591376D01*
X57241923Y-85668785D01*
X57203219Y-85707490D01*
X57125809Y-85746195D01*
X56932285Y-85746195D01*
X56854876Y-85707490D01*
X56816171Y-85668785D01*
%TO.C,C34*%
X83297485Y-63282285D02*
X83258780Y-63320990D01*
X83142666Y-63359695D01*
X83065257Y-63359695D01*
X82949142Y-63320990D01*
X82871733Y-63243580D01*
X82833028Y-63166171D01*
X82794323Y-63011352D01*
X82794323Y-62895238D01*
X82833028Y-62740419D01*
X82871733Y-62663009D01*
X82949142Y-62585600D01*
X83065257Y-62546895D01*
X83142666Y-62546895D01*
X83258780Y-62585600D01*
X83297485Y-62624304D01*
X83568419Y-62546895D02*
X84071580Y-62546895D01*
X83800647Y-62856533D01*
X83916761Y-62856533D01*
X83994171Y-62895238D01*
X84032876Y-62933942D01*
X84071580Y-63011352D01*
X84071580Y-63204876D01*
X84032876Y-63282285D01*
X83994171Y-63320990D01*
X83916761Y-63359695D01*
X83684533Y-63359695D01*
X83607123Y-63320990D01*
X83568419Y-63282285D01*
X84768266Y-62817828D02*
X84768266Y-63359695D01*
X84574742Y-62508190D02*
X84381219Y-63088761D01*
X84884380Y-63088761D01*
%TO.C,C2*%
X56170285Y-91638966D02*
X56208990Y-91677671D01*
X56247695Y-91793785D01*
X56247695Y-91871195D01*
X56208990Y-91987309D01*
X56131580Y-92064719D01*
X56054171Y-92103423D01*
X55899352Y-92142128D01*
X55783238Y-92142128D01*
X55628419Y-92103423D01*
X55551009Y-92064719D01*
X55473600Y-91987309D01*
X55434895Y-91871195D01*
X55434895Y-91793785D01*
X55473600Y-91677671D01*
X55512304Y-91638966D01*
X55512304Y-91329328D02*
X55473600Y-91290623D01*
X55434895Y-91213214D01*
X55434895Y-91019690D01*
X55473600Y-90942280D01*
X55512304Y-90903576D01*
X55589714Y-90864871D01*
X55667123Y-90864871D01*
X55783238Y-90903576D01*
X56247695Y-91368033D01*
X56247695Y-90864871D01*
%TO.C,C3*%
X56297285Y-83574466D02*
X56335990Y-83613171D01*
X56374695Y-83729285D01*
X56374695Y-83806695D01*
X56335990Y-83922809D01*
X56258580Y-84000219D01*
X56181171Y-84038923D01*
X56026352Y-84077628D01*
X55910238Y-84077628D01*
X55755419Y-84038923D01*
X55678009Y-84000219D01*
X55600600Y-83922809D01*
X55561895Y-83806695D01*
X55561895Y-83729285D01*
X55600600Y-83613171D01*
X55639304Y-83574466D01*
X55561895Y-83303533D02*
X55561895Y-82800371D01*
X55871533Y-83071304D01*
X55871533Y-82955190D01*
X55910238Y-82877780D01*
X55948942Y-82839076D01*
X56026352Y-82800371D01*
X56219876Y-82800371D01*
X56297285Y-82839076D01*
X56335990Y-82877780D01*
X56374695Y-82955190D01*
X56374695Y-83187419D01*
X56335990Y-83264828D01*
X56297285Y-83303533D01*
%TO.C,C4*%
X56506533Y-93987285D02*
X56467828Y-94025990D01*
X56351714Y-94064695D01*
X56274304Y-94064695D01*
X56158190Y-94025990D01*
X56080780Y-93948580D01*
X56042076Y-93871171D01*
X56003371Y-93716352D01*
X56003371Y-93600238D01*
X56042076Y-93445419D01*
X56080780Y-93368009D01*
X56158190Y-93290600D01*
X56274304Y-93251895D01*
X56351714Y-93251895D01*
X56467828Y-93290600D01*
X56506533Y-93329304D01*
X57203219Y-93522828D02*
X57203219Y-94064695D01*
X57009695Y-93213190D02*
X56816171Y-93793761D01*
X57319333Y-93793761D01*
%TO.C,C12*%
X66914485Y-95984785D02*
X66875780Y-96023490D01*
X66759666Y-96062195D01*
X66682257Y-96062195D01*
X66566142Y-96023490D01*
X66488733Y-95946080D01*
X66450028Y-95868671D01*
X66411323Y-95713852D01*
X66411323Y-95597738D01*
X66450028Y-95442919D01*
X66488733Y-95365509D01*
X66566142Y-95288100D01*
X66682257Y-95249395D01*
X66759666Y-95249395D01*
X66875780Y-95288100D01*
X66914485Y-95326804D01*
X67688580Y-96062195D02*
X67224123Y-96062195D01*
X67456352Y-96062195D02*
X67456352Y-95249395D01*
X67378942Y-95365509D01*
X67301533Y-95442919D01*
X67224123Y-95481623D01*
X67998219Y-95326804D02*
X68036923Y-95288100D01*
X68114333Y-95249395D01*
X68307857Y-95249395D01*
X68385266Y-95288100D01*
X68423971Y-95326804D01*
X68462676Y-95404214D01*
X68462676Y-95481623D01*
X68423971Y-95597738D01*
X67959514Y-96062195D01*
X68462676Y-96062195D01*
%TO.C,C13*%
X66787485Y-88428285D02*
X66748780Y-88466990D01*
X66632666Y-88505695D01*
X66555257Y-88505695D01*
X66439142Y-88466990D01*
X66361733Y-88389580D01*
X66323028Y-88312171D01*
X66284323Y-88157352D01*
X66284323Y-88041238D01*
X66323028Y-87886419D01*
X66361733Y-87809009D01*
X66439142Y-87731600D01*
X66555257Y-87692895D01*
X66632666Y-87692895D01*
X66748780Y-87731600D01*
X66787485Y-87770304D01*
X67561580Y-88505695D02*
X67097123Y-88505695D01*
X67329352Y-88505695D02*
X67329352Y-87692895D01*
X67251942Y-87809009D01*
X67174533Y-87886419D01*
X67097123Y-87925123D01*
X67832514Y-87692895D02*
X68335676Y-87692895D01*
X68064742Y-88002533D01*
X68180857Y-88002533D01*
X68258266Y-88041238D01*
X68296971Y-88079942D01*
X68335676Y-88157352D01*
X68335676Y-88350876D01*
X68296971Y-88428285D01*
X68258266Y-88466990D01*
X68180857Y-88505695D01*
X67948628Y-88505695D01*
X67871219Y-88466990D01*
X67832514Y-88428285D01*
%TO.C,FB1*%
X79243666Y-100017942D02*
X78972733Y-100017942D01*
X78972733Y-100443695D02*
X78972733Y-99630895D01*
X79359780Y-99630895D01*
X79940352Y-100017942D02*
X80056466Y-100056647D01*
X80095171Y-100095352D01*
X80133876Y-100172761D01*
X80133876Y-100288876D01*
X80095171Y-100366285D01*
X80056466Y-100404990D01*
X79979057Y-100443695D01*
X79669419Y-100443695D01*
X79669419Y-99630895D01*
X79940352Y-99630895D01*
X80017761Y-99669600D01*
X80056466Y-99708304D01*
X80095171Y-99785714D01*
X80095171Y-99863123D01*
X80056466Y-99940533D01*
X80017761Y-99979238D01*
X79940352Y-100017942D01*
X79669419Y-100017942D01*
X80907971Y-100443695D02*
X80443514Y-100443695D01*
X80675742Y-100443695D02*
X80675742Y-99630895D01*
X80598333Y-99747009D01*
X80520923Y-99824419D01*
X80443514Y-99863123D01*
%TO.C,HC_DC*%
X57166933Y-59041695D02*
X57166933Y-58228895D01*
X57166933Y-58615942D02*
X57631390Y-58615942D01*
X57631390Y-59041695D02*
X57631390Y-58228895D01*
X58482895Y-58964285D02*
X58444190Y-59002990D01*
X58328076Y-59041695D01*
X58250666Y-59041695D01*
X58134552Y-59002990D01*
X58057142Y-58925580D01*
X58018438Y-58848171D01*
X57979733Y-58693352D01*
X57979733Y-58577238D01*
X58018438Y-58422419D01*
X58057142Y-58345009D01*
X58134552Y-58267600D01*
X58250666Y-58228895D01*
X58328076Y-58228895D01*
X58444190Y-58267600D01*
X58482895Y-58306304D01*
X58637714Y-59119104D02*
X59256990Y-59119104D01*
X59450514Y-59041695D02*
X59450514Y-58228895D01*
X59644038Y-58228895D01*
X59760152Y-58267600D01*
X59837561Y-58345009D01*
X59876266Y-58422419D01*
X59914971Y-58577238D01*
X59914971Y-58693352D01*
X59876266Y-58848171D01*
X59837561Y-58925580D01*
X59760152Y-59002990D01*
X59644038Y-59041695D01*
X59450514Y-59041695D01*
X60727771Y-58964285D02*
X60689066Y-59002990D01*
X60572952Y-59041695D01*
X60495542Y-59041695D01*
X60379428Y-59002990D01*
X60302019Y-58925580D01*
X60263314Y-58848171D01*
X60224609Y-58693352D01*
X60224609Y-58577238D01*
X60263314Y-58422419D01*
X60302019Y-58345009D01*
X60379428Y-58267600D01*
X60495542Y-58228895D01*
X60572952Y-58228895D01*
X60689066Y-58267600D01*
X60727771Y-58306304D01*
%TO.C,HC_AC*%
X139266990Y-59803695D02*
X139266990Y-58990895D01*
X139266990Y-59377942D02*
X139731447Y-59377942D01*
X139731447Y-59803695D02*
X139731447Y-58990895D01*
X140582952Y-59726285D02*
X140544247Y-59764990D01*
X140428133Y-59803695D01*
X140350723Y-59803695D01*
X140234609Y-59764990D01*
X140157200Y-59687580D01*
X140118495Y-59610171D01*
X140079790Y-59455352D01*
X140079790Y-59339238D01*
X140118495Y-59184419D01*
X140157200Y-59107009D01*
X140234609Y-59029600D01*
X140350723Y-58990895D01*
X140428133Y-58990895D01*
X140544247Y-59029600D01*
X140582952Y-59068304D01*
X140737771Y-59881104D02*
X141357047Y-59881104D01*
X141511866Y-59571466D02*
X141898914Y-59571466D01*
X141434457Y-59803695D02*
X141705390Y-58990895D01*
X141976323Y-59803695D01*
X142711714Y-59726285D02*
X142673009Y-59764990D01*
X142556895Y-59803695D01*
X142479485Y-59803695D01*
X142363371Y-59764990D01*
X142285961Y-59687580D01*
X142247257Y-59610171D01*
X142208552Y-59455352D01*
X142208552Y-59339238D01*
X142247257Y-59184419D01*
X142285961Y-59107009D01*
X142363371Y-59029600D01*
X142479485Y-58990895D01*
X142556895Y-58990895D01*
X142673009Y-59029600D01*
X142711714Y-59068304D01*
%TO.C,R9*%
X140326533Y-99173695D02*
X140055600Y-98786647D01*
X139862076Y-99173695D02*
X139862076Y-98360895D01*
X140171714Y-98360895D01*
X140249123Y-98399600D01*
X140287828Y-98438304D01*
X140326533Y-98515714D01*
X140326533Y-98631828D01*
X140287828Y-98709238D01*
X140249123Y-98747942D01*
X140171714Y-98786647D01*
X139862076Y-98786647D01*
X140713580Y-99173695D02*
X140868400Y-99173695D01*
X140945809Y-99134990D01*
X140984514Y-99096285D01*
X141061923Y-98980171D01*
X141100628Y-98825352D01*
X141100628Y-98515714D01*
X141061923Y-98438304D01*
X141023219Y-98399600D01*
X140945809Y-98360895D01*
X140790990Y-98360895D01*
X140713580Y-98399600D01*
X140674876Y-98438304D01*
X140636171Y-98515714D01*
X140636171Y-98709238D01*
X140674876Y-98786647D01*
X140713580Y-98825352D01*
X140790990Y-98864057D01*
X140945809Y-98864057D01*
X141023219Y-98825352D01*
X141061923Y-98786647D01*
X141100628Y-98709238D01*
%TO.C,R10*%
X140320485Y-102221695D02*
X140049552Y-101834647D01*
X139856028Y-102221695D02*
X139856028Y-101408895D01*
X140165666Y-101408895D01*
X140243076Y-101447600D01*
X140281780Y-101486304D01*
X140320485Y-101563714D01*
X140320485Y-101679828D01*
X140281780Y-101757238D01*
X140243076Y-101795942D01*
X140165666Y-101834647D01*
X139856028Y-101834647D01*
X141094580Y-102221695D02*
X140630123Y-102221695D01*
X140862352Y-102221695D02*
X140862352Y-101408895D01*
X140784942Y-101525009D01*
X140707533Y-101602419D01*
X140630123Y-101641123D01*
X141597742Y-101408895D02*
X141675152Y-101408895D01*
X141752561Y-101447600D01*
X141791266Y-101486304D01*
X141829971Y-101563714D01*
X141868676Y-101718533D01*
X141868676Y-101912057D01*
X141829971Y-102066876D01*
X141791266Y-102144285D01*
X141752561Y-102182990D01*
X141675152Y-102221695D01*
X141597742Y-102221695D01*
X141520333Y-102182990D01*
X141481628Y-102144285D01*
X141442923Y-102066876D01*
X141404219Y-101912057D01*
X141404219Y-101718533D01*
X141442923Y-101563714D01*
X141481628Y-101486304D01*
X141520333Y-101447600D01*
X141597742Y-101408895D01*
%TO.C,R20*%
X137527695Y-95772514D02*
X137140647Y-96043447D01*
X137527695Y-96236971D02*
X136714895Y-96236971D01*
X136714895Y-95927333D01*
X136753600Y-95849923D01*
X136792304Y-95811219D01*
X136869714Y-95772514D01*
X136985828Y-95772514D01*
X137063238Y-95811219D01*
X137101942Y-95849923D01*
X137140647Y-95927333D01*
X137140647Y-96236971D01*
X136792304Y-95462876D02*
X136753600Y-95424171D01*
X136714895Y-95346761D01*
X136714895Y-95153238D01*
X136753600Y-95075828D01*
X136792304Y-95037123D01*
X136869714Y-94998419D01*
X136947123Y-94998419D01*
X137063238Y-95037123D01*
X137527695Y-95501580D01*
X137527695Y-94998419D01*
X136714895Y-94495257D02*
X136714895Y-94417847D01*
X136753600Y-94340438D01*
X136792304Y-94301733D01*
X136869714Y-94263028D01*
X137024533Y-94224323D01*
X137218057Y-94224323D01*
X137372876Y-94263028D01*
X137450285Y-94301733D01*
X137488990Y-94340438D01*
X137527695Y-94417847D01*
X137527695Y-94495257D01*
X137488990Y-94572666D01*
X137450285Y-94611371D01*
X137372876Y-94650076D01*
X137218057Y-94688780D01*
X137024533Y-94688780D01*
X136869714Y-94650076D01*
X136792304Y-94611371D01*
X136753600Y-94572666D01*
X136714895Y-94495257D01*
%TO.C,R21*%
X140320485Y-105269695D02*
X140049552Y-104882647D01*
X139856028Y-105269695D02*
X139856028Y-104456895D01*
X140165666Y-104456895D01*
X140243076Y-104495600D01*
X140281780Y-104534304D01*
X140320485Y-104611714D01*
X140320485Y-104727828D01*
X140281780Y-104805238D01*
X140243076Y-104843942D01*
X140165666Y-104882647D01*
X139856028Y-104882647D01*
X140630123Y-104534304D02*
X140668828Y-104495600D01*
X140746238Y-104456895D01*
X140939761Y-104456895D01*
X141017171Y-104495600D01*
X141055876Y-104534304D01*
X141094580Y-104611714D01*
X141094580Y-104689123D01*
X141055876Y-104805238D01*
X140591419Y-105269695D01*
X141094580Y-105269695D01*
X141868676Y-105269695D02*
X141404219Y-105269695D01*
X141636447Y-105269695D02*
X141636447Y-104456895D01*
X141559038Y-104573009D01*
X141481628Y-104650419D01*
X141404219Y-104689123D01*
%TO.C,R22*%
X139558485Y-93458695D02*
X139287552Y-93071647D01*
X139094028Y-93458695D02*
X139094028Y-92645895D01*
X139403666Y-92645895D01*
X139481076Y-92684600D01*
X139519780Y-92723304D01*
X139558485Y-92800714D01*
X139558485Y-92916828D01*
X139519780Y-92994238D01*
X139481076Y-93032942D01*
X139403666Y-93071647D01*
X139094028Y-93071647D01*
X139868123Y-92723304D02*
X139906828Y-92684600D01*
X139984238Y-92645895D01*
X140177761Y-92645895D01*
X140255171Y-92684600D01*
X140293876Y-92723304D01*
X140332580Y-92800714D01*
X140332580Y-92878123D01*
X140293876Y-92994238D01*
X139829419Y-93458695D01*
X140332580Y-93458695D01*
X140642219Y-92723304D02*
X140680923Y-92684600D01*
X140758333Y-92645895D01*
X140951857Y-92645895D01*
X141029266Y-92684600D01*
X141067971Y-92723304D01*
X141106676Y-92800714D01*
X141106676Y-92878123D01*
X141067971Y-92994238D01*
X140603514Y-93458695D01*
X141106676Y-93458695D01*
%TO.C,R23*%
X140320485Y-100697695D02*
X140049552Y-100310647D01*
X139856028Y-100697695D02*
X139856028Y-99884895D01*
X140165666Y-99884895D01*
X140243076Y-99923600D01*
X140281780Y-99962304D01*
X140320485Y-100039714D01*
X140320485Y-100155828D01*
X140281780Y-100233238D01*
X140243076Y-100271942D01*
X140165666Y-100310647D01*
X139856028Y-100310647D01*
X140630123Y-99962304D02*
X140668828Y-99923600D01*
X140746238Y-99884895D01*
X140939761Y-99884895D01*
X141017171Y-99923600D01*
X141055876Y-99962304D01*
X141094580Y-100039714D01*
X141094580Y-100117123D01*
X141055876Y-100233238D01*
X140591419Y-100697695D01*
X141094580Y-100697695D01*
X141365514Y-99884895D02*
X141868676Y-99884895D01*
X141597742Y-100194533D01*
X141713857Y-100194533D01*
X141791266Y-100233238D01*
X141829971Y-100271942D01*
X141868676Y-100349352D01*
X141868676Y-100542876D01*
X141829971Y-100620285D01*
X141791266Y-100658990D01*
X141713857Y-100697695D01*
X141481628Y-100697695D01*
X141404219Y-100658990D01*
X141365514Y-100620285D01*
%TO.C,R24*%
X140320485Y-103745695D02*
X140049552Y-103358647D01*
X139856028Y-103745695D02*
X139856028Y-102932895D01*
X140165666Y-102932895D01*
X140243076Y-102971600D01*
X140281780Y-103010304D01*
X140320485Y-103087714D01*
X140320485Y-103203828D01*
X140281780Y-103281238D01*
X140243076Y-103319942D01*
X140165666Y-103358647D01*
X139856028Y-103358647D01*
X140630123Y-103010304D02*
X140668828Y-102971600D01*
X140746238Y-102932895D01*
X140939761Y-102932895D01*
X141017171Y-102971600D01*
X141055876Y-103010304D01*
X141094580Y-103087714D01*
X141094580Y-103165123D01*
X141055876Y-103281238D01*
X140591419Y-103745695D01*
X141094580Y-103745695D01*
X141791266Y-103203828D02*
X141791266Y-103745695D01*
X141597742Y-102894190D02*
X141404219Y-103474761D01*
X141907380Y-103474761D01*
%TO.C,R25*%
X137653485Y-108317695D02*
X137382552Y-107930647D01*
X137189028Y-108317695D02*
X137189028Y-107504895D01*
X137498666Y-107504895D01*
X137576076Y-107543600D01*
X137614780Y-107582304D01*
X137653485Y-107659714D01*
X137653485Y-107775828D01*
X137614780Y-107853238D01*
X137576076Y-107891942D01*
X137498666Y-107930647D01*
X137189028Y-107930647D01*
X137963123Y-107582304D02*
X138001828Y-107543600D01*
X138079238Y-107504895D01*
X138272761Y-107504895D01*
X138350171Y-107543600D01*
X138388876Y-107582304D01*
X138427580Y-107659714D01*
X138427580Y-107737123D01*
X138388876Y-107853238D01*
X137924419Y-108317695D01*
X138427580Y-108317695D01*
X139162971Y-107504895D02*
X138775923Y-107504895D01*
X138737219Y-107891942D01*
X138775923Y-107853238D01*
X138853333Y-107814533D01*
X139046857Y-107814533D01*
X139124266Y-107853238D01*
X139162971Y-107891942D01*
X139201676Y-107969352D01*
X139201676Y-108162876D01*
X139162971Y-108240285D01*
X139124266Y-108278990D01*
X139046857Y-108317695D01*
X138853333Y-108317695D01*
X138775923Y-108278990D01*
X138737219Y-108240285D01*
%TO.C,R41*%
X92314485Y-102475695D02*
X92043552Y-102088647D01*
X91850028Y-102475695D02*
X91850028Y-101662895D01*
X92159666Y-101662895D01*
X92237076Y-101701600D01*
X92275780Y-101740304D01*
X92314485Y-101817714D01*
X92314485Y-101933828D01*
X92275780Y-102011238D01*
X92237076Y-102049942D01*
X92159666Y-102088647D01*
X91850028Y-102088647D01*
X93011171Y-101933828D02*
X93011171Y-102475695D01*
X92817647Y-101624190D02*
X92624123Y-102204761D01*
X93127285Y-102204761D01*
X93862676Y-102475695D02*
X93398219Y-102475695D01*
X93630447Y-102475695D02*
X93630447Y-101662895D01*
X93553038Y-101779009D01*
X93475628Y-101856419D01*
X93398219Y-101895123D01*
%TO.C,R42*%
X92187485Y-101078695D02*
X91916552Y-100691647D01*
X91723028Y-101078695D02*
X91723028Y-100265895D01*
X92032666Y-100265895D01*
X92110076Y-100304600D01*
X92148780Y-100343304D01*
X92187485Y-100420714D01*
X92187485Y-100536828D01*
X92148780Y-100614238D01*
X92110076Y-100652942D01*
X92032666Y-100691647D01*
X91723028Y-100691647D01*
X92884171Y-100536828D02*
X92884171Y-101078695D01*
X92690647Y-100227190D02*
X92497123Y-100807761D01*
X93000285Y-100807761D01*
X93271219Y-100343304D02*
X93309923Y-100304600D01*
X93387333Y-100265895D01*
X93580857Y-100265895D01*
X93658266Y-100304600D01*
X93696971Y-100343304D01*
X93735676Y-100420714D01*
X93735676Y-100498123D01*
X93696971Y-100614238D01*
X93232514Y-101078695D01*
X93735676Y-101078695D01*
%TO.C,R43*%
X92187485Y-99554695D02*
X91916552Y-99167647D01*
X91723028Y-99554695D02*
X91723028Y-98741895D01*
X92032666Y-98741895D01*
X92110076Y-98780600D01*
X92148780Y-98819304D01*
X92187485Y-98896714D01*
X92187485Y-99012828D01*
X92148780Y-99090238D01*
X92110076Y-99128942D01*
X92032666Y-99167647D01*
X91723028Y-99167647D01*
X92884171Y-99012828D02*
X92884171Y-99554695D01*
X92690647Y-98703190D02*
X92497123Y-99283761D01*
X93000285Y-99283761D01*
X93232514Y-98741895D02*
X93735676Y-98741895D01*
X93464742Y-99051533D01*
X93580857Y-99051533D01*
X93658266Y-99090238D01*
X93696971Y-99128942D01*
X93735676Y-99206352D01*
X93735676Y-99399876D01*
X93696971Y-99477285D01*
X93658266Y-99515990D01*
X93580857Y-99554695D01*
X93348628Y-99554695D01*
X93271219Y-99515990D01*
X93232514Y-99477285D01*
%TO.C,R44*%
X94854485Y-96537195D02*
X94583552Y-96150147D01*
X94390028Y-96537195D02*
X94390028Y-95724395D01*
X94699666Y-95724395D01*
X94777076Y-95763100D01*
X94815780Y-95801804D01*
X94854485Y-95879214D01*
X94854485Y-95995328D01*
X94815780Y-96072738D01*
X94777076Y-96111442D01*
X94699666Y-96150147D01*
X94390028Y-96150147D01*
X95551171Y-95995328D02*
X95551171Y-96537195D01*
X95357647Y-95685690D02*
X95164123Y-96266261D01*
X95667285Y-96266261D01*
X96325266Y-95995328D02*
X96325266Y-96537195D01*
X96131742Y-95685690D02*
X95938219Y-96266261D01*
X96441380Y-96266261D01*
%TO.C,R45*%
X89775695Y-97550514D02*
X89388647Y-97821447D01*
X89775695Y-98014971D02*
X88962895Y-98014971D01*
X88962895Y-97705333D01*
X89001600Y-97627923D01*
X89040304Y-97589219D01*
X89117714Y-97550514D01*
X89233828Y-97550514D01*
X89311238Y-97589219D01*
X89349942Y-97627923D01*
X89388647Y-97705333D01*
X89388647Y-98014971D01*
X89233828Y-96853828D02*
X89775695Y-96853828D01*
X88924190Y-97047352D02*
X89504761Y-97240876D01*
X89504761Y-96737714D01*
X88962895Y-96041028D02*
X88962895Y-96428076D01*
X89349942Y-96466780D01*
X89311238Y-96428076D01*
X89272533Y-96350666D01*
X89272533Y-96157142D01*
X89311238Y-96079733D01*
X89349942Y-96041028D01*
X89427352Y-96002323D01*
X89620876Y-96002323D01*
X89698285Y-96041028D01*
X89736990Y-96079733D01*
X89775695Y-96157142D01*
X89775695Y-96350666D01*
X89736990Y-96428076D01*
X89698285Y-96466780D01*
%TO.C,R46*%
X91299695Y-97550514D02*
X90912647Y-97821447D01*
X91299695Y-98014971D02*
X90486895Y-98014971D01*
X90486895Y-97705333D01*
X90525600Y-97627923D01*
X90564304Y-97589219D01*
X90641714Y-97550514D01*
X90757828Y-97550514D01*
X90835238Y-97589219D01*
X90873942Y-97627923D01*
X90912647Y-97705333D01*
X90912647Y-98014971D01*
X90757828Y-96853828D02*
X91299695Y-96853828D01*
X90448190Y-97047352D02*
X91028761Y-97240876D01*
X91028761Y-96737714D01*
X90486895Y-96079733D02*
X90486895Y-96234552D01*
X90525600Y-96311961D01*
X90564304Y-96350666D01*
X90680419Y-96428076D01*
X90835238Y-96466780D01*
X91144876Y-96466780D01*
X91222285Y-96428076D01*
X91260990Y-96389371D01*
X91299695Y-96311961D01*
X91299695Y-96157142D01*
X91260990Y-96079733D01*
X91222285Y-96041028D01*
X91144876Y-96002323D01*
X90951352Y-96002323D01*
X90873942Y-96041028D01*
X90835238Y-96079733D01*
X90796533Y-96157142D01*
X90796533Y-96311961D01*
X90835238Y-96389371D01*
X90873942Y-96428076D01*
X90951352Y-96466780D01*
%TO.C,R47*%
X92950695Y-97550514D02*
X92563647Y-97821447D01*
X92950695Y-98014971D02*
X92137895Y-98014971D01*
X92137895Y-97705333D01*
X92176600Y-97627923D01*
X92215304Y-97589219D01*
X92292714Y-97550514D01*
X92408828Y-97550514D01*
X92486238Y-97589219D01*
X92524942Y-97627923D01*
X92563647Y-97705333D01*
X92563647Y-98014971D01*
X92408828Y-96853828D02*
X92950695Y-96853828D01*
X92099190Y-97047352D02*
X92679761Y-97240876D01*
X92679761Y-96737714D01*
X92137895Y-96505485D02*
X92137895Y-95963619D01*
X92950695Y-96311961D01*
%TO.C,R48*%
X97268695Y-94629514D02*
X96881647Y-94900447D01*
X97268695Y-95093971D02*
X96455895Y-95093971D01*
X96455895Y-94784333D01*
X96494600Y-94706923D01*
X96533304Y-94668219D01*
X96610714Y-94629514D01*
X96726828Y-94629514D01*
X96804238Y-94668219D01*
X96842942Y-94706923D01*
X96881647Y-94784333D01*
X96881647Y-95093971D01*
X96726828Y-93932828D02*
X97268695Y-93932828D01*
X96417190Y-94126352D02*
X96997761Y-94319876D01*
X96997761Y-93816714D01*
X96804238Y-93390961D02*
X96765533Y-93468371D01*
X96726828Y-93507076D01*
X96649419Y-93545780D01*
X96610714Y-93545780D01*
X96533304Y-93507076D01*
X96494600Y-93468371D01*
X96455895Y-93390961D01*
X96455895Y-93236142D01*
X96494600Y-93158733D01*
X96533304Y-93120028D01*
X96610714Y-93081323D01*
X96649419Y-93081323D01*
X96726828Y-93120028D01*
X96765533Y-93158733D01*
X96804238Y-93236142D01*
X96804238Y-93390961D01*
X96842942Y-93468371D01*
X96881647Y-93507076D01*
X96959057Y-93545780D01*
X97113876Y-93545780D01*
X97191285Y-93507076D01*
X97229990Y-93468371D01*
X97268695Y-93390961D01*
X97268695Y-93236142D01*
X97229990Y-93158733D01*
X97191285Y-93120028D01*
X97113876Y-93081323D01*
X96959057Y-93081323D01*
X96881647Y-93120028D01*
X96842942Y-93158733D01*
X96804238Y-93236142D01*
%TO.C,R49*%
X98284695Y-94629514D02*
X97897647Y-94900447D01*
X98284695Y-95093971D02*
X97471895Y-95093971D01*
X97471895Y-94784333D01*
X97510600Y-94706923D01*
X97549304Y-94668219D01*
X97626714Y-94629514D01*
X97742828Y-94629514D01*
X97820238Y-94668219D01*
X97858942Y-94706923D01*
X97897647Y-94784333D01*
X97897647Y-95093971D01*
X97742828Y-93932828D02*
X98284695Y-93932828D01*
X97433190Y-94126352D02*
X98013761Y-94319876D01*
X98013761Y-93816714D01*
X98284695Y-93468371D02*
X98284695Y-93313552D01*
X98245990Y-93236142D01*
X98207285Y-93197438D01*
X98091171Y-93120028D01*
X97936352Y-93081323D01*
X97626714Y-93081323D01*
X97549304Y-93120028D01*
X97510600Y-93158733D01*
X97471895Y-93236142D01*
X97471895Y-93390961D01*
X97510600Y-93468371D01*
X97549304Y-93507076D01*
X97626714Y-93545780D01*
X97820238Y-93545780D01*
X97897647Y-93507076D01*
X97936352Y-93468371D01*
X97975057Y-93390961D01*
X97975057Y-93236142D01*
X97936352Y-93158733D01*
X97897647Y-93120028D01*
X97820238Y-93081323D01*
%TO.C,R50*%
X87108695Y-97550514D02*
X86721647Y-97821447D01*
X87108695Y-98014971D02*
X86295895Y-98014971D01*
X86295895Y-97705333D01*
X86334600Y-97627923D01*
X86373304Y-97589219D01*
X86450714Y-97550514D01*
X86566828Y-97550514D01*
X86644238Y-97589219D01*
X86682942Y-97627923D01*
X86721647Y-97705333D01*
X86721647Y-98014971D01*
X86295895Y-96815123D02*
X86295895Y-97202171D01*
X86682942Y-97240876D01*
X86644238Y-97202171D01*
X86605533Y-97124761D01*
X86605533Y-96931238D01*
X86644238Y-96853828D01*
X86682942Y-96815123D01*
X86760352Y-96776419D01*
X86953876Y-96776419D01*
X87031285Y-96815123D01*
X87069990Y-96853828D01*
X87108695Y-96931238D01*
X87108695Y-97124761D01*
X87069990Y-97202171D01*
X87031285Y-97240876D01*
X86295895Y-96273257D02*
X86295895Y-96195847D01*
X86334600Y-96118438D01*
X86373304Y-96079733D01*
X86450714Y-96041028D01*
X86605533Y-96002323D01*
X86799057Y-96002323D01*
X86953876Y-96041028D01*
X87031285Y-96079733D01*
X87069990Y-96118438D01*
X87108695Y-96195847D01*
X87108695Y-96273257D01*
X87069990Y-96350666D01*
X87031285Y-96389371D01*
X86953876Y-96428076D01*
X86799057Y-96466780D01*
X86605533Y-96466780D01*
X86450714Y-96428076D01*
X86373304Y-96389371D01*
X86334600Y-96350666D01*
X86295895Y-96273257D01*
%TO.C,R51*%
X85584695Y-97550514D02*
X85197647Y-97821447D01*
X85584695Y-98014971D02*
X84771895Y-98014971D01*
X84771895Y-97705333D01*
X84810600Y-97627923D01*
X84849304Y-97589219D01*
X84926714Y-97550514D01*
X85042828Y-97550514D01*
X85120238Y-97589219D01*
X85158942Y-97627923D01*
X85197647Y-97705333D01*
X85197647Y-98014971D01*
X84771895Y-96815123D02*
X84771895Y-97202171D01*
X85158942Y-97240876D01*
X85120238Y-97202171D01*
X85081533Y-97124761D01*
X85081533Y-96931238D01*
X85120238Y-96853828D01*
X85158942Y-96815123D01*
X85236352Y-96776419D01*
X85429876Y-96776419D01*
X85507285Y-96815123D01*
X85545990Y-96853828D01*
X85584695Y-96931238D01*
X85584695Y-97124761D01*
X85545990Y-97202171D01*
X85507285Y-97240876D01*
X85584695Y-96002323D02*
X85584695Y-96466780D01*
X85584695Y-96234552D02*
X84771895Y-96234552D01*
X84888009Y-96311961D01*
X84965419Y-96389371D01*
X85004123Y-96466780D01*
%TO.C,R52*%
X84060695Y-97550514D02*
X83673647Y-97821447D01*
X84060695Y-98014971D02*
X83247895Y-98014971D01*
X83247895Y-97705333D01*
X83286600Y-97627923D01*
X83325304Y-97589219D01*
X83402714Y-97550514D01*
X83518828Y-97550514D01*
X83596238Y-97589219D01*
X83634942Y-97627923D01*
X83673647Y-97705333D01*
X83673647Y-98014971D01*
X83247895Y-96815123D02*
X83247895Y-97202171D01*
X83634942Y-97240876D01*
X83596238Y-97202171D01*
X83557533Y-97124761D01*
X83557533Y-96931238D01*
X83596238Y-96853828D01*
X83634942Y-96815123D01*
X83712352Y-96776419D01*
X83905876Y-96776419D01*
X83983285Y-96815123D01*
X84021990Y-96853828D01*
X84060695Y-96931238D01*
X84060695Y-97124761D01*
X84021990Y-97202171D01*
X83983285Y-97240876D01*
X83325304Y-96466780D02*
X83286600Y-96428076D01*
X83247895Y-96350666D01*
X83247895Y-96157142D01*
X83286600Y-96079733D01*
X83325304Y-96041028D01*
X83402714Y-96002323D01*
X83480123Y-96002323D01*
X83596238Y-96041028D01*
X84060695Y-96505485D01*
X84060695Y-96002323D01*
%TO.C,R53*%
X82409695Y-97423514D02*
X82022647Y-97694447D01*
X82409695Y-97887971D02*
X81596895Y-97887971D01*
X81596895Y-97578333D01*
X81635600Y-97500923D01*
X81674304Y-97462219D01*
X81751714Y-97423514D01*
X81867828Y-97423514D01*
X81945238Y-97462219D01*
X81983942Y-97500923D01*
X82022647Y-97578333D01*
X82022647Y-97887971D01*
X81596895Y-96688123D02*
X81596895Y-97075171D01*
X81983942Y-97113876D01*
X81945238Y-97075171D01*
X81906533Y-96997761D01*
X81906533Y-96804238D01*
X81945238Y-96726828D01*
X81983942Y-96688123D01*
X82061352Y-96649419D01*
X82254876Y-96649419D01*
X82332285Y-96688123D01*
X82370990Y-96726828D01*
X82409695Y-96804238D01*
X82409695Y-96997761D01*
X82370990Y-97075171D01*
X82332285Y-97113876D01*
X81596895Y-96378485D02*
X81596895Y-95875323D01*
X81906533Y-96146257D01*
X81906533Y-96030142D01*
X81945238Y-95952733D01*
X81983942Y-95914028D01*
X82061352Y-95875323D01*
X82254876Y-95875323D01*
X82332285Y-95914028D01*
X82370990Y-95952733D01*
X82409695Y-96030142D01*
X82409695Y-96262371D01*
X82370990Y-96339780D01*
X82332285Y-96378485D01*
%TO.C,R54*%
X81012695Y-97423514D02*
X80625647Y-97694447D01*
X81012695Y-97887971D02*
X80199895Y-97887971D01*
X80199895Y-97578333D01*
X80238600Y-97500923D01*
X80277304Y-97462219D01*
X80354714Y-97423514D01*
X80470828Y-97423514D01*
X80548238Y-97462219D01*
X80586942Y-97500923D01*
X80625647Y-97578333D01*
X80625647Y-97887971D01*
X80199895Y-96688123D02*
X80199895Y-97075171D01*
X80586942Y-97113876D01*
X80548238Y-97075171D01*
X80509533Y-96997761D01*
X80509533Y-96804238D01*
X80548238Y-96726828D01*
X80586942Y-96688123D01*
X80664352Y-96649419D01*
X80857876Y-96649419D01*
X80935285Y-96688123D01*
X80973990Y-96726828D01*
X81012695Y-96804238D01*
X81012695Y-96997761D01*
X80973990Y-97075171D01*
X80935285Y-97113876D01*
X80470828Y-95952733D02*
X81012695Y-95952733D01*
X80161190Y-96146257D02*
X80741761Y-96339780D01*
X80741761Y-95836619D01*
%TO.C,+3V3*%
X65623923Y-90990057D02*
X66243200Y-90990057D01*
X65933561Y-91299695D02*
X65933561Y-90680419D01*
X66552838Y-90486895D02*
X67056000Y-90486895D01*
X66785066Y-90796533D01*
X66901180Y-90796533D01*
X66978590Y-90835238D01*
X67017295Y-90873942D01*
X67056000Y-90951352D01*
X67056000Y-91144876D01*
X67017295Y-91222285D01*
X66978590Y-91260990D01*
X66901180Y-91299695D01*
X66668952Y-91299695D01*
X66591542Y-91260990D01*
X66552838Y-91222285D01*
X67288228Y-90486895D02*
X67559161Y-91299695D01*
X67830095Y-90486895D01*
X68023619Y-90486895D02*
X68526780Y-90486895D01*
X68255847Y-90796533D01*
X68371961Y-90796533D01*
X68449371Y-90835238D01*
X68488076Y-90873942D01*
X68526780Y-90951352D01*
X68526780Y-91144876D01*
X68488076Y-91222285D01*
X68449371Y-91260990D01*
X68371961Y-91299695D01*
X68139733Y-91299695D01*
X68062323Y-91260990D01*
X68023619Y-91222285D01*
%TO.C,+5V0*%
X65877923Y-82608057D02*
X66497200Y-82608057D01*
X66187561Y-82917695D02*
X66187561Y-82298419D01*
X67271295Y-82104895D02*
X66884247Y-82104895D01*
X66845542Y-82491942D01*
X66884247Y-82453238D01*
X66961657Y-82414533D01*
X67155180Y-82414533D01*
X67232590Y-82453238D01*
X67271295Y-82491942D01*
X67310000Y-82569352D01*
X67310000Y-82762876D01*
X67271295Y-82840285D01*
X67232590Y-82878990D01*
X67155180Y-82917695D01*
X66961657Y-82917695D01*
X66884247Y-82878990D01*
X66845542Y-82840285D01*
X67542228Y-82104895D02*
X67813161Y-82917695D01*
X68084095Y-82104895D01*
X68509847Y-82104895D02*
X68587257Y-82104895D01*
X68664666Y-82143600D01*
X68703371Y-82182304D01*
X68742076Y-82259714D01*
X68780780Y-82414533D01*
X68780780Y-82608057D01*
X68742076Y-82762876D01*
X68703371Y-82840285D01*
X68664666Y-82878990D01*
X68587257Y-82917695D01*
X68509847Y-82917695D01*
X68432438Y-82878990D01*
X68393733Y-82840285D01*
X68355028Y-82762876D01*
X68316323Y-82608057D01*
X68316323Y-82414533D01*
X68355028Y-82259714D01*
X68393733Y-82182304D01*
X68432438Y-82143600D01*
X68509847Y-82104895D01*
%TO.C,U3*%
X60086723Y-90794395D02*
X60086723Y-91452376D01*
X60125428Y-91529785D01*
X60164133Y-91568490D01*
X60241542Y-91607195D01*
X60396361Y-91607195D01*
X60473771Y-91568490D01*
X60512476Y-91529785D01*
X60551180Y-91452376D01*
X60551180Y-90794395D01*
X60860819Y-90794395D02*
X61363980Y-90794395D01*
X61093047Y-91104033D01*
X61209161Y-91104033D01*
X61286571Y-91142738D01*
X61325276Y-91181442D01*
X61363980Y-91258852D01*
X61363980Y-91452376D01*
X61325276Y-91529785D01*
X61286571Y-91568490D01*
X61209161Y-91607195D01*
X60976933Y-91607195D01*
X60899523Y-91568490D01*
X60860819Y-91529785D01*
%TO.C,U4*%
X60023223Y-82993895D02*
X60023223Y-83651876D01*
X60061928Y-83729285D01*
X60100633Y-83767990D01*
X60178042Y-83806695D01*
X60332861Y-83806695D01*
X60410271Y-83767990D01*
X60448976Y-83729285D01*
X60487680Y-83651876D01*
X60487680Y-82993895D01*
X61223071Y-83264828D02*
X61223071Y-83806695D01*
X61029547Y-82955190D02*
X60836023Y-83535761D01*
X61339185Y-83535761D01*
%TO.C,U5*%
X83835723Y-105853895D02*
X83835723Y-106511876D01*
X83874428Y-106589285D01*
X83913133Y-106627990D01*
X83990542Y-106666695D01*
X84145361Y-106666695D01*
X84222771Y-106627990D01*
X84261476Y-106589285D01*
X84300180Y-106511876D01*
X84300180Y-105853895D01*
X85074276Y-105853895D02*
X84687228Y-105853895D01*
X84648523Y-106240942D01*
X84687228Y-106202238D01*
X84764638Y-106163533D01*
X84958161Y-106163533D01*
X85035571Y-106202238D01*
X85074276Y-106240942D01*
X85112980Y-106318352D01*
X85112980Y-106511876D01*
X85074276Y-106589285D01*
X85035571Y-106627990D01*
X84958161Y-106666695D01*
X84764638Y-106666695D01*
X84687228Y-106627990D01*
X84648523Y-106589285D01*
%TO.C,ENCODER*%
X143183428Y-109542942D02*
X143454361Y-109542942D01*
X143570476Y-109968695D02*
X143183428Y-109968695D01*
X143183428Y-109155895D01*
X143570476Y-109155895D01*
X143918819Y-109968695D02*
X143918819Y-109155895D01*
X144383276Y-109968695D01*
X144383276Y-109155895D01*
X145234780Y-109891285D02*
X145196076Y-109929990D01*
X145079961Y-109968695D01*
X145002552Y-109968695D01*
X144886438Y-109929990D01*
X144809028Y-109852580D01*
X144770323Y-109775171D01*
X144731619Y-109620352D01*
X144731619Y-109504238D01*
X144770323Y-109349419D01*
X144809028Y-109272009D01*
X144886438Y-109194600D01*
X145002552Y-109155895D01*
X145079961Y-109155895D01*
X145196076Y-109194600D01*
X145234780Y-109233304D01*
X145737942Y-109155895D02*
X145892761Y-109155895D01*
X145970171Y-109194600D01*
X146047580Y-109272009D01*
X146086285Y-109426828D01*
X146086285Y-109697761D01*
X146047580Y-109852580D01*
X145970171Y-109929990D01*
X145892761Y-109968695D01*
X145737942Y-109968695D01*
X145660533Y-109929990D01*
X145583123Y-109852580D01*
X145544419Y-109697761D01*
X145544419Y-109426828D01*
X145583123Y-109272009D01*
X145660533Y-109194600D01*
X145737942Y-109155895D01*
X146434628Y-109968695D02*
X146434628Y-109155895D01*
X146628152Y-109155895D01*
X146744266Y-109194600D01*
X146821676Y-109272009D01*
X146860380Y-109349419D01*
X146899085Y-109504238D01*
X146899085Y-109620352D01*
X146860380Y-109775171D01*
X146821676Y-109852580D01*
X146744266Y-109929990D01*
X146628152Y-109968695D01*
X146434628Y-109968695D01*
X147247428Y-109542942D02*
X147518361Y-109542942D01*
X147634476Y-109968695D02*
X147247428Y-109968695D01*
X147247428Y-109155895D01*
X147634476Y-109155895D01*
X148447276Y-109968695D02*
X148176342Y-109581647D01*
X147982819Y-109968695D02*
X147982819Y-109155895D01*
X148292457Y-109155895D01*
X148369866Y-109194600D01*
X148408571Y-109233304D01*
X148447276Y-109310714D01*
X148447276Y-109426828D01*
X148408571Y-109504238D01*
X148369866Y-109542942D01*
X148292457Y-109581647D01*
X147982819Y-109581647D01*
%TO.C,I_C*%
X71419961Y-90029695D02*
X71419961Y-89216895D01*
X71613485Y-90107104D02*
X72232761Y-90107104D01*
X72890742Y-89952285D02*
X72852038Y-89990990D01*
X72735923Y-90029695D01*
X72658514Y-90029695D01*
X72542400Y-89990990D01*
X72464990Y-89913580D01*
X72426285Y-89836171D01*
X72387580Y-89681352D01*
X72387580Y-89565238D01*
X72426285Y-89410419D01*
X72464990Y-89333009D01*
X72542400Y-89255600D01*
X72658514Y-89216895D01*
X72735923Y-89216895D01*
X72852038Y-89255600D01*
X72890742Y-89294304D01*
%TO.C,I_B*%
X71419961Y-93331695D02*
X71419961Y-92518895D01*
X71613485Y-93409104D02*
X72232761Y-93409104D01*
X72697219Y-92905942D02*
X72813333Y-92944647D01*
X72852038Y-92983352D01*
X72890742Y-93060761D01*
X72890742Y-93176876D01*
X72852038Y-93254285D01*
X72813333Y-93292990D01*
X72735923Y-93331695D01*
X72426285Y-93331695D01*
X72426285Y-92518895D01*
X72697219Y-92518895D01*
X72774628Y-92557600D01*
X72813333Y-92596304D01*
X72852038Y-92673714D01*
X72852038Y-92751123D01*
X72813333Y-92828533D01*
X72774628Y-92867238D01*
X72697219Y-92905942D01*
X72426285Y-92905942D01*
%TO.C,I_A*%
X71478019Y-97141695D02*
X71478019Y-96328895D01*
X71671542Y-97219104D02*
X72290819Y-97219104D01*
X72445638Y-96909466D02*
X72832685Y-96909466D01*
X72368228Y-97141695D02*
X72639161Y-96328895D01*
X72910095Y-97141695D01*
%TO.C,GHA*%
X101800780Y-102971600D02*
X101723371Y-102932895D01*
X101607257Y-102932895D01*
X101491142Y-102971600D01*
X101413733Y-103049009D01*
X101375028Y-103126419D01*
X101336323Y-103281238D01*
X101336323Y-103397352D01*
X101375028Y-103552171D01*
X101413733Y-103629580D01*
X101491142Y-103706990D01*
X101607257Y-103745695D01*
X101684666Y-103745695D01*
X101800780Y-103706990D01*
X101839485Y-103668285D01*
X101839485Y-103397352D01*
X101684666Y-103397352D01*
X102187828Y-103745695D02*
X102187828Y-102932895D01*
X102187828Y-103319942D02*
X102652285Y-103319942D01*
X102652285Y-103745695D02*
X102652285Y-102932895D01*
X103000628Y-103513466D02*
X103387676Y-103513466D01*
X102923219Y-103745695D02*
X103194152Y-102932895D01*
X103465085Y-103745695D01*
%TO.C,GHB*%
X89380723Y-87223600D02*
X89303314Y-87184895D01*
X89187200Y-87184895D01*
X89071085Y-87223600D01*
X88993676Y-87301009D01*
X88954971Y-87378419D01*
X88916266Y-87533238D01*
X88916266Y-87649352D01*
X88954971Y-87804171D01*
X88993676Y-87881580D01*
X89071085Y-87958990D01*
X89187200Y-87997695D01*
X89264609Y-87997695D01*
X89380723Y-87958990D01*
X89419428Y-87920285D01*
X89419428Y-87649352D01*
X89264609Y-87649352D01*
X89767771Y-87997695D02*
X89767771Y-87184895D01*
X89767771Y-87571942D02*
X90232228Y-87571942D01*
X90232228Y-87997695D02*
X90232228Y-87184895D01*
X90890209Y-87571942D02*
X91006323Y-87610647D01*
X91045028Y-87649352D01*
X91083733Y-87726761D01*
X91083733Y-87842876D01*
X91045028Y-87920285D01*
X91006323Y-87958990D01*
X90928914Y-87997695D01*
X90619276Y-87997695D01*
X90619276Y-87184895D01*
X90890209Y-87184895D01*
X90967619Y-87223600D01*
X91006323Y-87262304D01*
X91045028Y-87339714D01*
X91045028Y-87417123D01*
X91006323Y-87494533D01*
X90967619Y-87533238D01*
X90890209Y-87571942D01*
X90619276Y-87571942D01*
%TO.C,GHC*%
X85380723Y-87223600D02*
X85303314Y-87184895D01*
X85187200Y-87184895D01*
X85071085Y-87223600D01*
X84993676Y-87301009D01*
X84954971Y-87378419D01*
X84916266Y-87533238D01*
X84916266Y-87649352D01*
X84954971Y-87804171D01*
X84993676Y-87881580D01*
X85071085Y-87958990D01*
X85187200Y-87997695D01*
X85264609Y-87997695D01*
X85380723Y-87958990D01*
X85419428Y-87920285D01*
X85419428Y-87649352D01*
X85264609Y-87649352D01*
X85767771Y-87997695D02*
X85767771Y-87184895D01*
X85767771Y-87571942D02*
X86232228Y-87571942D01*
X86232228Y-87997695D02*
X86232228Y-87184895D01*
X87083733Y-87920285D02*
X87045028Y-87958990D01*
X86928914Y-87997695D01*
X86851504Y-87997695D01*
X86735390Y-87958990D01*
X86657980Y-87881580D01*
X86619276Y-87804171D01*
X86580571Y-87649352D01*
X86580571Y-87533238D01*
X86619276Y-87378419D01*
X86657980Y-87301009D01*
X86735390Y-87223600D01*
X86851504Y-87184895D01*
X86928914Y-87184895D01*
X87045028Y-87223600D01*
X87083733Y-87262304D01*
%TO.C,GLA*%
X101897542Y-98018600D02*
X101820133Y-97979895D01*
X101704019Y-97979895D01*
X101587904Y-98018600D01*
X101510495Y-98096009D01*
X101471790Y-98173419D01*
X101433085Y-98328238D01*
X101433085Y-98444352D01*
X101471790Y-98599171D01*
X101510495Y-98676580D01*
X101587904Y-98753990D01*
X101704019Y-98792695D01*
X101781428Y-98792695D01*
X101897542Y-98753990D01*
X101936247Y-98715285D01*
X101936247Y-98444352D01*
X101781428Y-98444352D01*
X102671638Y-98792695D02*
X102284590Y-98792695D01*
X102284590Y-97979895D01*
X102903866Y-98560466D02*
X103290914Y-98560466D01*
X102826457Y-98792695D02*
X103097390Y-97979895D01*
X103368323Y-98792695D01*
%TO.C,GLB*%
X94477485Y-87223600D02*
X94400076Y-87184895D01*
X94283961Y-87184895D01*
X94167847Y-87223600D01*
X94090438Y-87301009D01*
X94051733Y-87378419D01*
X94013028Y-87533238D01*
X94013028Y-87649352D01*
X94051733Y-87804171D01*
X94090438Y-87881580D01*
X94167847Y-87958990D01*
X94283961Y-87997695D01*
X94361371Y-87997695D01*
X94477485Y-87958990D01*
X94516190Y-87920285D01*
X94516190Y-87649352D01*
X94361371Y-87649352D01*
X95251580Y-87997695D02*
X94864533Y-87997695D01*
X94864533Y-87184895D01*
X95793447Y-87571942D02*
X95909561Y-87610647D01*
X95948266Y-87649352D01*
X95986971Y-87726761D01*
X95986971Y-87842876D01*
X95948266Y-87920285D01*
X95909561Y-87958990D01*
X95832152Y-87997695D01*
X95522514Y-87997695D01*
X95522514Y-87184895D01*
X95793447Y-87184895D01*
X95870857Y-87223600D01*
X95909561Y-87262304D01*
X95948266Y-87339714D01*
X95948266Y-87417123D01*
X95909561Y-87494533D01*
X95870857Y-87533238D01*
X95793447Y-87571942D01*
X95522514Y-87571942D01*
%TO.C,GLC*%
X80477485Y-87223600D02*
X80400076Y-87184895D01*
X80283961Y-87184895D01*
X80167847Y-87223600D01*
X80090438Y-87301009D01*
X80051733Y-87378419D01*
X80013028Y-87533238D01*
X80013028Y-87649352D01*
X80051733Y-87804171D01*
X80090438Y-87881580D01*
X80167847Y-87958990D01*
X80283961Y-87997695D01*
X80361371Y-87997695D01*
X80477485Y-87958990D01*
X80516190Y-87920285D01*
X80516190Y-87649352D01*
X80361371Y-87649352D01*
X81251580Y-87997695D02*
X80864533Y-87997695D01*
X80864533Y-87184895D01*
X81986971Y-87920285D02*
X81948266Y-87958990D01*
X81832152Y-87997695D01*
X81754742Y-87997695D01*
X81638628Y-87958990D01*
X81561219Y-87881580D01*
X81522514Y-87804171D01*
X81483809Y-87649352D01*
X81483809Y-87533238D01*
X81522514Y-87378419D01*
X81561219Y-87301009D01*
X81638628Y-87223600D01*
X81754742Y-87184895D01*
X81832152Y-87184895D01*
X81948266Y-87223600D01*
X81986971Y-87262304D01*
%TO.C,TEMP*%
X132387219Y-97598895D02*
X132851676Y-97598895D01*
X132619447Y-98411695D02*
X132619447Y-97598895D01*
X133122609Y-97985942D02*
X133393542Y-97985942D01*
X133509657Y-98411695D02*
X133122609Y-98411695D01*
X133122609Y-97598895D01*
X133509657Y-97598895D01*
X133858000Y-98411695D02*
X133858000Y-97598895D01*
X134128933Y-98179466D01*
X134399866Y-97598895D01*
X134399866Y-98411695D01*
X134786914Y-98411695D02*
X134786914Y-97598895D01*
X135096552Y-97598895D01*
X135173961Y-97637600D01*
X135212666Y-97676304D01*
X135251371Y-97753714D01*
X135251371Y-97869828D01*
X135212666Y-97947238D01*
X135173961Y-97985942D01*
X135096552Y-98024647D01*
X134786914Y-98024647D01*
%TO.C,C36*%
X141971485Y-94270285D02*
X141932780Y-94308990D01*
X141816666Y-94347695D01*
X141739257Y-94347695D01*
X141623142Y-94308990D01*
X141545733Y-94231580D01*
X141507028Y-94154171D01*
X141468323Y-93999352D01*
X141468323Y-93883238D01*
X141507028Y-93728419D01*
X141545733Y-93651009D01*
X141623142Y-93573600D01*
X141739257Y-93534895D01*
X141816666Y-93534895D01*
X141932780Y-93573600D01*
X141971485Y-93612304D01*
X142242419Y-93534895D02*
X142745580Y-93534895D01*
X142474647Y-93844533D01*
X142590761Y-93844533D01*
X142668171Y-93883238D01*
X142706876Y-93921942D01*
X142745580Y-93999352D01*
X142745580Y-94192876D01*
X142706876Y-94270285D01*
X142668171Y-94308990D01*
X142590761Y-94347695D01*
X142358533Y-94347695D01*
X142281123Y-94308990D01*
X142242419Y-94270285D01*
X143442266Y-93534895D02*
X143287447Y-93534895D01*
X143210038Y-93573600D01*
X143171333Y-93612304D01*
X143093923Y-93728419D01*
X143055219Y-93883238D01*
X143055219Y-94192876D01*
X143093923Y-94270285D01*
X143132628Y-94308990D01*
X143210038Y-94347695D01*
X143364857Y-94347695D01*
X143442266Y-94308990D01*
X143480971Y-94270285D01*
X143519676Y-94192876D01*
X143519676Y-93999352D01*
X143480971Y-93921942D01*
X143442266Y-93883238D01*
X143364857Y-93844533D01*
X143210038Y-93844533D01*
X143132628Y-93883238D01*
X143093923Y-93921942D01*
X143055219Y-93999352D01*
%TO.C,ENCA*%
X129201333Y-93413942D02*
X129472266Y-93413942D01*
X129588380Y-93839695D02*
X129201333Y-93839695D01*
X129201333Y-93026895D01*
X129588380Y-93026895D01*
X129936723Y-93839695D02*
X129936723Y-93026895D01*
X130401180Y-93839695D01*
X130401180Y-93026895D01*
X131252685Y-93762285D02*
X131213980Y-93800990D01*
X131097866Y-93839695D01*
X131020457Y-93839695D01*
X130904342Y-93800990D01*
X130826933Y-93723580D01*
X130788228Y-93646171D01*
X130749523Y-93491352D01*
X130749523Y-93375238D01*
X130788228Y-93220419D01*
X130826933Y-93143009D01*
X130904342Y-93065600D01*
X131020457Y-93026895D01*
X131097866Y-93026895D01*
X131213980Y-93065600D01*
X131252685Y-93104304D01*
X131562323Y-93607466D02*
X131949371Y-93607466D01*
X131484914Y-93839695D02*
X131755847Y-93026895D01*
X132026780Y-93839695D01*
%TO.C,ENCB*%
X125487276Y-93413942D02*
X125758209Y-93413942D01*
X125874323Y-93839695D02*
X125487276Y-93839695D01*
X125487276Y-93026895D01*
X125874323Y-93026895D01*
X126222666Y-93839695D02*
X126222666Y-93026895D01*
X126687123Y-93839695D01*
X126687123Y-93026895D01*
X127538628Y-93762285D02*
X127499923Y-93800990D01*
X127383809Y-93839695D01*
X127306400Y-93839695D01*
X127190285Y-93800990D01*
X127112876Y-93723580D01*
X127074171Y-93646171D01*
X127035466Y-93491352D01*
X127035466Y-93375238D01*
X127074171Y-93220419D01*
X127112876Y-93143009D01*
X127190285Y-93065600D01*
X127306400Y-93026895D01*
X127383809Y-93026895D01*
X127499923Y-93065600D01*
X127538628Y-93104304D01*
X128157904Y-93413942D02*
X128274019Y-93452647D01*
X128312723Y-93491352D01*
X128351428Y-93568761D01*
X128351428Y-93684876D01*
X128312723Y-93762285D01*
X128274019Y-93800990D01*
X128196609Y-93839695D01*
X127886971Y-93839695D01*
X127886971Y-93026895D01*
X128157904Y-93026895D01*
X128235314Y-93065600D01*
X128274019Y-93104304D01*
X128312723Y-93181714D01*
X128312723Y-93259123D01*
X128274019Y-93336533D01*
X128235314Y-93375238D01*
X128157904Y-93413942D01*
X127886971Y-93413942D01*
%TO.C,ENCC*%
X121987276Y-93413942D02*
X122258209Y-93413942D01*
X122374323Y-93839695D02*
X121987276Y-93839695D01*
X121987276Y-93026895D01*
X122374323Y-93026895D01*
X122722666Y-93839695D02*
X122722666Y-93026895D01*
X123187123Y-93839695D01*
X123187123Y-93026895D01*
X124038628Y-93762285D02*
X123999923Y-93800990D01*
X123883809Y-93839695D01*
X123806400Y-93839695D01*
X123690285Y-93800990D01*
X123612876Y-93723580D01*
X123574171Y-93646171D01*
X123535466Y-93491352D01*
X123535466Y-93375238D01*
X123574171Y-93220419D01*
X123612876Y-93143009D01*
X123690285Y-93065600D01*
X123806400Y-93026895D01*
X123883809Y-93026895D01*
X123999923Y-93065600D01*
X124038628Y-93104304D01*
X124851428Y-93762285D02*
X124812723Y-93800990D01*
X124696609Y-93839695D01*
X124619200Y-93839695D01*
X124503085Y-93800990D01*
X124425676Y-93723580D01*
X124386971Y-93646171D01*
X124348266Y-93491352D01*
X124348266Y-93375238D01*
X124386971Y-93220419D01*
X124425676Y-93143009D01*
X124503085Y-93065600D01*
X124619200Y-93026895D01*
X124696609Y-93026895D01*
X124812723Y-93065600D01*
X124851428Y-93104304D01*
%TO.C,C1*%
D13*
X128627142Y-100242666D02*
X128674761Y-100290285D01*
X128722380Y-100433142D01*
X128722380Y-100528380D01*
X128674761Y-100671238D01*
X128579523Y-100766476D01*
X128484285Y-100814095D01*
X128293809Y-100861714D01*
X128150952Y-100861714D01*
X127960476Y-100814095D01*
X127865238Y-100766476D01*
X127770000Y-100671238D01*
X127722380Y-100528380D01*
X127722380Y-100433142D01*
X127770000Y-100290285D01*
X127817619Y-100242666D01*
X128722380Y-99290285D02*
X128722380Y-99861714D01*
X128722380Y-99576000D02*
X127722380Y-99576000D01*
X127865238Y-99671238D01*
X127960476Y-99766476D01*
X128008095Y-99861714D01*
%TO.C,C6*%
X122785142Y-100750666D02*
X122832761Y-100798285D01*
X122880380Y-100941142D01*
X122880380Y-101036380D01*
X122832761Y-101179238D01*
X122737523Y-101274476D01*
X122642285Y-101322095D01*
X122451809Y-101369714D01*
X122308952Y-101369714D01*
X122118476Y-101322095D01*
X122023238Y-101274476D01*
X121928000Y-101179238D01*
X121880380Y-101036380D01*
X121880380Y-100941142D01*
X121928000Y-100798285D01*
X121975619Y-100750666D01*
X121880380Y-99893523D02*
X121880380Y-100084000D01*
X121928000Y-100179238D01*
X121975619Y-100226857D01*
X122118476Y-100322095D01*
X122308952Y-100369714D01*
X122689904Y-100369714D01*
X122785142Y-100322095D01*
X122832761Y-100274476D01*
X122880380Y-100179238D01*
X122880380Y-99988761D01*
X122832761Y-99893523D01*
X122785142Y-99845904D01*
X122689904Y-99798285D01*
X122451809Y-99798285D01*
X122356571Y-99845904D01*
X122308952Y-99893523D01*
X122261333Y-99988761D01*
X122261333Y-100179238D01*
X122308952Y-100274476D01*
X122356571Y-100322095D01*
X122451809Y-100369714D01*
%TO.C,C14*%
X125341142Y-114657142D02*
X125293523Y-114704761D01*
X125150666Y-114752380D01*
X125055428Y-114752380D01*
X124912571Y-114704761D01*
X124817333Y-114609523D01*
X124769714Y-114514285D01*
X124722095Y-114323809D01*
X124722095Y-114180952D01*
X124769714Y-113990476D01*
X124817333Y-113895238D01*
X124912571Y-113800000D01*
X125055428Y-113752380D01*
X125150666Y-113752380D01*
X125293523Y-113800000D01*
X125341142Y-113847619D01*
X126293523Y-114752380D02*
X125722095Y-114752380D01*
X126007809Y-114752380D02*
X126007809Y-113752380D01*
X125912571Y-113895238D01*
X125817333Y-113990476D01*
X125722095Y-114038095D01*
X127150666Y-114085714D02*
X127150666Y-114752380D01*
X126912571Y-113704761D02*
X126674476Y-114419047D01*
X127293523Y-114419047D01*
%TO.C,C17*%
X121515142Y-100718857D02*
X121562761Y-100766476D01*
X121610380Y-100909333D01*
X121610380Y-101004571D01*
X121562761Y-101147428D01*
X121467523Y-101242666D01*
X121372285Y-101290285D01*
X121181809Y-101337904D01*
X121038952Y-101337904D01*
X120848476Y-101290285D01*
X120753238Y-101242666D01*
X120658000Y-101147428D01*
X120610380Y-101004571D01*
X120610380Y-100909333D01*
X120658000Y-100766476D01*
X120705619Y-100718857D01*
X121610380Y-99766476D02*
X121610380Y-100337904D01*
X121610380Y-100052190D02*
X120610380Y-100052190D01*
X120753238Y-100147428D01*
X120848476Y-100242666D01*
X120896095Y-100337904D01*
X120610380Y-99433142D02*
X120610380Y-98766476D01*
X121610380Y-99195047D01*
%TO.C,C18*%
X118213142Y-100718857D02*
X118260761Y-100766476D01*
X118308380Y-100909333D01*
X118308380Y-101004571D01*
X118260761Y-101147428D01*
X118165523Y-101242666D01*
X118070285Y-101290285D01*
X117879809Y-101337904D01*
X117736952Y-101337904D01*
X117546476Y-101290285D01*
X117451238Y-101242666D01*
X117356000Y-101147428D01*
X117308380Y-101004571D01*
X117308380Y-100909333D01*
X117356000Y-100766476D01*
X117403619Y-100718857D01*
X118308380Y-99766476D02*
X118308380Y-100337904D01*
X118308380Y-100052190D02*
X117308380Y-100052190D01*
X117451238Y-100147428D01*
X117546476Y-100242666D01*
X117594095Y-100337904D01*
X117736952Y-99195047D02*
X117689333Y-99290285D01*
X117641714Y-99337904D01*
X117546476Y-99385523D01*
X117498857Y-99385523D01*
X117403619Y-99337904D01*
X117356000Y-99290285D01*
X117308380Y-99195047D01*
X117308380Y-99004571D01*
X117356000Y-98909333D01*
X117403619Y-98861714D01*
X117498857Y-98814095D01*
X117546476Y-98814095D01*
X117641714Y-98861714D01*
X117689333Y-98909333D01*
X117736952Y-99004571D01*
X117736952Y-99195047D01*
X117784571Y-99290285D01*
X117832190Y-99337904D01*
X117927428Y-99385523D01*
X118117904Y-99385523D01*
X118213142Y-99337904D01*
X118260761Y-99290285D01*
X118308380Y-99195047D01*
X118308380Y-99004571D01*
X118260761Y-98909333D01*
X118213142Y-98861714D01*
X118117904Y-98814095D01*
X117927428Y-98814095D01*
X117832190Y-98861714D01*
X117784571Y-98909333D01*
X117736952Y-99004571D01*
%TO.C,C20*%
X115165142Y-100718857D02*
X115212761Y-100766476D01*
X115260380Y-100909333D01*
X115260380Y-101004571D01*
X115212761Y-101147428D01*
X115117523Y-101242666D01*
X115022285Y-101290285D01*
X114831809Y-101337904D01*
X114688952Y-101337904D01*
X114498476Y-101290285D01*
X114403238Y-101242666D01*
X114308000Y-101147428D01*
X114260380Y-101004571D01*
X114260380Y-100909333D01*
X114308000Y-100766476D01*
X114355619Y-100718857D01*
X114355619Y-100337904D02*
X114308000Y-100290285D01*
X114260380Y-100195047D01*
X114260380Y-99956952D01*
X114308000Y-99861714D01*
X114355619Y-99814095D01*
X114450857Y-99766476D01*
X114546095Y-99766476D01*
X114688952Y-99814095D01*
X115260380Y-100385523D01*
X115260380Y-99766476D01*
X114260380Y-99147428D02*
X114260380Y-99052190D01*
X114308000Y-98956952D01*
X114355619Y-98909333D01*
X114450857Y-98861714D01*
X114641333Y-98814095D01*
X114879428Y-98814095D01*
X115069904Y-98861714D01*
X115165142Y-98909333D01*
X115212761Y-98956952D01*
X115260380Y-99052190D01*
X115260380Y-99147428D01*
X115212761Y-99242666D01*
X115165142Y-99290285D01*
X115069904Y-99337904D01*
X114879428Y-99385523D01*
X114641333Y-99385523D01*
X114450857Y-99337904D01*
X114355619Y-99290285D01*
X114308000Y-99242666D01*
X114260380Y-99147428D01*
%TO.C,C21*%
X131691142Y-102973142D02*
X131643523Y-103020761D01*
X131500666Y-103068380D01*
X131405428Y-103068380D01*
X131262571Y-103020761D01*
X131167333Y-102925523D01*
X131119714Y-102830285D01*
X131072095Y-102639809D01*
X131072095Y-102496952D01*
X131119714Y-102306476D01*
X131167333Y-102211238D01*
X131262571Y-102116000D01*
X131405428Y-102068380D01*
X131500666Y-102068380D01*
X131643523Y-102116000D01*
X131691142Y-102163619D01*
X132072095Y-102163619D02*
X132119714Y-102116000D01*
X132214952Y-102068380D01*
X132453047Y-102068380D01*
X132548285Y-102116000D01*
X132595904Y-102163619D01*
X132643523Y-102258857D01*
X132643523Y-102354095D01*
X132595904Y-102496952D01*
X132024476Y-103068380D01*
X132643523Y-103068380D01*
X133595904Y-103068380D02*
X133024476Y-103068380D01*
X133310190Y-103068380D02*
X133310190Y-102068380D01*
X133214952Y-102211238D01*
X133119714Y-102306476D01*
X133024476Y-102354095D01*
%TO.C,C22*%
X129612642Y-118943357D02*
X129660261Y-118990976D01*
X129707880Y-119133833D01*
X129707880Y-119229071D01*
X129660261Y-119371928D01*
X129565023Y-119467166D01*
X129469785Y-119514785D01*
X129279309Y-119562404D01*
X129136452Y-119562404D01*
X128945976Y-119514785D01*
X128850738Y-119467166D01*
X128755500Y-119371928D01*
X128707880Y-119229071D01*
X128707880Y-119133833D01*
X128755500Y-118990976D01*
X128803119Y-118943357D01*
X128803119Y-118562404D02*
X128755500Y-118514785D01*
X128707880Y-118419547D01*
X128707880Y-118181452D01*
X128755500Y-118086214D01*
X128803119Y-118038595D01*
X128898357Y-117990976D01*
X128993595Y-117990976D01*
X129136452Y-118038595D01*
X129707880Y-118610023D01*
X129707880Y-117990976D01*
X128803119Y-117610023D02*
X128755500Y-117562404D01*
X128707880Y-117467166D01*
X128707880Y-117229071D01*
X128755500Y-117133833D01*
X128803119Y-117086214D01*
X128898357Y-117038595D01*
X128993595Y-117038595D01*
X129136452Y-117086214D01*
X129707880Y-117657642D01*
X129707880Y-117038595D01*
%TO.C,C23*%
X119229142Y-119006857D02*
X119276761Y-119054476D01*
X119324380Y-119197333D01*
X119324380Y-119292571D01*
X119276761Y-119435428D01*
X119181523Y-119530666D01*
X119086285Y-119578285D01*
X118895809Y-119625904D01*
X118752952Y-119625904D01*
X118562476Y-119578285D01*
X118467238Y-119530666D01*
X118372000Y-119435428D01*
X118324380Y-119292571D01*
X118324380Y-119197333D01*
X118372000Y-119054476D01*
X118419619Y-119006857D01*
X118419619Y-118625904D02*
X118372000Y-118578285D01*
X118324380Y-118483047D01*
X118324380Y-118244952D01*
X118372000Y-118149714D01*
X118419619Y-118102095D01*
X118514857Y-118054476D01*
X118610095Y-118054476D01*
X118752952Y-118102095D01*
X119324380Y-118673523D01*
X119324380Y-118054476D01*
X118324380Y-117721142D02*
X118324380Y-117102095D01*
X118705333Y-117435428D01*
X118705333Y-117292571D01*
X118752952Y-117197333D01*
X118800571Y-117149714D01*
X118895809Y-117102095D01*
X119133904Y-117102095D01*
X119229142Y-117149714D01*
X119276761Y-117197333D01*
X119324380Y-117292571D01*
X119324380Y-117578285D01*
X119276761Y-117673523D01*
X119229142Y-117721142D01*
%TO.C,C35*%
X115181142Y-119229142D02*
X115133523Y-119276761D01*
X114990666Y-119324380D01*
X114895428Y-119324380D01*
X114752571Y-119276761D01*
X114657333Y-119181523D01*
X114609714Y-119086285D01*
X114562095Y-118895809D01*
X114562095Y-118752952D01*
X114609714Y-118562476D01*
X114657333Y-118467238D01*
X114752571Y-118372000D01*
X114895428Y-118324380D01*
X114990666Y-118324380D01*
X115133523Y-118372000D01*
X115181142Y-118419619D01*
X115514476Y-118324380D02*
X116133523Y-118324380D01*
X115800190Y-118705333D01*
X115943047Y-118705333D01*
X116038285Y-118752952D01*
X116085904Y-118800571D01*
X116133523Y-118895809D01*
X116133523Y-119133904D01*
X116085904Y-119229142D01*
X116038285Y-119276761D01*
X115943047Y-119324380D01*
X115657333Y-119324380D01*
X115562095Y-119276761D01*
X115514476Y-119229142D01*
X117038285Y-118324380D02*
X116562095Y-118324380D01*
X116514476Y-118800571D01*
X116562095Y-118752952D01*
X116657333Y-118705333D01*
X116895428Y-118705333D01*
X116990666Y-118752952D01*
X117038285Y-118800571D01*
X117085904Y-118895809D01*
X117085904Y-119133904D01*
X117038285Y-119229142D01*
X116990666Y-119276761D01*
X116895428Y-119324380D01*
X116657333Y-119324380D01*
X116562095Y-119276761D01*
X116514476Y-119229142D01*
%TO.C,R17*%
X125595142Y-116276380D02*
X125261809Y-115800190D01*
X125023714Y-116276380D02*
X125023714Y-115276380D01*
X125404666Y-115276380D01*
X125499904Y-115324000D01*
X125547523Y-115371619D01*
X125595142Y-115466857D01*
X125595142Y-115609714D01*
X125547523Y-115704952D01*
X125499904Y-115752571D01*
X125404666Y-115800190D01*
X125023714Y-115800190D01*
X126547523Y-116276380D02*
X125976095Y-116276380D01*
X126261809Y-116276380D02*
X126261809Y-115276380D01*
X126166571Y-115419238D01*
X126071333Y-115514476D01*
X125976095Y-115562095D01*
X126880857Y-115276380D02*
X127547523Y-115276380D01*
X127118952Y-116276380D01*
%TO.C,R18*%
X128389142Y-105862380D02*
X128055809Y-105386190D01*
X127817714Y-105862380D02*
X127817714Y-104862380D01*
X128198666Y-104862380D01*
X128293904Y-104910000D01*
X128341523Y-104957619D01*
X128389142Y-105052857D01*
X128389142Y-105195714D01*
X128341523Y-105290952D01*
X128293904Y-105338571D01*
X128198666Y-105386190D01*
X127817714Y-105386190D01*
X129341523Y-105862380D02*
X128770095Y-105862380D01*
X129055809Y-105862380D02*
X129055809Y-104862380D01*
X128960571Y-105005238D01*
X128865333Y-105100476D01*
X128770095Y-105148095D01*
X129912952Y-105290952D02*
X129817714Y-105243333D01*
X129770095Y-105195714D01*
X129722476Y-105100476D01*
X129722476Y-105052857D01*
X129770095Y-104957619D01*
X129817714Y-104910000D01*
X129912952Y-104862380D01*
X130103428Y-104862380D01*
X130198666Y-104910000D01*
X130246285Y-104957619D01*
X130293904Y-105052857D01*
X130293904Y-105100476D01*
X130246285Y-105195714D01*
X130198666Y-105243333D01*
X130103428Y-105290952D01*
X129912952Y-105290952D01*
X129817714Y-105338571D01*
X129770095Y-105386190D01*
X129722476Y-105481428D01*
X129722476Y-105671904D01*
X129770095Y-105767142D01*
X129817714Y-105814761D01*
X129912952Y-105862380D01*
X130103428Y-105862380D01*
X130198666Y-105814761D01*
X130246285Y-105767142D01*
X130293904Y-105671904D01*
X130293904Y-105481428D01*
X130246285Y-105386190D01*
X130198666Y-105338571D01*
X130103428Y-105290952D01*
%TO.C,R27*%
X128389142Y-107386380D02*
X128055809Y-106910190D01*
X127817714Y-107386380D02*
X127817714Y-106386380D01*
X128198666Y-106386380D01*
X128293904Y-106434000D01*
X128341523Y-106481619D01*
X128389142Y-106576857D01*
X128389142Y-106719714D01*
X128341523Y-106814952D01*
X128293904Y-106862571D01*
X128198666Y-106910190D01*
X127817714Y-106910190D01*
X128770095Y-106481619D02*
X128817714Y-106434000D01*
X128912952Y-106386380D01*
X129151047Y-106386380D01*
X129246285Y-106434000D01*
X129293904Y-106481619D01*
X129341523Y-106576857D01*
X129341523Y-106672095D01*
X129293904Y-106814952D01*
X128722476Y-107386380D01*
X129341523Y-107386380D01*
X129674857Y-106386380D02*
X130341523Y-106386380D01*
X129912952Y-107386380D01*
%TO.C,R29*%
X113736380Y-100718857D02*
X113260190Y-101052190D01*
X113736380Y-101290285D02*
X112736380Y-101290285D01*
X112736380Y-100909333D01*
X112784000Y-100814095D01*
X112831619Y-100766476D01*
X112926857Y-100718857D01*
X113069714Y-100718857D01*
X113164952Y-100766476D01*
X113212571Y-100814095D01*
X113260190Y-100909333D01*
X113260190Y-101290285D01*
X112831619Y-100337904D02*
X112784000Y-100290285D01*
X112736380Y-100195047D01*
X112736380Y-99956952D01*
X112784000Y-99861714D01*
X112831619Y-99814095D01*
X112926857Y-99766476D01*
X113022095Y-99766476D01*
X113164952Y-99814095D01*
X113736380Y-100385523D01*
X113736380Y-99766476D01*
X113736380Y-99290285D02*
X113736380Y-99099809D01*
X113688761Y-99004571D01*
X113641142Y-98956952D01*
X113498285Y-98861714D01*
X113307809Y-98814095D01*
X112926857Y-98814095D01*
X112831619Y-98861714D01*
X112784000Y-98909333D01*
X112736380Y-99004571D01*
X112736380Y-99195047D01*
X112784000Y-99290285D01*
X112831619Y-99337904D01*
X112926857Y-99385523D01*
X113164952Y-99385523D01*
X113260190Y-99337904D01*
X113307809Y-99290285D01*
X113355428Y-99195047D01*
X113355428Y-99004571D01*
X113307809Y-98909333D01*
X113260190Y-98861714D01*
X113164952Y-98814095D01*
%TO.C,R30*%
X116784380Y-100718857D02*
X116308190Y-101052190D01*
X116784380Y-101290285D02*
X115784380Y-101290285D01*
X115784380Y-100909333D01*
X115832000Y-100814095D01*
X115879619Y-100766476D01*
X115974857Y-100718857D01*
X116117714Y-100718857D01*
X116212952Y-100766476D01*
X116260571Y-100814095D01*
X116308190Y-100909333D01*
X116308190Y-101290285D01*
X115784380Y-100385523D02*
X115784380Y-99766476D01*
X116165333Y-100099809D01*
X116165333Y-99956952D01*
X116212952Y-99861714D01*
X116260571Y-99814095D01*
X116355809Y-99766476D01*
X116593904Y-99766476D01*
X116689142Y-99814095D01*
X116736761Y-99861714D01*
X116784380Y-99956952D01*
X116784380Y-100242666D01*
X116736761Y-100337904D01*
X116689142Y-100385523D01*
X115784380Y-99147428D02*
X115784380Y-99052190D01*
X115832000Y-98956952D01*
X115879619Y-98909333D01*
X115974857Y-98861714D01*
X116165333Y-98814095D01*
X116403428Y-98814095D01*
X116593904Y-98861714D01*
X116689142Y-98909333D01*
X116736761Y-98956952D01*
X116784380Y-99052190D01*
X116784380Y-99147428D01*
X116736761Y-99242666D01*
X116689142Y-99290285D01*
X116593904Y-99337904D01*
X116403428Y-99385523D01*
X116165333Y-99385523D01*
X115974857Y-99337904D01*
X115879619Y-99290285D01*
X115832000Y-99242666D01*
X115784380Y-99147428D01*
%TO.C,R31*%
X120086380Y-100718857D02*
X119610190Y-101052190D01*
X120086380Y-101290285D02*
X119086380Y-101290285D01*
X119086380Y-100909333D01*
X119134000Y-100814095D01*
X119181619Y-100766476D01*
X119276857Y-100718857D01*
X119419714Y-100718857D01*
X119514952Y-100766476D01*
X119562571Y-100814095D01*
X119610190Y-100909333D01*
X119610190Y-101290285D01*
X119086380Y-100385523D02*
X119086380Y-99766476D01*
X119467333Y-100099809D01*
X119467333Y-99956952D01*
X119514952Y-99861714D01*
X119562571Y-99814095D01*
X119657809Y-99766476D01*
X119895904Y-99766476D01*
X119991142Y-99814095D01*
X120038761Y-99861714D01*
X120086380Y-99956952D01*
X120086380Y-100242666D01*
X120038761Y-100337904D01*
X119991142Y-100385523D01*
X120086380Y-98814095D02*
X120086380Y-99385523D01*
X120086380Y-99099809D02*
X119086380Y-99099809D01*
X119229238Y-99195047D01*
X119324476Y-99290285D01*
X119372095Y-99385523D01*
%TO.C,R32*%
X120261142Y-116530380D02*
X119927809Y-116054190D01*
X119689714Y-116530380D02*
X119689714Y-115530380D01*
X120070666Y-115530380D01*
X120165904Y-115578000D01*
X120213523Y-115625619D01*
X120261142Y-115720857D01*
X120261142Y-115863714D01*
X120213523Y-115958952D01*
X120165904Y-116006571D01*
X120070666Y-116054190D01*
X119689714Y-116054190D01*
X120594476Y-115530380D02*
X121213523Y-115530380D01*
X120880190Y-115911333D01*
X121023047Y-115911333D01*
X121118285Y-115958952D01*
X121165904Y-116006571D01*
X121213523Y-116101809D01*
X121213523Y-116339904D01*
X121165904Y-116435142D01*
X121118285Y-116482761D01*
X121023047Y-116530380D01*
X120737333Y-116530380D01*
X120642095Y-116482761D01*
X120594476Y-116435142D01*
X121594476Y-115625619D02*
X121642095Y-115578000D01*
X121737333Y-115530380D01*
X121975428Y-115530380D01*
X122070666Y-115578000D01*
X122118285Y-115625619D01*
X122165904Y-115720857D01*
X122165904Y-115816095D01*
X122118285Y-115958952D01*
X121546857Y-116530380D01*
X122165904Y-116530380D01*
%TO.C,R56*%
X111625142Y-119324380D02*
X111291809Y-118848190D01*
X111053714Y-119324380D02*
X111053714Y-118324380D01*
X111434666Y-118324380D01*
X111529904Y-118372000D01*
X111577523Y-118419619D01*
X111625142Y-118514857D01*
X111625142Y-118657714D01*
X111577523Y-118752952D01*
X111529904Y-118800571D01*
X111434666Y-118848190D01*
X111053714Y-118848190D01*
X112529904Y-118324380D02*
X112053714Y-118324380D01*
X112006095Y-118800571D01*
X112053714Y-118752952D01*
X112148952Y-118705333D01*
X112387047Y-118705333D01*
X112482285Y-118752952D01*
X112529904Y-118800571D01*
X112577523Y-118895809D01*
X112577523Y-119133904D01*
X112529904Y-119229142D01*
X112482285Y-119276761D01*
X112387047Y-119324380D01*
X112148952Y-119324380D01*
X112053714Y-119276761D01*
X112006095Y-119229142D01*
X113434666Y-118324380D02*
X113244190Y-118324380D01*
X113148952Y-118372000D01*
X113101333Y-118419619D01*
X113006095Y-118562476D01*
X112958476Y-118752952D01*
X112958476Y-119133904D01*
X113006095Y-119229142D01*
X113053714Y-119276761D01*
X113148952Y-119324380D01*
X113339428Y-119324380D01*
X113434666Y-119276761D01*
X113482285Y-119229142D01*
X113529904Y-119133904D01*
X113529904Y-118895809D01*
X113482285Y-118800571D01*
X113434666Y-118752952D01*
X113339428Y-118705333D01*
X113148952Y-118705333D01*
X113053714Y-118752952D01*
X113006095Y-118800571D01*
X112958476Y-118895809D01*
%TO.C,U1*%
X124460095Y-99782380D02*
X124460095Y-100591904D01*
X124507714Y-100687142D01*
X124555333Y-100734761D01*
X124650571Y-100782380D01*
X124841047Y-100782380D01*
X124936285Y-100734761D01*
X124983904Y-100687142D01*
X125031523Y-100591904D01*
X125031523Y-99782380D01*
X126031523Y-100782380D02*
X125460095Y-100782380D01*
X125745809Y-100782380D02*
X125745809Y-99782380D01*
X125650571Y-99925238D01*
X125555333Y-100020476D01*
X125460095Y-100068095D01*
%TO.C,U2*%
X114554095Y-106386380D02*
X114554095Y-107195904D01*
X114601714Y-107291142D01*
X114649333Y-107338761D01*
X114744571Y-107386380D01*
X114935047Y-107386380D01*
X115030285Y-107338761D01*
X115077904Y-107291142D01*
X115125523Y-107195904D01*
X115125523Y-106386380D01*
X115554095Y-106481619D02*
X115601714Y-106434000D01*
X115696952Y-106386380D01*
X115935047Y-106386380D01*
X116030285Y-106434000D01*
X116077904Y-106481619D01*
X116125523Y-106576857D01*
X116125523Y-106672095D01*
X116077904Y-106814952D01*
X115506476Y-107386380D01*
X116125523Y-107386380D01*
%TD*%
M02*
