%TF.GenerationSoftware,KiCad,Pcbnew,(5.1.8)-1*%
%TF.CreationDate,2021-03-09T13:11:08-05:00*%
%TF.ProjectId,DRV8353S_dev_board,44525638-3335-4335-935f-6465765f626f,rev?*%
%TF.SameCoordinates,Original*%
%TF.FileFunction,Soldermask,Top*%
%TF.FilePolarity,Negative*%
%FSLAX46Y46*%
G04 Gerber Fmt 4.6, Leading zero omitted, Abs format (unit mm)*
G04 Created by KiCad (PCBNEW (5.1.8)-1) date 2021-03-09 13:11:08*
%MOMM*%
%LPD*%
G01*
G04 APERTURE LIST*
%ADD10C,2.000000*%
%ADD11C,0.800000*%
%ADD12C,6.000001*%
%ADD13R,1.000000X1.000000*%
%ADD14O,1.000000X1.000000*%
%ADD15R,0.900000X0.800000*%
%ADD16O,1.950000X1.700000*%
%ADD17R,0.900000X1.700000*%
%ADD18R,0.760000X1.600000*%
%ADD19R,0.600000X0.450000*%
%ADD20R,5.400000X3.200000*%
%ADD21C,3.600000*%
%ADD22C,4.000000*%
%ADD23C,1.000000*%
%ADD24R,0.650000X0.350000*%
%ADD25R,1.550000X2.400000*%
%ADD26R,4.600000X4.600000*%
%ADD27R,1.900000X1.100000*%
%ADD28R,2.500000X0.700000*%
%ADD29R,0.710000X1.320000*%
%ADD30R,0.710000X0.590000*%
%ADD31R,4.520000X3.850000*%
%ADD32R,1.300000X1.100000*%
%ADD33R,4.100000X4.100000*%
G04 APERTURE END LIST*
%TO.C,R26*%
G36*
G01*
X109519000Y-117623000D02*
X109519000Y-117073000D01*
G75*
G02*
X109719000Y-116873000I200000J0D01*
G01*
X110119000Y-116873000D01*
G75*
G02*
X110319000Y-117073000I0J-200000D01*
G01*
X110319000Y-117623000D01*
G75*
G02*
X110119000Y-117823000I-200000J0D01*
G01*
X109719000Y-117823000D01*
G75*
G02*
X109519000Y-117623000I0J200000D01*
G01*
G37*
G36*
G01*
X111169000Y-117623000D02*
X111169000Y-117073000D01*
G75*
G02*
X111369000Y-116873000I200000J0D01*
G01*
X111769000Y-116873000D01*
G75*
G02*
X111969000Y-117073000I0J-200000D01*
G01*
X111969000Y-117623000D01*
G75*
G02*
X111769000Y-117823000I-200000J0D01*
G01*
X111369000Y-117823000D01*
G75*
G02*
X111169000Y-117623000I0J200000D01*
G01*
G37*
%TD*%
%TO.C,C19*%
G36*
G01*
X111969000Y-115574000D02*
X111969000Y-116074000D01*
G75*
G02*
X111744000Y-116299000I-225000J0D01*
G01*
X111294000Y-116299000D01*
G75*
G02*
X111069000Y-116074000I0J225000D01*
G01*
X111069000Y-115574000D01*
G75*
G02*
X111294000Y-115349000I225000J0D01*
G01*
X111744000Y-115349000D01*
G75*
G02*
X111969000Y-115574000I0J-225000D01*
G01*
G37*
G36*
G01*
X110419000Y-115574000D02*
X110419000Y-116074000D01*
G75*
G02*
X110194000Y-116299000I-225000J0D01*
G01*
X109744000Y-116299000D01*
G75*
G02*
X109519000Y-116074000I0J225000D01*
G01*
X109519000Y-115574000D01*
G75*
G02*
X109744000Y-115349000I225000J0D01*
G01*
X110194000Y-115349000D01*
G75*
G02*
X110419000Y-115574000I0J-225000D01*
G01*
G37*
%TD*%
%TO.C,R12*%
G36*
G01*
X111968500Y-109453000D02*
X111968500Y-110003000D01*
G75*
G02*
X111768500Y-110203000I-200000J0D01*
G01*
X111368500Y-110203000D01*
G75*
G02*
X111168500Y-110003000I0J200000D01*
G01*
X111168500Y-109453000D01*
G75*
G02*
X111368500Y-109253000I200000J0D01*
G01*
X111768500Y-109253000D01*
G75*
G02*
X111968500Y-109453000I0J-200000D01*
G01*
G37*
G36*
G01*
X110318500Y-109453000D02*
X110318500Y-110003000D01*
G75*
G02*
X110118500Y-110203000I-200000J0D01*
G01*
X109718500Y-110203000D01*
G75*
G02*
X109518500Y-110003000I0J200000D01*
G01*
X109518500Y-109453000D01*
G75*
G02*
X109718500Y-109253000I200000J0D01*
G01*
X110118500Y-109253000D01*
G75*
G02*
X110318500Y-109453000I0J-200000D01*
G01*
G37*
%TD*%
%TO.C,R13*%
G36*
G01*
X110319500Y-112501000D02*
X110319500Y-113051000D01*
G75*
G02*
X110119500Y-113251000I-200000J0D01*
G01*
X109719500Y-113251000D01*
G75*
G02*
X109519500Y-113051000I0J200000D01*
G01*
X109519500Y-112501000D01*
G75*
G02*
X109719500Y-112301000I200000J0D01*
G01*
X110119500Y-112301000D01*
G75*
G02*
X110319500Y-112501000I0J-200000D01*
G01*
G37*
G36*
G01*
X111969500Y-112501000D02*
X111969500Y-113051000D01*
G75*
G02*
X111769500Y-113251000I-200000J0D01*
G01*
X111369500Y-113251000D01*
G75*
G02*
X111169500Y-113051000I0J200000D01*
G01*
X111169500Y-112501000D01*
G75*
G02*
X111369500Y-112301000I200000J0D01*
G01*
X111769500Y-112301000D01*
G75*
G02*
X111969500Y-112501000I0J-200000D01*
G01*
G37*
%TD*%
%TO.C,R11*%
G36*
G01*
X110319000Y-107929000D02*
X110319000Y-108479000D01*
G75*
G02*
X110119000Y-108679000I-200000J0D01*
G01*
X109719000Y-108679000D01*
G75*
G02*
X109519000Y-108479000I0J200000D01*
G01*
X109519000Y-107929000D01*
G75*
G02*
X109719000Y-107729000I200000J0D01*
G01*
X110119000Y-107729000D01*
G75*
G02*
X110319000Y-107929000I0J-200000D01*
G01*
G37*
G36*
G01*
X111969000Y-107929000D02*
X111969000Y-108479000D01*
G75*
G02*
X111769000Y-108679000I-200000J0D01*
G01*
X111369000Y-108679000D01*
G75*
G02*
X111169000Y-108479000I0J200000D01*
G01*
X111169000Y-107929000D01*
G75*
G02*
X111369000Y-107729000I200000J0D01*
G01*
X111769000Y-107729000D01*
G75*
G02*
X111969000Y-107929000I0J-200000D01*
G01*
G37*
%TD*%
%TO.C,R14*%
G36*
G01*
X111969500Y-106405000D02*
X111969500Y-106955000D01*
G75*
G02*
X111769500Y-107155000I-200000J0D01*
G01*
X111369500Y-107155000D01*
G75*
G02*
X111169500Y-106955000I0J200000D01*
G01*
X111169500Y-106405000D01*
G75*
G02*
X111369500Y-106205000I200000J0D01*
G01*
X111769500Y-106205000D01*
G75*
G02*
X111969500Y-106405000I0J-200000D01*
G01*
G37*
G36*
G01*
X110319500Y-106405000D02*
X110319500Y-106955000D01*
G75*
G02*
X110119500Y-107155000I-200000J0D01*
G01*
X109719500Y-107155000D01*
G75*
G02*
X109519500Y-106955000I0J200000D01*
G01*
X109519500Y-106405000D01*
G75*
G02*
X109719500Y-106205000I200000J0D01*
G01*
X110119500Y-106205000D01*
G75*
G02*
X110319500Y-106405000I0J-200000D01*
G01*
G37*
%TD*%
%TO.C,R15*%
G36*
G01*
X111968500Y-104881000D02*
X111968500Y-105431000D01*
G75*
G02*
X111768500Y-105631000I-200000J0D01*
G01*
X111368500Y-105631000D01*
G75*
G02*
X111168500Y-105431000I0J200000D01*
G01*
X111168500Y-104881000D01*
G75*
G02*
X111368500Y-104681000I200000J0D01*
G01*
X111768500Y-104681000D01*
G75*
G02*
X111968500Y-104881000I0J-200000D01*
G01*
G37*
G36*
G01*
X110318500Y-104881000D02*
X110318500Y-105431000D01*
G75*
G02*
X110118500Y-105631000I-200000J0D01*
G01*
X109718500Y-105631000D01*
G75*
G02*
X109518500Y-105431000I0J200000D01*
G01*
X109518500Y-104881000D01*
G75*
G02*
X109718500Y-104681000I200000J0D01*
G01*
X110118500Y-104681000D01*
G75*
G02*
X110318500Y-104881000I0J-200000D01*
G01*
G37*
%TD*%
%TO.C,R19*%
G36*
G01*
X111969500Y-114025000D02*
X111969500Y-114575000D01*
G75*
G02*
X111769500Y-114775000I-200000J0D01*
G01*
X111369500Y-114775000D01*
G75*
G02*
X111169500Y-114575000I0J200000D01*
G01*
X111169500Y-114025000D01*
G75*
G02*
X111369500Y-113825000I200000J0D01*
G01*
X111769500Y-113825000D01*
G75*
G02*
X111969500Y-114025000I0J-200000D01*
G01*
G37*
G36*
G01*
X110319500Y-114025000D02*
X110319500Y-114575000D01*
G75*
G02*
X110119500Y-114775000I-200000J0D01*
G01*
X109719500Y-114775000D01*
G75*
G02*
X109519500Y-114575000I0J200000D01*
G01*
X109519500Y-114025000D01*
G75*
G02*
X109719500Y-113825000I200000J0D01*
G01*
X110119500Y-113825000D01*
G75*
G02*
X110319500Y-114025000I0J-200000D01*
G01*
G37*
%TD*%
%TO.C,R33*%
G36*
G01*
X111169000Y-111527000D02*
X111169000Y-110977000D01*
G75*
G02*
X111369000Y-110777000I200000J0D01*
G01*
X111769000Y-110777000D01*
G75*
G02*
X111969000Y-110977000I0J-200000D01*
G01*
X111969000Y-111527000D01*
G75*
G02*
X111769000Y-111727000I-200000J0D01*
G01*
X111369000Y-111727000D01*
G75*
G02*
X111169000Y-111527000I0J200000D01*
G01*
G37*
G36*
G01*
X109519000Y-111527000D02*
X109519000Y-110977000D01*
G75*
G02*
X109719000Y-110777000I200000J0D01*
G01*
X110119000Y-110777000D01*
G75*
G02*
X110319000Y-110977000I0J-200000D01*
G01*
X110319000Y-111527000D01*
G75*
G02*
X110119000Y-111727000I-200000J0D01*
G01*
X109719000Y-111727000D01*
G75*
G02*
X109519000Y-111527000I0J200000D01*
G01*
G37*
%TD*%
D10*
%TO.C,TP13*%
X107061000Y-104457500D03*
%TD*%
%TO.C,R34*%
G36*
G01*
X110318500Y-103357000D02*
X110318500Y-103907000D01*
G75*
G02*
X110118500Y-104107000I-200000J0D01*
G01*
X109718500Y-104107000D01*
G75*
G02*
X109518500Y-103907000I0J200000D01*
G01*
X109518500Y-103357000D01*
G75*
G02*
X109718500Y-103157000I200000J0D01*
G01*
X110118500Y-103157000D01*
G75*
G02*
X110318500Y-103357000I0J-200000D01*
G01*
G37*
G36*
G01*
X111968500Y-103357000D02*
X111968500Y-103907000D01*
G75*
G02*
X111768500Y-104107000I-200000J0D01*
G01*
X111368500Y-104107000D01*
G75*
G02*
X111168500Y-103907000I0J200000D01*
G01*
X111168500Y-103357000D01*
G75*
G02*
X111368500Y-103157000I200000J0D01*
G01*
X111768500Y-103157000D01*
G75*
G02*
X111968500Y-103357000I0J-200000D01*
G01*
G37*
%TD*%
%TO.C,C9*%
G36*
G01*
X71686600Y-109457300D02*
X71686600Y-108957300D01*
G75*
G02*
X71911600Y-108732300I225000J0D01*
G01*
X72361600Y-108732300D01*
G75*
G02*
X72586600Y-108957300I0J-225000D01*
G01*
X72586600Y-109457300D01*
G75*
G02*
X72361600Y-109682300I-225000J0D01*
G01*
X71911600Y-109682300D01*
G75*
G02*
X71686600Y-109457300I0J225000D01*
G01*
G37*
G36*
G01*
X70136600Y-109457300D02*
X70136600Y-108957300D01*
G75*
G02*
X70361600Y-108732300I225000J0D01*
G01*
X70811600Y-108732300D01*
G75*
G02*
X71036600Y-108957300I0J-225000D01*
G01*
X71036600Y-109457300D01*
G75*
G02*
X70811600Y-109682300I-225000J0D01*
G01*
X70361600Y-109682300D01*
G75*
G02*
X70136600Y-109457300I0J225000D01*
G01*
G37*
%TD*%
%TO.C,C10*%
G36*
G01*
X64929000Y-116074000D02*
X64929000Y-115574000D01*
G75*
G02*
X65154000Y-115349000I225000J0D01*
G01*
X65604000Y-115349000D01*
G75*
G02*
X65829000Y-115574000I0J-225000D01*
G01*
X65829000Y-116074000D01*
G75*
G02*
X65604000Y-116299000I-225000J0D01*
G01*
X65154000Y-116299000D01*
G75*
G02*
X64929000Y-116074000I0J225000D01*
G01*
G37*
G36*
G01*
X66479000Y-116074000D02*
X66479000Y-115574000D01*
G75*
G02*
X66704000Y-115349000I225000J0D01*
G01*
X67154000Y-115349000D01*
G75*
G02*
X67379000Y-115574000I0J-225000D01*
G01*
X67379000Y-116074000D01*
G75*
G02*
X67154000Y-116299000I-225000J0D01*
G01*
X66704000Y-116299000D01*
G75*
G02*
X66479000Y-116074000I0J225000D01*
G01*
G37*
%TD*%
%TO.C,C11*%
G36*
G01*
X71673600Y-116061300D02*
X71673600Y-115561300D01*
G75*
G02*
X71898600Y-115336300I225000J0D01*
G01*
X72348600Y-115336300D01*
G75*
G02*
X72573600Y-115561300I0J-225000D01*
G01*
X72573600Y-116061300D01*
G75*
G02*
X72348600Y-116286300I-225000J0D01*
G01*
X71898600Y-116286300D01*
G75*
G02*
X71673600Y-116061300I0J225000D01*
G01*
G37*
G36*
G01*
X70123600Y-116061300D02*
X70123600Y-115561300D01*
G75*
G02*
X70348600Y-115336300I225000J0D01*
G01*
X70798600Y-115336300D01*
G75*
G02*
X71023600Y-115561300I0J-225000D01*
G01*
X71023600Y-116061300D01*
G75*
G02*
X70798600Y-116286300I-225000J0D01*
G01*
X70348600Y-116286300D01*
G75*
G02*
X70123600Y-116061300I0J225000D01*
G01*
G37*
%TD*%
%TO.C,C8*%
G36*
G01*
X64967400Y-109482700D02*
X64967400Y-108982700D01*
G75*
G02*
X65192400Y-108757700I225000J0D01*
G01*
X65642400Y-108757700D01*
G75*
G02*
X65867400Y-108982700I0J-225000D01*
G01*
X65867400Y-109482700D01*
G75*
G02*
X65642400Y-109707700I-225000J0D01*
G01*
X65192400Y-109707700D01*
G75*
G02*
X64967400Y-109482700I0J225000D01*
G01*
G37*
G36*
G01*
X66517400Y-109482700D02*
X66517400Y-108982700D01*
G75*
G02*
X66742400Y-108757700I225000J0D01*
G01*
X67192400Y-108757700D01*
G75*
G02*
X67417400Y-108982700I0J-225000D01*
G01*
X67417400Y-109482700D01*
G75*
G02*
X67192400Y-109707700I-225000J0D01*
G01*
X66742400Y-109707700D01*
G75*
G02*
X66517400Y-109482700I0J225000D01*
G01*
G37*
%TD*%
%TO.C,C7*%
G36*
G01*
X75366700Y-109274800D02*
X75366700Y-109774800D01*
G75*
G02*
X75141700Y-109999800I-225000J0D01*
G01*
X74691700Y-109999800D01*
G75*
G02*
X74466700Y-109774800I0J225000D01*
G01*
X74466700Y-109274800D01*
G75*
G02*
X74691700Y-109049800I225000J0D01*
G01*
X75141700Y-109049800D01*
G75*
G02*
X75366700Y-109274800I0J-225000D01*
G01*
G37*
G36*
G01*
X76916700Y-109274800D02*
X76916700Y-109774800D01*
G75*
G02*
X76691700Y-109999800I-225000J0D01*
G01*
X76241700Y-109999800D01*
G75*
G02*
X76016700Y-109774800I0J225000D01*
G01*
X76016700Y-109274800D01*
G75*
G02*
X76241700Y-109049800I225000J0D01*
G01*
X76691700Y-109049800D01*
G75*
G02*
X76916700Y-109274800I0J-225000D01*
G01*
G37*
%TD*%
D11*
%TO.C,REF\u002A\u002A*%
X56590990Y-113409010D03*
X55000000Y-112750000D03*
X53409010Y-113409010D03*
X52750000Y-115000000D03*
X53409010Y-116590990D03*
X55000000Y-117250000D03*
X56590990Y-116590990D03*
X57250000Y-115000000D03*
D12*
X55000000Y-115000000D03*
%TD*%
D13*
%TO.C,SWD*%
X132143500Y-114554000D03*
D14*
X133413500Y-114554000D03*
X132143500Y-113284000D03*
X133413500Y-113284000D03*
X132143500Y-112014000D03*
X133413500Y-112014000D03*
%TD*%
%TO.C,R8*%
G36*
G01*
X137139000Y-118027000D02*
X137689000Y-118027000D01*
G75*
G02*
X137889000Y-118227000I0J-200000D01*
G01*
X137889000Y-118627000D01*
G75*
G02*
X137689000Y-118827000I-200000J0D01*
G01*
X137139000Y-118827000D01*
G75*
G02*
X136939000Y-118627000I0J200000D01*
G01*
X136939000Y-118227000D01*
G75*
G02*
X137139000Y-118027000I200000J0D01*
G01*
G37*
G36*
G01*
X137139000Y-116377000D02*
X137689000Y-116377000D01*
G75*
G02*
X137889000Y-116577000I0J-200000D01*
G01*
X137889000Y-116977000D01*
G75*
G02*
X137689000Y-117177000I-200000J0D01*
G01*
X137139000Y-117177000D01*
G75*
G02*
X136939000Y-116977000I0J200000D01*
G01*
X136939000Y-116577000D01*
G75*
G02*
X137139000Y-116377000I200000J0D01*
G01*
G37*
%TD*%
D15*
%TO.C,Q1*%
X134159500Y-118615500D03*
X134159500Y-116715500D03*
X132159500Y-117665500D03*
%TD*%
%TO.C,R7*%
G36*
G01*
X138790000Y-118026500D02*
X139340000Y-118026500D01*
G75*
G02*
X139540000Y-118226500I0J-200000D01*
G01*
X139540000Y-118626500D01*
G75*
G02*
X139340000Y-118826500I-200000J0D01*
G01*
X138790000Y-118826500D01*
G75*
G02*
X138590000Y-118626500I0J200000D01*
G01*
X138590000Y-118226500D01*
G75*
G02*
X138790000Y-118026500I200000J0D01*
G01*
G37*
G36*
G01*
X138790000Y-116376500D02*
X139340000Y-116376500D01*
G75*
G02*
X139540000Y-116576500I0J-200000D01*
G01*
X139540000Y-116976500D01*
G75*
G02*
X139340000Y-117176500I-200000J0D01*
G01*
X138790000Y-117176500D01*
G75*
G02*
X138590000Y-116976500I0J200000D01*
G01*
X138590000Y-116576500D01*
G75*
G02*
X138790000Y-116376500I200000J0D01*
G01*
G37*
%TD*%
%TO.C,EXT UART*%
G36*
G01*
X58256000Y-108673000D02*
X56806000Y-108673000D01*
G75*
G02*
X56556000Y-108423000I0J250000D01*
G01*
X56556000Y-107223000D01*
G75*
G02*
X56806000Y-106973000I250000J0D01*
G01*
X58256000Y-106973000D01*
G75*
G02*
X58506000Y-107223000I0J-250000D01*
G01*
X58506000Y-108423000D01*
G75*
G02*
X58256000Y-108673000I-250000J0D01*
G01*
G37*
D16*
X57531000Y-105323000D03*
X57531000Y-102823000D03*
X57531000Y-100323000D03*
%TD*%
%TO.C,R6*%
G36*
G01*
X140441000Y-118027500D02*
X140991000Y-118027500D01*
G75*
G02*
X141191000Y-118227500I0J-200000D01*
G01*
X141191000Y-118627500D01*
G75*
G02*
X140991000Y-118827500I-200000J0D01*
G01*
X140441000Y-118827500D01*
G75*
G02*
X140241000Y-118627500I0J200000D01*
G01*
X140241000Y-118227500D01*
G75*
G02*
X140441000Y-118027500I200000J0D01*
G01*
G37*
G36*
G01*
X140441000Y-116377500D02*
X140991000Y-116377500D01*
G75*
G02*
X141191000Y-116577500I0J-200000D01*
G01*
X141191000Y-116977500D01*
G75*
G02*
X140991000Y-117177500I-200000J0D01*
G01*
X140441000Y-117177500D01*
G75*
G02*
X140241000Y-116977500I0J200000D01*
G01*
X140241000Y-116577500D01*
G75*
G02*
X140441000Y-116377500I200000J0D01*
G01*
G37*
%TD*%
%TO.C,R35*%
G36*
G01*
X135488000Y-116440500D02*
X136038000Y-116440500D01*
G75*
G02*
X136238000Y-116640500I0J-200000D01*
G01*
X136238000Y-117040500D01*
G75*
G02*
X136038000Y-117240500I-200000J0D01*
G01*
X135488000Y-117240500D01*
G75*
G02*
X135288000Y-117040500I0J200000D01*
G01*
X135288000Y-116640500D01*
G75*
G02*
X135488000Y-116440500I200000J0D01*
G01*
G37*
G36*
G01*
X135488000Y-118090500D02*
X136038000Y-118090500D01*
G75*
G02*
X136238000Y-118290500I0J-200000D01*
G01*
X136238000Y-118690500D01*
G75*
G02*
X136038000Y-118890500I-200000J0D01*
G01*
X135488000Y-118890500D01*
G75*
G02*
X135288000Y-118690500I0J200000D01*
G01*
X135288000Y-118290500D01*
G75*
G02*
X135488000Y-118090500I200000J0D01*
G01*
G37*
%TD*%
%TO.C,R40*%
G36*
G01*
X94151500Y-103970500D02*
X94151500Y-103420500D01*
G75*
G02*
X94351500Y-103220500I200000J0D01*
G01*
X94751500Y-103220500D01*
G75*
G02*
X94951500Y-103420500I0J-200000D01*
G01*
X94951500Y-103970500D01*
G75*
G02*
X94751500Y-104170500I-200000J0D01*
G01*
X94351500Y-104170500D01*
G75*
G02*
X94151500Y-103970500I0J200000D01*
G01*
G37*
G36*
G01*
X95801500Y-103970500D02*
X95801500Y-103420500D01*
G75*
G02*
X96001500Y-103220500I200000J0D01*
G01*
X96401500Y-103220500D01*
G75*
G02*
X96601500Y-103420500I0J-200000D01*
G01*
X96601500Y-103970500D01*
G75*
G02*
X96401500Y-104170500I-200000J0D01*
G01*
X96001500Y-104170500D01*
G75*
G02*
X95801500Y-103970500I0J200000D01*
G01*
G37*
%TD*%
D17*
%TO.C,RESET*%
X72149500Y-118268000D03*
X68749500Y-118268000D03*
%TD*%
%TO.C,BRAKE*%
X63573500Y-118268000D03*
X66973500Y-118268000D03*
%TD*%
%TO.C,R3*%
G36*
G01*
X72573600Y-107421000D02*
X72573600Y-107971000D01*
G75*
G02*
X72373600Y-108171000I-200000J0D01*
G01*
X71973600Y-108171000D01*
G75*
G02*
X71773600Y-107971000I0J200000D01*
G01*
X71773600Y-107421000D01*
G75*
G02*
X71973600Y-107221000I200000J0D01*
G01*
X72373600Y-107221000D01*
G75*
G02*
X72573600Y-107421000I0J-200000D01*
G01*
G37*
G36*
G01*
X70923600Y-107421000D02*
X70923600Y-107971000D01*
G75*
G02*
X70723600Y-108171000I-200000J0D01*
G01*
X70323600Y-108171000D01*
G75*
G02*
X70123600Y-107971000I0J200000D01*
G01*
X70123600Y-107421000D01*
G75*
G02*
X70323600Y-107221000I200000J0D01*
G01*
X70723600Y-107221000D01*
G75*
G02*
X70923600Y-107421000I0J-200000D01*
G01*
G37*
%TD*%
%TO.C,R4*%
G36*
G01*
X65703400Y-114025000D02*
X65703400Y-114575000D01*
G75*
G02*
X65503400Y-114775000I-200000J0D01*
G01*
X65103400Y-114775000D01*
G75*
G02*
X64903400Y-114575000I0J200000D01*
G01*
X64903400Y-114025000D01*
G75*
G02*
X65103400Y-113825000I200000J0D01*
G01*
X65503400Y-113825000D01*
G75*
G02*
X65703400Y-114025000I0J-200000D01*
G01*
G37*
G36*
G01*
X67353400Y-114025000D02*
X67353400Y-114575000D01*
G75*
G02*
X67153400Y-114775000I-200000J0D01*
G01*
X66753400Y-114775000D01*
G75*
G02*
X66553400Y-114575000I0J200000D01*
G01*
X66553400Y-114025000D01*
G75*
G02*
X66753400Y-113825000I200000J0D01*
G01*
X67153400Y-113825000D01*
G75*
G02*
X67353400Y-114025000I0J-200000D01*
G01*
G37*
%TD*%
%TO.C,R5*%
G36*
G01*
X72599000Y-114025000D02*
X72599000Y-114575000D01*
G75*
G02*
X72399000Y-114775000I-200000J0D01*
G01*
X71999000Y-114775000D01*
G75*
G02*
X71799000Y-114575000I0J200000D01*
G01*
X71799000Y-114025000D01*
G75*
G02*
X71999000Y-113825000I200000J0D01*
G01*
X72399000Y-113825000D01*
G75*
G02*
X72599000Y-114025000I0J-200000D01*
G01*
G37*
G36*
G01*
X70949000Y-114025000D02*
X70949000Y-114575000D01*
G75*
G02*
X70749000Y-114775000I-200000J0D01*
G01*
X70349000Y-114775000D01*
G75*
G02*
X70149000Y-114575000I0J200000D01*
G01*
X70149000Y-114025000D01*
G75*
G02*
X70349000Y-113825000I200000J0D01*
G01*
X70749000Y-113825000D01*
G75*
G02*
X70949000Y-114025000I0J-200000D01*
G01*
G37*
%TD*%
%TO.C,SDOW*%
X72138500Y-111664000D03*
X68738500Y-111664000D03*
%TD*%
%TO.C,R2*%
G36*
G01*
X65779600Y-107382900D02*
X65779600Y-107932900D01*
G75*
G02*
X65579600Y-108132900I-200000J0D01*
G01*
X65179600Y-108132900D01*
G75*
G02*
X64979600Y-107932900I0J200000D01*
G01*
X64979600Y-107382900D01*
G75*
G02*
X65179600Y-107182900I200000J0D01*
G01*
X65579600Y-107182900D01*
G75*
G02*
X65779600Y-107382900I0J-200000D01*
G01*
G37*
G36*
G01*
X67429600Y-107382900D02*
X67429600Y-107932900D01*
G75*
G02*
X67229600Y-108132900I-200000J0D01*
G01*
X66829600Y-108132900D01*
G75*
G02*
X66629600Y-107932900I0J200000D01*
G01*
X66629600Y-107382900D01*
G75*
G02*
X66829600Y-107182900I200000J0D01*
G01*
X67229600Y-107182900D01*
G75*
G02*
X67429600Y-107382900I0J-200000D01*
G01*
G37*
%TD*%
%TO.C,R1*%
G36*
G01*
X74467000Y-111336500D02*
X74467000Y-110786500D01*
G75*
G02*
X74667000Y-110586500I200000J0D01*
G01*
X75067000Y-110586500D01*
G75*
G02*
X75267000Y-110786500I0J-200000D01*
G01*
X75267000Y-111336500D01*
G75*
G02*
X75067000Y-111536500I-200000J0D01*
G01*
X74667000Y-111536500D01*
G75*
G02*
X74467000Y-111336500I0J200000D01*
G01*
G37*
G36*
G01*
X76117000Y-111336500D02*
X76117000Y-110786500D01*
G75*
G02*
X76317000Y-110586500I200000J0D01*
G01*
X76717000Y-110586500D01*
G75*
G02*
X76917000Y-110786500I0J-200000D01*
G01*
X76917000Y-111336500D01*
G75*
G02*
X76717000Y-111536500I-200000J0D01*
G01*
X76317000Y-111536500D01*
G75*
G02*
X76117000Y-111336500I0J200000D01*
G01*
G37*
%TD*%
%TO.C,SUP*%
X63572000Y-111664000D03*
X66972000Y-111664000D03*
%TD*%
D18*
%TO.C,MOT DIR*%
X75850000Y-118041500D03*
X75850000Y-112961500D03*
%TD*%
D10*
%TO.C,MOSI*%
X71478000Y-100237500D03*
%TD*%
%TO.C,MISO*%
X71437500Y-103695500D03*
%TD*%
%TO.C,SCLK*%
X74930000Y-100139500D03*
%TD*%
%TO.C,CS*%
X74929500Y-103666500D03*
%TD*%
%TO.C,L4*%
G36*
G01*
X140459750Y-113303500D02*
X140972250Y-113303500D01*
G75*
G02*
X141191000Y-113522250I0J-218750D01*
G01*
X141191000Y-113959750D01*
G75*
G02*
X140972250Y-114178500I-218750J0D01*
G01*
X140459750Y-114178500D01*
G75*
G02*
X140241000Y-113959750I0J218750D01*
G01*
X140241000Y-113522250D01*
G75*
G02*
X140459750Y-113303500I218750J0D01*
G01*
G37*
G36*
G01*
X140459750Y-114878500D02*
X140972250Y-114878500D01*
G75*
G02*
X141191000Y-115097250I0J-218750D01*
G01*
X141191000Y-115534750D01*
G75*
G02*
X140972250Y-115753500I-218750J0D01*
G01*
X140459750Y-115753500D01*
G75*
G02*
X140241000Y-115534750I0J218750D01*
G01*
X140241000Y-115097250D01*
G75*
G02*
X140459750Y-114878500I218750J0D01*
G01*
G37*
%TD*%
%TO.C,L2*%
G36*
G01*
X137157750Y-114904000D02*
X137670250Y-114904000D01*
G75*
G02*
X137889000Y-115122750I0J-218750D01*
G01*
X137889000Y-115560250D01*
G75*
G02*
X137670250Y-115779000I-218750J0D01*
G01*
X137157750Y-115779000D01*
G75*
G02*
X136939000Y-115560250I0J218750D01*
G01*
X136939000Y-115122750D01*
G75*
G02*
X137157750Y-114904000I218750J0D01*
G01*
G37*
G36*
G01*
X137157750Y-113329000D02*
X137670250Y-113329000D01*
G75*
G02*
X137889000Y-113547750I0J-218750D01*
G01*
X137889000Y-113985250D01*
G75*
G02*
X137670250Y-114204000I-218750J0D01*
G01*
X137157750Y-114204000D01*
G75*
G02*
X136939000Y-113985250I0J218750D01*
G01*
X136939000Y-113547750D01*
G75*
G02*
X137157750Y-113329000I218750J0D01*
G01*
G37*
%TD*%
%TO.C,C32*%
G36*
G01*
X92932000Y-106176000D02*
X92932000Y-106676000D01*
G75*
G02*
X92707000Y-106901000I-225000J0D01*
G01*
X92257000Y-106901000D01*
G75*
G02*
X92032000Y-106676000I0J225000D01*
G01*
X92032000Y-106176000D01*
G75*
G02*
X92257000Y-105951000I225000J0D01*
G01*
X92707000Y-105951000D01*
G75*
G02*
X92932000Y-106176000I0J-225000D01*
G01*
G37*
G36*
G01*
X91382000Y-106176000D02*
X91382000Y-106676000D01*
G75*
G02*
X91157000Y-106901000I-225000J0D01*
G01*
X90707000Y-106901000D01*
G75*
G02*
X90482000Y-106676000I0J225000D01*
G01*
X90482000Y-106176000D01*
G75*
G02*
X90707000Y-105951000I225000J0D01*
G01*
X91157000Y-105951000D01*
G75*
G02*
X91382000Y-106176000I0J-225000D01*
G01*
G37*
%TD*%
%TO.C,C27*%
G36*
G01*
X78348000Y-102595499D02*
X78348000Y-104795501D01*
G75*
G02*
X78098001Y-105045500I-249999J0D01*
G01*
X77447999Y-105045500D01*
G75*
G02*
X77198000Y-104795501I0J249999D01*
G01*
X77198000Y-102595499D01*
G75*
G02*
X77447999Y-102345500I249999J0D01*
G01*
X78098001Y-102345500D01*
G75*
G02*
X78348000Y-102595499I0J-249999D01*
G01*
G37*
G36*
G01*
X81298000Y-102595499D02*
X81298000Y-104795501D01*
G75*
G02*
X81048001Y-105045500I-249999J0D01*
G01*
X80397999Y-105045500D01*
G75*
G02*
X80148000Y-104795501I0J249999D01*
G01*
X80148000Y-102595499D01*
G75*
G02*
X80397999Y-102345500I249999J0D01*
G01*
X81048001Y-102345500D01*
G75*
G02*
X81298000Y-102595499I0J-249999D01*
G01*
G37*
%TD*%
%TO.C,C31*%
G36*
G01*
X96888000Y-104935000D02*
X96888000Y-105885000D01*
G75*
G02*
X96638000Y-106135000I-250000J0D01*
G01*
X96138000Y-106135000D01*
G75*
G02*
X95888000Y-105885000I0J250000D01*
G01*
X95888000Y-104935000D01*
G75*
G02*
X96138000Y-104685000I250000J0D01*
G01*
X96638000Y-104685000D01*
G75*
G02*
X96888000Y-104935000I0J-250000D01*
G01*
G37*
G36*
G01*
X94988000Y-104935000D02*
X94988000Y-105885000D01*
G75*
G02*
X94738000Y-106135000I-250000J0D01*
G01*
X94238000Y-106135000D01*
G75*
G02*
X93988000Y-105885000I0J250000D01*
G01*
X93988000Y-104935000D01*
G75*
G02*
X94238000Y-104685000I250000J0D01*
G01*
X94738000Y-104685000D01*
G75*
G02*
X94988000Y-104935000I0J-250000D01*
G01*
G37*
%TD*%
%TO.C,L3*%
G36*
G01*
X138808750Y-114904000D02*
X139321250Y-114904000D01*
G75*
G02*
X139540000Y-115122750I0J-218750D01*
G01*
X139540000Y-115560250D01*
G75*
G02*
X139321250Y-115779000I-218750J0D01*
G01*
X138808750Y-115779000D01*
G75*
G02*
X138590000Y-115560250I0J218750D01*
G01*
X138590000Y-115122750D01*
G75*
G02*
X138808750Y-114904000I218750J0D01*
G01*
G37*
G36*
G01*
X138808750Y-113329000D02*
X139321250Y-113329000D01*
G75*
G02*
X139540000Y-113547750I0J-218750D01*
G01*
X139540000Y-113985250D01*
G75*
G02*
X139321250Y-114204000I-218750J0D01*
G01*
X138808750Y-114204000D01*
G75*
G02*
X138590000Y-113985250I0J218750D01*
G01*
X138590000Y-113547750D01*
G75*
G02*
X138808750Y-113329000I218750J0D01*
G01*
G37*
%TD*%
%TO.C,C25*%
G36*
G01*
X95890500Y-107917000D02*
X95890500Y-106967000D01*
G75*
G02*
X96140500Y-106717000I250000J0D01*
G01*
X96640500Y-106717000D01*
G75*
G02*
X96890500Y-106967000I0J-250000D01*
G01*
X96890500Y-107917000D01*
G75*
G02*
X96640500Y-108167000I-250000J0D01*
G01*
X96140500Y-108167000D01*
G75*
G02*
X95890500Y-107917000I0J250000D01*
G01*
G37*
G36*
G01*
X93990500Y-107917000D02*
X93990500Y-106967000D01*
G75*
G02*
X94240500Y-106717000I250000J0D01*
G01*
X94740500Y-106717000D01*
G75*
G02*
X94990500Y-106967000I0J-250000D01*
G01*
X94990500Y-107917000D01*
G75*
G02*
X94740500Y-108167000I-250000J0D01*
G01*
X94240500Y-108167000D01*
G75*
G02*
X93990500Y-107917000I0J250000D01*
G01*
G37*
%TD*%
%TO.C,C24*%
G36*
G01*
X98076500Y-109072499D02*
X98076500Y-111272501D01*
G75*
G02*
X97826501Y-111522500I-249999J0D01*
G01*
X97176499Y-111522500D01*
G75*
G02*
X96926500Y-111272501I0J249999D01*
G01*
X96926500Y-109072499D01*
G75*
G02*
X97176499Y-108822500I249999J0D01*
G01*
X97826501Y-108822500D01*
G75*
G02*
X98076500Y-109072499I0J-249999D01*
G01*
G37*
G36*
G01*
X95126500Y-109072499D02*
X95126500Y-111272501D01*
G75*
G02*
X94876501Y-111522500I-249999J0D01*
G01*
X94226499Y-111522500D01*
G75*
G02*
X93976500Y-111272501I0J249999D01*
G01*
X93976500Y-109072499D01*
G75*
G02*
X94226499Y-108822500I249999J0D01*
G01*
X94876501Y-108822500D01*
G75*
G02*
X95126500Y-109072499I0J-249999D01*
G01*
G37*
%TD*%
D19*
%TO.C,D5*%
X58386000Y-111887000D03*
X60486000Y-111887000D03*
%TD*%
%TO.C,L1*%
G36*
G01*
X135506750Y-113303500D02*
X136019250Y-113303500D01*
G75*
G02*
X136238000Y-113522250I0J-218750D01*
G01*
X136238000Y-113959750D01*
G75*
G02*
X136019250Y-114178500I-218750J0D01*
G01*
X135506750Y-114178500D01*
G75*
G02*
X135288000Y-113959750I0J218750D01*
G01*
X135288000Y-113522250D01*
G75*
G02*
X135506750Y-113303500I218750J0D01*
G01*
G37*
G36*
G01*
X135506750Y-114878500D02*
X136019250Y-114878500D01*
G75*
G02*
X136238000Y-115097250I0J-218750D01*
G01*
X136238000Y-115534750D01*
G75*
G02*
X136019250Y-115753500I-218750J0D01*
G01*
X135506750Y-115753500D01*
G75*
G02*
X135288000Y-115534750I0J218750D01*
G01*
X135288000Y-115097250D01*
G75*
G02*
X135506750Y-114878500I218750J0D01*
G01*
G37*
%TD*%
%TO.C,C28*%
G36*
G01*
X90139500Y-110051000D02*
X91089500Y-110051000D01*
G75*
G02*
X91339500Y-110301000I0J-250000D01*
G01*
X91339500Y-110801000D01*
G75*
G02*
X91089500Y-111051000I-250000J0D01*
G01*
X90139500Y-111051000D01*
G75*
G02*
X89889500Y-110801000I0J250000D01*
G01*
X89889500Y-110301000D01*
G75*
G02*
X90139500Y-110051000I250000J0D01*
G01*
G37*
G36*
G01*
X90139500Y-108151000D02*
X91089500Y-108151000D01*
G75*
G02*
X91339500Y-108401000I0J-250000D01*
G01*
X91339500Y-108901000D01*
G75*
G02*
X91089500Y-109151000I-250000J0D01*
G01*
X90139500Y-109151000D01*
G75*
G02*
X89889500Y-108901000I0J250000D01*
G01*
X89889500Y-108401000D01*
G75*
G02*
X90139500Y-108151000I250000J0D01*
G01*
G37*
%TD*%
%TO.C,C26*%
G36*
G01*
X88107500Y-108151000D02*
X89057500Y-108151000D01*
G75*
G02*
X89307500Y-108401000I0J-250000D01*
G01*
X89307500Y-108901000D01*
G75*
G02*
X89057500Y-109151000I-250000J0D01*
G01*
X88107500Y-109151000D01*
G75*
G02*
X87857500Y-108901000I0J250000D01*
G01*
X87857500Y-108401000D01*
G75*
G02*
X88107500Y-108151000I250000J0D01*
G01*
G37*
G36*
G01*
X88107500Y-110051000D02*
X89057500Y-110051000D01*
G75*
G02*
X89307500Y-110301000I0J-250000D01*
G01*
X89307500Y-110801000D01*
G75*
G02*
X89057500Y-111051000I-250000J0D01*
G01*
X88107500Y-111051000D01*
G75*
G02*
X87857500Y-110801000I0J250000D01*
G01*
X87857500Y-110301000D01*
G75*
G02*
X88107500Y-110051000I250000J0D01*
G01*
G37*
%TD*%
%TO.C,C5*%
G36*
G01*
X55192000Y-87533500D02*
X55192000Y-86583500D01*
G75*
G02*
X55442000Y-86333500I250000J0D01*
G01*
X55942000Y-86333500D01*
G75*
G02*
X56192000Y-86583500I0J-250000D01*
G01*
X56192000Y-87533500D01*
G75*
G02*
X55942000Y-87783500I-250000J0D01*
G01*
X55442000Y-87783500D01*
G75*
G02*
X55192000Y-87533500I0J250000D01*
G01*
G37*
G36*
G01*
X57092000Y-87533500D02*
X57092000Y-86583500D01*
G75*
G02*
X57342000Y-86333500I250000J0D01*
G01*
X57842000Y-86333500D01*
G75*
G02*
X58092000Y-86583500I0J-250000D01*
G01*
X58092000Y-87533500D01*
G75*
G02*
X57842000Y-87783500I-250000J0D01*
G01*
X57342000Y-87783500D01*
G75*
G02*
X57092000Y-87533500I0J250000D01*
G01*
G37*
%TD*%
D20*
%TO.C,C34*%
X83566000Y-67350000D03*
X83566000Y-72350000D03*
%TD*%
D11*
%TO.C,REF\u002A\u002A*%
X146590990Y-113409010D03*
X145000000Y-112750000D03*
X143409010Y-113409010D03*
X142750000Y-115000000D03*
X143409010Y-116590990D03*
X145000000Y-117250000D03*
X146590990Y-116590990D03*
X147250000Y-115000000D03*
D12*
X145000000Y-115034000D03*
%TD*%
%TO.C,REF\u002A\u002A*%
X55000000Y-55000000D03*
D11*
X57250000Y-55000000D03*
X56590990Y-56590990D03*
X55000000Y-57250000D03*
X53409010Y-56590990D03*
X52750000Y-55000000D03*
X53409010Y-53409010D03*
X55000000Y-52750000D03*
X56590990Y-53409010D03*
%TD*%
%TO.C,REF\u002A\u002A*%
X146590990Y-53409010D03*
X145000000Y-52750000D03*
X143409010Y-53409010D03*
X142750000Y-55000000D03*
X143409010Y-56590990D03*
X145000000Y-57250000D03*
X146590990Y-56590990D03*
X147250000Y-55000000D03*
D12*
X145000000Y-55000000D03*
%TD*%
%TO.C,C2*%
G36*
G01*
X56992500Y-92017000D02*
X57942500Y-92017000D01*
G75*
G02*
X58192500Y-92267000I0J-250000D01*
G01*
X58192500Y-92767000D01*
G75*
G02*
X57942500Y-93017000I-250000J0D01*
G01*
X56992500Y-93017000D01*
G75*
G02*
X56742500Y-92767000I0J250000D01*
G01*
X56742500Y-92267000D01*
G75*
G02*
X56992500Y-92017000I250000J0D01*
G01*
G37*
G36*
G01*
X56992500Y-90117000D02*
X57942500Y-90117000D01*
G75*
G02*
X58192500Y-90367000I0J-250000D01*
G01*
X58192500Y-90867000D01*
G75*
G02*
X57942500Y-91117000I-250000J0D01*
G01*
X56992500Y-91117000D01*
G75*
G02*
X56742500Y-90867000I0J250000D01*
G01*
X56742500Y-90367000D01*
G75*
G02*
X56992500Y-90117000I250000J0D01*
G01*
G37*
%TD*%
%TO.C,C3*%
G36*
G01*
X56992500Y-81989000D02*
X57942500Y-81989000D01*
G75*
G02*
X58192500Y-82239000I0J-250000D01*
G01*
X58192500Y-82739000D01*
G75*
G02*
X57942500Y-82989000I-250000J0D01*
G01*
X56992500Y-82989000D01*
G75*
G02*
X56742500Y-82739000I0J250000D01*
G01*
X56742500Y-82239000D01*
G75*
G02*
X56992500Y-81989000I250000J0D01*
G01*
G37*
G36*
G01*
X56992500Y-83889000D02*
X57942500Y-83889000D01*
G75*
G02*
X58192500Y-84139000I0J-250000D01*
G01*
X58192500Y-84639000D01*
G75*
G02*
X57942500Y-84889000I-250000J0D01*
G01*
X56992500Y-84889000D01*
G75*
G02*
X56742500Y-84639000I0J250000D01*
G01*
X56742500Y-84139000D01*
G75*
G02*
X56992500Y-83889000I250000J0D01*
G01*
G37*
%TD*%
%TO.C,C4*%
G36*
G01*
X55192000Y-95852000D02*
X55192000Y-94902000D01*
G75*
G02*
X55442000Y-94652000I250000J0D01*
G01*
X55942000Y-94652000D01*
G75*
G02*
X56192000Y-94902000I0J-250000D01*
G01*
X56192000Y-95852000D01*
G75*
G02*
X55942000Y-96102000I-250000J0D01*
G01*
X55442000Y-96102000D01*
G75*
G02*
X55192000Y-95852000I0J250000D01*
G01*
G37*
G36*
G01*
X57092000Y-95852000D02*
X57092000Y-94902000D01*
G75*
G02*
X57342000Y-94652000I250000J0D01*
G01*
X57842000Y-94652000D01*
G75*
G02*
X58092000Y-94902000I0J-250000D01*
G01*
X58092000Y-95852000D01*
G75*
G02*
X57842000Y-96102000I-250000J0D01*
G01*
X57342000Y-96102000D01*
G75*
G02*
X57092000Y-95852000I0J250000D01*
G01*
G37*
%TD*%
%TO.C,C12*%
G36*
G01*
X63479499Y-96150000D02*
X65679501Y-96150000D01*
G75*
G02*
X65929500Y-96399999I0J-249999D01*
G01*
X65929500Y-97050001D01*
G75*
G02*
X65679501Y-97300000I-249999J0D01*
G01*
X63479499Y-97300000D01*
G75*
G02*
X63229500Y-97050001I0J249999D01*
G01*
X63229500Y-96399999D01*
G75*
G02*
X63479499Y-96150000I249999J0D01*
G01*
G37*
G36*
G01*
X63479499Y-93200000D02*
X65679501Y-93200000D01*
G75*
G02*
X65929500Y-93449999I0J-249999D01*
G01*
X65929500Y-94100001D01*
G75*
G02*
X65679501Y-94350000I-249999J0D01*
G01*
X63479499Y-94350000D01*
G75*
G02*
X63229500Y-94100001I0J249999D01*
G01*
X63229500Y-93449999D01*
G75*
G02*
X63479499Y-93200000I249999J0D01*
G01*
G37*
%TD*%
%TO.C,C13*%
G36*
G01*
X63352499Y-85770500D02*
X65552501Y-85770500D01*
G75*
G02*
X65802500Y-86020499I0J-249999D01*
G01*
X65802500Y-86670501D01*
G75*
G02*
X65552501Y-86920500I-249999J0D01*
G01*
X63352499Y-86920500D01*
G75*
G02*
X63102500Y-86670501I0J249999D01*
G01*
X63102500Y-86020499D01*
G75*
G02*
X63352499Y-85770500I249999J0D01*
G01*
G37*
G36*
G01*
X63352499Y-88720500D02*
X65552501Y-88720500D01*
G75*
G02*
X65802500Y-88970499I0J-249999D01*
G01*
X65802500Y-89620501D01*
G75*
G02*
X65552501Y-89870500I-249999J0D01*
G01*
X63352499Y-89870500D01*
G75*
G02*
X63102500Y-89620501I0J249999D01*
G01*
X63102500Y-88970499D01*
G75*
G02*
X63352499Y-88720500I249999J0D01*
G01*
G37*
%TD*%
%TO.C,FB1*%
G36*
G01*
X81146000Y-100962750D02*
X81146000Y-101475250D01*
G75*
G02*
X80927250Y-101694000I-218750J0D01*
G01*
X80489750Y-101694000D01*
G75*
G02*
X80271000Y-101475250I0J218750D01*
G01*
X80271000Y-100962750D01*
G75*
G02*
X80489750Y-100744000I218750J0D01*
G01*
X80927250Y-100744000D01*
G75*
G02*
X81146000Y-100962750I0J-218750D01*
G01*
G37*
G36*
G01*
X79571000Y-100962750D02*
X79571000Y-101475250D01*
G75*
G02*
X79352250Y-101694000I-218750J0D01*
G01*
X78914750Y-101694000D01*
G75*
G02*
X78696000Y-101475250I0J218750D01*
G01*
X78696000Y-100962750D01*
G75*
G02*
X78914750Y-100744000I218750J0D01*
G01*
X79352250Y-100744000D01*
G75*
G02*
X79571000Y-100962750I0J-218750D01*
G01*
G37*
%TD*%
D21*
%TO.C,HC_DC*%
X63754000Y-80835500D03*
D22*
X72754000Y-75005500D03*
X77754000Y-75105500D03*
X72754000Y-65105500D03*
X77754000Y-65105500D03*
D21*
X63754000Y-59375500D03*
%TD*%
D22*
%TO.C,HC_AC*%
X136398000Y-60452000D03*
X127398000Y-66182000D03*
X122398000Y-66182000D03*
X127398000Y-76182000D03*
X122398000Y-76182000D03*
X122398000Y-86182000D03*
X127398000Y-86182000D03*
X136398000Y-91912000D03*
%TD*%
%TO.C,R9*%
G36*
G01*
X139370000Y-98429500D02*
X139370000Y-98979500D01*
G75*
G02*
X139170000Y-99179500I-200000J0D01*
G01*
X138770000Y-99179500D01*
G75*
G02*
X138570000Y-98979500I0J200000D01*
G01*
X138570000Y-98429500D01*
G75*
G02*
X138770000Y-98229500I200000J0D01*
G01*
X139170000Y-98229500D01*
G75*
G02*
X139370000Y-98429500I0J-200000D01*
G01*
G37*
G36*
G01*
X137720000Y-98429500D02*
X137720000Y-98979500D01*
G75*
G02*
X137520000Y-99179500I-200000J0D01*
G01*
X137120000Y-99179500D01*
G75*
G02*
X136920000Y-98979500I0J200000D01*
G01*
X136920000Y-98429500D01*
G75*
G02*
X137120000Y-98229500I200000J0D01*
G01*
X137520000Y-98229500D01*
G75*
G02*
X137720000Y-98429500I0J-200000D01*
G01*
G37*
%TD*%
%TO.C,R10*%
G36*
G01*
X139370000Y-101527500D02*
X139370000Y-102077500D01*
G75*
G02*
X139170000Y-102277500I-200000J0D01*
G01*
X138770000Y-102277500D01*
G75*
G02*
X138570000Y-102077500I0J200000D01*
G01*
X138570000Y-101527500D01*
G75*
G02*
X138770000Y-101327500I200000J0D01*
G01*
X139170000Y-101327500D01*
G75*
G02*
X139370000Y-101527500I0J-200000D01*
G01*
G37*
G36*
G01*
X137720000Y-101527500D02*
X137720000Y-102077500D01*
G75*
G02*
X137520000Y-102277500I-200000J0D01*
G01*
X137120000Y-102277500D01*
G75*
G02*
X136920000Y-102077500I0J200000D01*
G01*
X136920000Y-101527500D01*
G75*
G02*
X137120000Y-101327500I200000J0D01*
G01*
X137520000Y-101327500D01*
G75*
G02*
X137720000Y-101527500I0J-200000D01*
G01*
G37*
%TD*%
%TO.C,R20*%
G36*
G01*
X138250500Y-94779500D02*
X138800500Y-94779500D01*
G75*
G02*
X139000500Y-94979500I0J-200000D01*
G01*
X139000500Y-95379500D01*
G75*
G02*
X138800500Y-95579500I-200000J0D01*
G01*
X138250500Y-95579500D01*
G75*
G02*
X138050500Y-95379500I0J200000D01*
G01*
X138050500Y-94979500D01*
G75*
G02*
X138250500Y-94779500I200000J0D01*
G01*
G37*
G36*
G01*
X138250500Y-96429500D02*
X138800500Y-96429500D01*
G75*
G02*
X139000500Y-96629500I0J-200000D01*
G01*
X139000500Y-97029500D01*
G75*
G02*
X138800500Y-97229500I-200000J0D01*
G01*
X138250500Y-97229500D01*
G75*
G02*
X138050500Y-97029500I0J200000D01*
G01*
X138050500Y-96629500D01*
G75*
G02*
X138250500Y-96429500I200000J0D01*
G01*
G37*
%TD*%
%TO.C,R21*%
G36*
G01*
X137720000Y-104639000D02*
X137720000Y-105189000D01*
G75*
G02*
X137520000Y-105389000I-200000J0D01*
G01*
X137120000Y-105389000D01*
G75*
G02*
X136920000Y-105189000I0J200000D01*
G01*
X136920000Y-104639000D01*
G75*
G02*
X137120000Y-104439000I200000J0D01*
G01*
X137520000Y-104439000D01*
G75*
G02*
X137720000Y-104639000I0J-200000D01*
G01*
G37*
G36*
G01*
X139370000Y-104639000D02*
X139370000Y-105189000D01*
G75*
G02*
X139170000Y-105389000I-200000J0D01*
G01*
X138770000Y-105389000D01*
G75*
G02*
X138570000Y-105189000I0J200000D01*
G01*
X138570000Y-104639000D01*
G75*
G02*
X138770000Y-104439000I200000J0D01*
G01*
X139170000Y-104439000D01*
G75*
G02*
X139370000Y-104639000I0J-200000D01*
G01*
G37*
%TD*%
%TO.C,R22*%
G36*
G01*
X139838000Y-96430000D02*
X140388000Y-96430000D01*
G75*
G02*
X140588000Y-96630000I0J-200000D01*
G01*
X140588000Y-97030000D01*
G75*
G02*
X140388000Y-97230000I-200000J0D01*
G01*
X139838000Y-97230000D01*
G75*
G02*
X139638000Y-97030000I0J200000D01*
G01*
X139638000Y-96630000D01*
G75*
G02*
X139838000Y-96430000I200000J0D01*
G01*
G37*
G36*
G01*
X139838000Y-94780000D02*
X140388000Y-94780000D01*
G75*
G02*
X140588000Y-94980000I0J-200000D01*
G01*
X140588000Y-95380000D01*
G75*
G02*
X140388000Y-95580000I-200000J0D01*
G01*
X139838000Y-95580000D01*
G75*
G02*
X139638000Y-95380000I0J200000D01*
G01*
X139638000Y-94980000D01*
G75*
G02*
X139838000Y-94780000I200000J0D01*
G01*
G37*
%TD*%
%TO.C,R23*%
G36*
G01*
X137720500Y-99953500D02*
X137720500Y-100503500D01*
G75*
G02*
X137520500Y-100703500I-200000J0D01*
G01*
X137120500Y-100703500D01*
G75*
G02*
X136920500Y-100503500I0J200000D01*
G01*
X136920500Y-99953500D01*
G75*
G02*
X137120500Y-99753500I200000J0D01*
G01*
X137520500Y-99753500D01*
G75*
G02*
X137720500Y-99953500I0J-200000D01*
G01*
G37*
G36*
G01*
X139370500Y-99953500D02*
X139370500Y-100503500D01*
G75*
G02*
X139170500Y-100703500I-200000J0D01*
G01*
X138770500Y-100703500D01*
G75*
G02*
X138570500Y-100503500I0J200000D01*
G01*
X138570500Y-99953500D01*
G75*
G02*
X138770500Y-99753500I200000J0D01*
G01*
X139170500Y-99753500D01*
G75*
G02*
X139370500Y-99953500I0J-200000D01*
G01*
G37*
%TD*%
%TO.C,R24*%
G36*
G01*
X139369500Y-103115000D02*
X139369500Y-103665000D01*
G75*
G02*
X139169500Y-103865000I-200000J0D01*
G01*
X138769500Y-103865000D01*
G75*
G02*
X138569500Y-103665000I0J200000D01*
G01*
X138569500Y-103115000D01*
G75*
G02*
X138769500Y-102915000I200000J0D01*
G01*
X139169500Y-102915000D01*
G75*
G02*
X139369500Y-103115000I0J-200000D01*
G01*
G37*
G36*
G01*
X137719500Y-103115000D02*
X137719500Y-103665000D01*
G75*
G02*
X137519500Y-103865000I-200000J0D01*
G01*
X137119500Y-103865000D01*
G75*
G02*
X136919500Y-103665000I0J200000D01*
G01*
X136919500Y-103115000D01*
G75*
G02*
X137119500Y-102915000I200000J0D01*
G01*
X137519500Y-102915000D01*
G75*
G02*
X137719500Y-103115000I0J-200000D01*
G01*
G37*
%TD*%
%TO.C,R25*%
G36*
G01*
X137720000Y-106163000D02*
X137720000Y-106713000D01*
G75*
G02*
X137520000Y-106913000I-200000J0D01*
G01*
X137120000Y-106913000D01*
G75*
G02*
X136920000Y-106713000I0J200000D01*
G01*
X136920000Y-106163000D01*
G75*
G02*
X137120000Y-105963000I200000J0D01*
G01*
X137520000Y-105963000D01*
G75*
G02*
X137720000Y-106163000I0J-200000D01*
G01*
G37*
G36*
G01*
X139370000Y-106163000D02*
X139370000Y-106713000D01*
G75*
G02*
X139170000Y-106913000I-200000J0D01*
G01*
X138770000Y-106913000D01*
G75*
G02*
X138570000Y-106713000I0J200000D01*
G01*
X138570000Y-106163000D01*
G75*
G02*
X138770000Y-105963000I200000J0D01*
G01*
X139170000Y-105963000D01*
G75*
G02*
X139370000Y-106163000I0J-200000D01*
G01*
G37*
%TD*%
%TO.C,R38*%
G36*
G01*
X109197500Y-93824999D02*
X109197500Y-96675001D01*
G75*
G02*
X108947501Y-96925000I-249999J0D01*
G01*
X108222499Y-96925000D01*
G75*
G02*
X107972500Y-96675001I0J249999D01*
G01*
X107972500Y-93824999D01*
G75*
G02*
X108222499Y-93575000I249999J0D01*
G01*
X108947501Y-93575000D01*
G75*
G02*
X109197500Y-93824999I0J-249999D01*
G01*
G37*
G36*
G01*
X103272500Y-93824999D02*
X103272500Y-96675001D01*
G75*
G02*
X103022501Y-96925000I-249999J0D01*
G01*
X102297499Y-96925000D01*
G75*
G02*
X102047500Y-96675001I0J249999D01*
G01*
X102047500Y-93824999D01*
G75*
G02*
X102297499Y-93575000I249999J0D01*
G01*
X103022501Y-93575000D01*
G75*
G02*
X103272500Y-93824999I0J-249999D01*
G01*
G37*
%TD*%
%TO.C,R39*%
G36*
G01*
X103250500Y-78203999D02*
X103250500Y-81054001D01*
G75*
G02*
X103000501Y-81304000I-249999J0D01*
G01*
X102275499Y-81304000D01*
G75*
G02*
X102025500Y-81054001I0J249999D01*
G01*
X102025500Y-78203999D01*
G75*
G02*
X102275499Y-77954000I249999J0D01*
G01*
X103000501Y-77954000D01*
G75*
G02*
X103250500Y-78203999I0J-249999D01*
G01*
G37*
G36*
G01*
X109175500Y-78203999D02*
X109175500Y-81054001D01*
G75*
G02*
X108925501Y-81304000I-249999J0D01*
G01*
X108200499Y-81304000D01*
G75*
G02*
X107950500Y-81054001I0J249999D01*
G01*
X107950500Y-78203999D01*
G75*
G02*
X108200499Y-77954000I249999J0D01*
G01*
X108925501Y-77954000D01*
G75*
G02*
X109175500Y-78203999I0J-249999D01*
G01*
G37*
%TD*%
%TO.C,R41*%
G36*
G01*
X94152500Y-102446500D02*
X94152500Y-101896500D01*
G75*
G02*
X94352500Y-101696500I200000J0D01*
G01*
X94752500Y-101696500D01*
G75*
G02*
X94952500Y-101896500I0J-200000D01*
G01*
X94952500Y-102446500D01*
G75*
G02*
X94752500Y-102646500I-200000J0D01*
G01*
X94352500Y-102646500D01*
G75*
G02*
X94152500Y-102446500I0J200000D01*
G01*
G37*
G36*
G01*
X95802500Y-102446500D02*
X95802500Y-101896500D01*
G75*
G02*
X96002500Y-101696500I200000J0D01*
G01*
X96402500Y-101696500D01*
G75*
G02*
X96602500Y-101896500I0J-200000D01*
G01*
X96602500Y-102446500D01*
G75*
G02*
X96402500Y-102646500I-200000J0D01*
G01*
X96002500Y-102646500D01*
G75*
G02*
X95802500Y-102446500I0J200000D01*
G01*
G37*
%TD*%
%TO.C,R42*%
G36*
G01*
X95802000Y-100922500D02*
X95802000Y-100372500D01*
G75*
G02*
X96002000Y-100172500I200000J0D01*
G01*
X96402000Y-100172500D01*
G75*
G02*
X96602000Y-100372500I0J-200000D01*
G01*
X96602000Y-100922500D01*
G75*
G02*
X96402000Y-101122500I-200000J0D01*
G01*
X96002000Y-101122500D01*
G75*
G02*
X95802000Y-100922500I0J200000D01*
G01*
G37*
G36*
G01*
X94152000Y-100922500D02*
X94152000Y-100372500D01*
G75*
G02*
X94352000Y-100172500I200000J0D01*
G01*
X94752000Y-100172500D01*
G75*
G02*
X94952000Y-100372500I0J-200000D01*
G01*
X94952000Y-100922500D01*
G75*
G02*
X94752000Y-101122500I-200000J0D01*
G01*
X94352000Y-101122500D01*
G75*
G02*
X94152000Y-100922500I0J200000D01*
G01*
G37*
%TD*%
%TO.C,R43*%
G36*
G01*
X94151500Y-99398500D02*
X94151500Y-98848500D01*
G75*
G02*
X94351500Y-98648500I200000J0D01*
G01*
X94751500Y-98648500D01*
G75*
G02*
X94951500Y-98848500I0J-200000D01*
G01*
X94951500Y-99398500D01*
G75*
G02*
X94751500Y-99598500I-200000J0D01*
G01*
X94351500Y-99598500D01*
G75*
G02*
X94151500Y-99398500I0J200000D01*
G01*
G37*
G36*
G01*
X95801500Y-99398500D02*
X95801500Y-98848500D01*
G75*
G02*
X96001500Y-98648500I200000J0D01*
G01*
X96401500Y-98648500D01*
G75*
G02*
X96601500Y-98848500I0J-200000D01*
G01*
X96601500Y-99398500D01*
G75*
G02*
X96401500Y-99598500I-200000J0D01*
G01*
X96001500Y-99598500D01*
G75*
G02*
X95801500Y-99398500I0J200000D01*
G01*
G37*
%TD*%
%TO.C,R44*%
G36*
G01*
X95802000Y-97874500D02*
X95802000Y-97324500D01*
G75*
G02*
X96002000Y-97124500I200000J0D01*
G01*
X96402000Y-97124500D01*
G75*
G02*
X96602000Y-97324500I0J-200000D01*
G01*
X96602000Y-97874500D01*
G75*
G02*
X96402000Y-98074500I-200000J0D01*
G01*
X96002000Y-98074500D01*
G75*
G02*
X95802000Y-97874500I0J200000D01*
G01*
G37*
G36*
G01*
X94152000Y-97874500D02*
X94152000Y-97324500D01*
G75*
G02*
X94352000Y-97124500I200000J0D01*
G01*
X94752000Y-97124500D01*
G75*
G02*
X94952000Y-97324500I0J-200000D01*
G01*
X94952000Y-97874500D01*
G75*
G02*
X94752000Y-98074500I-200000J0D01*
G01*
X94352000Y-98074500D01*
G75*
G02*
X94152000Y-97874500I0J200000D01*
G01*
G37*
%TD*%
%TO.C,R45*%
G36*
G01*
X89746500Y-95459000D02*
X89196500Y-95459000D01*
G75*
G02*
X88996500Y-95259000I0J200000D01*
G01*
X88996500Y-94859000D01*
G75*
G02*
X89196500Y-94659000I200000J0D01*
G01*
X89746500Y-94659000D01*
G75*
G02*
X89946500Y-94859000I0J-200000D01*
G01*
X89946500Y-95259000D01*
G75*
G02*
X89746500Y-95459000I-200000J0D01*
G01*
G37*
G36*
G01*
X89746500Y-93809000D02*
X89196500Y-93809000D01*
G75*
G02*
X88996500Y-93609000I0J200000D01*
G01*
X88996500Y-93209000D01*
G75*
G02*
X89196500Y-93009000I200000J0D01*
G01*
X89746500Y-93009000D01*
G75*
G02*
X89946500Y-93209000I0J-200000D01*
G01*
X89946500Y-93609000D01*
G75*
G02*
X89746500Y-93809000I-200000J0D01*
G01*
G37*
%TD*%
%TO.C,R46*%
G36*
G01*
X91270500Y-93808500D02*
X90720500Y-93808500D01*
G75*
G02*
X90520500Y-93608500I0J200000D01*
G01*
X90520500Y-93208500D01*
G75*
G02*
X90720500Y-93008500I200000J0D01*
G01*
X91270500Y-93008500D01*
G75*
G02*
X91470500Y-93208500I0J-200000D01*
G01*
X91470500Y-93608500D01*
G75*
G02*
X91270500Y-93808500I-200000J0D01*
G01*
G37*
G36*
G01*
X91270500Y-95458500D02*
X90720500Y-95458500D01*
G75*
G02*
X90520500Y-95258500I0J200000D01*
G01*
X90520500Y-94858500D01*
G75*
G02*
X90720500Y-94658500I200000J0D01*
G01*
X91270500Y-94658500D01*
G75*
G02*
X91470500Y-94858500I0J-200000D01*
G01*
X91470500Y-95258500D01*
G75*
G02*
X91270500Y-95458500I-200000J0D01*
G01*
G37*
%TD*%
%TO.C,R47*%
G36*
G01*
X92794500Y-95459000D02*
X92244500Y-95459000D01*
G75*
G02*
X92044500Y-95259000I0J200000D01*
G01*
X92044500Y-94859000D01*
G75*
G02*
X92244500Y-94659000I200000J0D01*
G01*
X92794500Y-94659000D01*
G75*
G02*
X92994500Y-94859000I0J-200000D01*
G01*
X92994500Y-95259000D01*
G75*
G02*
X92794500Y-95459000I-200000J0D01*
G01*
G37*
G36*
G01*
X92794500Y-93809000D02*
X92244500Y-93809000D01*
G75*
G02*
X92044500Y-93609000I0J200000D01*
G01*
X92044500Y-93209000D01*
G75*
G02*
X92244500Y-93009000I200000J0D01*
G01*
X92794500Y-93009000D01*
G75*
G02*
X92994500Y-93209000I0J-200000D01*
G01*
X92994500Y-93609000D01*
G75*
G02*
X92794500Y-93809000I-200000J0D01*
G01*
G37*
%TD*%
%TO.C,R48*%
G36*
G01*
X94318500Y-93809000D02*
X93768500Y-93809000D01*
G75*
G02*
X93568500Y-93609000I0J200000D01*
G01*
X93568500Y-93209000D01*
G75*
G02*
X93768500Y-93009000I200000J0D01*
G01*
X94318500Y-93009000D01*
G75*
G02*
X94518500Y-93209000I0J-200000D01*
G01*
X94518500Y-93609000D01*
G75*
G02*
X94318500Y-93809000I-200000J0D01*
G01*
G37*
G36*
G01*
X94318500Y-95459000D02*
X93768500Y-95459000D01*
G75*
G02*
X93568500Y-95259000I0J200000D01*
G01*
X93568500Y-94859000D01*
G75*
G02*
X93768500Y-94659000I200000J0D01*
G01*
X94318500Y-94659000D01*
G75*
G02*
X94518500Y-94859000I0J-200000D01*
G01*
X94518500Y-95259000D01*
G75*
G02*
X94318500Y-95459000I-200000J0D01*
G01*
G37*
%TD*%
%TO.C,R49*%
G36*
G01*
X95842500Y-95459000D02*
X95292500Y-95459000D01*
G75*
G02*
X95092500Y-95259000I0J200000D01*
G01*
X95092500Y-94859000D01*
G75*
G02*
X95292500Y-94659000I200000J0D01*
G01*
X95842500Y-94659000D01*
G75*
G02*
X96042500Y-94859000I0J-200000D01*
G01*
X96042500Y-95259000D01*
G75*
G02*
X95842500Y-95459000I-200000J0D01*
G01*
G37*
G36*
G01*
X95842500Y-93809000D02*
X95292500Y-93809000D01*
G75*
G02*
X95092500Y-93609000I0J200000D01*
G01*
X95092500Y-93209000D01*
G75*
G02*
X95292500Y-93009000I200000J0D01*
G01*
X95842500Y-93009000D01*
G75*
G02*
X96042500Y-93209000I0J-200000D01*
G01*
X96042500Y-93609000D01*
G75*
G02*
X95842500Y-93809000I-200000J0D01*
G01*
G37*
%TD*%
%TO.C,R50*%
G36*
G01*
X86952500Y-93872000D02*
X86402500Y-93872000D01*
G75*
G02*
X86202500Y-93672000I0J200000D01*
G01*
X86202500Y-93272000D01*
G75*
G02*
X86402500Y-93072000I200000J0D01*
G01*
X86952500Y-93072000D01*
G75*
G02*
X87152500Y-93272000I0J-200000D01*
G01*
X87152500Y-93672000D01*
G75*
G02*
X86952500Y-93872000I-200000J0D01*
G01*
G37*
G36*
G01*
X86952500Y-95522000D02*
X86402500Y-95522000D01*
G75*
G02*
X86202500Y-95322000I0J200000D01*
G01*
X86202500Y-94922000D01*
G75*
G02*
X86402500Y-94722000I200000J0D01*
G01*
X86952500Y-94722000D01*
G75*
G02*
X87152500Y-94922000I0J-200000D01*
G01*
X87152500Y-95322000D01*
G75*
G02*
X86952500Y-95522000I-200000J0D01*
G01*
G37*
%TD*%
%TO.C,R51*%
G36*
G01*
X85428500Y-95522500D02*
X84878500Y-95522500D01*
G75*
G02*
X84678500Y-95322500I0J200000D01*
G01*
X84678500Y-94922500D01*
G75*
G02*
X84878500Y-94722500I200000J0D01*
G01*
X85428500Y-94722500D01*
G75*
G02*
X85628500Y-94922500I0J-200000D01*
G01*
X85628500Y-95322500D01*
G75*
G02*
X85428500Y-95522500I-200000J0D01*
G01*
G37*
G36*
G01*
X85428500Y-93872500D02*
X84878500Y-93872500D01*
G75*
G02*
X84678500Y-93672500I0J200000D01*
G01*
X84678500Y-93272500D01*
G75*
G02*
X84878500Y-93072500I200000J0D01*
G01*
X85428500Y-93072500D01*
G75*
G02*
X85628500Y-93272500I0J-200000D01*
G01*
X85628500Y-93672500D01*
G75*
G02*
X85428500Y-93872500I-200000J0D01*
G01*
G37*
%TD*%
%TO.C,R52*%
G36*
G01*
X83904500Y-93872500D02*
X83354500Y-93872500D01*
G75*
G02*
X83154500Y-93672500I0J200000D01*
G01*
X83154500Y-93272500D01*
G75*
G02*
X83354500Y-93072500I200000J0D01*
G01*
X83904500Y-93072500D01*
G75*
G02*
X84104500Y-93272500I0J-200000D01*
G01*
X84104500Y-93672500D01*
G75*
G02*
X83904500Y-93872500I-200000J0D01*
G01*
G37*
G36*
G01*
X83904500Y-95522500D02*
X83354500Y-95522500D01*
G75*
G02*
X83154500Y-95322500I0J200000D01*
G01*
X83154500Y-94922500D01*
G75*
G02*
X83354500Y-94722500I200000J0D01*
G01*
X83904500Y-94722500D01*
G75*
G02*
X84104500Y-94922500I0J-200000D01*
G01*
X84104500Y-95322500D01*
G75*
G02*
X83904500Y-95522500I-200000J0D01*
G01*
G37*
%TD*%
%TO.C,R53*%
G36*
G01*
X82317000Y-95523000D02*
X81767000Y-95523000D01*
G75*
G02*
X81567000Y-95323000I0J200000D01*
G01*
X81567000Y-94923000D01*
G75*
G02*
X81767000Y-94723000I200000J0D01*
G01*
X82317000Y-94723000D01*
G75*
G02*
X82517000Y-94923000I0J-200000D01*
G01*
X82517000Y-95323000D01*
G75*
G02*
X82317000Y-95523000I-200000J0D01*
G01*
G37*
G36*
G01*
X82317000Y-93873000D02*
X81767000Y-93873000D01*
G75*
G02*
X81567000Y-93673000I0J200000D01*
G01*
X81567000Y-93273000D01*
G75*
G02*
X81767000Y-93073000I200000J0D01*
G01*
X82317000Y-93073000D01*
G75*
G02*
X82517000Y-93273000I0J-200000D01*
G01*
X82517000Y-93673000D01*
G75*
G02*
X82317000Y-93873000I-200000J0D01*
G01*
G37*
%TD*%
%TO.C,R54*%
G36*
G01*
X80793000Y-93872500D02*
X80243000Y-93872500D01*
G75*
G02*
X80043000Y-93672500I0J200000D01*
G01*
X80043000Y-93272500D01*
G75*
G02*
X80243000Y-93072500I200000J0D01*
G01*
X80793000Y-93072500D01*
G75*
G02*
X80993000Y-93272500I0J-200000D01*
G01*
X80993000Y-93672500D01*
G75*
G02*
X80793000Y-93872500I-200000J0D01*
G01*
G37*
G36*
G01*
X80793000Y-95522500D02*
X80243000Y-95522500D01*
G75*
G02*
X80043000Y-95322500I0J200000D01*
G01*
X80043000Y-94922500D01*
G75*
G02*
X80243000Y-94722500I200000J0D01*
G01*
X80793000Y-94722500D01*
G75*
G02*
X80993000Y-94922500I0J-200000D01*
G01*
X80993000Y-95322500D01*
G75*
G02*
X80793000Y-95522500I-200000J0D01*
G01*
G37*
%TD*%
%TO.C,R55*%
G36*
G01*
X109175500Y-62074999D02*
X109175500Y-64925001D01*
G75*
G02*
X108925501Y-65175000I-249999J0D01*
G01*
X108200499Y-65175000D01*
G75*
G02*
X107950500Y-64925001I0J249999D01*
G01*
X107950500Y-62074999D01*
G75*
G02*
X108200499Y-61825000I249999J0D01*
G01*
X108925501Y-61825000D01*
G75*
G02*
X109175500Y-62074999I0J-249999D01*
G01*
G37*
G36*
G01*
X103250500Y-62074999D02*
X103250500Y-64925001D01*
G75*
G02*
X103000501Y-65175000I-249999J0D01*
G01*
X102275499Y-65175000D01*
G75*
G02*
X102025500Y-64925001I0J249999D01*
G01*
X102025500Y-62074999D01*
G75*
G02*
X102275499Y-61825000I249999J0D01*
G01*
X103000501Y-61825000D01*
G75*
G02*
X103250500Y-62074999I0J-249999D01*
G01*
G37*
%TD*%
D23*
%TO.C,+3V3*%
X64516000Y-92138500D03*
%TD*%
%TO.C,+5V0*%
X64516000Y-84455000D03*
%TD*%
D24*
%TO.C,U3*%
X59156000Y-92814500D03*
X59156000Y-93464500D03*
X59156000Y-94114500D03*
X59156000Y-94764500D03*
X62256000Y-94764500D03*
X62256000Y-94114500D03*
X62256000Y-93464500D03*
X62256000Y-92814500D03*
D25*
X60706000Y-93789500D03*
%TD*%
%TO.C,U4*%
X60642500Y-85661500D03*
D24*
X62192500Y-84686500D03*
X62192500Y-85336500D03*
X62192500Y-85986500D03*
X62192500Y-86636500D03*
X59092500Y-86636500D03*
X59092500Y-85986500D03*
X59092500Y-85336500D03*
X59092500Y-84686500D03*
%TD*%
%TO.C,U5*%
G36*
G01*
X91107000Y-104168500D02*
X91107000Y-104293500D01*
G75*
G02*
X91044500Y-104356000I-62500J0D01*
G01*
X90344500Y-104356000D01*
G75*
G02*
X90282000Y-104293500I0J62500D01*
G01*
X90282000Y-104168500D01*
G75*
G02*
X90344500Y-104106000I62500J0D01*
G01*
X91044500Y-104106000D01*
G75*
G02*
X91107000Y-104168500I0J-62500D01*
G01*
G37*
G36*
G01*
X91107000Y-103668500D02*
X91107000Y-103793500D01*
G75*
G02*
X91044500Y-103856000I-62500J0D01*
G01*
X90344500Y-103856000D01*
G75*
G02*
X90282000Y-103793500I0J62500D01*
G01*
X90282000Y-103668500D01*
G75*
G02*
X90344500Y-103606000I62500J0D01*
G01*
X91044500Y-103606000D01*
G75*
G02*
X91107000Y-103668500I0J-62500D01*
G01*
G37*
G36*
G01*
X91107000Y-103168500D02*
X91107000Y-103293500D01*
G75*
G02*
X91044500Y-103356000I-62500J0D01*
G01*
X90344500Y-103356000D01*
G75*
G02*
X90282000Y-103293500I0J62500D01*
G01*
X90282000Y-103168500D01*
G75*
G02*
X90344500Y-103106000I62500J0D01*
G01*
X91044500Y-103106000D01*
G75*
G02*
X91107000Y-103168500I0J-62500D01*
G01*
G37*
G36*
G01*
X91107000Y-102668500D02*
X91107000Y-102793500D01*
G75*
G02*
X91044500Y-102856000I-62500J0D01*
G01*
X90344500Y-102856000D01*
G75*
G02*
X90282000Y-102793500I0J62500D01*
G01*
X90282000Y-102668500D01*
G75*
G02*
X90344500Y-102606000I62500J0D01*
G01*
X91044500Y-102606000D01*
G75*
G02*
X91107000Y-102668500I0J-62500D01*
G01*
G37*
G36*
G01*
X91107000Y-102168500D02*
X91107000Y-102293500D01*
G75*
G02*
X91044500Y-102356000I-62500J0D01*
G01*
X90344500Y-102356000D01*
G75*
G02*
X90282000Y-102293500I0J62500D01*
G01*
X90282000Y-102168500D01*
G75*
G02*
X90344500Y-102106000I62500J0D01*
G01*
X91044500Y-102106000D01*
G75*
G02*
X91107000Y-102168500I0J-62500D01*
G01*
G37*
G36*
G01*
X91107000Y-101668500D02*
X91107000Y-101793500D01*
G75*
G02*
X91044500Y-101856000I-62500J0D01*
G01*
X90344500Y-101856000D01*
G75*
G02*
X90282000Y-101793500I0J62500D01*
G01*
X90282000Y-101668500D01*
G75*
G02*
X90344500Y-101606000I62500J0D01*
G01*
X91044500Y-101606000D01*
G75*
G02*
X91107000Y-101668500I0J-62500D01*
G01*
G37*
G36*
G01*
X91107000Y-101168500D02*
X91107000Y-101293500D01*
G75*
G02*
X91044500Y-101356000I-62500J0D01*
G01*
X90344500Y-101356000D01*
G75*
G02*
X90282000Y-101293500I0J62500D01*
G01*
X90282000Y-101168500D01*
G75*
G02*
X90344500Y-101106000I62500J0D01*
G01*
X91044500Y-101106000D01*
G75*
G02*
X91107000Y-101168500I0J-62500D01*
G01*
G37*
G36*
G01*
X91107000Y-100668500D02*
X91107000Y-100793500D01*
G75*
G02*
X91044500Y-100856000I-62500J0D01*
G01*
X90344500Y-100856000D01*
G75*
G02*
X90282000Y-100793500I0J62500D01*
G01*
X90282000Y-100668500D01*
G75*
G02*
X90344500Y-100606000I62500J0D01*
G01*
X91044500Y-100606000D01*
G75*
G02*
X91107000Y-100668500I0J-62500D01*
G01*
G37*
G36*
G01*
X91107000Y-100168500D02*
X91107000Y-100293500D01*
G75*
G02*
X91044500Y-100356000I-62500J0D01*
G01*
X90344500Y-100356000D01*
G75*
G02*
X90282000Y-100293500I0J62500D01*
G01*
X90282000Y-100168500D01*
G75*
G02*
X90344500Y-100106000I62500J0D01*
G01*
X91044500Y-100106000D01*
G75*
G02*
X91107000Y-100168500I0J-62500D01*
G01*
G37*
G36*
G01*
X91107000Y-99668500D02*
X91107000Y-99793500D01*
G75*
G02*
X91044500Y-99856000I-62500J0D01*
G01*
X90344500Y-99856000D01*
G75*
G02*
X90282000Y-99793500I0J62500D01*
G01*
X90282000Y-99668500D01*
G75*
G02*
X90344500Y-99606000I62500J0D01*
G01*
X91044500Y-99606000D01*
G75*
G02*
X91107000Y-99668500I0J-62500D01*
G01*
G37*
G36*
G01*
X90132000Y-98693500D02*
X90132000Y-99393500D01*
G75*
G02*
X90069500Y-99456000I-62500J0D01*
G01*
X89944500Y-99456000D01*
G75*
G02*
X89882000Y-99393500I0J62500D01*
G01*
X89882000Y-98693500D01*
G75*
G02*
X89944500Y-98631000I62500J0D01*
G01*
X90069500Y-98631000D01*
G75*
G02*
X90132000Y-98693500I0J-62500D01*
G01*
G37*
G36*
G01*
X89632000Y-98693500D02*
X89632000Y-99393500D01*
G75*
G02*
X89569500Y-99456000I-62500J0D01*
G01*
X89444500Y-99456000D01*
G75*
G02*
X89382000Y-99393500I0J62500D01*
G01*
X89382000Y-98693500D01*
G75*
G02*
X89444500Y-98631000I62500J0D01*
G01*
X89569500Y-98631000D01*
G75*
G02*
X89632000Y-98693500I0J-62500D01*
G01*
G37*
G36*
G01*
X89132000Y-98693500D02*
X89132000Y-99393500D01*
G75*
G02*
X89069500Y-99456000I-62500J0D01*
G01*
X88944500Y-99456000D01*
G75*
G02*
X88882000Y-99393500I0J62500D01*
G01*
X88882000Y-98693500D01*
G75*
G02*
X88944500Y-98631000I62500J0D01*
G01*
X89069500Y-98631000D01*
G75*
G02*
X89132000Y-98693500I0J-62500D01*
G01*
G37*
G36*
G01*
X88632000Y-98693500D02*
X88632000Y-99393500D01*
G75*
G02*
X88569500Y-99456000I-62500J0D01*
G01*
X88444500Y-99456000D01*
G75*
G02*
X88382000Y-99393500I0J62500D01*
G01*
X88382000Y-98693500D01*
G75*
G02*
X88444500Y-98631000I62500J0D01*
G01*
X88569500Y-98631000D01*
G75*
G02*
X88632000Y-98693500I0J-62500D01*
G01*
G37*
G36*
G01*
X88132000Y-98693500D02*
X88132000Y-99393500D01*
G75*
G02*
X88069500Y-99456000I-62500J0D01*
G01*
X87944500Y-99456000D01*
G75*
G02*
X87882000Y-99393500I0J62500D01*
G01*
X87882000Y-98693500D01*
G75*
G02*
X87944500Y-98631000I62500J0D01*
G01*
X88069500Y-98631000D01*
G75*
G02*
X88132000Y-98693500I0J-62500D01*
G01*
G37*
G36*
G01*
X87632000Y-98693500D02*
X87632000Y-99393500D01*
G75*
G02*
X87569500Y-99456000I-62500J0D01*
G01*
X87444500Y-99456000D01*
G75*
G02*
X87382000Y-99393500I0J62500D01*
G01*
X87382000Y-98693500D01*
G75*
G02*
X87444500Y-98631000I62500J0D01*
G01*
X87569500Y-98631000D01*
G75*
G02*
X87632000Y-98693500I0J-62500D01*
G01*
G37*
G36*
G01*
X87132000Y-98693500D02*
X87132000Y-99393500D01*
G75*
G02*
X87069500Y-99456000I-62500J0D01*
G01*
X86944500Y-99456000D01*
G75*
G02*
X86882000Y-99393500I0J62500D01*
G01*
X86882000Y-98693500D01*
G75*
G02*
X86944500Y-98631000I62500J0D01*
G01*
X87069500Y-98631000D01*
G75*
G02*
X87132000Y-98693500I0J-62500D01*
G01*
G37*
G36*
G01*
X86632000Y-98693500D02*
X86632000Y-99393500D01*
G75*
G02*
X86569500Y-99456000I-62500J0D01*
G01*
X86444500Y-99456000D01*
G75*
G02*
X86382000Y-99393500I0J62500D01*
G01*
X86382000Y-98693500D01*
G75*
G02*
X86444500Y-98631000I62500J0D01*
G01*
X86569500Y-98631000D01*
G75*
G02*
X86632000Y-98693500I0J-62500D01*
G01*
G37*
G36*
G01*
X86132000Y-98693500D02*
X86132000Y-99393500D01*
G75*
G02*
X86069500Y-99456000I-62500J0D01*
G01*
X85944500Y-99456000D01*
G75*
G02*
X85882000Y-99393500I0J62500D01*
G01*
X85882000Y-98693500D01*
G75*
G02*
X85944500Y-98631000I62500J0D01*
G01*
X86069500Y-98631000D01*
G75*
G02*
X86132000Y-98693500I0J-62500D01*
G01*
G37*
G36*
G01*
X85632000Y-98693500D02*
X85632000Y-99393500D01*
G75*
G02*
X85569500Y-99456000I-62500J0D01*
G01*
X85444500Y-99456000D01*
G75*
G02*
X85382000Y-99393500I0J62500D01*
G01*
X85382000Y-98693500D01*
G75*
G02*
X85444500Y-98631000I62500J0D01*
G01*
X85569500Y-98631000D01*
G75*
G02*
X85632000Y-98693500I0J-62500D01*
G01*
G37*
G36*
G01*
X85232000Y-99668500D02*
X85232000Y-99793500D01*
G75*
G02*
X85169500Y-99856000I-62500J0D01*
G01*
X84469500Y-99856000D01*
G75*
G02*
X84407000Y-99793500I0J62500D01*
G01*
X84407000Y-99668500D01*
G75*
G02*
X84469500Y-99606000I62500J0D01*
G01*
X85169500Y-99606000D01*
G75*
G02*
X85232000Y-99668500I0J-62500D01*
G01*
G37*
G36*
G01*
X85232000Y-100168500D02*
X85232000Y-100293500D01*
G75*
G02*
X85169500Y-100356000I-62500J0D01*
G01*
X84469500Y-100356000D01*
G75*
G02*
X84407000Y-100293500I0J62500D01*
G01*
X84407000Y-100168500D01*
G75*
G02*
X84469500Y-100106000I62500J0D01*
G01*
X85169500Y-100106000D01*
G75*
G02*
X85232000Y-100168500I0J-62500D01*
G01*
G37*
G36*
G01*
X85232000Y-100668500D02*
X85232000Y-100793500D01*
G75*
G02*
X85169500Y-100856000I-62500J0D01*
G01*
X84469500Y-100856000D01*
G75*
G02*
X84407000Y-100793500I0J62500D01*
G01*
X84407000Y-100668500D01*
G75*
G02*
X84469500Y-100606000I62500J0D01*
G01*
X85169500Y-100606000D01*
G75*
G02*
X85232000Y-100668500I0J-62500D01*
G01*
G37*
G36*
G01*
X85232000Y-101168500D02*
X85232000Y-101293500D01*
G75*
G02*
X85169500Y-101356000I-62500J0D01*
G01*
X84469500Y-101356000D01*
G75*
G02*
X84407000Y-101293500I0J62500D01*
G01*
X84407000Y-101168500D01*
G75*
G02*
X84469500Y-101106000I62500J0D01*
G01*
X85169500Y-101106000D01*
G75*
G02*
X85232000Y-101168500I0J-62500D01*
G01*
G37*
G36*
G01*
X85232000Y-101668500D02*
X85232000Y-101793500D01*
G75*
G02*
X85169500Y-101856000I-62500J0D01*
G01*
X84469500Y-101856000D01*
G75*
G02*
X84407000Y-101793500I0J62500D01*
G01*
X84407000Y-101668500D01*
G75*
G02*
X84469500Y-101606000I62500J0D01*
G01*
X85169500Y-101606000D01*
G75*
G02*
X85232000Y-101668500I0J-62500D01*
G01*
G37*
G36*
G01*
X85232000Y-102168500D02*
X85232000Y-102293500D01*
G75*
G02*
X85169500Y-102356000I-62500J0D01*
G01*
X84469500Y-102356000D01*
G75*
G02*
X84407000Y-102293500I0J62500D01*
G01*
X84407000Y-102168500D01*
G75*
G02*
X84469500Y-102106000I62500J0D01*
G01*
X85169500Y-102106000D01*
G75*
G02*
X85232000Y-102168500I0J-62500D01*
G01*
G37*
G36*
G01*
X85232000Y-102668500D02*
X85232000Y-102793500D01*
G75*
G02*
X85169500Y-102856000I-62500J0D01*
G01*
X84469500Y-102856000D01*
G75*
G02*
X84407000Y-102793500I0J62500D01*
G01*
X84407000Y-102668500D01*
G75*
G02*
X84469500Y-102606000I62500J0D01*
G01*
X85169500Y-102606000D01*
G75*
G02*
X85232000Y-102668500I0J-62500D01*
G01*
G37*
G36*
G01*
X85232000Y-103168500D02*
X85232000Y-103293500D01*
G75*
G02*
X85169500Y-103356000I-62500J0D01*
G01*
X84469500Y-103356000D01*
G75*
G02*
X84407000Y-103293500I0J62500D01*
G01*
X84407000Y-103168500D01*
G75*
G02*
X84469500Y-103106000I62500J0D01*
G01*
X85169500Y-103106000D01*
G75*
G02*
X85232000Y-103168500I0J-62500D01*
G01*
G37*
G36*
G01*
X85232000Y-103668500D02*
X85232000Y-103793500D01*
G75*
G02*
X85169500Y-103856000I-62500J0D01*
G01*
X84469500Y-103856000D01*
G75*
G02*
X84407000Y-103793500I0J62500D01*
G01*
X84407000Y-103668500D01*
G75*
G02*
X84469500Y-103606000I62500J0D01*
G01*
X85169500Y-103606000D01*
G75*
G02*
X85232000Y-103668500I0J-62500D01*
G01*
G37*
G36*
G01*
X85232000Y-104168500D02*
X85232000Y-104293500D01*
G75*
G02*
X85169500Y-104356000I-62500J0D01*
G01*
X84469500Y-104356000D01*
G75*
G02*
X84407000Y-104293500I0J62500D01*
G01*
X84407000Y-104168500D01*
G75*
G02*
X84469500Y-104106000I62500J0D01*
G01*
X85169500Y-104106000D01*
G75*
G02*
X85232000Y-104168500I0J-62500D01*
G01*
G37*
G36*
G01*
X85632000Y-104568500D02*
X85632000Y-105268500D01*
G75*
G02*
X85569500Y-105331000I-62500J0D01*
G01*
X85444500Y-105331000D01*
G75*
G02*
X85382000Y-105268500I0J62500D01*
G01*
X85382000Y-104568500D01*
G75*
G02*
X85444500Y-104506000I62500J0D01*
G01*
X85569500Y-104506000D01*
G75*
G02*
X85632000Y-104568500I0J-62500D01*
G01*
G37*
G36*
G01*
X86132000Y-104568500D02*
X86132000Y-105268500D01*
G75*
G02*
X86069500Y-105331000I-62500J0D01*
G01*
X85944500Y-105331000D01*
G75*
G02*
X85882000Y-105268500I0J62500D01*
G01*
X85882000Y-104568500D01*
G75*
G02*
X85944500Y-104506000I62500J0D01*
G01*
X86069500Y-104506000D01*
G75*
G02*
X86132000Y-104568500I0J-62500D01*
G01*
G37*
G36*
G01*
X86632000Y-104568500D02*
X86632000Y-105268500D01*
G75*
G02*
X86569500Y-105331000I-62500J0D01*
G01*
X86444500Y-105331000D01*
G75*
G02*
X86382000Y-105268500I0J62500D01*
G01*
X86382000Y-104568500D01*
G75*
G02*
X86444500Y-104506000I62500J0D01*
G01*
X86569500Y-104506000D01*
G75*
G02*
X86632000Y-104568500I0J-62500D01*
G01*
G37*
G36*
G01*
X87132000Y-104568500D02*
X87132000Y-105268500D01*
G75*
G02*
X87069500Y-105331000I-62500J0D01*
G01*
X86944500Y-105331000D01*
G75*
G02*
X86882000Y-105268500I0J62500D01*
G01*
X86882000Y-104568500D01*
G75*
G02*
X86944500Y-104506000I62500J0D01*
G01*
X87069500Y-104506000D01*
G75*
G02*
X87132000Y-104568500I0J-62500D01*
G01*
G37*
G36*
G01*
X87632000Y-104568500D02*
X87632000Y-105268500D01*
G75*
G02*
X87569500Y-105331000I-62500J0D01*
G01*
X87444500Y-105331000D01*
G75*
G02*
X87382000Y-105268500I0J62500D01*
G01*
X87382000Y-104568500D01*
G75*
G02*
X87444500Y-104506000I62500J0D01*
G01*
X87569500Y-104506000D01*
G75*
G02*
X87632000Y-104568500I0J-62500D01*
G01*
G37*
G36*
G01*
X88132000Y-104568500D02*
X88132000Y-105268500D01*
G75*
G02*
X88069500Y-105331000I-62500J0D01*
G01*
X87944500Y-105331000D01*
G75*
G02*
X87882000Y-105268500I0J62500D01*
G01*
X87882000Y-104568500D01*
G75*
G02*
X87944500Y-104506000I62500J0D01*
G01*
X88069500Y-104506000D01*
G75*
G02*
X88132000Y-104568500I0J-62500D01*
G01*
G37*
G36*
G01*
X88632000Y-104568500D02*
X88632000Y-105268500D01*
G75*
G02*
X88569500Y-105331000I-62500J0D01*
G01*
X88444500Y-105331000D01*
G75*
G02*
X88382000Y-105268500I0J62500D01*
G01*
X88382000Y-104568500D01*
G75*
G02*
X88444500Y-104506000I62500J0D01*
G01*
X88569500Y-104506000D01*
G75*
G02*
X88632000Y-104568500I0J-62500D01*
G01*
G37*
G36*
G01*
X89132000Y-104568500D02*
X89132000Y-105268500D01*
G75*
G02*
X89069500Y-105331000I-62500J0D01*
G01*
X88944500Y-105331000D01*
G75*
G02*
X88882000Y-105268500I0J62500D01*
G01*
X88882000Y-104568500D01*
G75*
G02*
X88944500Y-104506000I62500J0D01*
G01*
X89069500Y-104506000D01*
G75*
G02*
X89132000Y-104568500I0J-62500D01*
G01*
G37*
G36*
G01*
X89632000Y-104568500D02*
X89632000Y-105268500D01*
G75*
G02*
X89569500Y-105331000I-62500J0D01*
G01*
X89444500Y-105331000D01*
G75*
G02*
X89382000Y-105268500I0J62500D01*
G01*
X89382000Y-104568500D01*
G75*
G02*
X89444500Y-104506000I62500J0D01*
G01*
X89569500Y-104506000D01*
G75*
G02*
X89632000Y-104568500I0J-62500D01*
G01*
G37*
G36*
G01*
X90132000Y-104568500D02*
X90132000Y-105268500D01*
G75*
G02*
X90069500Y-105331000I-62500J0D01*
G01*
X89944500Y-105331000D01*
G75*
G02*
X89882000Y-105268500I0J62500D01*
G01*
X89882000Y-104568500D01*
G75*
G02*
X89944500Y-104506000I62500J0D01*
G01*
X90069500Y-104506000D01*
G75*
G02*
X90132000Y-104568500I0J-62500D01*
G01*
G37*
D26*
X87757000Y-101981000D03*
%TD*%
D20*
%TO.C,C29*%
X105727500Y-84518500D03*
X105727500Y-89518500D03*
%TD*%
%TO.C,C30*%
X105664000Y-73516500D03*
X105664000Y-68516500D03*
%TD*%
%TO.C,C33*%
X105664000Y-52554500D03*
X105664000Y-57554500D03*
%TD*%
D27*
%TO.C,ENCODER*%
X147427500Y-107871500D03*
X147427500Y-96471500D03*
D28*
X143827500Y-105921500D03*
X143827500Y-104421500D03*
X143827500Y-102921500D03*
X143827500Y-101421500D03*
X143827500Y-99921500D03*
X143827500Y-98421500D03*
%TD*%
D29*
%TO.C,Q2*%
X110871000Y-88926000D03*
X112141000Y-88926000D03*
X113411000Y-88926000D03*
X114681000Y-88926000D03*
D30*
X110871000Y-82995000D03*
X112141000Y-82995000D03*
X113411000Y-82995000D03*
X114681000Y-82995000D03*
D31*
X112776000Y-85217000D03*
%TD*%
D29*
%TO.C,Q3*%
X110871000Y-96432500D03*
X112141000Y-96432500D03*
X113411000Y-96432500D03*
X114681000Y-96432500D03*
D30*
X110871000Y-90501500D03*
X112141000Y-90501500D03*
X113411000Y-90501500D03*
X114681000Y-90501500D03*
D31*
X112776000Y-92723500D03*
%TD*%
%TO.C,Q4*%
X112712500Y-69228500D03*
D30*
X114617500Y-67006500D03*
X113347500Y-67006500D03*
X112077500Y-67006500D03*
X110807500Y-67006500D03*
D29*
X114617500Y-72937500D03*
X113347500Y-72937500D03*
X112077500Y-72937500D03*
X110807500Y-72937500D03*
%TD*%
D31*
%TO.C,Q5*%
X112776000Y-76721500D03*
D30*
X114681000Y-74499500D03*
X113411000Y-74499500D03*
X112141000Y-74499500D03*
X110871000Y-74499500D03*
D29*
X114681000Y-80430500D03*
X113411000Y-80430500D03*
X112141000Y-80430500D03*
X110871000Y-80430500D03*
%TD*%
%TO.C,Q6*%
X110807500Y-56999000D03*
X112077500Y-56999000D03*
X113347500Y-56999000D03*
X114617500Y-56999000D03*
D30*
X110807500Y-51068000D03*
X112077500Y-51068000D03*
X113347500Y-51068000D03*
X114617500Y-51068000D03*
D31*
X112712500Y-53290000D03*
%TD*%
%TO.C,Q7*%
X112712500Y-60846500D03*
D30*
X114617500Y-58624500D03*
X113347500Y-58624500D03*
X112077500Y-58624500D03*
X110807500Y-58624500D03*
D29*
X114617500Y-64555500D03*
X113347500Y-64555500D03*
X112077500Y-64555500D03*
X110807500Y-64555500D03*
%TD*%
D10*
%TO.C,I_C*%
X74897000Y-89650500D03*
%TD*%
%TO.C,I_B*%
X74897000Y-93150500D03*
%TD*%
%TO.C,I_A*%
X74897000Y-96650500D03*
%TD*%
%TO.C,GHA*%
X99500000Y-103500000D03*
%TD*%
%TO.C,GHB*%
X90000000Y-90000000D03*
%TD*%
%TO.C,GHC*%
X86000000Y-90000000D03*
%TD*%
%TO.C,GLA*%
X99500000Y-98500000D03*
%TD*%
%TO.C,GLB*%
X95000000Y-90000000D03*
%TD*%
%TO.C,GLC*%
X81000000Y-90000000D03*
%TD*%
%TO.C,TEMP*%
X133900000Y-95700000D03*
%TD*%
%TO.C,C36*%
G36*
G01*
X142000000Y-97225000D02*
X141500000Y-97225000D01*
G75*
G02*
X141275000Y-97000000I0J225000D01*
G01*
X141275000Y-96550000D01*
G75*
G02*
X141500000Y-96325000I225000J0D01*
G01*
X142000000Y-96325000D01*
G75*
G02*
X142225000Y-96550000I0J-225000D01*
G01*
X142225000Y-97000000D01*
G75*
G02*
X142000000Y-97225000I-225000J0D01*
G01*
G37*
G36*
G01*
X142000000Y-95675000D02*
X141500000Y-95675000D01*
G75*
G02*
X141275000Y-95450000I0J225000D01*
G01*
X141275000Y-95000000D01*
G75*
G02*
X141500000Y-94775000I225000J0D01*
G01*
X142000000Y-94775000D01*
G75*
G02*
X142225000Y-95000000I0J-225000D01*
G01*
X142225000Y-95450000D01*
G75*
G02*
X142000000Y-95675000I-225000J0D01*
G01*
G37*
%TD*%
%TO.C,ENCA*%
X130400000Y-95700000D03*
%TD*%
%TO.C,ENCB*%
X126900000Y-95700000D03*
%TD*%
%TO.C,ENCC*%
X123400000Y-95700000D03*
%TD*%
%TO.C,C1*%
G36*
G01*
X128020000Y-103068000D02*
X128520000Y-103068000D01*
G75*
G02*
X128745000Y-103293000I0J-225000D01*
G01*
X128745000Y-103743000D01*
G75*
G02*
X128520000Y-103968000I-225000J0D01*
G01*
X128020000Y-103968000D01*
G75*
G02*
X127795000Y-103743000I0J225000D01*
G01*
X127795000Y-103293000D01*
G75*
G02*
X128020000Y-103068000I225000J0D01*
G01*
G37*
G36*
G01*
X128020000Y-101518000D02*
X128520000Y-101518000D01*
G75*
G02*
X128745000Y-101743000I0J-225000D01*
G01*
X128745000Y-102193000D01*
G75*
G02*
X128520000Y-102418000I-225000J0D01*
G01*
X128020000Y-102418000D01*
G75*
G02*
X127795000Y-102193000I0J225000D01*
G01*
X127795000Y-101743000D01*
G75*
G02*
X128020000Y-101518000I225000J0D01*
G01*
G37*
%TD*%
%TO.C,C6*%
G36*
G01*
X122241500Y-101708500D02*
X122741500Y-101708500D01*
G75*
G02*
X122966500Y-101933500I0J-225000D01*
G01*
X122966500Y-102383500D01*
G75*
G02*
X122741500Y-102608500I-225000J0D01*
G01*
X122241500Y-102608500D01*
G75*
G02*
X122016500Y-102383500I0J225000D01*
G01*
X122016500Y-101933500D01*
G75*
G02*
X122241500Y-101708500I225000J0D01*
G01*
G37*
G36*
G01*
X122241500Y-103258500D02*
X122741500Y-103258500D01*
G75*
G02*
X122966500Y-103483500I0J-225000D01*
G01*
X122966500Y-103933500D01*
G75*
G02*
X122741500Y-104158500I-225000J0D01*
G01*
X122241500Y-104158500D01*
G75*
G02*
X122016500Y-103933500I0J225000D01*
G01*
X122016500Y-103483500D01*
G75*
G02*
X122241500Y-103258500I225000J0D01*
G01*
G37*
%TD*%
%TO.C,C14*%
G36*
G01*
X123259000Y-114711500D02*
X123259000Y-113761500D01*
G75*
G02*
X123509000Y-113511500I250000J0D01*
G01*
X124009000Y-113511500D01*
G75*
G02*
X124259000Y-113761500I0J-250000D01*
G01*
X124259000Y-114711500D01*
G75*
G02*
X124009000Y-114961500I-250000J0D01*
G01*
X123509000Y-114961500D01*
G75*
G02*
X123259000Y-114711500I0J250000D01*
G01*
G37*
G36*
G01*
X121359000Y-114711500D02*
X121359000Y-113761500D01*
G75*
G02*
X121609000Y-113511500I250000J0D01*
G01*
X122109000Y-113511500D01*
G75*
G02*
X122359000Y-113761500I0J-250000D01*
G01*
X122359000Y-114711500D01*
G75*
G02*
X122109000Y-114961500I-250000J0D01*
G01*
X121609000Y-114961500D01*
G75*
G02*
X121359000Y-114711500I0J250000D01*
G01*
G37*
%TD*%
%TO.C,C17*%
G36*
G01*
X121217500Y-102595500D02*
X120717500Y-102595500D01*
G75*
G02*
X120492500Y-102370500I0J225000D01*
G01*
X120492500Y-101920500D01*
G75*
G02*
X120717500Y-101695500I225000J0D01*
G01*
X121217500Y-101695500D01*
G75*
G02*
X121442500Y-101920500I0J-225000D01*
G01*
X121442500Y-102370500D01*
G75*
G02*
X121217500Y-102595500I-225000J0D01*
G01*
G37*
G36*
G01*
X121217500Y-104145500D02*
X120717500Y-104145500D01*
G75*
G02*
X120492500Y-103920500I0J225000D01*
G01*
X120492500Y-103470500D01*
G75*
G02*
X120717500Y-103245500I225000J0D01*
G01*
X121217500Y-103245500D01*
G75*
G02*
X121442500Y-103470500I0J-225000D01*
G01*
X121442500Y-103920500D01*
G75*
G02*
X121217500Y-104145500I-225000J0D01*
G01*
G37*
%TD*%
%TO.C,C18*%
G36*
G01*
X118169500Y-102595500D02*
X117669500Y-102595500D01*
G75*
G02*
X117444500Y-102370500I0J225000D01*
G01*
X117444500Y-101920500D01*
G75*
G02*
X117669500Y-101695500I225000J0D01*
G01*
X118169500Y-101695500D01*
G75*
G02*
X118394500Y-101920500I0J-225000D01*
G01*
X118394500Y-102370500D01*
G75*
G02*
X118169500Y-102595500I-225000J0D01*
G01*
G37*
G36*
G01*
X118169500Y-104145500D02*
X117669500Y-104145500D01*
G75*
G02*
X117444500Y-103920500I0J225000D01*
G01*
X117444500Y-103470500D01*
G75*
G02*
X117669500Y-103245500I225000J0D01*
G01*
X118169500Y-103245500D01*
G75*
G02*
X118394500Y-103470500I0J-225000D01*
G01*
X118394500Y-103920500D01*
G75*
G02*
X118169500Y-104145500I-225000J0D01*
G01*
G37*
%TD*%
%TO.C,C20*%
G36*
G01*
X115058000Y-104145500D02*
X114558000Y-104145500D01*
G75*
G02*
X114333000Y-103920500I0J225000D01*
G01*
X114333000Y-103470500D01*
G75*
G02*
X114558000Y-103245500I225000J0D01*
G01*
X115058000Y-103245500D01*
G75*
G02*
X115283000Y-103470500I0J-225000D01*
G01*
X115283000Y-103920500D01*
G75*
G02*
X115058000Y-104145500I-225000J0D01*
G01*
G37*
G36*
G01*
X115058000Y-102595500D02*
X114558000Y-102595500D01*
G75*
G02*
X114333000Y-102370500I0J225000D01*
G01*
X114333000Y-101920500D01*
G75*
G02*
X114558000Y-101695500I225000J0D01*
G01*
X115058000Y-101695500D01*
G75*
G02*
X115283000Y-101920500I0J-225000D01*
G01*
X115283000Y-102370500D01*
G75*
G02*
X115058000Y-102595500I-225000J0D01*
G01*
G37*
%TD*%
%TO.C,C21*%
G36*
G01*
X131045500Y-104136000D02*
X131045500Y-103636000D01*
G75*
G02*
X131270500Y-103411000I225000J0D01*
G01*
X131720500Y-103411000D01*
G75*
G02*
X131945500Y-103636000I0J-225000D01*
G01*
X131945500Y-104136000D01*
G75*
G02*
X131720500Y-104361000I-225000J0D01*
G01*
X131270500Y-104361000D01*
G75*
G02*
X131045500Y-104136000I0J225000D01*
G01*
G37*
G36*
G01*
X132595500Y-104136000D02*
X132595500Y-103636000D01*
G75*
G02*
X132820500Y-103411000I225000J0D01*
G01*
X133270500Y-103411000D01*
G75*
G02*
X133495500Y-103636000I0J-225000D01*
G01*
X133495500Y-104136000D01*
G75*
G02*
X133270500Y-104361000I-225000J0D01*
G01*
X132820500Y-104361000D01*
G75*
G02*
X132595500Y-104136000I0J225000D01*
G01*
G37*
%TD*%
%TO.C,C22*%
G36*
G01*
X127575500Y-118625500D02*
X128075500Y-118625500D01*
G75*
G02*
X128300500Y-118850500I0J-225000D01*
G01*
X128300500Y-119300500D01*
G75*
G02*
X128075500Y-119525500I-225000J0D01*
G01*
X127575500Y-119525500D01*
G75*
G02*
X127350500Y-119300500I0J225000D01*
G01*
X127350500Y-118850500D01*
G75*
G02*
X127575500Y-118625500I225000J0D01*
G01*
G37*
G36*
G01*
X127575500Y-117075500D02*
X128075500Y-117075500D01*
G75*
G02*
X128300500Y-117300500I0J-225000D01*
G01*
X128300500Y-117750500D01*
G75*
G02*
X128075500Y-117975500I-225000J0D01*
G01*
X127575500Y-117975500D01*
G75*
G02*
X127350500Y-117750500I0J225000D01*
G01*
X127350500Y-117300500D01*
G75*
G02*
X127575500Y-117075500I225000J0D01*
G01*
G37*
%TD*%
%TO.C,C23*%
G36*
G01*
X119955500Y-117075500D02*
X120455500Y-117075500D01*
G75*
G02*
X120680500Y-117300500I0J-225000D01*
G01*
X120680500Y-117750500D01*
G75*
G02*
X120455500Y-117975500I-225000J0D01*
G01*
X119955500Y-117975500D01*
G75*
G02*
X119730500Y-117750500I0J225000D01*
G01*
X119730500Y-117300500D01*
G75*
G02*
X119955500Y-117075500I225000J0D01*
G01*
G37*
G36*
G01*
X119955500Y-118625500D02*
X120455500Y-118625500D01*
G75*
G02*
X120680500Y-118850500I0J-225000D01*
G01*
X120680500Y-119300500D01*
G75*
G02*
X120455500Y-119525500I-225000J0D01*
G01*
X119955500Y-119525500D01*
G75*
G02*
X119730500Y-119300500I0J225000D01*
G01*
X119730500Y-118850500D01*
G75*
G02*
X119955500Y-118625500I225000J0D01*
G01*
G37*
%TD*%
%TO.C,C35*%
G36*
G01*
X115574000Y-116797000D02*
X116074000Y-116797000D01*
G75*
G02*
X116299000Y-117022000I0J-225000D01*
G01*
X116299000Y-117472000D01*
G75*
G02*
X116074000Y-117697000I-225000J0D01*
G01*
X115574000Y-117697000D01*
G75*
G02*
X115349000Y-117472000I0J225000D01*
G01*
X115349000Y-117022000D01*
G75*
G02*
X115574000Y-116797000I225000J0D01*
G01*
G37*
G36*
G01*
X115574000Y-115247000D02*
X116074000Y-115247000D01*
G75*
G02*
X116299000Y-115472000I0J-225000D01*
G01*
X116299000Y-115922000D01*
G75*
G02*
X116074000Y-116147000I-225000J0D01*
G01*
X115574000Y-116147000D01*
G75*
G02*
X115349000Y-115922000I0J225000D01*
G01*
X115349000Y-115472000D01*
G75*
G02*
X115574000Y-115247000I225000J0D01*
G01*
G37*
%TD*%
%TO.C,R16*%
G36*
G01*
X122978500Y-118725500D02*
X123528500Y-118725500D01*
G75*
G02*
X123728500Y-118925500I0J-200000D01*
G01*
X123728500Y-119325500D01*
G75*
G02*
X123528500Y-119525500I-200000J0D01*
G01*
X122978500Y-119525500D01*
G75*
G02*
X122778500Y-119325500I0J200000D01*
G01*
X122778500Y-118925500D01*
G75*
G02*
X122978500Y-118725500I200000J0D01*
G01*
G37*
G36*
G01*
X122978500Y-117075500D02*
X123528500Y-117075500D01*
G75*
G02*
X123728500Y-117275500I0J-200000D01*
G01*
X123728500Y-117675500D01*
G75*
G02*
X123528500Y-117875500I-200000J0D01*
G01*
X122978500Y-117875500D01*
G75*
G02*
X122778500Y-117675500I0J200000D01*
G01*
X122778500Y-117275500D01*
G75*
G02*
X122978500Y-117075500I200000J0D01*
G01*
G37*
%TD*%
%TO.C,R17*%
G36*
G01*
X126027999Y-117080501D02*
X126577999Y-117080501D01*
G75*
G02*
X126777999Y-117280501I0J-200000D01*
G01*
X126777999Y-117680501D01*
G75*
G02*
X126577999Y-117880501I-200000J0D01*
G01*
X126027999Y-117880501D01*
G75*
G02*
X125827999Y-117680501I0J200000D01*
G01*
X125827999Y-117280501D01*
G75*
G02*
X126027999Y-117080501I200000J0D01*
G01*
G37*
G36*
G01*
X126027999Y-118730501D02*
X126577999Y-118730501D01*
G75*
G02*
X126777999Y-118930501I0J-200000D01*
G01*
X126777999Y-119330501D01*
G75*
G02*
X126577999Y-119530501I-200000J0D01*
G01*
X126027999Y-119530501D01*
G75*
G02*
X125827999Y-119330501I0J200000D01*
G01*
X125827999Y-118930501D01*
G75*
G02*
X126027999Y-118730501I200000J0D01*
G01*
G37*
%TD*%
%TO.C,R18*%
G36*
G01*
X132695000Y-105685000D02*
X132695000Y-105135000D01*
G75*
G02*
X132895000Y-104935000I200000J0D01*
G01*
X133295000Y-104935000D01*
G75*
G02*
X133495000Y-105135000I0J-200000D01*
G01*
X133495000Y-105685000D01*
G75*
G02*
X133295000Y-105885000I-200000J0D01*
G01*
X132895000Y-105885000D01*
G75*
G02*
X132695000Y-105685000I0J200000D01*
G01*
G37*
G36*
G01*
X131045000Y-105685000D02*
X131045000Y-105135000D01*
G75*
G02*
X131245000Y-104935000I200000J0D01*
G01*
X131645000Y-104935000D01*
G75*
G02*
X131845000Y-105135000I0J-200000D01*
G01*
X131845000Y-105685000D01*
G75*
G02*
X131645000Y-105885000I-200000J0D01*
G01*
X131245000Y-105885000D01*
G75*
G02*
X131045000Y-105685000I0J200000D01*
G01*
G37*
%TD*%
%TO.C,R27*%
G36*
G01*
X131045500Y-107209000D02*
X131045500Y-106659000D01*
G75*
G02*
X131245500Y-106459000I200000J0D01*
G01*
X131645500Y-106459000D01*
G75*
G02*
X131845500Y-106659000I0J-200000D01*
G01*
X131845500Y-107209000D01*
G75*
G02*
X131645500Y-107409000I-200000J0D01*
G01*
X131245500Y-107409000D01*
G75*
G02*
X131045500Y-107209000I0J200000D01*
G01*
G37*
G36*
G01*
X132695500Y-107209000D02*
X132695500Y-106659000D01*
G75*
G02*
X132895500Y-106459000I200000J0D01*
G01*
X133295500Y-106459000D01*
G75*
G02*
X133495500Y-106659000I0J-200000D01*
G01*
X133495500Y-107209000D01*
G75*
G02*
X133295500Y-107409000I-200000J0D01*
G01*
X132895500Y-107409000D01*
G75*
G02*
X132695500Y-107209000I0J200000D01*
G01*
G37*
%TD*%
%TO.C,R28*%
G36*
G01*
X125052500Y-117880501D02*
X124502500Y-117880501D01*
G75*
G02*
X124302500Y-117680501I0J200000D01*
G01*
X124302500Y-117280501D01*
G75*
G02*
X124502500Y-117080501I200000J0D01*
G01*
X125052500Y-117080501D01*
G75*
G02*
X125252500Y-117280501I0J-200000D01*
G01*
X125252500Y-117680501D01*
G75*
G02*
X125052500Y-117880501I-200000J0D01*
G01*
G37*
G36*
G01*
X125052500Y-119530501D02*
X124502500Y-119530501D01*
G75*
G02*
X124302500Y-119330501I0J200000D01*
G01*
X124302500Y-118930501D01*
G75*
G02*
X124502500Y-118730501I200000J0D01*
G01*
X125052500Y-118730501D01*
G75*
G02*
X125252500Y-118930501I0J-200000D01*
G01*
X125252500Y-119330501D01*
G75*
G02*
X125052500Y-119530501I-200000J0D01*
G01*
G37*
%TD*%
%TO.C,R29*%
G36*
G01*
X113495500Y-102509000D02*
X112945500Y-102509000D01*
G75*
G02*
X112745500Y-102309000I0J200000D01*
G01*
X112745500Y-101909000D01*
G75*
G02*
X112945500Y-101709000I200000J0D01*
G01*
X113495500Y-101709000D01*
G75*
G02*
X113695500Y-101909000I0J-200000D01*
G01*
X113695500Y-102309000D01*
G75*
G02*
X113495500Y-102509000I-200000J0D01*
G01*
G37*
G36*
G01*
X113495500Y-104159000D02*
X112945500Y-104159000D01*
G75*
G02*
X112745500Y-103959000I0J200000D01*
G01*
X112745500Y-103559000D01*
G75*
G02*
X112945500Y-103359000I200000J0D01*
G01*
X113495500Y-103359000D01*
G75*
G02*
X113695500Y-103559000I0J-200000D01*
G01*
X113695500Y-103959000D01*
G75*
G02*
X113495500Y-104159000I-200000J0D01*
G01*
G37*
%TD*%
%TO.C,R30*%
G36*
G01*
X116607000Y-102509000D02*
X116057000Y-102509000D01*
G75*
G02*
X115857000Y-102309000I0J200000D01*
G01*
X115857000Y-101909000D01*
G75*
G02*
X116057000Y-101709000I200000J0D01*
G01*
X116607000Y-101709000D01*
G75*
G02*
X116807000Y-101909000I0J-200000D01*
G01*
X116807000Y-102309000D01*
G75*
G02*
X116607000Y-102509000I-200000J0D01*
G01*
G37*
G36*
G01*
X116607000Y-104159000D02*
X116057000Y-104159000D01*
G75*
G02*
X115857000Y-103959000I0J200000D01*
G01*
X115857000Y-103559000D01*
G75*
G02*
X116057000Y-103359000I200000J0D01*
G01*
X116607000Y-103359000D01*
G75*
G02*
X116807000Y-103559000I0J-200000D01*
G01*
X116807000Y-103959000D01*
G75*
G02*
X116607000Y-104159000I-200000J0D01*
G01*
G37*
%TD*%
%TO.C,R31*%
G36*
G01*
X119718500Y-104158000D02*
X119168500Y-104158000D01*
G75*
G02*
X118968500Y-103958000I0J200000D01*
G01*
X118968500Y-103558000D01*
G75*
G02*
X119168500Y-103358000I200000J0D01*
G01*
X119718500Y-103358000D01*
G75*
G02*
X119918500Y-103558000I0J-200000D01*
G01*
X119918500Y-103958000D01*
G75*
G02*
X119718500Y-104158000I-200000J0D01*
G01*
G37*
G36*
G01*
X119718500Y-102508000D02*
X119168500Y-102508000D01*
G75*
G02*
X118968500Y-102308000I0J200000D01*
G01*
X118968500Y-101908000D01*
G75*
G02*
X119168500Y-101708000I200000J0D01*
G01*
X119718500Y-101708000D01*
G75*
G02*
X119918500Y-101908000I0J-200000D01*
G01*
X119918500Y-102308000D01*
G75*
G02*
X119718500Y-102508000I-200000J0D01*
G01*
G37*
%TD*%
%TO.C,R32*%
G36*
G01*
X122004500Y-117875000D02*
X121454500Y-117875000D01*
G75*
G02*
X121254500Y-117675000I0J200000D01*
G01*
X121254500Y-117275000D01*
G75*
G02*
X121454500Y-117075000I200000J0D01*
G01*
X122004500Y-117075000D01*
G75*
G02*
X122204500Y-117275000I0J-200000D01*
G01*
X122204500Y-117675000D01*
G75*
G02*
X122004500Y-117875000I-200000J0D01*
G01*
G37*
G36*
G01*
X122004500Y-119525000D02*
X121454500Y-119525000D01*
G75*
G02*
X121254500Y-119325000I0J200000D01*
G01*
X121254500Y-118925000D01*
G75*
G02*
X121454500Y-118725000I200000J0D01*
G01*
X122004500Y-118725000D01*
G75*
G02*
X122204500Y-118925000I0J-200000D01*
G01*
X122204500Y-119325000D01*
G75*
G02*
X122004500Y-119525000I-200000J0D01*
G01*
G37*
%TD*%
%TO.C,R56*%
G36*
G01*
X114025000Y-115234000D02*
X114575000Y-115234000D01*
G75*
G02*
X114775000Y-115434000I0J-200000D01*
G01*
X114775000Y-115834000D01*
G75*
G02*
X114575000Y-116034000I-200000J0D01*
G01*
X114025000Y-116034000D01*
G75*
G02*
X113825000Y-115834000I0J200000D01*
G01*
X113825000Y-115434000D01*
G75*
G02*
X114025000Y-115234000I200000J0D01*
G01*
G37*
G36*
G01*
X114025000Y-116884000D02*
X114575000Y-116884000D01*
G75*
G02*
X114775000Y-117084000I0J-200000D01*
G01*
X114775000Y-117484000D01*
G75*
G02*
X114575000Y-117684000I-200000J0D01*
G01*
X114025000Y-117684000D01*
G75*
G02*
X113825000Y-117484000I0J200000D01*
G01*
X113825000Y-117084000D01*
G75*
G02*
X114025000Y-116884000I200000J0D01*
G01*
G37*
%TD*%
D32*
%TO.C,U1*%
X126499000Y-103693000D03*
X124199000Y-103693000D03*
X126499000Y-101793000D03*
X124199000Y-101793000D03*
%TD*%
%TO.C,U2*%
G36*
G01*
X121698500Y-106416500D02*
X121823500Y-106416500D01*
G75*
G02*
X121886000Y-106479000I0J-62500D01*
G01*
X121886000Y-107429000D01*
G75*
G02*
X121823500Y-107491500I-62500J0D01*
G01*
X121698500Y-107491500D01*
G75*
G02*
X121636000Y-107429000I0J62500D01*
G01*
X121636000Y-106479000D01*
G75*
G02*
X121698500Y-106416500I62500J0D01*
G01*
G37*
G36*
G01*
X121198500Y-106416500D02*
X121323500Y-106416500D01*
G75*
G02*
X121386000Y-106479000I0J-62500D01*
G01*
X121386000Y-107429000D01*
G75*
G02*
X121323500Y-107491500I-62500J0D01*
G01*
X121198500Y-107491500D01*
G75*
G02*
X121136000Y-107429000I0J62500D01*
G01*
X121136000Y-106479000D01*
G75*
G02*
X121198500Y-106416500I62500J0D01*
G01*
G37*
G36*
G01*
X120698500Y-106416500D02*
X120823500Y-106416500D01*
G75*
G02*
X120886000Y-106479000I0J-62500D01*
G01*
X120886000Y-107429000D01*
G75*
G02*
X120823500Y-107491500I-62500J0D01*
G01*
X120698500Y-107491500D01*
G75*
G02*
X120636000Y-107429000I0J62500D01*
G01*
X120636000Y-106479000D01*
G75*
G02*
X120698500Y-106416500I62500J0D01*
G01*
G37*
G36*
G01*
X120198500Y-106416500D02*
X120323500Y-106416500D01*
G75*
G02*
X120386000Y-106479000I0J-62500D01*
G01*
X120386000Y-107429000D01*
G75*
G02*
X120323500Y-107491500I-62500J0D01*
G01*
X120198500Y-107491500D01*
G75*
G02*
X120136000Y-107429000I0J62500D01*
G01*
X120136000Y-106479000D01*
G75*
G02*
X120198500Y-106416500I62500J0D01*
G01*
G37*
G36*
G01*
X119698500Y-106416500D02*
X119823500Y-106416500D01*
G75*
G02*
X119886000Y-106479000I0J-62500D01*
G01*
X119886000Y-107429000D01*
G75*
G02*
X119823500Y-107491500I-62500J0D01*
G01*
X119698500Y-107491500D01*
G75*
G02*
X119636000Y-107429000I0J62500D01*
G01*
X119636000Y-106479000D01*
G75*
G02*
X119698500Y-106416500I62500J0D01*
G01*
G37*
G36*
G01*
X119198500Y-106416500D02*
X119323500Y-106416500D01*
G75*
G02*
X119386000Y-106479000I0J-62500D01*
G01*
X119386000Y-107429000D01*
G75*
G02*
X119323500Y-107491500I-62500J0D01*
G01*
X119198500Y-107491500D01*
G75*
G02*
X119136000Y-107429000I0J62500D01*
G01*
X119136000Y-106479000D01*
G75*
G02*
X119198500Y-106416500I62500J0D01*
G01*
G37*
G36*
G01*
X118698500Y-106416500D02*
X118823500Y-106416500D01*
G75*
G02*
X118886000Y-106479000I0J-62500D01*
G01*
X118886000Y-107429000D01*
G75*
G02*
X118823500Y-107491500I-62500J0D01*
G01*
X118698500Y-107491500D01*
G75*
G02*
X118636000Y-107429000I0J62500D01*
G01*
X118636000Y-106479000D01*
G75*
G02*
X118698500Y-106416500I62500J0D01*
G01*
G37*
G36*
G01*
X118198500Y-106416500D02*
X118323500Y-106416500D01*
G75*
G02*
X118386000Y-106479000I0J-62500D01*
G01*
X118386000Y-107429000D01*
G75*
G02*
X118323500Y-107491500I-62500J0D01*
G01*
X118198500Y-107491500D01*
G75*
G02*
X118136000Y-107429000I0J62500D01*
G01*
X118136000Y-106479000D01*
G75*
G02*
X118198500Y-106416500I62500J0D01*
G01*
G37*
G36*
G01*
X117698500Y-106416500D02*
X117823500Y-106416500D01*
G75*
G02*
X117886000Y-106479000I0J-62500D01*
G01*
X117886000Y-107429000D01*
G75*
G02*
X117823500Y-107491500I-62500J0D01*
G01*
X117698500Y-107491500D01*
G75*
G02*
X117636000Y-107429000I0J62500D01*
G01*
X117636000Y-106479000D01*
G75*
G02*
X117698500Y-106416500I62500J0D01*
G01*
G37*
G36*
G01*
X116448500Y-107666500D02*
X117398500Y-107666500D01*
G75*
G02*
X117461000Y-107729000I0J-62500D01*
G01*
X117461000Y-107854000D01*
G75*
G02*
X117398500Y-107916500I-62500J0D01*
G01*
X116448500Y-107916500D01*
G75*
G02*
X116386000Y-107854000I0J62500D01*
G01*
X116386000Y-107729000D01*
G75*
G02*
X116448500Y-107666500I62500J0D01*
G01*
G37*
G36*
G01*
X116448500Y-108166500D02*
X117398500Y-108166500D01*
G75*
G02*
X117461000Y-108229000I0J-62500D01*
G01*
X117461000Y-108354000D01*
G75*
G02*
X117398500Y-108416500I-62500J0D01*
G01*
X116448500Y-108416500D01*
G75*
G02*
X116386000Y-108354000I0J62500D01*
G01*
X116386000Y-108229000D01*
G75*
G02*
X116448500Y-108166500I62500J0D01*
G01*
G37*
G36*
G01*
X116448500Y-108666500D02*
X117398500Y-108666500D01*
G75*
G02*
X117461000Y-108729000I0J-62500D01*
G01*
X117461000Y-108854000D01*
G75*
G02*
X117398500Y-108916500I-62500J0D01*
G01*
X116448500Y-108916500D01*
G75*
G02*
X116386000Y-108854000I0J62500D01*
G01*
X116386000Y-108729000D01*
G75*
G02*
X116448500Y-108666500I62500J0D01*
G01*
G37*
G36*
G01*
X116448500Y-109166500D02*
X117398500Y-109166500D01*
G75*
G02*
X117461000Y-109229000I0J-62500D01*
G01*
X117461000Y-109354000D01*
G75*
G02*
X117398500Y-109416500I-62500J0D01*
G01*
X116448500Y-109416500D01*
G75*
G02*
X116386000Y-109354000I0J62500D01*
G01*
X116386000Y-109229000D01*
G75*
G02*
X116448500Y-109166500I62500J0D01*
G01*
G37*
G36*
G01*
X116448500Y-109666500D02*
X117398500Y-109666500D01*
G75*
G02*
X117461000Y-109729000I0J-62500D01*
G01*
X117461000Y-109854000D01*
G75*
G02*
X117398500Y-109916500I-62500J0D01*
G01*
X116448500Y-109916500D01*
G75*
G02*
X116386000Y-109854000I0J62500D01*
G01*
X116386000Y-109729000D01*
G75*
G02*
X116448500Y-109666500I62500J0D01*
G01*
G37*
G36*
G01*
X116448500Y-110166500D02*
X117398500Y-110166500D01*
G75*
G02*
X117461000Y-110229000I0J-62500D01*
G01*
X117461000Y-110354000D01*
G75*
G02*
X117398500Y-110416500I-62500J0D01*
G01*
X116448500Y-110416500D01*
G75*
G02*
X116386000Y-110354000I0J62500D01*
G01*
X116386000Y-110229000D01*
G75*
G02*
X116448500Y-110166500I62500J0D01*
G01*
G37*
G36*
G01*
X116448500Y-110666500D02*
X117398500Y-110666500D01*
G75*
G02*
X117461000Y-110729000I0J-62500D01*
G01*
X117461000Y-110854000D01*
G75*
G02*
X117398500Y-110916500I-62500J0D01*
G01*
X116448500Y-110916500D01*
G75*
G02*
X116386000Y-110854000I0J62500D01*
G01*
X116386000Y-110729000D01*
G75*
G02*
X116448500Y-110666500I62500J0D01*
G01*
G37*
G36*
G01*
X116448500Y-111166500D02*
X117398500Y-111166500D01*
G75*
G02*
X117461000Y-111229000I0J-62500D01*
G01*
X117461000Y-111354000D01*
G75*
G02*
X117398500Y-111416500I-62500J0D01*
G01*
X116448500Y-111416500D01*
G75*
G02*
X116386000Y-111354000I0J62500D01*
G01*
X116386000Y-111229000D01*
G75*
G02*
X116448500Y-111166500I62500J0D01*
G01*
G37*
G36*
G01*
X116448500Y-111666500D02*
X117398500Y-111666500D01*
G75*
G02*
X117461000Y-111729000I0J-62500D01*
G01*
X117461000Y-111854000D01*
G75*
G02*
X117398500Y-111916500I-62500J0D01*
G01*
X116448500Y-111916500D01*
G75*
G02*
X116386000Y-111854000I0J62500D01*
G01*
X116386000Y-111729000D01*
G75*
G02*
X116448500Y-111666500I62500J0D01*
G01*
G37*
G36*
G01*
X117698500Y-112091500D02*
X117823500Y-112091500D01*
G75*
G02*
X117886000Y-112154000I0J-62500D01*
G01*
X117886000Y-113104000D01*
G75*
G02*
X117823500Y-113166500I-62500J0D01*
G01*
X117698500Y-113166500D01*
G75*
G02*
X117636000Y-113104000I0J62500D01*
G01*
X117636000Y-112154000D01*
G75*
G02*
X117698500Y-112091500I62500J0D01*
G01*
G37*
G36*
G01*
X118198500Y-112091500D02*
X118323500Y-112091500D01*
G75*
G02*
X118386000Y-112154000I0J-62500D01*
G01*
X118386000Y-113104000D01*
G75*
G02*
X118323500Y-113166500I-62500J0D01*
G01*
X118198500Y-113166500D01*
G75*
G02*
X118136000Y-113104000I0J62500D01*
G01*
X118136000Y-112154000D01*
G75*
G02*
X118198500Y-112091500I62500J0D01*
G01*
G37*
G36*
G01*
X118698500Y-112091500D02*
X118823500Y-112091500D01*
G75*
G02*
X118886000Y-112154000I0J-62500D01*
G01*
X118886000Y-113104000D01*
G75*
G02*
X118823500Y-113166500I-62500J0D01*
G01*
X118698500Y-113166500D01*
G75*
G02*
X118636000Y-113104000I0J62500D01*
G01*
X118636000Y-112154000D01*
G75*
G02*
X118698500Y-112091500I62500J0D01*
G01*
G37*
G36*
G01*
X119198500Y-112091500D02*
X119323500Y-112091500D01*
G75*
G02*
X119386000Y-112154000I0J-62500D01*
G01*
X119386000Y-113104000D01*
G75*
G02*
X119323500Y-113166500I-62500J0D01*
G01*
X119198500Y-113166500D01*
G75*
G02*
X119136000Y-113104000I0J62500D01*
G01*
X119136000Y-112154000D01*
G75*
G02*
X119198500Y-112091500I62500J0D01*
G01*
G37*
G36*
G01*
X119698500Y-112091500D02*
X119823500Y-112091500D01*
G75*
G02*
X119886000Y-112154000I0J-62500D01*
G01*
X119886000Y-113104000D01*
G75*
G02*
X119823500Y-113166500I-62500J0D01*
G01*
X119698500Y-113166500D01*
G75*
G02*
X119636000Y-113104000I0J62500D01*
G01*
X119636000Y-112154000D01*
G75*
G02*
X119698500Y-112091500I62500J0D01*
G01*
G37*
G36*
G01*
X120198500Y-112091500D02*
X120323500Y-112091500D01*
G75*
G02*
X120386000Y-112154000I0J-62500D01*
G01*
X120386000Y-113104000D01*
G75*
G02*
X120323500Y-113166500I-62500J0D01*
G01*
X120198500Y-113166500D01*
G75*
G02*
X120136000Y-113104000I0J62500D01*
G01*
X120136000Y-112154000D01*
G75*
G02*
X120198500Y-112091500I62500J0D01*
G01*
G37*
G36*
G01*
X120698500Y-112091500D02*
X120823500Y-112091500D01*
G75*
G02*
X120886000Y-112154000I0J-62500D01*
G01*
X120886000Y-113104000D01*
G75*
G02*
X120823500Y-113166500I-62500J0D01*
G01*
X120698500Y-113166500D01*
G75*
G02*
X120636000Y-113104000I0J62500D01*
G01*
X120636000Y-112154000D01*
G75*
G02*
X120698500Y-112091500I62500J0D01*
G01*
G37*
G36*
G01*
X121198500Y-112091500D02*
X121323500Y-112091500D01*
G75*
G02*
X121386000Y-112154000I0J-62500D01*
G01*
X121386000Y-113104000D01*
G75*
G02*
X121323500Y-113166500I-62500J0D01*
G01*
X121198500Y-113166500D01*
G75*
G02*
X121136000Y-113104000I0J62500D01*
G01*
X121136000Y-112154000D01*
G75*
G02*
X121198500Y-112091500I62500J0D01*
G01*
G37*
G36*
G01*
X121698500Y-112091500D02*
X121823500Y-112091500D01*
G75*
G02*
X121886000Y-112154000I0J-62500D01*
G01*
X121886000Y-113104000D01*
G75*
G02*
X121823500Y-113166500I-62500J0D01*
G01*
X121698500Y-113166500D01*
G75*
G02*
X121636000Y-113104000I0J62500D01*
G01*
X121636000Y-112154000D01*
G75*
G02*
X121698500Y-112091500I62500J0D01*
G01*
G37*
G36*
G01*
X122123500Y-111666500D02*
X123073500Y-111666500D01*
G75*
G02*
X123136000Y-111729000I0J-62500D01*
G01*
X123136000Y-111854000D01*
G75*
G02*
X123073500Y-111916500I-62500J0D01*
G01*
X122123500Y-111916500D01*
G75*
G02*
X122061000Y-111854000I0J62500D01*
G01*
X122061000Y-111729000D01*
G75*
G02*
X122123500Y-111666500I62500J0D01*
G01*
G37*
G36*
G01*
X122123500Y-111166500D02*
X123073500Y-111166500D01*
G75*
G02*
X123136000Y-111229000I0J-62500D01*
G01*
X123136000Y-111354000D01*
G75*
G02*
X123073500Y-111416500I-62500J0D01*
G01*
X122123500Y-111416500D01*
G75*
G02*
X122061000Y-111354000I0J62500D01*
G01*
X122061000Y-111229000D01*
G75*
G02*
X122123500Y-111166500I62500J0D01*
G01*
G37*
G36*
G01*
X122123500Y-110666500D02*
X123073500Y-110666500D01*
G75*
G02*
X123136000Y-110729000I0J-62500D01*
G01*
X123136000Y-110854000D01*
G75*
G02*
X123073500Y-110916500I-62500J0D01*
G01*
X122123500Y-110916500D01*
G75*
G02*
X122061000Y-110854000I0J62500D01*
G01*
X122061000Y-110729000D01*
G75*
G02*
X122123500Y-110666500I62500J0D01*
G01*
G37*
G36*
G01*
X122123500Y-110166500D02*
X123073500Y-110166500D01*
G75*
G02*
X123136000Y-110229000I0J-62500D01*
G01*
X123136000Y-110354000D01*
G75*
G02*
X123073500Y-110416500I-62500J0D01*
G01*
X122123500Y-110416500D01*
G75*
G02*
X122061000Y-110354000I0J62500D01*
G01*
X122061000Y-110229000D01*
G75*
G02*
X122123500Y-110166500I62500J0D01*
G01*
G37*
G36*
G01*
X122123500Y-109666500D02*
X123073500Y-109666500D01*
G75*
G02*
X123136000Y-109729000I0J-62500D01*
G01*
X123136000Y-109854000D01*
G75*
G02*
X123073500Y-109916500I-62500J0D01*
G01*
X122123500Y-109916500D01*
G75*
G02*
X122061000Y-109854000I0J62500D01*
G01*
X122061000Y-109729000D01*
G75*
G02*
X122123500Y-109666500I62500J0D01*
G01*
G37*
G36*
G01*
X122123500Y-109166500D02*
X123073500Y-109166500D01*
G75*
G02*
X123136000Y-109229000I0J-62500D01*
G01*
X123136000Y-109354000D01*
G75*
G02*
X123073500Y-109416500I-62500J0D01*
G01*
X122123500Y-109416500D01*
G75*
G02*
X122061000Y-109354000I0J62500D01*
G01*
X122061000Y-109229000D01*
G75*
G02*
X122123500Y-109166500I62500J0D01*
G01*
G37*
G36*
G01*
X122123500Y-108666500D02*
X123073500Y-108666500D01*
G75*
G02*
X123136000Y-108729000I0J-62500D01*
G01*
X123136000Y-108854000D01*
G75*
G02*
X123073500Y-108916500I-62500J0D01*
G01*
X122123500Y-108916500D01*
G75*
G02*
X122061000Y-108854000I0J62500D01*
G01*
X122061000Y-108729000D01*
G75*
G02*
X122123500Y-108666500I62500J0D01*
G01*
G37*
G36*
G01*
X122123500Y-108166500D02*
X123073500Y-108166500D01*
G75*
G02*
X123136000Y-108229000I0J-62500D01*
G01*
X123136000Y-108354000D01*
G75*
G02*
X123073500Y-108416500I-62500J0D01*
G01*
X122123500Y-108416500D01*
G75*
G02*
X122061000Y-108354000I0J62500D01*
G01*
X122061000Y-108229000D01*
G75*
G02*
X122123500Y-108166500I62500J0D01*
G01*
G37*
G36*
G01*
X122123500Y-107666500D02*
X123073500Y-107666500D01*
G75*
G02*
X123136000Y-107729000I0J-62500D01*
G01*
X123136000Y-107854000D01*
G75*
G02*
X123073500Y-107916500I-62500J0D01*
G01*
X122123500Y-107916500D01*
G75*
G02*
X122061000Y-107854000I0J62500D01*
G01*
X122061000Y-107729000D01*
G75*
G02*
X122123500Y-107666500I62500J0D01*
G01*
G37*
D33*
X119761000Y-109791500D03*
%TD*%
M02*
