M48
; DRILL file {KiCad (5.1.8)-1} date 03/04/21 12:58:32
; FORMAT={-:-/ absolute / inch / decimal}
; #@! TF.CreationDate,2021-03-04T12:58:32-05:00
; #@! TF.GenerationSoftware,Kicad,Pcbnew,(5.1.8)-1
; #@! TF.FileFunction,Plated,1,4,PTH
FMAT,2
INCH
T1C0.0079
T2C0.0157
T3C0.0197
T4C0.0276
T5C0.0374
T6C0.0394
T7C0.1122
T8C0.1181
%
G90
G05
T1
X3.3743Y-3.9343
X3.3743Y-3.9746
X3.3743Y-4.015
X3.3743Y-4.0554
X3.3743Y-4.0957
X3.4146Y-3.9343
X3.4146Y-3.9746
X3.4146Y-4.015
X3.4146Y-4.0554
X3.4146Y-4.0957
X3.455Y-3.9343
X3.455Y-3.9746
X3.455Y-4.015
X3.455Y-4.0554
X3.455Y-4.0957
X3.4954Y-3.9343
X3.4954Y-3.9746
X3.4954Y-4.015
X3.4954Y-4.0554
X3.4954Y-4.0957
X3.5357Y-3.9343
X3.5357Y-3.9746
X3.5357Y-4.015
X3.5357Y-4.0554
X3.5357Y-4.0957
T2
X2.065Y-4.96
X2.07Y-3.965
X2.08Y-4.455
X2.1Y-4.3
X2.3Y-2.0
X2.3Y-2.9
X2.3Y-3.1
X2.3Y-3.3
X2.32Y-3.56
X2.32Y-3.705
X2.32Y-3.94
X2.36Y-4.21
X2.36Y-4.8
X2.36Y-4.84
X2.3725Y-4.975
X2.385Y-4.665
X2.39Y-3.45
X2.3925Y-3.82
X2.4Y-2.8
X2.4Y-3.0
X2.4Y-3.2
X2.4375Y-4.975
X2.44Y-3.53
X2.44Y-3.905
X2.455Y-3.585
X2.465Y-3.94
X2.4875Y-4.48
X2.4875Y-4.52
X2.5Y-2.0
X2.5Y-2.1
X2.5Y-2.2
X2.5Y-2.5
X2.5Y-2.6
X2.5Y-2.7
X2.5Y-2.9
X2.5Y-3.3
X2.5025Y-4.975
X2.54Y-3.635
X2.545Y-3.985
X2.6Y-2.8
X2.6Y-3.0
X2.61Y-3.2
X2.62Y-3.935
X2.6225Y-5.1975
X2.625Y-3.375
X2.625Y-3.425
X2.625Y-3.475
X2.625Y-3.59
X2.625Y-3.75
X2.625Y-3.8
X2.625Y-3.85
X2.6306Y-4.9631
X2.65Y-2.5
X2.65Y-2.6
X2.65Y-2.7
X2.675Y-3.375
X2.675Y-3.425
X2.675Y-3.475
X2.675Y-3.75
X2.675Y-3.8
X2.675Y-3.85
X2.68Y-4.405
X2.7Y-2.0
X2.7Y-2.1
X2.7Y-2.2
X2.7Y-2.3
X2.7Y-2.4
X2.7Y-2.9
X2.7Y-3.1
X2.7Y-3.3
X2.7102Y-4.7184
X2.715Y-5.0775
X2.7225Y-4.7575
X2.725Y-4.4775
X2.725Y-4.535
X2.7348Y-4.9652
X2.74Y-4.405
X2.75Y-2.7
X2.76Y-4.935
X2.785Y-4.64
X2.785Y-4.68
X2.8Y-2.8
X2.8Y-3.2
X2.805Y-4.725
X2.86Y-2.7
X2.86Y-4.26
X2.86Y-4.55
X2.8625Y-4.3095
X2.865Y-4.37
X2.9Y-2.0
X2.9Y-2.1
X2.9Y-2.2
X2.9Y-2.3
X2.9Y-2.4
X2.9Y-3.1
X2.9Y-3.3
X2.9025Y-5.0625
X2.915Y-4.26
X2.925Y-4.375
X2.95Y-2.7
X2.965Y-4.23
X3.0Y-2.8
X3.0Y-3.2
X3.005Y-4.645
X3.0071Y-3.9692
X3.0125Y-4.0825
X3.017Y-4.2028
X3.0327Y-4.8427
X3.045Y-3.98
X3.045Y-4.26
X3.06Y-2.7
X3.065Y-4.175
X3.1Y-2.0
X3.1Y-2.1
X3.1Y-2.2
X3.1Y-2.3
X3.1Y-2.4
X3.1Y-3.1
X3.1Y-3.3
X3.105Y-4.375
X3.13Y-3.635
X3.15Y-2.7
X3.15Y-2.8
X3.15Y-2.85
X3.165Y-4.26
X3.165Y-4.74
X3.17Y-4.53
X3.18Y-4.2015
X3.2Y-2.52
X3.2Y-2.56
X3.2Y-2.95
X3.2Y-3.0
X3.2Y-3.2
X3.2247Y-3.9338
X3.225Y-4.26
X3.23Y-3.635
X3.23Y-4.61
X3.23Y-4.695
X3.2406Y-3.9746
X3.245Y-3.9
X3.245Y-5.155
X3.25Y-2.52
X3.25Y-2.56
X3.25Y-2.95
X3.25Y-3.0
X3.26Y-4.94
X3.285Y-4.26
X3.2925Y-3.6325
X3.3Y-2.0
X3.3Y-2.1
X3.3Y-2.2
X3.3Y-2.3
X3.3Y-2.4
X3.3Y-2.52
X3.3Y-2.56
X3.3Y-2.95
X3.3Y-3.0
X3.3Y-3.1
X3.3Y-3.3
X3.3125Y-4.975
X3.3275Y-4.4275
X3.33Y-4.26
X3.335Y-5.275
X3.35Y-2.52
X3.35Y-2.56
X3.35Y-2.95
X3.35Y-3.0
X3.35Y-3.635
X3.4Y-2.52
X3.4Y-2.56
X3.4Y-2.95
X3.4Y-3.0
X3.4Y-3.2
X3.4Y-4.96
X3.4125Y-3.6325
X3.45Y-2.52
X3.45Y-2.56
X3.45Y-2.6
X3.45Y-2.64
X3.45Y-2.68
X3.45Y-2.72
X3.45Y-2.8
X3.45Y-2.85
X3.45Y-2.9
X3.45Y-2.95
X3.45Y-3.0
X3.4535Y-4.662
X3.4535Y-4.7875
X3.455Y-4.605
X3.455Y-4.725
X3.455Y-4.85
X3.455Y-4.9025
X3.475Y-4.22
X3.48Y-4.5
X3.485Y-4.355
X3.4996Y-4.1893
X3.5Y-2.0
X3.5Y-2.1
X3.5Y-2.2
X3.5Y-2.3
X3.5Y-2.4
X3.5Y-2.5
X3.5Y-2.6
X3.5Y-2.64
X3.5Y-2.68
X3.5Y-2.72
X3.5Y-2.8
X3.5Y-2.85
X3.5Y-2.9
X3.5Y-2.95
X3.5Y-3.1
X3.5Y-3.3
X3.505Y-5.04
X3.5225Y-3.6325
X3.565Y-4.355
X3.5675Y-5.23
X3.58Y-3.635
X3.64Y-5.08
X3.64Y-5.14
X3.6425Y-3.6325
X3.65Y-4.25
X3.65Y-4.3
X3.65Y-4.35
X3.7Y-2.0
X3.7Y-2.1
X3.7Y-2.2
X3.7Y-2.3
X3.7Y-2.4
X3.7Y-2.5
X3.7Y-2.6
X3.7Y-2.7
X3.7Y-2.8
X3.7Y-2.9
X3.7Y-3.0
X3.7Y-3.1
X3.7Y-3.2
X3.7Y-3.3
X3.7Y-3.4
X3.705Y-3.635
X3.76Y-3.635
X3.81Y-5.23
X3.85Y-4.23
X3.85Y-4.58
X3.8775Y-5.08
X3.8775Y-5.14
X3.9Y-2.0
X3.9Y-2.1
X3.9Y-2.2
X3.9Y-2.3
X3.9Y-2.4
X3.9Y-2.5
X3.9Y-2.6
X3.9Y-2.7
X3.9Y-2.8
X3.9Y-2.9
X3.9Y-3.0
X3.9Y-3.1
X3.9Y-3.2
X3.9Y-3.3
X3.9Y-3.4
X3.975Y-4.79
X4.0Y-2.05
X4.0Y-2.1
X4.0Y-2.14
X4.0Y-2.625
X4.0Y-2.675
X4.0Y-2.725
X4.0Y-2.775
X4.0Y-3.25
X4.0Y-3.3
X4.0Y-3.35
X4.0Y-3.4
X4.035Y-5.23
X4.05Y-2.35
X4.05Y-2.4
X4.05Y-2.975
X4.05Y-3.025
X4.05Y-3.6
X4.05Y-3.65
X4.0975Y-5.08
X4.0975Y-5.14
X4.1Y-2.35
X4.1Y-2.4
X4.1Y-2.975
X4.1Y-3.025
X4.1Y-3.6
X4.1Y-3.65
X4.15Y-2.35
X4.15Y-2.4
X4.15Y-2.975
X4.15Y-3.025
X4.15Y-3.6
X4.15Y-3.65
X4.155Y-4.185
X4.2Y-2.35
X4.2Y-2.4
X4.2Y-2.975
X4.2Y-3.025
X4.2Y-3.6
X4.2Y-3.65
X4.25Y-2.35
X4.25Y-2.4
X4.25Y-2.975
X4.25Y-3.025
X4.25Y-3.6
X4.25Y-3.65
X4.2741Y-2.5
X4.2825Y-5.23
X4.295Y-3.9163
X4.32Y-3.155
X4.325Y-2.05
X4.325Y-2.1
X4.325Y-2.135
X4.325Y-2.625
X4.325Y-2.675
X4.325Y-2.725
X4.325Y-2.775
X4.325Y-3.25
X4.325Y-3.3
X4.325Y-3.35
X4.325Y-3.4
X4.3475Y-5.08
X4.35Y-5.14
X4.405Y-4.67
X4.5Y-4.4
X4.5125Y-2.2441
X4.5125Y-2.5416
X4.5125Y-2.8716
X4.515Y-3.1666
X4.515Y-3.501
X4.5175Y-5.2275
X4.555Y-4.105
X4.56Y-2.2
X4.56Y-2.24
X4.56Y-2.28
X4.56Y-2.32
X4.56Y-2.36
X4.56Y-2.4
X4.56Y-2.44
X4.56Y-2.82
X4.56Y-2.86
X4.56Y-2.9
X4.56Y-2.94
X4.56Y-2.98
X4.56Y-3.02
X4.56Y-3.06
X4.56Y-3.1
X4.56Y-3.18
X4.56Y-3.48
X4.56Y-3.52
X4.56Y-3.56
X4.56Y-3.6
X4.56Y-3.64
X4.56Y-3.68
X4.56Y-3.72
X4.6Y-2.5
X4.6Y-2.62
X4.6Y-2.74
X4.6Y-2.88
X4.6Y-3.0
X4.6Y-3.12
X4.6Y-3.3
X4.6Y-3.42
X4.6Y-3.54
X4.6Y-3.66
X4.64Y-2.2
X4.64Y-2.32
X4.64Y-2.44
X4.64Y-2.56
X4.64Y-2.68
X4.64Y-2.82
X4.64Y-2.94
X4.64Y-3.06
X4.64Y-3.18
X4.64Y-3.24
X4.64Y-3.36
X4.64Y-3.48
X4.64Y-3.6
X4.64Y-3.72
X4.68Y-2.26
X4.68Y-2.38
X4.68Y-2.5
X4.68Y-2.62
X4.68Y-2.74
X4.68Y-2.88
X4.68Y-3.0
X4.68Y-3.12
X4.68Y-3.3
X4.68Y-3.42
X4.68Y-3.54
X4.68Y-3.66
X4.6825Y-5.08
X4.6825Y-5.14
X4.72Y-2.2
X4.72Y-2.32
X4.72Y-2.44
X4.72Y-2.56
X4.72Y-2.68
X4.72Y-2.82
X4.72Y-2.94
X4.72Y-3.06
X4.72Y-3.18
X4.72Y-3.24
X4.72Y-3.36
X4.72Y-3.48
X4.72Y-3.6
X4.76Y-2.38
X4.76Y-2.5
X4.76Y-2.74
X4.76Y-2.88
X4.76Y-3.12
X4.76Y-3.3
X4.76Y-3.54
X4.8Y-2.1
X4.8Y-2.44
X4.8Y-2.82
X4.8Y-3.18
X4.8Y-3.24
X4.8Y-3.6
X4.84Y-2.5
X4.84Y-2.74
X4.84Y-2.88
X4.84Y-3.12
X4.84Y-3.54
X4.855Y-3.845
X4.86Y-3.924
X4.88Y-2.44
X4.88Y-2.7
X4.88Y-2.82
X4.88Y-3.18
X4.88Y-3.24
X4.88Y-3.48
X4.88Y-3.6
X4.9Y-4.1
X4.9Y-4.6
X4.92Y-2.5
X4.92Y-2.74
X4.92Y-2.88
X4.92Y-3.06
X4.92Y-3.12
X4.92Y-3.3
X4.92Y-3.42
X4.92Y-3.54
X4.96Y-2.44
X4.96Y-2.7
X4.96Y-2.82
X4.96Y-3.18
X4.96Y-3.24
X4.96Y-3.48
X4.96Y-3.6
X4.995Y-3.924
X4.9961Y-3.8439
X5.0Y-2.5
X5.0Y-2.74
X5.0Y-2.88
X5.0Y-3.12
X5.0Y-3.54
X5.04Y-2.44
X5.04Y-2.82
X5.04Y-3.18
X5.04Y-3.24
X5.04Y-3.6
X5.08Y-2.5
X5.08Y-2.74
X5.08Y-2.88
X5.08Y-3.12
X5.08Y-3.3
X5.08Y-3.54
X5.12Y-2.44
X5.12Y-2.56
X5.12Y-2.68
X5.12Y-2.82
X5.12Y-2.94
X5.12Y-3.06
X5.12Y-3.18
X5.12Y-3.24
X5.12Y-3.36
X5.12Y-3.48
X5.12Y-3.6
X5.16Y-2.5
X5.16Y-2.62
X5.16Y-2.74
X5.16Y-2.88
X5.16Y-3.0
X5.16Y-3.12
X5.16Y-3.3
X5.16Y-3.42
X5.16Y-3.54
X5.2Y-2.2
X5.2398Y-3.9594
X5.2717Y-3.8383
X5.3Y-4.4
X5.355Y-4.01
X5.355Y-4.13
X5.356Y-3.886
X5.395Y-3.81
X5.4Y-2.1
X5.4Y-2.9
X5.42Y-2.58
X5.4575Y-3.7125
X5.5Y-3.3
X5.5125Y-3.7175
X5.57Y-4.18
X5.626Y-3.749
X5.65Y-2.335
X5.69Y-3.055
X5.7Y-4.8
X5.79Y-3.31
X5.8Y-2.7
X5.8Y-3.6
T3
X2.0768Y-5.1181
X2.1027Y-5.0555
X2.1027Y-5.1807
X2.1654Y-5.0295
X2.1654Y-5.2067
X2.228Y-5.0555
X2.228Y-5.1807
X2.2539Y-5.1181
X5.6201Y-2.1654
X5.646Y-2.1027
X5.646Y-2.228
X5.7087Y-2.0768
X5.7087Y-2.2539
X5.7713Y-2.1027
X5.7713Y-2.228
X5.7972Y-2.1654
X2.0768Y-2.1654
X2.1027Y-2.1027
X2.1027Y-2.228
X2.1654Y-2.0768
X2.1654Y-2.2539
X2.228Y-2.1027
X2.228Y-2.228
X2.2539Y-2.1654
X5.6201Y-5.1181
X5.646Y-5.0555
X5.646Y-5.1807
X5.7087Y-5.0295
X5.7087Y-5.2067
X5.7713Y-5.0555
X5.7713Y-5.1807
X5.7972Y-5.1181
T4
X2.0775Y-4.7025
X2.0775Y-4.7525
X2.0775Y-4.8025
X2.1275Y-4.7025
X2.1275Y-4.7525
X2.1275Y-4.8025
T5
X2.255Y-4.2022
X2.255Y-4.3006
X2.255Y-4.3991
X2.255Y-4.4975
T6
X2.8937Y-3.7598
X2.9325Y-4.1239
X3.5433Y-3.5433
X5.2717Y-3.7677
X3.9173Y-4.0748
X3.7402Y-3.5433
X2.8937Y-3.622
X2.7947Y-4.1239
X4.8583Y-3.7677
X2.5191Y-4.1239
X3.005Y-5.0525
X5.1339Y-3.7677
X4.9961Y-3.7677
X3.9173Y-3.878
X2.8937Y-3.8976
X2.6569Y-4.1239
X3.3858Y-3.5433
X3.189Y-3.5433
T7
X2.8643Y-2.5632
X2.8643Y-2.953
X3.0612Y-2.5632
X3.0612Y-2.9569
X4.8188Y-2.6056
X4.8188Y-2.9993
X4.8188Y-3.393
X5.0157Y-2.6056
X5.0157Y-2.9993
X5.0157Y-3.393
T8
X2.1654Y-5.1181
X5.7087Y-2.1654
X2.1654Y-2.1654
X5.7087Y-5.1181
T0
M30
