%TF.GenerationSoftware,KiCad,Pcbnew,(5.1.8)-1*%
%TF.CreationDate,2021-03-04T12:58:27-05:00*%
%TF.ProjectId,DRV8353S_dev_board,44525638-3335-4335-935f-6465765f626f,rev?*%
%TF.SameCoordinates,Original*%
%TF.FileFunction,Soldermask,Top*%
%TF.FilePolarity,Negative*%
%FSLAX46Y46*%
G04 Gerber Fmt 4.6, Leading zero omitted, Abs format (unit mm)*
G04 Created by KiCad (PCBNEW (5.1.8)-1) date 2021-03-04 12:58:27*
%MOMM*%
%LPD*%
G01*
G04 APERTURE LIST*
%ADD10R,5.400000X3.200000*%
%ADD11C,6.000001*%
%ADD12C,0.800000*%
%ADD13R,0.600000X0.450000*%
%ADD14C,3.600000*%
%ADD15C,4.000000*%
%ADD16R,1.000000X1.000000*%
%ADD17O,1.000000X1.000000*%
%ADD18O,1.950000X1.700000*%
%ADD19R,0.900000X0.800000*%
%ADD20R,0.900000X1.700000*%
%ADD21R,1.600000X0.760000*%
%ADD22C,1.000000*%
%ADD23R,3.450000X3.450000*%
%ADD24R,0.650000X0.350000*%
%ADD25R,1.550000X2.400000*%
%ADD26R,4.600000X4.600000*%
%ADD27R,1.900000X1.100000*%
%ADD28R,2.500000X0.700000*%
%ADD29R,0.710000X1.320000*%
%ADD30R,0.710000X0.590000*%
%ADD31R,4.520000X3.850000*%
%ADD32C,2.000000*%
%ADD33R,1.300000X1.100000*%
G04 APERTURE END LIST*
%TO.C,C5*%
G36*
G01*
X57942500Y-89212000D02*
X56992500Y-89212000D01*
G75*
G02*
X56742500Y-88962000I0J250000D01*
G01*
X56742500Y-88462000D01*
G75*
G02*
X56992500Y-88212000I250000J0D01*
G01*
X57942500Y-88212000D01*
G75*
G02*
X58192500Y-88462000I0J-250000D01*
G01*
X58192500Y-88962000D01*
G75*
G02*
X57942500Y-89212000I-250000J0D01*
G01*
G37*
G36*
G01*
X57942500Y-91112000D02*
X56992500Y-91112000D01*
G75*
G02*
X56742500Y-90862000I0J250000D01*
G01*
X56742500Y-90362000D01*
G75*
G02*
X56992500Y-90112000I250000J0D01*
G01*
X57942500Y-90112000D01*
G75*
G02*
X58192500Y-90362000I0J-250000D01*
G01*
X58192500Y-90862000D01*
G75*
G02*
X57942500Y-91112000I-250000J0D01*
G01*
G37*
%TD*%
D10*
%TO.C,C34*%
X83566000Y-67350000D03*
X83566000Y-72350000D03*
%TD*%
D11*
%TO.C,REF\u002A\u002A*%
X145000000Y-130000000D03*
D12*
X147250000Y-130000000D03*
X146590990Y-131590990D03*
X145000000Y-132250000D03*
X143409010Y-131590990D03*
X142750000Y-130000000D03*
X143409010Y-128409010D03*
X145000000Y-127750000D03*
X146590990Y-128409010D03*
%TD*%
%TO.C,REF\u002A\u002A*%
X56590990Y-128409010D03*
X55000000Y-127750000D03*
X53409010Y-128409010D03*
X52750000Y-130000000D03*
X53409010Y-131590990D03*
X55000000Y-132250000D03*
X56590990Y-131590990D03*
X57250000Y-130000000D03*
D11*
X55000000Y-130000000D03*
%TD*%
%TO.C,REF\u002A\u002A*%
X55000000Y-55000000D03*
D12*
X57250000Y-55000000D03*
X56590990Y-56590990D03*
X55000000Y-57250000D03*
X53409010Y-56590990D03*
X52750000Y-55000000D03*
X53409010Y-53409010D03*
X55000000Y-52750000D03*
X56590990Y-53409010D03*
%TD*%
%TO.C,REF\u002A\u002A*%
X146590990Y-53409010D03*
X145000000Y-52750000D03*
X143409010Y-53409010D03*
X142750000Y-55000000D03*
X143409010Y-56590990D03*
X145000000Y-57250000D03*
X146590990Y-56590990D03*
X147250000Y-55000000D03*
D11*
X145000000Y-55000000D03*
%TD*%
%TO.C,C1*%
G36*
G01*
X77021500Y-126193000D02*
X76521500Y-126193000D01*
G75*
G02*
X76296500Y-125968000I0J225000D01*
G01*
X76296500Y-125518000D01*
G75*
G02*
X76521500Y-125293000I225000J0D01*
G01*
X77021500Y-125293000D01*
G75*
G02*
X77246500Y-125518000I0J-225000D01*
G01*
X77246500Y-125968000D01*
G75*
G02*
X77021500Y-126193000I-225000J0D01*
G01*
G37*
G36*
G01*
X77021500Y-124643000D02*
X76521500Y-124643000D01*
G75*
G02*
X76296500Y-124418000I0J225000D01*
G01*
X76296500Y-123968000D01*
G75*
G02*
X76521500Y-123743000I225000J0D01*
G01*
X77021500Y-123743000D01*
G75*
G02*
X77246500Y-123968000I0J-225000D01*
G01*
X77246500Y-124418000D01*
G75*
G02*
X77021500Y-124643000I-225000J0D01*
G01*
G37*
%TD*%
%TO.C,C2*%
G36*
G01*
X56992500Y-95255500D02*
X57942500Y-95255500D01*
G75*
G02*
X58192500Y-95505500I0J-250000D01*
G01*
X58192500Y-96005500D01*
G75*
G02*
X57942500Y-96255500I-250000J0D01*
G01*
X56992500Y-96255500D01*
G75*
G02*
X56742500Y-96005500I0J250000D01*
G01*
X56742500Y-95505500D01*
G75*
G02*
X56992500Y-95255500I250000J0D01*
G01*
G37*
G36*
G01*
X56992500Y-93355500D02*
X57942500Y-93355500D01*
G75*
G02*
X58192500Y-93605500I0J-250000D01*
G01*
X58192500Y-94105500D01*
G75*
G02*
X57942500Y-94355500I-250000J0D01*
G01*
X56992500Y-94355500D01*
G75*
G02*
X56742500Y-94105500I0J250000D01*
G01*
X56742500Y-93605500D01*
G75*
G02*
X56992500Y-93355500I250000J0D01*
G01*
G37*
%TD*%
%TO.C,C3*%
G36*
G01*
X56992500Y-83767000D02*
X57942500Y-83767000D01*
G75*
G02*
X58192500Y-84017000I0J-250000D01*
G01*
X58192500Y-84517000D01*
G75*
G02*
X57942500Y-84767000I-250000J0D01*
G01*
X56992500Y-84767000D01*
G75*
G02*
X56742500Y-84517000I0J250000D01*
G01*
X56742500Y-84017000D01*
G75*
G02*
X56992500Y-83767000I250000J0D01*
G01*
G37*
G36*
G01*
X56992500Y-85667000D02*
X57942500Y-85667000D01*
G75*
G02*
X58192500Y-85917000I0J-250000D01*
G01*
X58192500Y-86417000D01*
G75*
G02*
X57942500Y-86667000I-250000J0D01*
G01*
X56992500Y-86667000D01*
G75*
G02*
X56742500Y-86417000I0J250000D01*
G01*
X56742500Y-85917000D01*
G75*
G02*
X56992500Y-85667000I250000J0D01*
G01*
G37*
%TD*%
%TO.C,C4*%
G36*
G01*
X58006000Y-100891000D02*
X57056000Y-100891000D01*
G75*
G02*
X56806000Y-100641000I0J250000D01*
G01*
X56806000Y-100141000D01*
G75*
G02*
X57056000Y-99891000I250000J0D01*
G01*
X58006000Y-99891000D01*
G75*
G02*
X58256000Y-100141000I0J-250000D01*
G01*
X58256000Y-100641000D01*
G75*
G02*
X58006000Y-100891000I-250000J0D01*
G01*
G37*
G36*
G01*
X58006000Y-98991000D02*
X57056000Y-98991000D01*
G75*
G02*
X56806000Y-98741000I0J250000D01*
G01*
X56806000Y-98241000D01*
G75*
G02*
X57056000Y-97991000I250000J0D01*
G01*
X58006000Y-97991000D01*
G75*
G02*
X58256000Y-98241000I0J-250000D01*
G01*
X58256000Y-98741000D01*
G75*
G02*
X58006000Y-98991000I-250000J0D01*
G01*
G37*
%TD*%
%TO.C,C6*%
G36*
G01*
X82554000Y-125052000D02*
X83054000Y-125052000D01*
G75*
G02*
X83279000Y-125277000I0J-225000D01*
G01*
X83279000Y-125727000D01*
G75*
G02*
X83054000Y-125952000I-225000J0D01*
G01*
X82554000Y-125952000D01*
G75*
G02*
X82329000Y-125727000I0J225000D01*
G01*
X82329000Y-125277000D01*
G75*
G02*
X82554000Y-125052000I225000J0D01*
G01*
G37*
G36*
G01*
X82554000Y-123502000D02*
X83054000Y-123502000D01*
G75*
G02*
X83279000Y-123727000I0J-225000D01*
G01*
X83279000Y-124177000D01*
G75*
G02*
X83054000Y-124402000I-225000J0D01*
G01*
X82554000Y-124402000D01*
G75*
G02*
X82329000Y-124177000I0J225000D01*
G01*
X82329000Y-123727000D01*
G75*
G02*
X82554000Y-123502000I225000J0D01*
G01*
G37*
%TD*%
%TO.C,C7*%
G36*
G01*
X121165800Y-130818700D02*
X121165800Y-130318700D01*
G75*
G02*
X121390800Y-130093700I225000J0D01*
G01*
X121840800Y-130093700D01*
G75*
G02*
X122065800Y-130318700I0J-225000D01*
G01*
X122065800Y-130818700D01*
G75*
G02*
X121840800Y-131043700I-225000J0D01*
G01*
X121390800Y-131043700D01*
G75*
G02*
X121165800Y-130818700I0J225000D01*
G01*
G37*
G36*
G01*
X119615800Y-130818700D02*
X119615800Y-130318700D01*
G75*
G02*
X119840800Y-130093700I225000J0D01*
G01*
X120290800Y-130093700D01*
G75*
G02*
X120515800Y-130318700I0J-225000D01*
G01*
X120515800Y-130818700D01*
G75*
G02*
X120290800Y-131043700I-225000J0D01*
G01*
X119840800Y-131043700D01*
G75*
G02*
X119615800Y-130818700I0J225000D01*
G01*
G37*
%TD*%
%TO.C,C8*%
G36*
G01*
X111195400Y-130818700D02*
X111195400Y-130318700D01*
G75*
G02*
X111420400Y-130093700I225000J0D01*
G01*
X111870400Y-130093700D01*
G75*
G02*
X112095400Y-130318700I0J-225000D01*
G01*
X112095400Y-130818700D01*
G75*
G02*
X111870400Y-131043700I-225000J0D01*
G01*
X111420400Y-131043700D01*
G75*
G02*
X111195400Y-130818700I0J225000D01*
G01*
G37*
G36*
G01*
X112745400Y-130818700D02*
X112745400Y-130318700D01*
G75*
G02*
X112970400Y-130093700I225000J0D01*
G01*
X113420400Y-130093700D01*
G75*
G02*
X113645400Y-130318700I0J-225000D01*
G01*
X113645400Y-130818700D01*
G75*
G02*
X113420400Y-131043700I-225000J0D01*
G01*
X112970400Y-131043700D01*
G75*
G02*
X112745400Y-130818700I0J225000D01*
G01*
G37*
%TD*%
%TO.C,C9*%
G36*
G01*
X106548100Y-130793300D02*
X106548100Y-130293300D01*
G75*
G02*
X106773100Y-130068300I225000J0D01*
G01*
X107223100Y-130068300D01*
G75*
G02*
X107448100Y-130293300I0J-225000D01*
G01*
X107448100Y-130793300D01*
G75*
G02*
X107223100Y-131018300I-225000J0D01*
G01*
X106773100Y-131018300D01*
G75*
G02*
X106548100Y-130793300I0J225000D01*
G01*
G37*
G36*
G01*
X104998100Y-130793300D02*
X104998100Y-130293300D01*
G75*
G02*
X105223100Y-130068300I225000J0D01*
G01*
X105673100Y-130068300D01*
G75*
G02*
X105898100Y-130293300I0J-225000D01*
G01*
X105898100Y-130793300D01*
G75*
G02*
X105673100Y-131018300I-225000J0D01*
G01*
X105223100Y-131018300D01*
G75*
G02*
X104998100Y-130793300I0J225000D01*
G01*
G37*
%TD*%
%TO.C,C10*%
G36*
G01*
X99155500Y-130806000D02*
X99155500Y-130306000D01*
G75*
G02*
X99380500Y-130081000I225000J0D01*
G01*
X99830500Y-130081000D01*
G75*
G02*
X100055500Y-130306000I0J-225000D01*
G01*
X100055500Y-130806000D01*
G75*
G02*
X99830500Y-131031000I-225000J0D01*
G01*
X99380500Y-131031000D01*
G75*
G02*
X99155500Y-130806000I0J225000D01*
G01*
G37*
G36*
G01*
X100705500Y-130806000D02*
X100705500Y-130306000D01*
G75*
G02*
X100930500Y-130081000I225000J0D01*
G01*
X101380500Y-130081000D01*
G75*
G02*
X101605500Y-130306000I0J-225000D01*
G01*
X101605500Y-130806000D01*
G75*
G02*
X101380500Y-131031000I-225000J0D01*
G01*
X100930500Y-131031000D01*
G75*
G02*
X100705500Y-130806000I0J225000D01*
G01*
G37*
%TD*%
%TO.C,C11*%
G36*
G01*
X94724100Y-130793300D02*
X94724100Y-130293300D01*
G75*
G02*
X94949100Y-130068300I225000J0D01*
G01*
X95399100Y-130068300D01*
G75*
G02*
X95624100Y-130293300I0J-225000D01*
G01*
X95624100Y-130793300D01*
G75*
G02*
X95399100Y-131018300I-225000J0D01*
G01*
X94949100Y-131018300D01*
G75*
G02*
X94724100Y-130793300I0J225000D01*
G01*
G37*
G36*
G01*
X93174100Y-130793300D02*
X93174100Y-130293300D01*
G75*
G02*
X93399100Y-130068300I225000J0D01*
G01*
X93849100Y-130068300D01*
G75*
G02*
X94074100Y-130293300I0J-225000D01*
G01*
X94074100Y-130793300D01*
G75*
G02*
X93849100Y-131018300I-225000J0D01*
G01*
X93399100Y-131018300D01*
G75*
G02*
X93174100Y-130793300I0J225000D01*
G01*
G37*
%TD*%
%TO.C,C12*%
G36*
G01*
X63479499Y-99388500D02*
X65679501Y-99388500D01*
G75*
G02*
X65929500Y-99638499I0J-249999D01*
G01*
X65929500Y-100288501D01*
G75*
G02*
X65679501Y-100538500I-249999J0D01*
G01*
X63479499Y-100538500D01*
G75*
G02*
X63229500Y-100288501I0J249999D01*
G01*
X63229500Y-99638499D01*
G75*
G02*
X63479499Y-99388500I249999J0D01*
G01*
G37*
G36*
G01*
X63479499Y-96438500D02*
X65679501Y-96438500D01*
G75*
G02*
X65929500Y-96688499I0J-249999D01*
G01*
X65929500Y-97338501D01*
G75*
G02*
X65679501Y-97588500I-249999J0D01*
G01*
X63479499Y-97588500D01*
G75*
G02*
X63229500Y-97338501I0J249999D01*
G01*
X63229500Y-96688499D01*
G75*
G02*
X63479499Y-96438500I249999J0D01*
G01*
G37*
%TD*%
%TO.C,C13*%
G36*
G01*
X63352499Y-87548500D02*
X65552501Y-87548500D01*
G75*
G02*
X65802500Y-87798499I0J-249999D01*
G01*
X65802500Y-88448501D01*
G75*
G02*
X65552501Y-88698500I-249999J0D01*
G01*
X63352499Y-88698500D01*
G75*
G02*
X63102500Y-88448501I0J249999D01*
G01*
X63102500Y-87798499D01*
G75*
G02*
X63352499Y-87548500I249999J0D01*
G01*
G37*
G36*
G01*
X63352499Y-90498500D02*
X65552501Y-90498500D01*
G75*
G02*
X65802500Y-90748499I0J-249999D01*
G01*
X65802500Y-91398501D01*
G75*
G02*
X65552501Y-91648500I-249999J0D01*
G01*
X63352499Y-91648500D01*
G75*
G02*
X63102500Y-91398501I0J249999D01*
G01*
X63102500Y-90748499D01*
G75*
G02*
X63352499Y-90498500I249999J0D01*
G01*
G37*
%TD*%
%TO.C,C17*%
G36*
G01*
X85986500Y-124900500D02*
X85986500Y-124400500D01*
G75*
G02*
X86211500Y-124175500I225000J0D01*
G01*
X86661500Y-124175500D01*
G75*
G02*
X86886500Y-124400500I0J-225000D01*
G01*
X86886500Y-124900500D01*
G75*
G02*
X86661500Y-125125500I-225000J0D01*
G01*
X86211500Y-125125500D01*
G75*
G02*
X85986500Y-124900500I0J225000D01*
G01*
G37*
G36*
G01*
X84436500Y-124900500D02*
X84436500Y-124400500D01*
G75*
G02*
X84661500Y-124175500I225000J0D01*
G01*
X85111500Y-124175500D01*
G75*
G02*
X85336500Y-124400500I0J-225000D01*
G01*
X85336500Y-124900500D01*
G75*
G02*
X85111500Y-125125500I-225000J0D01*
G01*
X84661500Y-125125500D01*
G75*
G02*
X84436500Y-124900500I0J225000D01*
G01*
G37*
%TD*%
%TO.C,C18*%
G36*
G01*
X84436500Y-121852500D02*
X84436500Y-121352500D01*
G75*
G02*
X84661500Y-121127500I225000J0D01*
G01*
X85111500Y-121127500D01*
G75*
G02*
X85336500Y-121352500I0J-225000D01*
G01*
X85336500Y-121852500D01*
G75*
G02*
X85111500Y-122077500I-225000J0D01*
G01*
X84661500Y-122077500D01*
G75*
G02*
X84436500Y-121852500I0J225000D01*
G01*
G37*
G36*
G01*
X85986500Y-121852500D02*
X85986500Y-121352500D01*
G75*
G02*
X86211500Y-121127500I225000J0D01*
G01*
X86661500Y-121127500D01*
G75*
G02*
X86886500Y-121352500I0J-225000D01*
G01*
X86886500Y-121852500D01*
G75*
G02*
X86661500Y-122077500I-225000J0D01*
G01*
X86211500Y-122077500D01*
G75*
G02*
X85986500Y-121852500I0J225000D01*
G01*
G37*
%TD*%
%TO.C,C19*%
G36*
G01*
X72957500Y-111461000D02*
X72457500Y-111461000D01*
G75*
G02*
X72232500Y-111236000I0J225000D01*
G01*
X72232500Y-110786000D01*
G75*
G02*
X72457500Y-110561000I225000J0D01*
G01*
X72957500Y-110561000D01*
G75*
G02*
X73182500Y-110786000I0J-225000D01*
G01*
X73182500Y-111236000D01*
G75*
G02*
X72957500Y-111461000I-225000J0D01*
G01*
G37*
G36*
G01*
X72957500Y-109911000D02*
X72457500Y-109911000D01*
G75*
G02*
X72232500Y-109686000I0J225000D01*
G01*
X72232500Y-109236000D01*
G75*
G02*
X72457500Y-109011000I225000J0D01*
G01*
X72957500Y-109011000D01*
G75*
G02*
X73182500Y-109236000I0J-225000D01*
G01*
X73182500Y-109686000D01*
G75*
G02*
X72957500Y-109911000I-225000J0D01*
G01*
G37*
%TD*%
%TO.C,C20*%
G36*
G01*
X85986500Y-118741000D02*
X85986500Y-118241000D01*
G75*
G02*
X86211500Y-118016000I225000J0D01*
G01*
X86661500Y-118016000D01*
G75*
G02*
X86886500Y-118241000I0J-225000D01*
G01*
X86886500Y-118741000D01*
G75*
G02*
X86661500Y-118966000I-225000J0D01*
G01*
X86211500Y-118966000D01*
G75*
G02*
X85986500Y-118741000I0J225000D01*
G01*
G37*
G36*
G01*
X84436500Y-118741000D02*
X84436500Y-118241000D01*
G75*
G02*
X84661500Y-118016000I225000J0D01*
G01*
X85111500Y-118016000D01*
G75*
G02*
X85336500Y-118241000I0J-225000D01*
G01*
X85336500Y-118741000D01*
G75*
G02*
X85111500Y-118966000I-225000J0D01*
G01*
X84661500Y-118966000D01*
G75*
G02*
X84436500Y-118741000I0J225000D01*
G01*
G37*
%TD*%
%TO.C,C21*%
G36*
G01*
X68322000Y-109911000D02*
X67822000Y-109911000D01*
G75*
G02*
X67597000Y-109686000I0J225000D01*
G01*
X67597000Y-109236000D01*
G75*
G02*
X67822000Y-109011000I225000J0D01*
G01*
X68322000Y-109011000D01*
G75*
G02*
X68547000Y-109236000I0J-225000D01*
G01*
X68547000Y-109686000D01*
G75*
G02*
X68322000Y-109911000I-225000J0D01*
G01*
G37*
G36*
G01*
X68322000Y-111461000D02*
X67822000Y-111461000D01*
G75*
G02*
X67597000Y-111236000I0J225000D01*
G01*
X67597000Y-110786000D01*
G75*
G02*
X67822000Y-110561000I225000J0D01*
G01*
X68322000Y-110561000D01*
G75*
G02*
X68547000Y-110786000I0J-225000D01*
G01*
X68547000Y-111236000D01*
G75*
G02*
X68322000Y-111461000I-225000J0D01*
G01*
G37*
%TD*%
%TO.C,C22*%
G36*
G01*
X68662000Y-121098500D02*
X68662000Y-121598500D01*
G75*
G02*
X68437000Y-121823500I-225000J0D01*
G01*
X67987000Y-121823500D01*
G75*
G02*
X67762000Y-121598500I0J225000D01*
G01*
X67762000Y-121098500D01*
G75*
G02*
X67987000Y-120873500I225000J0D01*
G01*
X68437000Y-120873500D01*
G75*
G02*
X68662000Y-121098500I0J-225000D01*
G01*
G37*
G36*
G01*
X67112000Y-121098500D02*
X67112000Y-121598500D01*
G75*
G02*
X66887000Y-121823500I-225000J0D01*
G01*
X66437000Y-121823500D01*
G75*
G02*
X66212000Y-121598500I0J225000D01*
G01*
X66212000Y-121098500D01*
G75*
G02*
X66437000Y-120873500I225000J0D01*
G01*
X66887000Y-120873500D01*
G75*
G02*
X67112000Y-121098500I0J-225000D01*
G01*
G37*
%TD*%
%TO.C,C23*%
G36*
G01*
X67112000Y-113478500D02*
X67112000Y-113978500D01*
G75*
G02*
X66887000Y-114203500I-225000J0D01*
G01*
X66437000Y-114203500D01*
G75*
G02*
X66212000Y-113978500I0J225000D01*
G01*
X66212000Y-113478500D01*
G75*
G02*
X66437000Y-113253500I225000J0D01*
G01*
X66887000Y-113253500D01*
G75*
G02*
X67112000Y-113478500I0J-225000D01*
G01*
G37*
G36*
G01*
X68662000Y-113478500D02*
X68662000Y-113978500D01*
G75*
G02*
X68437000Y-114203500I-225000J0D01*
G01*
X67987000Y-114203500D01*
G75*
G02*
X67762000Y-113978500I0J225000D01*
G01*
X67762000Y-113478500D01*
G75*
G02*
X67987000Y-113253500I225000J0D01*
G01*
X68437000Y-113253500D01*
G75*
G02*
X68662000Y-113478500I0J-225000D01*
G01*
G37*
%TD*%
%TO.C,C24*%
G36*
G01*
X98076500Y-109072499D02*
X98076500Y-111272501D01*
G75*
G02*
X97826501Y-111522500I-249999J0D01*
G01*
X97176499Y-111522500D01*
G75*
G02*
X96926500Y-111272501I0J249999D01*
G01*
X96926500Y-109072499D01*
G75*
G02*
X97176499Y-108822500I249999J0D01*
G01*
X97826501Y-108822500D01*
G75*
G02*
X98076500Y-109072499I0J-249999D01*
G01*
G37*
G36*
G01*
X95126500Y-109072499D02*
X95126500Y-111272501D01*
G75*
G02*
X94876501Y-111522500I-249999J0D01*
G01*
X94226499Y-111522500D01*
G75*
G02*
X93976500Y-111272501I0J249999D01*
G01*
X93976500Y-109072499D01*
G75*
G02*
X94226499Y-108822500I249999J0D01*
G01*
X94876501Y-108822500D01*
G75*
G02*
X95126500Y-109072499I0J-249999D01*
G01*
G37*
%TD*%
%TO.C,C25*%
G36*
G01*
X95890500Y-107917000D02*
X95890500Y-106967000D01*
G75*
G02*
X96140500Y-106717000I250000J0D01*
G01*
X96640500Y-106717000D01*
G75*
G02*
X96890500Y-106967000I0J-250000D01*
G01*
X96890500Y-107917000D01*
G75*
G02*
X96640500Y-108167000I-250000J0D01*
G01*
X96140500Y-108167000D01*
G75*
G02*
X95890500Y-107917000I0J250000D01*
G01*
G37*
G36*
G01*
X93990500Y-107917000D02*
X93990500Y-106967000D01*
G75*
G02*
X94240500Y-106717000I250000J0D01*
G01*
X94740500Y-106717000D01*
G75*
G02*
X94990500Y-106967000I0J-250000D01*
G01*
X94990500Y-107917000D01*
G75*
G02*
X94740500Y-108167000I-250000J0D01*
G01*
X94240500Y-108167000D01*
G75*
G02*
X93990500Y-107917000I0J250000D01*
G01*
G37*
%TD*%
%TO.C,C26*%
G36*
G01*
X88107500Y-108151000D02*
X89057500Y-108151000D01*
G75*
G02*
X89307500Y-108401000I0J-250000D01*
G01*
X89307500Y-108901000D01*
G75*
G02*
X89057500Y-109151000I-250000J0D01*
G01*
X88107500Y-109151000D01*
G75*
G02*
X87857500Y-108901000I0J250000D01*
G01*
X87857500Y-108401000D01*
G75*
G02*
X88107500Y-108151000I250000J0D01*
G01*
G37*
G36*
G01*
X88107500Y-110051000D02*
X89057500Y-110051000D01*
G75*
G02*
X89307500Y-110301000I0J-250000D01*
G01*
X89307500Y-110801000D01*
G75*
G02*
X89057500Y-111051000I-250000J0D01*
G01*
X88107500Y-111051000D01*
G75*
G02*
X87857500Y-110801000I0J250000D01*
G01*
X87857500Y-110301000D01*
G75*
G02*
X88107500Y-110051000I250000J0D01*
G01*
G37*
%TD*%
%TO.C,C27*%
G36*
G01*
X78348000Y-102595499D02*
X78348000Y-104795501D01*
G75*
G02*
X78098001Y-105045500I-249999J0D01*
G01*
X77447999Y-105045500D01*
G75*
G02*
X77198000Y-104795501I0J249999D01*
G01*
X77198000Y-102595499D01*
G75*
G02*
X77447999Y-102345500I249999J0D01*
G01*
X78098001Y-102345500D01*
G75*
G02*
X78348000Y-102595499I0J-249999D01*
G01*
G37*
G36*
G01*
X81298000Y-102595499D02*
X81298000Y-104795501D01*
G75*
G02*
X81048001Y-105045500I-249999J0D01*
G01*
X80397999Y-105045500D01*
G75*
G02*
X80148000Y-104795501I0J249999D01*
G01*
X80148000Y-102595499D01*
G75*
G02*
X80397999Y-102345500I249999J0D01*
G01*
X81048001Y-102345500D01*
G75*
G02*
X81298000Y-102595499I0J-249999D01*
G01*
G37*
%TD*%
%TO.C,C28*%
G36*
G01*
X90139500Y-110051000D02*
X91089500Y-110051000D01*
G75*
G02*
X91339500Y-110301000I0J-250000D01*
G01*
X91339500Y-110801000D01*
G75*
G02*
X91089500Y-111051000I-250000J0D01*
G01*
X90139500Y-111051000D01*
G75*
G02*
X89889500Y-110801000I0J250000D01*
G01*
X89889500Y-110301000D01*
G75*
G02*
X90139500Y-110051000I250000J0D01*
G01*
G37*
G36*
G01*
X90139500Y-108151000D02*
X91089500Y-108151000D01*
G75*
G02*
X91339500Y-108401000I0J-250000D01*
G01*
X91339500Y-108901000D01*
G75*
G02*
X91089500Y-109151000I-250000J0D01*
G01*
X90139500Y-109151000D01*
G75*
G02*
X89889500Y-108901000I0J250000D01*
G01*
X89889500Y-108401000D01*
G75*
G02*
X90139500Y-108151000I250000J0D01*
G01*
G37*
%TD*%
%TO.C,C31*%
G36*
G01*
X96888000Y-104935000D02*
X96888000Y-105885000D01*
G75*
G02*
X96638000Y-106135000I-250000J0D01*
G01*
X96138000Y-106135000D01*
G75*
G02*
X95888000Y-105885000I0J250000D01*
G01*
X95888000Y-104935000D01*
G75*
G02*
X96138000Y-104685000I250000J0D01*
G01*
X96638000Y-104685000D01*
G75*
G02*
X96888000Y-104935000I0J-250000D01*
G01*
G37*
G36*
G01*
X94988000Y-104935000D02*
X94988000Y-105885000D01*
G75*
G02*
X94738000Y-106135000I-250000J0D01*
G01*
X94238000Y-106135000D01*
G75*
G02*
X93988000Y-105885000I0J250000D01*
G01*
X93988000Y-104935000D01*
G75*
G02*
X94238000Y-104685000I250000J0D01*
G01*
X94738000Y-104685000D01*
G75*
G02*
X94988000Y-104935000I0J-250000D01*
G01*
G37*
%TD*%
%TO.C,C32*%
G36*
G01*
X92932000Y-106176000D02*
X92932000Y-106676000D01*
G75*
G02*
X92707000Y-106901000I-225000J0D01*
G01*
X92257000Y-106901000D01*
G75*
G02*
X92032000Y-106676000I0J225000D01*
G01*
X92032000Y-106176000D01*
G75*
G02*
X92257000Y-105951000I225000J0D01*
G01*
X92707000Y-105951000D01*
G75*
G02*
X92932000Y-106176000I0J-225000D01*
G01*
G37*
G36*
G01*
X91382000Y-106176000D02*
X91382000Y-106676000D01*
G75*
G02*
X91157000Y-106901000I-225000J0D01*
G01*
X90707000Y-106901000D01*
G75*
G02*
X90482000Y-106676000I0J225000D01*
G01*
X90482000Y-106176000D01*
G75*
G02*
X90707000Y-105951000I225000J0D01*
G01*
X91157000Y-105951000D01*
G75*
G02*
X91382000Y-106176000I0J-225000D01*
G01*
G37*
%TD*%
%TO.C,L1*%
G36*
G01*
X60517750Y-132378000D02*
X60005250Y-132378000D01*
G75*
G02*
X59786500Y-132159250I0J218750D01*
G01*
X59786500Y-131721750D01*
G75*
G02*
X60005250Y-131503000I218750J0D01*
G01*
X60517750Y-131503000D01*
G75*
G02*
X60736500Y-131721750I0J-218750D01*
G01*
X60736500Y-132159250D01*
G75*
G02*
X60517750Y-132378000I-218750J0D01*
G01*
G37*
G36*
G01*
X60517750Y-130803000D02*
X60005250Y-130803000D01*
G75*
G02*
X59786500Y-130584250I0J218750D01*
G01*
X59786500Y-130146750D01*
G75*
G02*
X60005250Y-129928000I218750J0D01*
G01*
X60517750Y-129928000D01*
G75*
G02*
X60736500Y-130146750I0J-218750D01*
G01*
X60736500Y-130584250D01*
G75*
G02*
X60517750Y-130803000I-218750J0D01*
G01*
G37*
%TD*%
%TO.C,L2*%
G36*
G01*
X62168750Y-130777500D02*
X61656250Y-130777500D01*
G75*
G02*
X61437500Y-130558750I0J218750D01*
G01*
X61437500Y-130121250D01*
G75*
G02*
X61656250Y-129902500I218750J0D01*
G01*
X62168750Y-129902500D01*
G75*
G02*
X62387500Y-130121250I0J-218750D01*
G01*
X62387500Y-130558750D01*
G75*
G02*
X62168750Y-130777500I-218750J0D01*
G01*
G37*
G36*
G01*
X62168750Y-132352500D02*
X61656250Y-132352500D01*
G75*
G02*
X61437500Y-132133750I0J218750D01*
G01*
X61437500Y-131696250D01*
G75*
G02*
X61656250Y-131477500I218750J0D01*
G01*
X62168750Y-131477500D01*
G75*
G02*
X62387500Y-131696250I0J-218750D01*
G01*
X62387500Y-132133750D01*
G75*
G02*
X62168750Y-132352500I-218750J0D01*
G01*
G37*
%TD*%
%TO.C,L3*%
G36*
G01*
X63819750Y-130777500D02*
X63307250Y-130777500D01*
G75*
G02*
X63088500Y-130558750I0J218750D01*
G01*
X63088500Y-130121250D01*
G75*
G02*
X63307250Y-129902500I218750J0D01*
G01*
X63819750Y-129902500D01*
G75*
G02*
X64038500Y-130121250I0J-218750D01*
G01*
X64038500Y-130558750D01*
G75*
G02*
X63819750Y-130777500I-218750J0D01*
G01*
G37*
G36*
G01*
X63819750Y-132352500D02*
X63307250Y-132352500D01*
G75*
G02*
X63088500Y-132133750I0J218750D01*
G01*
X63088500Y-131696250D01*
G75*
G02*
X63307250Y-131477500I218750J0D01*
G01*
X63819750Y-131477500D01*
G75*
G02*
X64038500Y-131696250I0J-218750D01*
G01*
X64038500Y-132133750D01*
G75*
G02*
X63819750Y-132352500I-218750J0D01*
G01*
G37*
%TD*%
D13*
%TO.C,D4*%
X56163500Y-122237500D03*
X58263500Y-122237500D03*
%TD*%
%TO.C,D5*%
X62010000Y-114300000D03*
X59910000Y-114300000D03*
%TD*%
%TO.C,L4*%
G36*
G01*
X65470750Y-132378000D02*
X64958250Y-132378000D01*
G75*
G02*
X64739500Y-132159250I0J218750D01*
G01*
X64739500Y-131721750D01*
G75*
G02*
X64958250Y-131503000I218750J0D01*
G01*
X65470750Y-131503000D01*
G75*
G02*
X65689500Y-131721750I0J-218750D01*
G01*
X65689500Y-132159250D01*
G75*
G02*
X65470750Y-132378000I-218750J0D01*
G01*
G37*
G36*
G01*
X65470750Y-130803000D02*
X64958250Y-130803000D01*
G75*
G02*
X64739500Y-130584250I0J218750D01*
G01*
X64739500Y-130146750D01*
G75*
G02*
X64958250Y-129928000I218750J0D01*
G01*
X65470750Y-129928000D01*
G75*
G02*
X65689500Y-130146750I0J-218750D01*
G01*
X65689500Y-130584250D01*
G75*
G02*
X65470750Y-130803000I-218750J0D01*
G01*
G37*
%TD*%
%TO.C,FB1*%
G36*
G01*
X81146000Y-100962750D02*
X81146000Y-101475250D01*
G75*
G02*
X80927250Y-101694000I-218750J0D01*
G01*
X80489750Y-101694000D01*
G75*
G02*
X80271000Y-101475250I0J218750D01*
G01*
X80271000Y-100962750D01*
G75*
G02*
X80489750Y-100744000I218750J0D01*
G01*
X80927250Y-100744000D01*
G75*
G02*
X81146000Y-100962750I0J-218750D01*
G01*
G37*
G36*
G01*
X79571000Y-100962750D02*
X79571000Y-101475250D01*
G75*
G02*
X79352250Y-101694000I-218750J0D01*
G01*
X78914750Y-101694000D01*
G75*
G02*
X78696000Y-101475250I0J218750D01*
G01*
X78696000Y-100962750D01*
G75*
G02*
X78914750Y-100744000I218750J0D01*
G01*
X79352250Y-100744000D01*
G75*
G02*
X79571000Y-100962750I0J-218750D01*
G01*
G37*
%TD*%
D14*
%TO.C,MOT_DC*%
X63754000Y-80835500D03*
D15*
X72754000Y-75005500D03*
X77754000Y-75105500D03*
X72754000Y-65105500D03*
X77754000Y-65105500D03*
D14*
X63754000Y-59375500D03*
%TD*%
D16*
%TO.C,SWD*%
X54038500Y-119443500D03*
D17*
X52768500Y-119443500D03*
X54038500Y-120713500D03*
X52768500Y-120713500D03*
X54038500Y-121983500D03*
X52768500Y-121983500D03*
%TD*%
D18*
%TO.C,EXTERNAL UART*%
X57277000Y-106736500D03*
X57277000Y-109236500D03*
X57277000Y-111736500D03*
G36*
G01*
X58002000Y-115086500D02*
X56552000Y-115086500D01*
G75*
G02*
X56302000Y-114836500I0J250000D01*
G01*
X56302000Y-113636500D01*
G75*
G02*
X56552000Y-113386500I250000J0D01*
G01*
X58002000Y-113386500D01*
G75*
G02*
X58252000Y-113636500I0J-250000D01*
G01*
X58252000Y-114836500D01*
G75*
G02*
X58002000Y-115086500I-250000J0D01*
G01*
G37*
%TD*%
D15*
%TO.C,MOT_AC*%
X136398000Y-60452000D03*
X127398000Y-66182000D03*
X122398000Y-66182000D03*
X127398000Y-76182000D03*
X122398000Y-76182000D03*
X122398000Y-86182000D03*
X127398000Y-86182000D03*
X136398000Y-91912000D03*
%TD*%
D19*
%TO.C,Q1*%
X66818000Y-127066000D03*
X66818000Y-128966000D03*
X68818000Y-128016000D03*
%TD*%
%TO.C,R6*%
G36*
G01*
X60536500Y-127654000D02*
X59986500Y-127654000D01*
G75*
G02*
X59786500Y-127454000I0J200000D01*
G01*
X59786500Y-127054000D01*
G75*
G02*
X59986500Y-126854000I200000J0D01*
G01*
X60536500Y-126854000D01*
G75*
G02*
X60736500Y-127054000I0J-200000D01*
G01*
X60736500Y-127454000D01*
G75*
G02*
X60536500Y-127654000I-200000J0D01*
G01*
G37*
G36*
G01*
X60536500Y-129304000D02*
X59986500Y-129304000D01*
G75*
G02*
X59786500Y-129104000I0J200000D01*
G01*
X59786500Y-128704000D01*
G75*
G02*
X59986500Y-128504000I200000J0D01*
G01*
X60536500Y-128504000D01*
G75*
G02*
X60736500Y-128704000I0J-200000D01*
G01*
X60736500Y-129104000D01*
G75*
G02*
X60536500Y-129304000I-200000J0D01*
G01*
G37*
%TD*%
%TO.C,R7*%
G36*
G01*
X62187500Y-127655000D02*
X61637500Y-127655000D01*
G75*
G02*
X61437500Y-127455000I0J200000D01*
G01*
X61437500Y-127055000D01*
G75*
G02*
X61637500Y-126855000I200000J0D01*
G01*
X62187500Y-126855000D01*
G75*
G02*
X62387500Y-127055000I0J-200000D01*
G01*
X62387500Y-127455000D01*
G75*
G02*
X62187500Y-127655000I-200000J0D01*
G01*
G37*
G36*
G01*
X62187500Y-129305000D02*
X61637500Y-129305000D01*
G75*
G02*
X61437500Y-129105000I0J200000D01*
G01*
X61437500Y-128705000D01*
G75*
G02*
X61637500Y-128505000I200000J0D01*
G01*
X62187500Y-128505000D01*
G75*
G02*
X62387500Y-128705000I0J-200000D01*
G01*
X62387500Y-129105000D01*
G75*
G02*
X62187500Y-129305000I-200000J0D01*
G01*
G37*
%TD*%
%TO.C,R8*%
G36*
G01*
X63838500Y-127654500D02*
X63288500Y-127654500D01*
G75*
G02*
X63088500Y-127454500I0J200000D01*
G01*
X63088500Y-127054500D01*
G75*
G02*
X63288500Y-126854500I200000J0D01*
G01*
X63838500Y-126854500D01*
G75*
G02*
X64038500Y-127054500I0J-200000D01*
G01*
X64038500Y-127454500D01*
G75*
G02*
X63838500Y-127654500I-200000J0D01*
G01*
G37*
G36*
G01*
X63838500Y-129304500D02*
X63288500Y-129304500D01*
G75*
G02*
X63088500Y-129104500I0J200000D01*
G01*
X63088500Y-128704500D01*
G75*
G02*
X63288500Y-128504500I200000J0D01*
G01*
X63838500Y-128504500D01*
G75*
G02*
X64038500Y-128704500I0J-200000D01*
G01*
X64038500Y-129104500D01*
G75*
G02*
X63838500Y-129304500I-200000J0D01*
G01*
G37*
%TD*%
%TO.C,R9*%
G36*
G01*
X139370000Y-98429500D02*
X139370000Y-98979500D01*
G75*
G02*
X139170000Y-99179500I-200000J0D01*
G01*
X138770000Y-99179500D01*
G75*
G02*
X138570000Y-98979500I0J200000D01*
G01*
X138570000Y-98429500D01*
G75*
G02*
X138770000Y-98229500I200000J0D01*
G01*
X139170000Y-98229500D01*
G75*
G02*
X139370000Y-98429500I0J-200000D01*
G01*
G37*
G36*
G01*
X137720000Y-98429500D02*
X137720000Y-98979500D01*
G75*
G02*
X137520000Y-99179500I-200000J0D01*
G01*
X137120000Y-99179500D01*
G75*
G02*
X136920000Y-98979500I0J200000D01*
G01*
X136920000Y-98429500D01*
G75*
G02*
X137120000Y-98229500I200000J0D01*
G01*
X137520000Y-98229500D01*
G75*
G02*
X137720000Y-98429500I0J-200000D01*
G01*
G37*
%TD*%
%TO.C,R10*%
G36*
G01*
X139370000Y-101527500D02*
X139370000Y-102077500D01*
G75*
G02*
X139170000Y-102277500I-200000J0D01*
G01*
X138770000Y-102277500D01*
G75*
G02*
X138570000Y-102077500I0J200000D01*
G01*
X138570000Y-101527500D01*
G75*
G02*
X138770000Y-101327500I200000J0D01*
G01*
X139170000Y-101327500D01*
G75*
G02*
X139370000Y-101527500I0J-200000D01*
G01*
G37*
G36*
G01*
X137720000Y-101527500D02*
X137720000Y-102077500D01*
G75*
G02*
X137520000Y-102277500I-200000J0D01*
G01*
X137120000Y-102277500D01*
G75*
G02*
X136920000Y-102077500I0J200000D01*
G01*
X136920000Y-101527500D01*
G75*
G02*
X137120000Y-101327500I200000J0D01*
G01*
X137520000Y-101327500D01*
G75*
G02*
X137720000Y-101527500I0J-200000D01*
G01*
G37*
%TD*%
%TO.C,R11*%
G36*
G01*
X82190000Y-109811500D02*
X81640000Y-109811500D01*
G75*
G02*
X81440000Y-109611500I0J200000D01*
G01*
X81440000Y-109211500D01*
G75*
G02*
X81640000Y-109011500I200000J0D01*
G01*
X82190000Y-109011500D01*
G75*
G02*
X82390000Y-109211500I0J-200000D01*
G01*
X82390000Y-109611500D01*
G75*
G02*
X82190000Y-109811500I-200000J0D01*
G01*
G37*
G36*
G01*
X82190000Y-111461500D02*
X81640000Y-111461500D01*
G75*
G02*
X81440000Y-111261500I0J200000D01*
G01*
X81440000Y-110861500D01*
G75*
G02*
X81640000Y-110661500I200000J0D01*
G01*
X82190000Y-110661500D01*
G75*
G02*
X82390000Y-110861500I0J-200000D01*
G01*
X82390000Y-111261500D01*
G75*
G02*
X82190000Y-111461500I-200000J0D01*
G01*
G37*
%TD*%
%TO.C,R12*%
G36*
G01*
X80666000Y-111460500D02*
X80116000Y-111460500D01*
G75*
G02*
X79916000Y-111260500I0J200000D01*
G01*
X79916000Y-110860500D01*
G75*
G02*
X80116000Y-110660500I200000J0D01*
G01*
X80666000Y-110660500D01*
G75*
G02*
X80866000Y-110860500I0J-200000D01*
G01*
X80866000Y-111260500D01*
G75*
G02*
X80666000Y-111460500I-200000J0D01*
G01*
G37*
G36*
G01*
X80666000Y-109810500D02*
X80116000Y-109810500D01*
G75*
G02*
X79916000Y-109610500I0J200000D01*
G01*
X79916000Y-109210500D01*
G75*
G02*
X80116000Y-109010500I200000J0D01*
G01*
X80666000Y-109010500D01*
G75*
G02*
X80866000Y-109210500I0J-200000D01*
G01*
X80866000Y-109610500D01*
G75*
G02*
X80666000Y-109810500I-200000J0D01*
G01*
G37*
%TD*%
%TO.C,R13*%
G36*
G01*
X77618000Y-109811000D02*
X77068000Y-109811000D01*
G75*
G02*
X76868000Y-109611000I0J200000D01*
G01*
X76868000Y-109211000D01*
G75*
G02*
X77068000Y-109011000I200000J0D01*
G01*
X77618000Y-109011000D01*
G75*
G02*
X77818000Y-109211000I0J-200000D01*
G01*
X77818000Y-109611000D01*
G75*
G02*
X77618000Y-109811000I-200000J0D01*
G01*
G37*
G36*
G01*
X77618000Y-111461000D02*
X77068000Y-111461000D01*
G75*
G02*
X76868000Y-111261000I0J200000D01*
G01*
X76868000Y-110861000D01*
G75*
G02*
X77068000Y-110661000I200000J0D01*
G01*
X77618000Y-110661000D01*
G75*
G02*
X77818000Y-110861000I0J-200000D01*
G01*
X77818000Y-111261000D01*
G75*
G02*
X77618000Y-111461000I-200000J0D01*
G01*
G37*
%TD*%
%TO.C,R14*%
G36*
G01*
X83714000Y-111461000D02*
X83164000Y-111461000D01*
G75*
G02*
X82964000Y-111261000I0J200000D01*
G01*
X82964000Y-110861000D01*
G75*
G02*
X83164000Y-110661000I200000J0D01*
G01*
X83714000Y-110661000D01*
G75*
G02*
X83914000Y-110861000I0J-200000D01*
G01*
X83914000Y-111261000D01*
G75*
G02*
X83714000Y-111461000I-200000J0D01*
G01*
G37*
G36*
G01*
X83714000Y-109811000D02*
X83164000Y-109811000D01*
G75*
G02*
X82964000Y-109611000I0J200000D01*
G01*
X82964000Y-109211000D01*
G75*
G02*
X83164000Y-109011000I200000J0D01*
G01*
X83714000Y-109011000D01*
G75*
G02*
X83914000Y-109211000I0J-200000D01*
G01*
X83914000Y-109611000D01*
G75*
G02*
X83714000Y-109811000I-200000J0D01*
G01*
G37*
%TD*%
%TO.C,R15*%
G36*
G01*
X74972500Y-123743000D02*
X75522500Y-123743000D01*
G75*
G02*
X75722500Y-123943000I0J-200000D01*
G01*
X75722500Y-124343000D01*
G75*
G02*
X75522500Y-124543000I-200000J0D01*
G01*
X74972500Y-124543000D01*
G75*
G02*
X74772500Y-124343000I0J200000D01*
G01*
X74772500Y-123943000D01*
G75*
G02*
X74972500Y-123743000I200000J0D01*
G01*
G37*
G36*
G01*
X74972500Y-125393000D02*
X75522500Y-125393000D01*
G75*
G02*
X75722500Y-125593000I0J-200000D01*
G01*
X75722500Y-125993000D01*
G75*
G02*
X75522500Y-126193000I-200000J0D01*
G01*
X74972500Y-126193000D01*
G75*
G02*
X74772500Y-125993000I0J200000D01*
G01*
X74772500Y-125593000D01*
G75*
G02*
X74972500Y-125393000I200000J0D01*
G01*
G37*
%TD*%
%TO.C,R16*%
G36*
G01*
X68661500Y-116501500D02*
X68661500Y-117051500D01*
G75*
G02*
X68461500Y-117251500I-200000J0D01*
G01*
X68061500Y-117251500D01*
G75*
G02*
X67861500Y-117051500I0J200000D01*
G01*
X67861500Y-116501500D01*
G75*
G02*
X68061500Y-116301500I200000J0D01*
G01*
X68461500Y-116301500D01*
G75*
G02*
X68661500Y-116501500I0J-200000D01*
G01*
G37*
G36*
G01*
X67011500Y-116501500D02*
X67011500Y-117051500D01*
G75*
G02*
X66811500Y-117251500I-200000J0D01*
G01*
X66411500Y-117251500D01*
G75*
G02*
X66211500Y-117051500I0J200000D01*
G01*
X66211500Y-116501500D01*
G75*
G02*
X66411500Y-116301500I200000J0D01*
G01*
X66811500Y-116301500D01*
G75*
G02*
X67011500Y-116501500I0J-200000D01*
G01*
G37*
%TD*%
%TO.C,R17*%
G36*
G01*
X68662000Y-118025500D02*
X68662000Y-118575500D01*
G75*
G02*
X68462000Y-118775500I-200000J0D01*
G01*
X68062000Y-118775500D01*
G75*
G02*
X67862000Y-118575500I0J200000D01*
G01*
X67862000Y-118025500D01*
G75*
G02*
X68062000Y-117825500I200000J0D01*
G01*
X68462000Y-117825500D01*
G75*
G02*
X68662000Y-118025500I0J-200000D01*
G01*
G37*
G36*
G01*
X67012000Y-118025500D02*
X67012000Y-118575500D01*
G75*
G02*
X66812000Y-118775500I-200000J0D01*
G01*
X66412000Y-118775500D01*
G75*
G02*
X66212000Y-118575500I0J200000D01*
G01*
X66212000Y-118025500D01*
G75*
G02*
X66412000Y-117825500I200000J0D01*
G01*
X66812000Y-117825500D01*
G75*
G02*
X67012000Y-118025500I0J-200000D01*
G01*
G37*
%TD*%
%TO.C,R18*%
G36*
G01*
X71395000Y-109811500D02*
X70845000Y-109811500D01*
G75*
G02*
X70645000Y-109611500I0J200000D01*
G01*
X70645000Y-109211500D01*
G75*
G02*
X70845000Y-109011500I200000J0D01*
G01*
X71395000Y-109011500D01*
G75*
G02*
X71595000Y-109211500I0J-200000D01*
G01*
X71595000Y-109611500D01*
G75*
G02*
X71395000Y-109811500I-200000J0D01*
G01*
G37*
G36*
G01*
X71395000Y-111461500D02*
X70845000Y-111461500D01*
G75*
G02*
X70645000Y-111261500I0J200000D01*
G01*
X70645000Y-110861500D01*
G75*
G02*
X70845000Y-110661500I200000J0D01*
G01*
X71395000Y-110661500D01*
G75*
G02*
X71595000Y-110861500I0J-200000D01*
G01*
X71595000Y-111261500D01*
G75*
G02*
X71395000Y-111461500I-200000J0D01*
G01*
G37*
%TD*%
%TO.C,R19*%
G36*
G01*
X76094000Y-111461500D02*
X75544000Y-111461500D01*
G75*
G02*
X75344000Y-111261500I0J200000D01*
G01*
X75344000Y-110861500D01*
G75*
G02*
X75544000Y-110661500I200000J0D01*
G01*
X76094000Y-110661500D01*
G75*
G02*
X76294000Y-110861500I0J-200000D01*
G01*
X76294000Y-111261500D01*
G75*
G02*
X76094000Y-111461500I-200000J0D01*
G01*
G37*
G36*
G01*
X76094000Y-109811500D02*
X75544000Y-109811500D01*
G75*
G02*
X75344000Y-109611500I0J200000D01*
G01*
X75344000Y-109211500D01*
G75*
G02*
X75544000Y-109011500I200000J0D01*
G01*
X76094000Y-109011500D01*
G75*
G02*
X76294000Y-109211500I0J-200000D01*
G01*
X76294000Y-109611500D01*
G75*
G02*
X76094000Y-109811500I-200000J0D01*
G01*
G37*
%TD*%
%TO.C,R20*%
G36*
G01*
X138250500Y-94779500D02*
X138800500Y-94779500D01*
G75*
G02*
X139000500Y-94979500I0J-200000D01*
G01*
X139000500Y-95379500D01*
G75*
G02*
X138800500Y-95579500I-200000J0D01*
G01*
X138250500Y-95579500D01*
G75*
G02*
X138050500Y-95379500I0J200000D01*
G01*
X138050500Y-94979500D01*
G75*
G02*
X138250500Y-94779500I200000J0D01*
G01*
G37*
G36*
G01*
X138250500Y-96429500D02*
X138800500Y-96429500D01*
G75*
G02*
X139000500Y-96629500I0J-200000D01*
G01*
X139000500Y-97029500D01*
G75*
G02*
X138800500Y-97229500I-200000J0D01*
G01*
X138250500Y-97229500D01*
G75*
G02*
X138050500Y-97029500I0J200000D01*
G01*
X138050500Y-96629500D01*
G75*
G02*
X138250500Y-96429500I200000J0D01*
G01*
G37*
%TD*%
%TO.C,R21*%
G36*
G01*
X137720000Y-104639000D02*
X137720000Y-105189000D01*
G75*
G02*
X137520000Y-105389000I-200000J0D01*
G01*
X137120000Y-105389000D01*
G75*
G02*
X136920000Y-105189000I0J200000D01*
G01*
X136920000Y-104639000D01*
G75*
G02*
X137120000Y-104439000I200000J0D01*
G01*
X137520000Y-104439000D01*
G75*
G02*
X137720000Y-104639000I0J-200000D01*
G01*
G37*
G36*
G01*
X139370000Y-104639000D02*
X139370000Y-105189000D01*
G75*
G02*
X139170000Y-105389000I-200000J0D01*
G01*
X138770000Y-105389000D01*
G75*
G02*
X138570000Y-105189000I0J200000D01*
G01*
X138570000Y-104639000D01*
G75*
G02*
X138770000Y-104439000I200000J0D01*
G01*
X139170000Y-104439000D01*
G75*
G02*
X139370000Y-104639000I0J-200000D01*
G01*
G37*
%TD*%
%TO.C,R22*%
G36*
G01*
X139838000Y-96430000D02*
X140388000Y-96430000D01*
G75*
G02*
X140588000Y-96630000I0J-200000D01*
G01*
X140588000Y-97030000D01*
G75*
G02*
X140388000Y-97230000I-200000J0D01*
G01*
X139838000Y-97230000D01*
G75*
G02*
X139638000Y-97030000I0J200000D01*
G01*
X139638000Y-96630000D01*
G75*
G02*
X139838000Y-96430000I200000J0D01*
G01*
G37*
G36*
G01*
X139838000Y-94780000D02*
X140388000Y-94780000D01*
G75*
G02*
X140588000Y-94980000I0J-200000D01*
G01*
X140588000Y-95380000D01*
G75*
G02*
X140388000Y-95580000I-200000J0D01*
G01*
X139838000Y-95580000D01*
G75*
G02*
X139638000Y-95380000I0J200000D01*
G01*
X139638000Y-94980000D01*
G75*
G02*
X139838000Y-94780000I200000J0D01*
G01*
G37*
%TD*%
%TO.C,R23*%
G36*
G01*
X137720500Y-99953500D02*
X137720500Y-100503500D01*
G75*
G02*
X137520500Y-100703500I-200000J0D01*
G01*
X137120500Y-100703500D01*
G75*
G02*
X136920500Y-100503500I0J200000D01*
G01*
X136920500Y-99953500D01*
G75*
G02*
X137120500Y-99753500I200000J0D01*
G01*
X137520500Y-99753500D01*
G75*
G02*
X137720500Y-99953500I0J-200000D01*
G01*
G37*
G36*
G01*
X139370500Y-99953500D02*
X139370500Y-100503500D01*
G75*
G02*
X139170500Y-100703500I-200000J0D01*
G01*
X138770500Y-100703500D01*
G75*
G02*
X138570500Y-100503500I0J200000D01*
G01*
X138570500Y-99953500D01*
G75*
G02*
X138770500Y-99753500I200000J0D01*
G01*
X139170500Y-99753500D01*
G75*
G02*
X139370500Y-99953500I0J-200000D01*
G01*
G37*
%TD*%
%TO.C,R24*%
G36*
G01*
X139369500Y-103115000D02*
X139369500Y-103665000D01*
G75*
G02*
X139169500Y-103865000I-200000J0D01*
G01*
X138769500Y-103865000D01*
G75*
G02*
X138569500Y-103665000I0J200000D01*
G01*
X138569500Y-103115000D01*
G75*
G02*
X138769500Y-102915000I200000J0D01*
G01*
X139169500Y-102915000D01*
G75*
G02*
X139369500Y-103115000I0J-200000D01*
G01*
G37*
G36*
G01*
X137719500Y-103115000D02*
X137719500Y-103665000D01*
G75*
G02*
X137519500Y-103865000I-200000J0D01*
G01*
X137119500Y-103865000D01*
G75*
G02*
X136919500Y-103665000I0J200000D01*
G01*
X136919500Y-103115000D01*
G75*
G02*
X137119500Y-102915000I200000J0D01*
G01*
X137519500Y-102915000D01*
G75*
G02*
X137719500Y-103115000I0J-200000D01*
G01*
G37*
%TD*%
%TO.C,R25*%
G36*
G01*
X137720000Y-106163000D02*
X137720000Y-106713000D01*
G75*
G02*
X137520000Y-106913000I-200000J0D01*
G01*
X137120000Y-106913000D01*
G75*
G02*
X136920000Y-106713000I0J200000D01*
G01*
X136920000Y-106163000D01*
G75*
G02*
X137120000Y-105963000I200000J0D01*
G01*
X137520000Y-105963000D01*
G75*
G02*
X137720000Y-106163000I0J-200000D01*
G01*
G37*
G36*
G01*
X139370000Y-106163000D02*
X139370000Y-106713000D01*
G75*
G02*
X139170000Y-106913000I-200000J0D01*
G01*
X138770000Y-106913000D01*
G75*
G02*
X138570000Y-106713000I0J200000D01*
G01*
X138570000Y-106163000D01*
G75*
G02*
X138770000Y-105963000I200000J0D01*
G01*
X139170000Y-105963000D01*
G75*
G02*
X139370000Y-106163000I0J-200000D01*
G01*
G37*
%TD*%
%TO.C,R26*%
G36*
G01*
X74020000Y-110724500D02*
X74570000Y-110724500D01*
G75*
G02*
X74770000Y-110924500I0J-200000D01*
G01*
X74770000Y-111324500D01*
G75*
G02*
X74570000Y-111524500I-200000J0D01*
G01*
X74020000Y-111524500D01*
G75*
G02*
X73820000Y-111324500I0J200000D01*
G01*
X73820000Y-110924500D01*
G75*
G02*
X74020000Y-110724500I200000J0D01*
G01*
G37*
G36*
G01*
X74020000Y-109074500D02*
X74570000Y-109074500D01*
G75*
G02*
X74770000Y-109274500I0J-200000D01*
G01*
X74770000Y-109674500D01*
G75*
G02*
X74570000Y-109874500I-200000J0D01*
G01*
X74020000Y-109874500D01*
G75*
G02*
X73820000Y-109674500I0J200000D01*
G01*
X73820000Y-109274500D01*
G75*
G02*
X74020000Y-109074500I200000J0D01*
G01*
G37*
%TD*%
%TO.C,R27*%
G36*
G01*
X69871000Y-109810500D02*
X69321000Y-109810500D01*
G75*
G02*
X69121000Y-109610500I0J200000D01*
G01*
X69121000Y-109210500D01*
G75*
G02*
X69321000Y-109010500I200000J0D01*
G01*
X69871000Y-109010500D01*
G75*
G02*
X70071000Y-109210500I0J-200000D01*
G01*
X70071000Y-109610500D01*
G75*
G02*
X69871000Y-109810500I-200000J0D01*
G01*
G37*
G36*
G01*
X69871000Y-111460500D02*
X69321000Y-111460500D01*
G75*
G02*
X69121000Y-111260500I0J200000D01*
G01*
X69121000Y-110860500D01*
G75*
G02*
X69321000Y-110660500I200000J0D01*
G01*
X69871000Y-110660500D01*
G75*
G02*
X70071000Y-110860500I0J-200000D01*
G01*
X70071000Y-111260500D01*
G75*
G02*
X69871000Y-111460500I-200000J0D01*
G01*
G37*
%TD*%
%TO.C,R28*%
G36*
G01*
X66212000Y-120099500D02*
X66212000Y-119549500D01*
G75*
G02*
X66412000Y-119349500I200000J0D01*
G01*
X66812000Y-119349500D01*
G75*
G02*
X67012000Y-119549500I0J-200000D01*
G01*
X67012000Y-120099500D01*
G75*
G02*
X66812000Y-120299500I-200000J0D01*
G01*
X66412000Y-120299500D01*
G75*
G02*
X66212000Y-120099500I0J200000D01*
G01*
G37*
G36*
G01*
X67862000Y-120099500D02*
X67862000Y-119549500D01*
G75*
G02*
X68062000Y-119349500I200000J0D01*
G01*
X68462000Y-119349500D01*
G75*
G02*
X68662000Y-119549500I0J-200000D01*
G01*
X68662000Y-120099500D01*
G75*
G02*
X68462000Y-120299500I-200000J0D01*
G01*
X68062000Y-120299500D01*
G75*
G02*
X67862000Y-120099500I0J200000D01*
G01*
G37*
%TD*%
%TO.C,R29*%
G36*
G01*
X84436500Y-117242000D02*
X84436500Y-116692000D01*
G75*
G02*
X84636500Y-116492000I200000J0D01*
G01*
X85036500Y-116492000D01*
G75*
G02*
X85236500Y-116692000I0J-200000D01*
G01*
X85236500Y-117242000D01*
G75*
G02*
X85036500Y-117442000I-200000J0D01*
G01*
X84636500Y-117442000D01*
G75*
G02*
X84436500Y-117242000I0J200000D01*
G01*
G37*
G36*
G01*
X86086500Y-117242000D02*
X86086500Y-116692000D01*
G75*
G02*
X86286500Y-116492000I200000J0D01*
G01*
X86686500Y-116492000D01*
G75*
G02*
X86886500Y-116692000I0J-200000D01*
G01*
X86886500Y-117242000D01*
G75*
G02*
X86686500Y-117442000I-200000J0D01*
G01*
X86286500Y-117442000D01*
G75*
G02*
X86086500Y-117242000I0J200000D01*
G01*
G37*
%TD*%
%TO.C,R30*%
G36*
G01*
X84436500Y-120290000D02*
X84436500Y-119740000D01*
G75*
G02*
X84636500Y-119540000I200000J0D01*
G01*
X85036500Y-119540000D01*
G75*
G02*
X85236500Y-119740000I0J-200000D01*
G01*
X85236500Y-120290000D01*
G75*
G02*
X85036500Y-120490000I-200000J0D01*
G01*
X84636500Y-120490000D01*
G75*
G02*
X84436500Y-120290000I0J200000D01*
G01*
G37*
G36*
G01*
X86086500Y-120290000D02*
X86086500Y-119740000D01*
G75*
G02*
X86286500Y-119540000I200000J0D01*
G01*
X86686500Y-119540000D01*
G75*
G02*
X86886500Y-119740000I0J-200000D01*
G01*
X86886500Y-120290000D01*
G75*
G02*
X86686500Y-120490000I-200000J0D01*
G01*
X86286500Y-120490000D01*
G75*
G02*
X86086500Y-120290000I0J200000D01*
G01*
G37*
%TD*%
%TO.C,R31*%
G36*
G01*
X86086500Y-123401500D02*
X86086500Y-122851500D01*
G75*
G02*
X86286500Y-122651500I200000J0D01*
G01*
X86686500Y-122651500D01*
G75*
G02*
X86886500Y-122851500I0J-200000D01*
G01*
X86886500Y-123401500D01*
G75*
G02*
X86686500Y-123601500I-200000J0D01*
G01*
X86286500Y-123601500D01*
G75*
G02*
X86086500Y-123401500I0J200000D01*
G01*
G37*
G36*
G01*
X84436500Y-123401500D02*
X84436500Y-122851500D01*
G75*
G02*
X84636500Y-122651500I200000J0D01*
G01*
X85036500Y-122651500D01*
G75*
G02*
X85236500Y-122851500I0J-200000D01*
G01*
X85236500Y-123401500D01*
G75*
G02*
X85036500Y-123601500I-200000J0D01*
G01*
X84636500Y-123601500D01*
G75*
G02*
X84436500Y-123401500I0J200000D01*
G01*
G37*
%TD*%
%TO.C,R32*%
G36*
G01*
X66212000Y-115527500D02*
X66212000Y-114977500D01*
G75*
G02*
X66412000Y-114777500I200000J0D01*
G01*
X66812000Y-114777500D01*
G75*
G02*
X67012000Y-114977500I0J-200000D01*
G01*
X67012000Y-115527500D01*
G75*
G02*
X66812000Y-115727500I-200000J0D01*
G01*
X66412000Y-115727500D01*
G75*
G02*
X66212000Y-115527500I0J200000D01*
G01*
G37*
G36*
G01*
X67862000Y-115527500D02*
X67862000Y-114977500D01*
G75*
G02*
X68062000Y-114777500I200000J0D01*
G01*
X68462000Y-114777500D01*
G75*
G02*
X68662000Y-114977500I0J-200000D01*
G01*
X68662000Y-115527500D01*
G75*
G02*
X68462000Y-115727500I-200000J0D01*
G01*
X68062000Y-115727500D01*
G75*
G02*
X67862000Y-115527500I0J200000D01*
G01*
G37*
%TD*%
%TO.C,R33*%
G36*
G01*
X78592000Y-109011000D02*
X79142000Y-109011000D01*
G75*
G02*
X79342000Y-109211000I0J-200000D01*
G01*
X79342000Y-109611000D01*
G75*
G02*
X79142000Y-109811000I-200000J0D01*
G01*
X78592000Y-109811000D01*
G75*
G02*
X78392000Y-109611000I0J200000D01*
G01*
X78392000Y-109211000D01*
G75*
G02*
X78592000Y-109011000I200000J0D01*
G01*
G37*
G36*
G01*
X78592000Y-110661000D02*
X79142000Y-110661000D01*
G75*
G02*
X79342000Y-110861000I0J-200000D01*
G01*
X79342000Y-111261000D01*
G75*
G02*
X79142000Y-111461000I-200000J0D01*
G01*
X78592000Y-111461000D01*
G75*
G02*
X78392000Y-111261000I0J200000D01*
G01*
X78392000Y-110861000D01*
G75*
G02*
X78592000Y-110661000I200000J0D01*
G01*
G37*
%TD*%
%TO.C,R34*%
G36*
G01*
X73998500Y-127844500D02*
X73448500Y-127844500D01*
G75*
G02*
X73248500Y-127644500I0J200000D01*
G01*
X73248500Y-127244500D01*
G75*
G02*
X73448500Y-127044500I200000J0D01*
G01*
X73998500Y-127044500D01*
G75*
G02*
X74198500Y-127244500I0J-200000D01*
G01*
X74198500Y-127644500D01*
G75*
G02*
X73998500Y-127844500I-200000J0D01*
G01*
G37*
G36*
G01*
X73998500Y-126194500D02*
X73448500Y-126194500D01*
G75*
G02*
X73248500Y-125994500I0J200000D01*
G01*
X73248500Y-125594500D01*
G75*
G02*
X73448500Y-125394500I200000J0D01*
G01*
X73998500Y-125394500D01*
G75*
G02*
X74198500Y-125594500I0J-200000D01*
G01*
X74198500Y-125994500D01*
G75*
G02*
X73998500Y-126194500I-200000J0D01*
G01*
G37*
%TD*%
%TO.C,R35*%
G36*
G01*
X65489500Y-129241000D02*
X64939500Y-129241000D01*
G75*
G02*
X64739500Y-129041000I0J200000D01*
G01*
X64739500Y-128641000D01*
G75*
G02*
X64939500Y-128441000I200000J0D01*
G01*
X65489500Y-128441000D01*
G75*
G02*
X65689500Y-128641000I0J-200000D01*
G01*
X65689500Y-129041000D01*
G75*
G02*
X65489500Y-129241000I-200000J0D01*
G01*
G37*
G36*
G01*
X65489500Y-127591000D02*
X64939500Y-127591000D01*
G75*
G02*
X64739500Y-127391000I0J200000D01*
G01*
X64739500Y-126991000D01*
G75*
G02*
X64939500Y-126791000I200000J0D01*
G01*
X65489500Y-126791000D01*
G75*
G02*
X65689500Y-126991000I0J-200000D01*
G01*
X65689500Y-127391000D01*
G75*
G02*
X65489500Y-127591000I-200000J0D01*
G01*
G37*
%TD*%
%TO.C,R38*%
G36*
G01*
X109197500Y-93825000D02*
X109197500Y-96675000D01*
G75*
G02*
X108947500Y-96925000I-250000J0D01*
G01*
X108222500Y-96925000D01*
G75*
G02*
X107972500Y-96675000I0J250000D01*
G01*
X107972500Y-93825000D01*
G75*
G02*
X108222500Y-93575000I250000J0D01*
G01*
X108947500Y-93575000D01*
G75*
G02*
X109197500Y-93825000I0J-250000D01*
G01*
G37*
G36*
G01*
X103272500Y-93825000D02*
X103272500Y-96675000D01*
G75*
G02*
X103022500Y-96925000I-250000J0D01*
G01*
X102297500Y-96925000D01*
G75*
G02*
X102047500Y-96675000I0J250000D01*
G01*
X102047500Y-93825000D01*
G75*
G02*
X102297500Y-93575000I250000J0D01*
G01*
X103022500Y-93575000D01*
G75*
G02*
X103272500Y-93825000I0J-250000D01*
G01*
G37*
%TD*%
%TO.C,R39*%
G36*
G01*
X103250500Y-78204000D02*
X103250500Y-81054000D01*
G75*
G02*
X103000500Y-81304000I-250000J0D01*
G01*
X102275500Y-81304000D01*
G75*
G02*
X102025500Y-81054000I0J250000D01*
G01*
X102025500Y-78204000D01*
G75*
G02*
X102275500Y-77954000I250000J0D01*
G01*
X103000500Y-77954000D01*
G75*
G02*
X103250500Y-78204000I0J-250000D01*
G01*
G37*
G36*
G01*
X109175500Y-78204000D02*
X109175500Y-81054000D01*
G75*
G02*
X108925500Y-81304000I-250000J0D01*
G01*
X108200500Y-81304000D01*
G75*
G02*
X107950500Y-81054000I0J250000D01*
G01*
X107950500Y-78204000D01*
G75*
G02*
X108200500Y-77954000I250000J0D01*
G01*
X108925500Y-77954000D01*
G75*
G02*
X109175500Y-78204000I0J-250000D01*
G01*
G37*
%TD*%
%TO.C,R40*%
G36*
G01*
X94151500Y-103970500D02*
X94151500Y-103420500D01*
G75*
G02*
X94351500Y-103220500I200000J0D01*
G01*
X94751500Y-103220500D01*
G75*
G02*
X94951500Y-103420500I0J-200000D01*
G01*
X94951500Y-103970500D01*
G75*
G02*
X94751500Y-104170500I-200000J0D01*
G01*
X94351500Y-104170500D01*
G75*
G02*
X94151500Y-103970500I0J200000D01*
G01*
G37*
G36*
G01*
X95801500Y-103970500D02*
X95801500Y-103420500D01*
G75*
G02*
X96001500Y-103220500I200000J0D01*
G01*
X96401500Y-103220500D01*
G75*
G02*
X96601500Y-103420500I0J-200000D01*
G01*
X96601500Y-103970500D01*
G75*
G02*
X96401500Y-104170500I-200000J0D01*
G01*
X96001500Y-104170500D01*
G75*
G02*
X95801500Y-103970500I0J200000D01*
G01*
G37*
%TD*%
%TO.C,R41*%
G36*
G01*
X94152500Y-102446500D02*
X94152500Y-101896500D01*
G75*
G02*
X94352500Y-101696500I200000J0D01*
G01*
X94752500Y-101696500D01*
G75*
G02*
X94952500Y-101896500I0J-200000D01*
G01*
X94952500Y-102446500D01*
G75*
G02*
X94752500Y-102646500I-200000J0D01*
G01*
X94352500Y-102646500D01*
G75*
G02*
X94152500Y-102446500I0J200000D01*
G01*
G37*
G36*
G01*
X95802500Y-102446500D02*
X95802500Y-101896500D01*
G75*
G02*
X96002500Y-101696500I200000J0D01*
G01*
X96402500Y-101696500D01*
G75*
G02*
X96602500Y-101896500I0J-200000D01*
G01*
X96602500Y-102446500D01*
G75*
G02*
X96402500Y-102646500I-200000J0D01*
G01*
X96002500Y-102646500D01*
G75*
G02*
X95802500Y-102446500I0J200000D01*
G01*
G37*
%TD*%
%TO.C,R42*%
G36*
G01*
X95802000Y-100922500D02*
X95802000Y-100372500D01*
G75*
G02*
X96002000Y-100172500I200000J0D01*
G01*
X96402000Y-100172500D01*
G75*
G02*
X96602000Y-100372500I0J-200000D01*
G01*
X96602000Y-100922500D01*
G75*
G02*
X96402000Y-101122500I-200000J0D01*
G01*
X96002000Y-101122500D01*
G75*
G02*
X95802000Y-100922500I0J200000D01*
G01*
G37*
G36*
G01*
X94152000Y-100922500D02*
X94152000Y-100372500D01*
G75*
G02*
X94352000Y-100172500I200000J0D01*
G01*
X94752000Y-100172500D01*
G75*
G02*
X94952000Y-100372500I0J-200000D01*
G01*
X94952000Y-100922500D01*
G75*
G02*
X94752000Y-101122500I-200000J0D01*
G01*
X94352000Y-101122500D01*
G75*
G02*
X94152000Y-100922500I0J200000D01*
G01*
G37*
%TD*%
%TO.C,R43*%
G36*
G01*
X94151500Y-99398500D02*
X94151500Y-98848500D01*
G75*
G02*
X94351500Y-98648500I200000J0D01*
G01*
X94751500Y-98648500D01*
G75*
G02*
X94951500Y-98848500I0J-200000D01*
G01*
X94951500Y-99398500D01*
G75*
G02*
X94751500Y-99598500I-200000J0D01*
G01*
X94351500Y-99598500D01*
G75*
G02*
X94151500Y-99398500I0J200000D01*
G01*
G37*
G36*
G01*
X95801500Y-99398500D02*
X95801500Y-98848500D01*
G75*
G02*
X96001500Y-98648500I200000J0D01*
G01*
X96401500Y-98648500D01*
G75*
G02*
X96601500Y-98848500I0J-200000D01*
G01*
X96601500Y-99398500D01*
G75*
G02*
X96401500Y-99598500I-200000J0D01*
G01*
X96001500Y-99598500D01*
G75*
G02*
X95801500Y-99398500I0J200000D01*
G01*
G37*
%TD*%
%TO.C,R44*%
G36*
G01*
X95802000Y-97874500D02*
X95802000Y-97324500D01*
G75*
G02*
X96002000Y-97124500I200000J0D01*
G01*
X96402000Y-97124500D01*
G75*
G02*
X96602000Y-97324500I0J-200000D01*
G01*
X96602000Y-97874500D01*
G75*
G02*
X96402000Y-98074500I-200000J0D01*
G01*
X96002000Y-98074500D01*
G75*
G02*
X95802000Y-97874500I0J200000D01*
G01*
G37*
G36*
G01*
X94152000Y-97874500D02*
X94152000Y-97324500D01*
G75*
G02*
X94352000Y-97124500I200000J0D01*
G01*
X94752000Y-97124500D01*
G75*
G02*
X94952000Y-97324500I0J-200000D01*
G01*
X94952000Y-97874500D01*
G75*
G02*
X94752000Y-98074500I-200000J0D01*
G01*
X94352000Y-98074500D01*
G75*
G02*
X94152000Y-97874500I0J200000D01*
G01*
G37*
%TD*%
%TO.C,R45*%
G36*
G01*
X89746500Y-95459000D02*
X89196500Y-95459000D01*
G75*
G02*
X88996500Y-95259000I0J200000D01*
G01*
X88996500Y-94859000D01*
G75*
G02*
X89196500Y-94659000I200000J0D01*
G01*
X89746500Y-94659000D01*
G75*
G02*
X89946500Y-94859000I0J-200000D01*
G01*
X89946500Y-95259000D01*
G75*
G02*
X89746500Y-95459000I-200000J0D01*
G01*
G37*
G36*
G01*
X89746500Y-93809000D02*
X89196500Y-93809000D01*
G75*
G02*
X88996500Y-93609000I0J200000D01*
G01*
X88996500Y-93209000D01*
G75*
G02*
X89196500Y-93009000I200000J0D01*
G01*
X89746500Y-93009000D01*
G75*
G02*
X89946500Y-93209000I0J-200000D01*
G01*
X89946500Y-93609000D01*
G75*
G02*
X89746500Y-93809000I-200000J0D01*
G01*
G37*
%TD*%
%TO.C,R46*%
G36*
G01*
X91270500Y-93808500D02*
X90720500Y-93808500D01*
G75*
G02*
X90520500Y-93608500I0J200000D01*
G01*
X90520500Y-93208500D01*
G75*
G02*
X90720500Y-93008500I200000J0D01*
G01*
X91270500Y-93008500D01*
G75*
G02*
X91470500Y-93208500I0J-200000D01*
G01*
X91470500Y-93608500D01*
G75*
G02*
X91270500Y-93808500I-200000J0D01*
G01*
G37*
G36*
G01*
X91270500Y-95458500D02*
X90720500Y-95458500D01*
G75*
G02*
X90520500Y-95258500I0J200000D01*
G01*
X90520500Y-94858500D01*
G75*
G02*
X90720500Y-94658500I200000J0D01*
G01*
X91270500Y-94658500D01*
G75*
G02*
X91470500Y-94858500I0J-200000D01*
G01*
X91470500Y-95258500D01*
G75*
G02*
X91270500Y-95458500I-200000J0D01*
G01*
G37*
%TD*%
%TO.C,R47*%
G36*
G01*
X92794500Y-95459000D02*
X92244500Y-95459000D01*
G75*
G02*
X92044500Y-95259000I0J200000D01*
G01*
X92044500Y-94859000D01*
G75*
G02*
X92244500Y-94659000I200000J0D01*
G01*
X92794500Y-94659000D01*
G75*
G02*
X92994500Y-94859000I0J-200000D01*
G01*
X92994500Y-95259000D01*
G75*
G02*
X92794500Y-95459000I-200000J0D01*
G01*
G37*
G36*
G01*
X92794500Y-93809000D02*
X92244500Y-93809000D01*
G75*
G02*
X92044500Y-93609000I0J200000D01*
G01*
X92044500Y-93209000D01*
G75*
G02*
X92244500Y-93009000I200000J0D01*
G01*
X92794500Y-93009000D01*
G75*
G02*
X92994500Y-93209000I0J-200000D01*
G01*
X92994500Y-93609000D01*
G75*
G02*
X92794500Y-93809000I-200000J0D01*
G01*
G37*
%TD*%
%TO.C,R48*%
G36*
G01*
X94318500Y-93809000D02*
X93768500Y-93809000D01*
G75*
G02*
X93568500Y-93609000I0J200000D01*
G01*
X93568500Y-93209000D01*
G75*
G02*
X93768500Y-93009000I200000J0D01*
G01*
X94318500Y-93009000D01*
G75*
G02*
X94518500Y-93209000I0J-200000D01*
G01*
X94518500Y-93609000D01*
G75*
G02*
X94318500Y-93809000I-200000J0D01*
G01*
G37*
G36*
G01*
X94318500Y-95459000D02*
X93768500Y-95459000D01*
G75*
G02*
X93568500Y-95259000I0J200000D01*
G01*
X93568500Y-94859000D01*
G75*
G02*
X93768500Y-94659000I200000J0D01*
G01*
X94318500Y-94659000D01*
G75*
G02*
X94518500Y-94859000I0J-200000D01*
G01*
X94518500Y-95259000D01*
G75*
G02*
X94318500Y-95459000I-200000J0D01*
G01*
G37*
%TD*%
%TO.C,R49*%
G36*
G01*
X95842500Y-95459000D02*
X95292500Y-95459000D01*
G75*
G02*
X95092500Y-95259000I0J200000D01*
G01*
X95092500Y-94859000D01*
G75*
G02*
X95292500Y-94659000I200000J0D01*
G01*
X95842500Y-94659000D01*
G75*
G02*
X96042500Y-94859000I0J-200000D01*
G01*
X96042500Y-95259000D01*
G75*
G02*
X95842500Y-95459000I-200000J0D01*
G01*
G37*
G36*
G01*
X95842500Y-93809000D02*
X95292500Y-93809000D01*
G75*
G02*
X95092500Y-93609000I0J200000D01*
G01*
X95092500Y-93209000D01*
G75*
G02*
X95292500Y-93009000I200000J0D01*
G01*
X95842500Y-93009000D01*
G75*
G02*
X96042500Y-93209000I0J-200000D01*
G01*
X96042500Y-93609000D01*
G75*
G02*
X95842500Y-93809000I-200000J0D01*
G01*
G37*
%TD*%
%TO.C,R50*%
G36*
G01*
X86952500Y-93872000D02*
X86402500Y-93872000D01*
G75*
G02*
X86202500Y-93672000I0J200000D01*
G01*
X86202500Y-93272000D01*
G75*
G02*
X86402500Y-93072000I200000J0D01*
G01*
X86952500Y-93072000D01*
G75*
G02*
X87152500Y-93272000I0J-200000D01*
G01*
X87152500Y-93672000D01*
G75*
G02*
X86952500Y-93872000I-200000J0D01*
G01*
G37*
G36*
G01*
X86952500Y-95522000D02*
X86402500Y-95522000D01*
G75*
G02*
X86202500Y-95322000I0J200000D01*
G01*
X86202500Y-94922000D01*
G75*
G02*
X86402500Y-94722000I200000J0D01*
G01*
X86952500Y-94722000D01*
G75*
G02*
X87152500Y-94922000I0J-200000D01*
G01*
X87152500Y-95322000D01*
G75*
G02*
X86952500Y-95522000I-200000J0D01*
G01*
G37*
%TD*%
%TO.C,R51*%
G36*
G01*
X85428500Y-95522500D02*
X84878500Y-95522500D01*
G75*
G02*
X84678500Y-95322500I0J200000D01*
G01*
X84678500Y-94922500D01*
G75*
G02*
X84878500Y-94722500I200000J0D01*
G01*
X85428500Y-94722500D01*
G75*
G02*
X85628500Y-94922500I0J-200000D01*
G01*
X85628500Y-95322500D01*
G75*
G02*
X85428500Y-95522500I-200000J0D01*
G01*
G37*
G36*
G01*
X85428500Y-93872500D02*
X84878500Y-93872500D01*
G75*
G02*
X84678500Y-93672500I0J200000D01*
G01*
X84678500Y-93272500D01*
G75*
G02*
X84878500Y-93072500I200000J0D01*
G01*
X85428500Y-93072500D01*
G75*
G02*
X85628500Y-93272500I0J-200000D01*
G01*
X85628500Y-93672500D01*
G75*
G02*
X85428500Y-93872500I-200000J0D01*
G01*
G37*
%TD*%
%TO.C,R52*%
G36*
G01*
X83904500Y-93872500D02*
X83354500Y-93872500D01*
G75*
G02*
X83154500Y-93672500I0J200000D01*
G01*
X83154500Y-93272500D01*
G75*
G02*
X83354500Y-93072500I200000J0D01*
G01*
X83904500Y-93072500D01*
G75*
G02*
X84104500Y-93272500I0J-200000D01*
G01*
X84104500Y-93672500D01*
G75*
G02*
X83904500Y-93872500I-200000J0D01*
G01*
G37*
G36*
G01*
X83904500Y-95522500D02*
X83354500Y-95522500D01*
G75*
G02*
X83154500Y-95322500I0J200000D01*
G01*
X83154500Y-94922500D01*
G75*
G02*
X83354500Y-94722500I200000J0D01*
G01*
X83904500Y-94722500D01*
G75*
G02*
X84104500Y-94922500I0J-200000D01*
G01*
X84104500Y-95322500D01*
G75*
G02*
X83904500Y-95522500I-200000J0D01*
G01*
G37*
%TD*%
%TO.C,R53*%
G36*
G01*
X82317000Y-95523000D02*
X81767000Y-95523000D01*
G75*
G02*
X81567000Y-95323000I0J200000D01*
G01*
X81567000Y-94923000D01*
G75*
G02*
X81767000Y-94723000I200000J0D01*
G01*
X82317000Y-94723000D01*
G75*
G02*
X82517000Y-94923000I0J-200000D01*
G01*
X82517000Y-95323000D01*
G75*
G02*
X82317000Y-95523000I-200000J0D01*
G01*
G37*
G36*
G01*
X82317000Y-93873000D02*
X81767000Y-93873000D01*
G75*
G02*
X81567000Y-93673000I0J200000D01*
G01*
X81567000Y-93273000D01*
G75*
G02*
X81767000Y-93073000I200000J0D01*
G01*
X82317000Y-93073000D01*
G75*
G02*
X82517000Y-93273000I0J-200000D01*
G01*
X82517000Y-93673000D01*
G75*
G02*
X82317000Y-93873000I-200000J0D01*
G01*
G37*
%TD*%
%TO.C,R54*%
G36*
G01*
X80793000Y-93872500D02*
X80243000Y-93872500D01*
G75*
G02*
X80043000Y-93672500I0J200000D01*
G01*
X80043000Y-93272500D01*
G75*
G02*
X80243000Y-93072500I200000J0D01*
G01*
X80793000Y-93072500D01*
G75*
G02*
X80993000Y-93272500I0J-200000D01*
G01*
X80993000Y-93672500D01*
G75*
G02*
X80793000Y-93872500I-200000J0D01*
G01*
G37*
G36*
G01*
X80793000Y-95522500D02*
X80243000Y-95522500D01*
G75*
G02*
X80043000Y-95322500I0J200000D01*
G01*
X80043000Y-94922500D01*
G75*
G02*
X80243000Y-94722500I200000J0D01*
G01*
X80793000Y-94722500D01*
G75*
G02*
X80993000Y-94922500I0J-200000D01*
G01*
X80993000Y-95322500D01*
G75*
G02*
X80793000Y-95522500I-200000J0D01*
G01*
G37*
%TD*%
%TO.C,R55*%
G36*
G01*
X109175500Y-62075000D02*
X109175500Y-64925000D01*
G75*
G02*
X108925500Y-65175000I-250000J0D01*
G01*
X108200500Y-65175000D01*
G75*
G02*
X107950500Y-64925000I0J250000D01*
G01*
X107950500Y-62075000D01*
G75*
G02*
X108200500Y-61825000I250000J0D01*
G01*
X108925500Y-61825000D01*
G75*
G02*
X109175500Y-62075000I0J-250000D01*
G01*
G37*
G36*
G01*
X103250500Y-62075000D02*
X103250500Y-64925000D01*
G75*
G02*
X103000500Y-65175000I-250000J0D01*
G01*
X102275500Y-65175000D01*
G75*
G02*
X102025500Y-64925000I0J250000D01*
G01*
X102025500Y-62075000D01*
G75*
G02*
X102275500Y-61825000I250000J0D01*
G01*
X103000500Y-61825000D01*
G75*
G02*
X103250500Y-62075000I0J-250000D01*
G01*
G37*
%TD*%
D20*
%TO.C,SLOWER*%
X109800000Y-133000000D03*
X113200000Y-133000000D03*
%TD*%
%TO.C,FASTER*%
X107000000Y-133000000D03*
X103600000Y-133000000D03*
%TD*%
%TO.C,BRAKE*%
X97800000Y-133000000D03*
X101200000Y-133000000D03*
%TD*%
%TO.C,RESET*%
X95200000Y-133000000D03*
X91800000Y-133000000D03*
%TD*%
D21*
%TO.C,DIRECTION*%
X116210000Y-133000000D03*
X121290000Y-133000000D03*
%TD*%
D22*
%TO.C,+3V3*%
X64516000Y-95377000D03*
%TD*%
%TO.C,+5V*%
X64516000Y-86233000D03*
%TD*%
%TO.C,U2*%
G36*
G01*
X79138500Y-119670500D02*
X79138500Y-119795500D01*
G75*
G02*
X79076000Y-119858000I-62500J0D01*
G01*
X78326000Y-119858000D01*
G75*
G02*
X78263500Y-119795500I0J62500D01*
G01*
X78263500Y-119670500D01*
G75*
G02*
X78326000Y-119608000I62500J0D01*
G01*
X79076000Y-119608000D01*
G75*
G02*
X79138500Y-119670500I0J-62500D01*
G01*
G37*
G36*
G01*
X79138500Y-119170500D02*
X79138500Y-119295500D01*
G75*
G02*
X79076000Y-119358000I-62500J0D01*
G01*
X78326000Y-119358000D01*
G75*
G02*
X78263500Y-119295500I0J62500D01*
G01*
X78263500Y-119170500D01*
G75*
G02*
X78326000Y-119108000I62500J0D01*
G01*
X79076000Y-119108000D01*
G75*
G02*
X79138500Y-119170500I0J-62500D01*
G01*
G37*
G36*
G01*
X79138500Y-118670500D02*
X79138500Y-118795500D01*
G75*
G02*
X79076000Y-118858000I-62500J0D01*
G01*
X78326000Y-118858000D01*
G75*
G02*
X78263500Y-118795500I0J62500D01*
G01*
X78263500Y-118670500D01*
G75*
G02*
X78326000Y-118608000I62500J0D01*
G01*
X79076000Y-118608000D01*
G75*
G02*
X79138500Y-118670500I0J-62500D01*
G01*
G37*
G36*
G01*
X79138500Y-118170500D02*
X79138500Y-118295500D01*
G75*
G02*
X79076000Y-118358000I-62500J0D01*
G01*
X78326000Y-118358000D01*
G75*
G02*
X78263500Y-118295500I0J62500D01*
G01*
X78263500Y-118170500D01*
G75*
G02*
X78326000Y-118108000I62500J0D01*
G01*
X79076000Y-118108000D01*
G75*
G02*
X79138500Y-118170500I0J-62500D01*
G01*
G37*
G36*
G01*
X79138500Y-117670500D02*
X79138500Y-117795500D01*
G75*
G02*
X79076000Y-117858000I-62500J0D01*
G01*
X78326000Y-117858000D01*
G75*
G02*
X78263500Y-117795500I0J62500D01*
G01*
X78263500Y-117670500D01*
G75*
G02*
X78326000Y-117608000I62500J0D01*
G01*
X79076000Y-117608000D01*
G75*
G02*
X79138500Y-117670500I0J-62500D01*
G01*
G37*
G36*
G01*
X79138500Y-117170500D02*
X79138500Y-117295500D01*
G75*
G02*
X79076000Y-117358000I-62500J0D01*
G01*
X78326000Y-117358000D01*
G75*
G02*
X78263500Y-117295500I0J62500D01*
G01*
X78263500Y-117170500D01*
G75*
G02*
X78326000Y-117108000I62500J0D01*
G01*
X79076000Y-117108000D01*
G75*
G02*
X79138500Y-117170500I0J-62500D01*
G01*
G37*
G36*
G01*
X79138500Y-116670500D02*
X79138500Y-116795500D01*
G75*
G02*
X79076000Y-116858000I-62500J0D01*
G01*
X78326000Y-116858000D01*
G75*
G02*
X78263500Y-116795500I0J62500D01*
G01*
X78263500Y-116670500D01*
G75*
G02*
X78326000Y-116608000I62500J0D01*
G01*
X79076000Y-116608000D01*
G75*
G02*
X79138500Y-116670500I0J-62500D01*
G01*
G37*
G36*
G01*
X79138500Y-116170500D02*
X79138500Y-116295500D01*
G75*
G02*
X79076000Y-116358000I-62500J0D01*
G01*
X78326000Y-116358000D01*
G75*
G02*
X78263500Y-116295500I0J62500D01*
G01*
X78263500Y-116170500D01*
G75*
G02*
X78326000Y-116108000I62500J0D01*
G01*
X79076000Y-116108000D01*
G75*
G02*
X79138500Y-116170500I0J-62500D01*
G01*
G37*
G36*
G01*
X78138500Y-115170500D02*
X78138500Y-115920500D01*
G75*
G02*
X78076000Y-115983000I-62500J0D01*
G01*
X77951000Y-115983000D01*
G75*
G02*
X77888500Y-115920500I0J62500D01*
G01*
X77888500Y-115170500D01*
G75*
G02*
X77951000Y-115108000I62500J0D01*
G01*
X78076000Y-115108000D01*
G75*
G02*
X78138500Y-115170500I0J-62500D01*
G01*
G37*
G36*
G01*
X77638500Y-115170500D02*
X77638500Y-115920500D01*
G75*
G02*
X77576000Y-115983000I-62500J0D01*
G01*
X77451000Y-115983000D01*
G75*
G02*
X77388500Y-115920500I0J62500D01*
G01*
X77388500Y-115170500D01*
G75*
G02*
X77451000Y-115108000I62500J0D01*
G01*
X77576000Y-115108000D01*
G75*
G02*
X77638500Y-115170500I0J-62500D01*
G01*
G37*
G36*
G01*
X77138500Y-115170500D02*
X77138500Y-115920500D01*
G75*
G02*
X77076000Y-115983000I-62500J0D01*
G01*
X76951000Y-115983000D01*
G75*
G02*
X76888500Y-115920500I0J62500D01*
G01*
X76888500Y-115170500D01*
G75*
G02*
X76951000Y-115108000I62500J0D01*
G01*
X77076000Y-115108000D01*
G75*
G02*
X77138500Y-115170500I0J-62500D01*
G01*
G37*
G36*
G01*
X76638500Y-115170500D02*
X76638500Y-115920500D01*
G75*
G02*
X76576000Y-115983000I-62500J0D01*
G01*
X76451000Y-115983000D01*
G75*
G02*
X76388500Y-115920500I0J62500D01*
G01*
X76388500Y-115170500D01*
G75*
G02*
X76451000Y-115108000I62500J0D01*
G01*
X76576000Y-115108000D01*
G75*
G02*
X76638500Y-115170500I0J-62500D01*
G01*
G37*
G36*
G01*
X76138500Y-115170500D02*
X76138500Y-115920500D01*
G75*
G02*
X76076000Y-115983000I-62500J0D01*
G01*
X75951000Y-115983000D01*
G75*
G02*
X75888500Y-115920500I0J62500D01*
G01*
X75888500Y-115170500D01*
G75*
G02*
X75951000Y-115108000I62500J0D01*
G01*
X76076000Y-115108000D01*
G75*
G02*
X76138500Y-115170500I0J-62500D01*
G01*
G37*
G36*
G01*
X75638500Y-115170500D02*
X75638500Y-115920500D01*
G75*
G02*
X75576000Y-115983000I-62500J0D01*
G01*
X75451000Y-115983000D01*
G75*
G02*
X75388500Y-115920500I0J62500D01*
G01*
X75388500Y-115170500D01*
G75*
G02*
X75451000Y-115108000I62500J0D01*
G01*
X75576000Y-115108000D01*
G75*
G02*
X75638500Y-115170500I0J-62500D01*
G01*
G37*
G36*
G01*
X75138500Y-115170500D02*
X75138500Y-115920500D01*
G75*
G02*
X75076000Y-115983000I-62500J0D01*
G01*
X74951000Y-115983000D01*
G75*
G02*
X74888500Y-115920500I0J62500D01*
G01*
X74888500Y-115170500D01*
G75*
G02*
X74951000Y-115108000I62500J0D01*
G01*
X75076000Y-115108000D01*
G75*
G02*
X75138500Y-115170500I0J-62500D01*
G01*
G37*
G36*
G01*
X74638500Y-115170500D02*
X74638500Y-115920500D01*
G75*
G02*
X74576000Y-115983000I-62500J0D01*
G01*
X74451000Y-115983000D01*
G75*
G02*
X74388500Y-115920500I0J62500D01*
G01*
X74388500Y-115170500D01*
G75*
G02*
X74451000Y-115108000I62500J0D01*
G01*
X74576000Y-115108000D01*
G75*
G02*
X74638500Y-115170500I0J-62500D01*
G01*
G37*
G36*
G01*
X74263500Y-116170500D02*
X74263500Y-116295500D01*
G75*
G02*
X74201000Y-116358000I-62500J0D01*
G01*
X73451000Y-116358000D01*
G75*
G02*
X73388500Y-116295500I0J62500D01*
G01*
X73388500Y-116170500D01*
G75*
G02*
X73451000Y-116108000I62500J0D01*
G01*
X74201000Y-116108000D01*
G75*
G02*
X74263500Y-116170500I0J-62500D01*
G01*
G37*
G36*
G01*
X74263500Y-116670500D02*
X74263500Y-116795500D01*
G75*
G02*
X74201000Y-116858000I-62500J0D01*
G01*
X73451000Y-116858000D01*
G75*
G02*
X73388500Y-116795500I0J62500D01*
G01*
X73388500Y-116670500D01*
G75*
G02*
X73451000Y-116608000I62500J0D01*
G01*
X74201000Y-116608000D01*
G75*
G02*
X74263500Y-116670500I0J-62500D01*
G01*
G37*
G36*
G01*
X74263500Y-117170500D02*
X74263500Y-117295500D01*
G75*
G02*
X74201000Y-117358000I-62500J0D01*
G01*
X73451000Y-117358000D01*
G75*
G02*
X73388500Y-117295500I0J62500D01*
G01*
X73388500Y-117170500D01*
G75*
G02*
X73451000Y-117108000I62500J0D01*
G01*
X74201000Y-117108000D01*
G75*
G02*
X74263500Y-117170500I0J-62500D01*
G01*
G37*
G36*
G01*
X74263500Y-117670500D02*
X74263500Y-117795500D01*
G75*
G02*
X74201000Y-117858000I-62500J0D01*
G01*
X73451000Y-117858000D01*
G75*
G02*
X73388500Y-117795500I0J62500D01*
G01*
X73388500Y-117670500D01*
G75*
G02*
X73451000Y-117608000I62500J0D01*
G01*
X74201000Y-117608000D01*
G75*
G02*
X74263500Y-117670500I0J-62500D01*
G01*
G37*
G36*
G01*
X74263500Y-118170500D02*
X74263500Y-118295500D01*
G75*
G02*
X74201000Y-118358000I-62500J0D01*
G01*
X73451000Y-118358000D01*
G75*
G02*
X73388500Y-118295500I0J62500D01*
G01*
X73388500Y-118170500D01*
G75*
G02*
X73451000Y-118108000I62500J0D01*
G01*
X74201000Y-118108000D01*
G75*
G02*
X74263500Y-118170500I0J-62500D01*
G01*
G37*
G36*
G01*
X74263500Y-118670500D02*
X74263500Y-118795500D01*
G75*
G02*
X74201000Y-118858000I-62500J0D01*
G01*
X73451000Y-118858000D01*
G75*
G02*
X73388500Y-118795500I0J62500D01*
G01*
X73388500Y-118670500D01*
G75*
G02*
X73451000Y-118608000I62500J0D01*
G01*
X74201000Y-118608000D01*
G75*
G02*
X74263500Y-118670500I0J-62500D01*
G01*
G37*
G36*
G01*
X74263500Y-119170500D02*
X74263500Y-119295500D01*
G75*
G02*
X74201000Y-119358000I-62500J0D01*
G01*
X73451000Y-119358000D01*
G75*
G02*
X73388500Y-119295500I0J62500D01*
G01*
X73388500Y-119170500D01*
G75*
G02*
X73451000Y-119108000I62500J0D01*
G01*
X74201000Y-119108000D01*
G75*
G02*
X74263500Y-119170500I0J-62500D01*
G01*
G37*
G36*
G01*
X74263500Y-119670500D02*
X74263500Y-119795500D01*
G75*
G02*
X74201000Y-119858000I-62500J0D01*
G01*
X73451000Y-119858000D01*
G75*
G02*
X73388500Y-119795500I0J62500D01*
G01*
X73388500Y-119670500D01*
G75*
G02*
X73451000Y-119608000I62500J0D01*
G01*
X74201000Y-119608000D01*
G75*
G02*
X74263500Y-119670500I0J-62500D01*
G01*
G37*
G36*
G01*
X74638500Y-120045500D02*
X74638500Y-120795500D01*
G75*
G02*
X74576000Y-120858000I-62500J0D01*
G01*
X74451000Y-120858000D01*
G75*
G02*
X74388500Y-120795500I0J62500D01*
G01*
X74388500Y-120045500D01*
G75*
G02*
X74451000Y-119983000I62500J0D01*
G01*
X74576000Y-119983000D01*
G75*
G02*
X74638500Y-120045500I0J-62500D01*
G01*
G37*
G36*
G01*
X75138500Y-120045500D02*
X75138500Y-120795500D01*
G75*
G02*
X75076000Y-120858000I-62500J0D01*
G01*
X74951000Y-120858000D01*
G75*
G02*
X74888500Y-120795500I0J62500D01*
G01*
X74888500Y-120045500D01*
G75*
G02*
X74951000Y-119983000I62500J0D01*
G01*
X75076000Y-119983000D01*
G75*
G02*
X75138500Y-120045500I0J-62500D01*
G01*
G37*
G36*
G01*
X75638500Y-120045500D02*
X75638500Y-120795500D01*
G75*
G02*
X75576000Y-120858000I-62500J0D01*
G01*
X75451000Y-120858000D01*
G75*
G02*
X75388500Y-120795500I0J62500D01*
G01*
X75388500Y-120045500D01*
G75*
G02*
X75451000Y-119983000I62500J0D01*
G01*
X75576000Y-119983000D01*
G75*
G02*
X75638500Y-120045500I0J-62500D01*
G01*
G37*
G36*
G01*
X76138500Y-120045500D02*
X76138500Y-120795500D01*
G75*
G02*
X76076000Y-120858000I-62500J0D01*
G01*
X75951000Y-120858000D01*
G75*
G02*
X75888500Y-120795500I0J62500D01*
G01*
X75888500Y-120045500D01*
G75*
G02*
X75951000Y-119983000I62500J0D01*
G01*
X76076000Y-119983000D01*
G75*
G02*
X76138500Y-120045500I0J-62500D01*
G01*
G37*
G36*
G01*
X76638500Y-120045500D02*
X76638500Y-120795500D01*
G75*
G02*
X76576000Y-120858000I-62500J0D01*
G01*
X76451000Y-120858000D01*
G75*
G02*
X76388500Y-120795500I0J62500D01*
G01*
X76388500Y-120045500D01*
G75*
G02*
X76451000Y-119983000I62500J0D01*
G01*
X76576000Y-119983000D01*
G75*
G02*
X76638500Y-120045500I0J-62500D01*
G01*
G37*
G36*
G01*
X77138500Y-120045500D02*
X77138500Y-120795500D01*
G75*
G02*
X77076000Y-120858000I-62500J0D01*
G01*
X76951000Y-120858000D01*
G75*
G02*
X76888500Y-120795500I0J62500D01*
G01*
X76888500Y-120045500D01*
G75*
G02*
X76951000Y-119983000I62500J0D01*
G01*
X77076000Y-119983000D01*
G75*
G02*
X77138500Y-120045500I0J-62500D01*
G01*
G37*
G36*
G01*
X77638500Y-120045500D02*
X77638500Y-120795500D01*
G75*
G02*
X77576000Y-120858000I-62500J0D01*
G01*
X77451000Y-120858000D01*
G75*
G02*
X77388500Y-120795500I0J62500D01*
G01*
X77388500Y-120045500D01*
G75*
G02*
X77451000Y-119983000I62500J0D01*
G01*
X77576000Y-119983000D01*
G75*
G02*
X77638500Y-120045500I0J-62500D01*
G01*
G37*
G36*
G01*
X78138500Y-120045500D02*
X78138500Y-120795500D01*
G75*
G02*
X78076000Y-120858000I-62500J0D01*
G01*
X77951000Y-120858000D01*
G75*
G02*
X77888500Y-120795500I0J62500D01*
G01*
X77888500Y-120045500D01*
G75*
G02*
X77951000Y-119983000I62500J0D01*
G01*
X78076000Y-119983000D01*
G75*
G02*
X78138500Y-120045500I0J-62500D01*
G01*
G37*
D23*
X76263500Y-117983000D03*
%TD*%
D24*
%TO.C,U3*%
X59156000Y-96053000D03*
X59156000Y-96703000D03*
X59156000Y-97353000D03*
X59156000Y-98003000D03*
X62256000Y-98003000D03*
X62256000Y-97353000D03*
X62256000Y-96703000D03*
X62256000Y-96053000D03*
D25*
X60706000Y-97028000D03*
%TD*%
%TO.C,U4*%
X60642500Y-87439500D03*
D24*
X62192500Y-86464500D03*
X62192500Y-87114500D03*
X62192500Y-87764500D03*
X62192500Y-88414500D03*
X59092500Y-88414500D03*
X59092500Y-87764500D03*
X59092500Y-87114500D03*
X59092500Y-86464500D03*
%TD*%
%TO.C,U5*%
G36*
G01*
X91107000Y-104168500D02*
X91107000Y-104293500D01*
G75*
G02*
X91044500Y-104356000I-62500J0D01*
G01*
X90344500Y-104356000D01*
G75*
G02*
X90282000Y-104293500I0J62500D01*
G01*
X90282000Y-104168500D01*
G75*
G02*
X90344500Y-104106000I62500J0D01*
G01*
X91044500Y-104106000D01*
G75*
G02*
X91107000Y-104168500I0J-62500D01*
G01*
G37*
G36*
G01*
X91107000Y-103668500D02*
X91107000Y-103793500D01*
G75*
G02*
X91044500Y-103856000I-62500J0D01*
G01*
X90344500Y-103856000D01*
G75*
G02*
X90282000Y-103793500I0J62500D01*
G01*
X90282000Y-103668500D01*
G75*
G02*
X90344500Y-103606000I62500J0D01*
G01*
X91044500Y-103606000D01*
G75*
G02*
X91107000Y-103668500I0J-62500D01*
G01*
G37*
G36*
G01*
X91107000Y-103168500D02*
X91107000Y-103293500D01*
G75*
G02*
X91044500Y-103356000I-62500J0D01*
G01*
X90344500Y-103356000D01*
G75*
G02*
X90282000Y-103293500I0J62500D01*
G01*
X90282000Y-103168500D01*
G75*
G02*
X90344500Y-103106000I62500J0D01*
G01*
X91044500Y-103106000D01*
G75*
G02*
X91107000Y-103168500I0J-62500D01*
G01*
G37*
G36*
G01*
X91107000Y-102668500D02*
X91107000Y-102793500D01*
G75*
G02*
X91044500Y-102856000I-62500J0D01*
G01*
X90344500Y-102856000D01*
G75*
G02*
X90282000Y-102793500I0J62500D01*
G01*
X90282000Y-102668500D01*
G75*
G02*
X90344500Y-102606000I62500J0D01*
G01*
X91044500Y-102606000D01*
G75*
G02*
X91107000Y-102668500I0J-62500D01*
G01*
G37*
G36*
G01*
X91107000Y-102168500D02*
X91107000Y-102293500D01*
G75*
G02*
X91044500Y-102356000I-62500J0D01*
G01*
X90344500Y-102356000D01*
G75*
G02*
X90282000Y-102293500I0J62500D01*
G01*
X90282000Y-102168500D01*
G75*
G02*
X90344500Y-102106000I62500J0D01*
G01*
X91044500Y-102106000D01*
G75*
G02*
X91107000Y-102168500I0J-62500D01*
G01*
G37*
G36*
G01*
X91107000Y-101668500D02*
X91107000Y-101793500D01*
G75*
G02*
X91044500Y-101856000I-62500J0D01*
G01*
X90344500Y-101856000D01*
G75*
G02*
X90282000Y-101793500I0J62500D01*
G01*
X90282000Y-101668500D01*
G75*
G02*
X90344500Y-101606000I62500J0D01*
G01*
X91044500Y-101606000D01*
G75*
G02*
X91107000Y-101668500I0J-62500D01*
G01*
G37*
G36*
G01*
X91107000Y-101168500D02*
X91107000Y-101293500D01*
G75*
G02*
X91044500Y-101356000I-62500J0D01*
G01*
X90344500Y-101356000D01*
G75*
G02*
X90282000Y-101293500I0J62500D01*
G01*
X90282000Y-101168500D01*
G75*
G02*
X90344500Y-101106000I62500J0D01*
G01*
X91044500Y-101106000D01*
G75*
G02*
X91107000Y-101168500I0J-62500D01*
G01*
G37*
G36*
G01*
X91107000Y-100668500D02*
X91107000Y-100793500D01*
G75*
G02*
X91044500Y-100856000I-62500J0D01*
G01*
X90344500Y-100856000D01*
G75*
G02*
X90282000Y-100793500I0J62500D01*
G01*
X90282000Y-100668500D01*
G75*
G02*
X90344500Y-100606000I62500J0D01*
G01*
X91044500Y-100606000D01*
G75*
G02*
X91107000Y-100668500I0J-62500D01*
G01*
G37*
G36*
G01*
X91107000Y-100168500D02*
X91107000Y-100293500D01*
G75*
G02*
X91044500Y-100356000I-62500J0D01*
G01*
X90344500Y-100356000D01*
G75*
G02*
X90282000Y-100293500I0J62500D01*
G01*
X90282000Y-100168500D01*
G75*
G02*
X90344500Y-100106000I62500J0D01*
G01*
X91044500Y-100106000D01*
G75*
G02*
X91107000Y-100168500I0J-62500D01*
G01*
G37*
G36*
G01*
X91107000Y-99668500D02*
X91107000Y-99793500D01*
G75*
G02*
X91044500Y-99856000I-62500J0D01*
G01*
X90344500Y-99856000D01*
G75*
G02*
X90282000Y-99793500I0J62500D01*
G01*
X90282000Y-99668500D01*
G75*
G02*
X90344500Y-99606000I62500J0D01*
G01*
X91044500Y-99606000D01*
G75*
G02*
X91107000Y-99668500I0J-62500D01*
G01*
G37*
G36*
G01*
X90132000Y-98693500D02*
X90132000Y-99393500D01*
G75*
G02*
X90069500Y-99456000I-62500J0D01*
G01*
X89944500Y-99456000D01*
G75*
G02*
X89882000Y-99393500I0J62500D01*
G01*
X89882000Y-98693500D01*
G75*
G02*
X89944500Y-98631000I62500J0D01*
G01*
X90069500Y-98631000D01*
G75*
G02*
X90132000Y-98693500I0J-62500D01*
G01*
G37*
G36*
G01*
X89632000Y-98693500D02*
X89632000Y-99393500D01*
G75*
G02*
X89569500Y-99456000I-62500J0D01*
G01*
X89444500Y-99456000D01*
G75*
G02*
X89382000Y-99393500I0J62500D01*
G01*
X89382000Y-98693500D01*
G75*
G02*
X89444500Y-98631000I62500J0D01*
G01*
X89569500Y-98631000D01*
G75*
G02*
X89632000Y-98693500I0J-62500D01*
G01*
G37*
G36*
G01*
X89132000Y-98693500D02*
X89132000Y-99393500D01*
G75*
G02*
X89069500Y-99456000I-62500J0D01*
G01*
X88944500Y-99456000D01*
G75*
G02*
X88882000Y-99393500I0J62500D01*
G01*
X88882000Y-98693500D01*
G75*
G02*
X88944500Y-98631000I62500J0D01*
G01*
X89069500Y-98631000D01*
G75*
G02*
X89132000Y-98693500I0J-62500D01*
G01*
G37*
G36*
G01*
X88632000Y-98693500D02*
X88632000Y-99393500D01*
G75*
G02*
X88569500Y-99456000I-62500J0D01*
G01*
X88444500Y-99456000D01*
G75*
G02*
X88382000Y-99393500I0J62500D01*
G01*
X88382000Y-98693500D01*
G75*
G02*
X88444500Y-98631000I62500J0D01*
G01*
X88569500Y-98631000D01*
G75*
G02*
X88632000Y-98693500I0J-62500D01*
G01*
G37*
G36*
G01*
X88132000Y-98693500D02*
X88132000Y-99393500D01*
G75*
G02*
X88069500Y-99456000I-62500J0D01*
G01*
X87944500Y-99456000D01*
G75*
G02*
X87882000Y-99393500I0J62500D01*
G01*
X87882000Y-98693500D01*
G75*
G02*
X87944500Y-98631000I62500J0D01*
G01*
X88069500Y-98631000D01*
G75*
G02*
X88132000Y-98693500I0J-62500D01*
G01*
G37*
G36*
G01*
X87632000Y-98693500D02*
X87632000Y-99393500D01*
G75*
G02*
X87569500Y-99456000I-62500J0D01*
G01*
X87444500Y-99456000D01*
G75*
G02*
X87382000Y-99393500I0J62500D01*
G01*
X87382000Y-98693500D01*
G75*
G02*
X87444500Y-98631000I62500J0D01*
G01*
X87569500Y-98631000D01*
G75*
G02*
X87632000Y-98693500I0J-62500D01*
G01*
G37*
G36*
G01*
X87132000Y-98693500D02*
X87132000Y-99393500D01*
G75*
G02*
X87069500Y-99456000I-62500J0D01*
G01*
X86944500Y-99456000D01*
G75*
G02*
X86882000Y-99393500I0J62500D01*
G01*
X86882000Y-98693500D01*
G75*
G02*
X86944500Y-98631000I62500J0D01*
G01*
X87069500Y-98631000D01*
G75*
G02*
X87132000Y-98693500I0J-62500D01*
G01*
G37*
G36*
G01*
X86632000Y-98693500D02*
X86632000Y-99393500D01*
G75*
G02*
X86569500Y-99456000I-62500J0D01*
G01*
X86444500Y-99456000D01*
G75*
G02*
X86382000Y-99393500I0J62500D01*
G01*
X86382000Y-98693500D01*
G75*
G02*
X86444500Y-98631000I62500J0D01*
G01*
X86569500Y-98631000D01*
G75*
G02*
X86632000Y-98693500I0J-62500D01*
G01*
G37*
G36*
G01*
X86132000Y-98693500D02*
X86132000Y-99393500D01*
G75*
G02*
X86069500Y-99456000I-62500J0D01*
G01*
X85944500Y-99456000D01*
G75*
G02*
X85882000Y-99393500I0J62500D01*
G01*
X85882000Y-98693500D01*
G75*
G02*
X85944500Y-98631000I62500J0D01*
G01*
X86069500Y-98631000D01*
G75*
G02*
X86132000Y-98693500I0J-62500D01*
G01*
G37*
G36*
G01*
X85632000Y-98693500D02*
X85632000Y-99393500D01*
G75*
G02*
X85569500Y-99456000I-62500J0D01*
G01*
X85444500Y-99456000D01*
G75*
G02*
X85382000Y-99393500I0J62500D01*
G01*
X85382000Y-98693500D01*
G75*
G02*
X85444500Y-98631000I62500J0D01*
G01*
X85569500Y-98631000D01*
G75*
G02*
X85632000Y-98693500I0J-62500D01*
G01*
G37*
G36*
G01*
X85232000Y-99668500D02*
X85232000Y-99793500D01*
G75*
G02*
X85169500Y-99856000I-62500J0D01*
G01*
X84469500Y-99856000D01*
G75*
G02*
X84407000Y-99793500I0J62500D01*
G01*
X84407000Y-99668500D01*
G75*
G02*
X84469500Y-99606000I62500J0D01*
G01*
X85169500Y-99606000D01*
G75*
G02*
X85232000Y-99668500I0J-62500D01*
G01*
G37*
G36*
G01*
X85232000Y-100168500D02*
X85232000Y-100293500D01*
G75*
G02*
X85169500Y-100356000I-62500J0D01*
G01*
X84469500Y-100356000D01*
G75*
G02*
X84407000Y-100293500I0J62500D01*
G01*
X84407000Y-100168500D01*
G75*
G02*
X84469500Y-100106000I62500J0D01*
G01*
X85169500Y-100106000D01*
G75*
G02*
X85232000Y-100168500I0J-62500D01*
G01*
G37*
G36*
G01*
X85232000Y-100668500D02*
X85232000Y-100793500D01*
G75*
G02*
X85169500Y-100856000I-62500J0D01*
G01*
X84469500Y-100856000D01*
G75*
G02*
X84407000Y-100793500I0J62500D01*
G01*
X84407000Y-100668500D01*
G75*
G02*
X84469500Y-100606000I62500J0D01*
G01*
X85169500Y-100606000D01*
G75*
G02*
X85232000Y-100668500I0J-62500D01*
G01*
G37*
G36*
G01*
X85232000Y-101168500D02*
X85232000Y-101293500D01*
G75*
G02*
X85169500Y-101356000I-62500J0D01*
G01*
X84469500Y-101356000D01*
G75*
G02*
X84407000Y-101293500I0J62500D01*
G01*
X84407000Y-101168500D01*
G75*
G02*
X84469500Y-101106000I62500J0D01*
G01*
X85169500Y-101106000D01*
G75*
G02*
X85232000Y-101168500I0J-62500D01*
G01*
G37*
G36*
G01*
X85232000Y-101668500D02*
X85232000Y-101793500D01*
G75*
G02*
X85169500Y-101856000I-62500J0D01*
G01*
X84469500Y-101856000D01*
G75*
G02*
X84407000Y-101793500I0J62500D01*
G01*
X84407000Y-101668500D01*
G75*
G02*
X84469500Y-101606000I62500J0D01*
G01*
X85169500Y-101606000D01*
G75*
G02*
X85232000Y-101668500I0J-62500D01*
G01*
G37*
G36*
G01*
X85232000Y-102168500D02*
X85232000Y-102293500D01*
G75*
G02*
X85169500Y-102356000I-62500J0D01*
G01*
X84469500Y-102356000D01*
G75*
G02*
X84407000Y-102293500I0J62500D01*
G01*
X84407000Y-102168500D01*
G75*
G02*
X84469500Y-102106000I62500J0D01*
G01*
X85169500Y-102106000D01*
G75*
G02*
X85232000Y-102168500I0J-62500D01*
G01*
G37*
G36*
G01*
X85232000Y-102668500D02*
X85232000Y-102793500D01*
G75*
G02*
X85169500Y-102856000I-62500J0D01*
G01*
X84469500Y-102856000D01*
G75*
G02*
X84407000Y-102793500I0J62500D01*
G01*
X84407000Y-102668500D01*
G75*
G02*
X84469500Y-102606000I62500J0D01*
G01*
X85169500Y-102606000D01*
G75*
G02*
X85232000Y-102668500I0J-62500D01*
G01*
G37*
G36*
G01*
X85232000Y-103168500D02*
X85232000Y-103293500D01*
G75*
G02*
X85169500Y-103356000I-62500J0D01*
G01*
X84469500Y-103356000D01*
G75*
G02*
X84407000Y-103293500I0J62500D01*
G01*
X84407000Y-103168500D01*
G75*
G02*
X84469500Y-103106000I62500J0D01*
G01*
X85169500Y-103106000D01*
G75*
G02*
X85232000Y-103168500I0J-62500D01*
G01*
G37*
G36*
G01*
X85232000Y-103668500D02*
X85232000Y-103793500D01*
G75*
G02*
X85169500Y-103856000I-62500J0D01*
G01*
X84469500Y-103856000D01*
G75*
G02*
X84407000Y-103793500I0J62500D01*
G01*
X84407000Y-103668500D01*
G75*
G02*
X84469500Y-103606000I62500J0D01*
G01*
X85169500Y-103606000D01*
G75*
G02*
X85232000Y-103668500I0J-62500D01*
G01*
G37*
G36*
G01*
X85232000Y-104168500D02*
X85232000Y-104293500D01*
G75*
G02*
X85169500Y-104356000I-62500J0D01*
G01*
X84469500Y-104356000D01*
G75*
G02*
X84407000Y-104293500I0J62500D01*
G01*
X84407000Y-104168500D01*
G75*
G02*
X84469500Y-104106000I62500J0D01*
G01*
X85169500Y-104106000D01*
G75*
G02*
X85232000Y-104168500I0J-62500D01*
G01*
G37*
G36*
G01*
X85632000Y-104568500D02*
X85632000Y-105268500D01*
G75*
G02*
X85569500Y-105331000I-62500J0D01*
G01*
X85444500Y-105331000D01*
G75*
G02*
X85382000Y-105268500I0J62500D01*
G01*
X85382000Y-104568500D01*
G75*
G02*
X85444500Y-104506000I62500J0D01*
G01*
X85569500Y-104506000D01*
G75*
G02*
X85632000Y-104568500I0J-62500D01*
G01*
G37*
G36*
G01*
X86132000Y-104568500D02*
X86132000Y-105268500D01*
G75*
G02*
X86069500Y-105331000I-62500J0D01*
G01*
X85944500Y-105331000D01*
G75*
G02*
X85882000Y-105268500I0J62500D01*
G01*
X85882000Y-104568500D01*
G75*
G02*
X85944500Y-104506000I62500J0D01*
G01*
X86069500Y-104506000D01*
G75*
G02*
X86132000Y-104568500I0J-62500D01*
G01*
G37*
G36*
G01*
X86632000Y-104568500D02*
X86632000Y-105268500D01*
G75*
G02*
X86569500Y-105331000I-62500J0D01*
G01*
X86444500Y-105331000D01*
G75*
G02*
X86382000Y-105268500I0J62500D01*
G01*
X86382000Y-104568500D01*
G75*
G02*
X86444500Y-104506000I62500J0D01*
G01*
X86569500Y-104506000D01*
G75*
G02*
X86632000Y-104568500I0J-62500D01*
G01*
G37*
G36*
G01*
X87132000Y-104568500D02*
X87132000Y-105268500D01*
G75*
G02*
X87069500Y-105331000I-62500J0D01*
G01*
X86944500Y-105331000D01*
G75*
G02*
X86882000Y-105268500I0J62500D01*
G01*
X86882000Y-104568500D01*
G75*
G02*
X86944500Y-104506000I62500J0D01*
G01*
X87069500Y-104506000D01*
G75*
G02*
X87132000Y-104568500I0J-62500D01*
G01*
G37*
G36*
G01*
X87632000Y-104568500D02*
X87632000Y-105268500D01*
G75*
G02*
X87569500Y-105331000I-62500J0D01*
G01*
X87444500Y-105331000D01*
G75*
G02*
X87382000Y-105268500I0J62500D01*
G01*
X87382000Y-104568500D01*
G75*
G02*
X87444500Y-104506000I62500J0D01*
G01*
X87569500Y-104506000D01*
G75*
G02*
X87632000Y-104568500I0J-62500D01*
G01*
G37*
G36*
G01*
X88132000Y-104568500D02*
X88132000Y-105268500D01*
G75*
G02*
X88069500Y-105331000I-62500J0D01*
G01*
X87944500Y-105331000D01*
G75*
G02*
X87882000Y-105268500I0J62500D01*
G01*
X87882000Y-104568500D01*
G75*
G02*
X87944500Y-104506000I62500J0D01*
G01*
X88069500Y-104506000D01*
G75*
G02*
X88132000Y-104568500I0J-62500D01*
G01*
G37*
G36*
G01*
X88632000Y-104568500D02*
X88632000Y-105268500D01*
G75*
G02*
X88569500Y-105331000I-62500J0D01*
G01*
X88444500Y-105331000D01*
G75*
G02*
X88382000Y-105268500I0J62500D01*
G01*
X88382000Y-104568500D01*
G75*
G02*
X88444500Y-104506000I62500J0D01*
G01*
X88569500Y-104506000D01*
G75*
G02*
X88632000Y-104568500I0J-62500D01*
G01*
G37*
G36*
G01*
X89132000Y-104568500D02*
X89132000Y-105268500D01*
G75*
G02*
X89069500Y-105331000I-62500J0D01*
G01*
X88944500Y-105331000D01*
G75*
G02*
X88882000Y-105268500I0J62500D01*
G01*
X88882000Y-104568500D01*
G75*
G02*
X88944500Y-104506000I62500J0D01*
G01*
X89069500Y-104506000D01*
G75*
G02*
X89132000Y-104568500I0J-62500D01*
G01*
G37*
G36*
G01*
X89632000Y-104568500D02*
X89632000Y-105268500D01*
G75*
G02*
X89569500Y-105331000I-62500J0D01*
G01*
X89444500Y-105331000D01*
G75*
G02*
X89382000Y-105268500I0J62500D01*
G01*
X89382000Y-104568500D01*
G75*
G02*
X89444500Y-104506000I62500J0D01*
G01*
X89569500Y-104506000D01*
G75*
G02*
X89632000Y-104568500I0J-62500D01*
G01*
G37*
G36*
G01*
X90132000Y-104568500D02*
X90132000Y-105268500D01*
G75*
G02*
X90069500Y-105331000I-62500J0D01*
G01*
X89944500Y-105331000D01*
G75*
G02*
X89882000Y-105268500I0J62500D01*
G01*
X89882000Y-104568500D01*
G75*
G02*
X89944500Y-104506000I62500J0D01*
G01*
X90069500Y-104506000D01*
G75*
G02*
X90132000Y-104568500I0J-62500D01*
G01*
G37*
D26*
X87757000Y-101981000D03*
%TD*%
%TO.C,R1*%
G36*
G01*
X122065500Y-128757000D02*
X122065500Y-129307000D01*
G75*
G02*
X121865500Y-129507000I-200000J0D01*
G01*
X121465500Y-129507000D01*
G75*
G02*
X121265500Y-129307000I0J200000D01*
G01*
X121265500Y-128757000D01*
G75*
G02*
X121465500Y-128557000I200000J0D01*
G01*
X121865500Y-128557000D01*
G75*
G02*
X122065500Y-128757000I0J-200000D01*
G01*
G37*
G36*
G01*
X120415500Y-128757000D02*
X120415500Y-129307000D01*
G75*
G02*
X120215500Y-129507000I-200000J0D01*
G01*
X119815500Y-129507000D01*
G75*
G02*
X119615500Y-129307000I0J200000D01*
G01*
X119615500Y-128757000D01*
G75*
G02*
X119815500Y-128557000I200000J0D01*
G01*
X120215500Y-128557000D01*
G75*
G02*
X120415500Y-128757000I0J-200000D01*
G01*
G37*
%TD*%
%TO.C,R2*%
G36*
G01*
X112007600Y-128718900D02*
X112007600Y-129268900D01*
G75*
G02*
X111807600Y-129468900I-200000J0D01*
G01*
X111407600Y-129468900D01*
G75*
G02*
X111207600Y-129268900I0J200000D01*
G01*
X111207600Y-128718900D01*
G75*
G02*
X111407600Y-128518900I200000J0D01*
G01*
X111807600Y-128518900D01*
G75*
G02*
X112007600Y-128718900I0J-200000D01*
G01*
G37*
G36*
G01*
X113657600Y-128718900D02*
X113657600Y-129268900D01*
G75*
G02*
X113457600Y-129468900I-200000J0D01*
G01*
X113057600Y-129468900D01*
G75*
G02*
X112857600Y-129268900I0J200000D01*
G01*
X112857600Y-128718900D01*
G75*
G02*
X113057600Y-128518900I200000J0D01*
G01*
X113457600Y-128518900D01*
G75*
G02*
X113657600Y-128718900I0J-200000D01*
G01*
G37*
%TD*%
%TO.C,R3*%
G36*
G01*
X107435100Y-128757000D02*
X107435100Y-129307000D01*
G75*
G02*
X107235100Y-129507000I-200000J0D01*
G01*
X106835100Y-129507000D01*
G75*
G02*
X106635100Y-129307000I0J200000D01*
G01*
X106635100Y-128757000D01*
G75*
G02*
X106835100Y-128557000I200000J0D01*
G01*
X107235100Y-128557000D01*
G75*
G02*
X107435100Y-128757000I0J-200000D01*
G01*
G37*
G36*
G01*
X105785100Y-128757000D02*
X105785100Y-129307000D01*
G75*
G02*
X105585100Y-129507000I-200000J0D01*
G01*
X105185100Y-129507000D01*
G75*
G02*
X104985100Y-129307000I0J200000D01*
G01*
X104985100Y-128757000D01*
G75*
G02*
X105185100Y-128557000I200000J0D01*
G01*
X105585100Y-128557000D01*
G75*
G02*
X105785100Y-128757000I0J-200000D01*
G01*
G37*
%TD*%
%TO.C,R4*%
G36*
G01*
X99929900Y-128757000D02*
X99929900Y-129307000D01*
G75*
G02*
X99729900Y-129507000I-200000J0D01*
G01*
X99329900Y-129507000D01*
G75*
G02*
X99129900Y-129307000I0J200000D01*
G01*
X99129900Y-128757000D01*
G75*
G02*
X99329900Y-128557000I200000J0D01*
G01*
X99729900Y-128557000D01*
G75*
G02*
X99929900Y-128757000I0J-200000D01*
G01*
G37*
G36*
G01*
X101579900Y-128757000D02*
X101579900Y-129307000D01*
G75*
G02*
X101379900Y-129507000I-200000J0D01*
G01*
X100979900Y-129507000D01*
G75*
G02*
X100779900Y-129307000I0J200000D01*
G01*
X100779900Y-128757000D01*
G75*
G02*
X100979900Y-128557000I200000J0D01*
G01*
X101379900Y-128557000D01*
G75*
G02*
X101579900Y-128757000I0J-200000D01*
G01*
G37*
%TD*%
%TO.C,R5*%
G36*
G01*
X95649500Y-128757000D02*
X95649500Y-129307000D01*
G75*
G02*
X95449500Y-129507000I-200000J0D01*
G01*
X95049500Y-129507000D01*
G75*
G02*
X94849500Y-129307000I0J200000D01*
G01*
X94849500Y-128757000D01*
G75*
G02*
X95049500Y-128557000I200000J0D01*
G01*
X95449500Y-128557000D01*
G75*
G02*
X95649500Y-128757000I0J-200000D01*
G01*
G37*
G36*
G01*
X93999500Y-128757000D02*
X93999500Y-129307000D01*
G75*
G02*
X93799500Y-129507000I-200000J0D01*
G01*
X93399500Y-129507000D01*
G75*
G02*
X93199500Y-129307000I0J200000D01*
G01*
X93199500Y-128757000D01*
G75*
G02*
X93399500Y-128557000I200000J0D01*
G01*
X93799500Y-128557000D01*
G75*
G02*
X93999500Y-128757000I0J-200000D01*
G01*
G37*
%TD*%
D10*
%TO.C,C29*%
X105727500Y-84518500D03*
X105727500Y-89518500D03*
%TD*%
%TO.C,C30*%
X105664000Y-73516500D03*
X105664000Y-68516500D03*
%TD*%
%TO.C,C33*%
X105664000Y-52554500D03*
X105664000Y-57554500D03*
%TD*%
D27*
%TO.C,MOT_LC*%
X147427500Y-107871500D03*
X147427500Y-96471500D03*
D28*
X143827500Y-105921500D03*
X143827500Y-104421500D03*
X143827500Y-102921500D03*
X143827500Y-101421500D03*
X143827500Y-99921500D03*
X143827500Y-98421500D03*
%TD*%
D29*
%TO.C,Q2*%
X110871000Y-88926000D03*
X112141000Y-88926000D03*
X113411000Y-88926000D03*
X114681000Y-88926000D03*
D30*
X110871000Y-82995000D03*
X112141000Y-82995000D03*
X113411000Y-82995000D03*
X114681000Y-82995000D03*
D31*
X112776000Y-85217000D03*
%TD*%
D29*
%TO.C,Q3*%
X110871000Y-96432500D03*
X112141000Y-96432500D03*
X113411000Y-96432500D03*
X114681000Y-96432500D03*
D30*
X110871000Y-90501500D03*
X112141000Y-90501500D03*
X113411000Y-90501500D03*
X114681000Y-90501500D03*
D31*
X112776000Y-92723500D03*
%TD*%
%TO.C,Q4*%
X112712500Y-69228500D03*
D30*
X114617500Y-67006500D03*
X113347500Y-67006500D03*
X112077500Y-67006500D03*
X110807500Y-67006500D03*
D29*
X114617500Y-72937500D03*
X113347500Y-72937500D03*
X112077500Y-72937500D03*
X110807500Y-72937500D03*
%TD*%
D31*
%TO.C,Q5*%
X112776000Y-76721500D03*
D30*
X114681000Y-74499500D03*
X113411000Y-74499500D03*
X112141000Y-74499500D03*
X110871000Y-74499500D03*
D29*
X114681000Y-80430500D03*
X113411000Y-80430500D03*
X112141000Y-80430500D03*
X110871000Y-80430500D03*
%TD*%
%TO.C,Q6*%
X110807500Y-56999000D03*
X112077500Y-56999000D03*
X113347500Y-56999000D03*
X114617500Y-56999000D03*
D30*
X110807500Y-51068000D03*
X112077500Y-51068000D03*
X113347500Y-51068000D03*
X114617500Y-51068000D03*
D31*
X112712500Y-53290000D03*
%TD*%
%TO.C,Q7*%
X112712500Y-60846500D03*
D30*
X114617500Y-58624500D03*
X113347500Y-58624500D03*
X112077500Y-58624500D03*
X110807500Y-58624500D03*
D29*
X114617500Y-64555500D03*
X113347500Y-64555500D03*
X112077500Y-64555500D03*
X110807500Y-64555500D03*
%TD*%
D32*
%TO.C,CURR_C*%
X73500000Y-92000000D03*
%TD*%
%TO.C,CURR_B*%
X73500000Y-95500000D03*
%TD*%
%TO.C,CS*%
X74485000Y-104746000D03*
%TD*%
%TO.C,MOSI*%
X63985000Y-104746000D03*
%TD*%
%TO.C,MISO*%
X67485000Y-104746000D03*
%TD*%
%TO.C,CURR_A*%
X73500000Y-99000000D03*
%TD*%
%TO.C,SCLK*%
X70985000Y-104746000D03*
%TD*%
%TO.C,SPEED PWM*%
X76327000Y-128333500D03*
%TD*%
%TO.C,HGA*%
X99500000Y-103500000D03*
%TD*%
%TO.C,HGB*%
X90000000Y-90000000D03*
%TD*%
%TO.C,HGC*%
X86000000Y-90000000D03*
%TD*%
%TO.C,LGA*%
X99500000Y-98500000D03*
%TD*%
%TO.C,LGB*%
X95000000Y-90000000D03*
%TD*%
%TO.C,LGC*%
X81000000Y-90000000D03*
%TD*%
D33*
%TO.C,U1*%
X78669500Y-123827500D03*
X80969500Y-123827500D03*
X78669500Y-125727500D03*
X80969500Y-125727500D03*
%TD*%
%TO.C,C35*%
G36*
G01*
X84436500Y-115693000D02*
X84436500Y-115193000D01*
G75*
G02*
X84661500Y-114968000I225000J0D01*
G01*
X85111500Y-114968000D01*
G75*
G02*
X85336500Y-115193000I0J-225000D01*
G01*
X85336500Y-115693000D01*
G75*
G02*
X85111500Y-115918000I-225000J0D01*
G01*
X84661500Y-115918000D01*
G75*
G02*
X84436500Y-115693000I0J225000D01*
G01*
G37*
G36*
G01*
X85986500Y-115693000D02*
X85986500Y-115193000D01*
G75*
G02*
X86211500Y-114968000I225000J0D01*
G01*
X86661500Y-114968000D01*
G75*
G02*
X86886500Y-115193000I0J-225000D01*
G01*
X86886500Y-115693000D01*
G75*
G02*
X86661500Y-115918000I-225000J0D01*
G01*
X86211500Y-115918000D01*
G75*
G02*
X85986500Y-115693000I0J225000D01*
G01*
G37*
%TD*%
%TO.C,R56*%
G36*
G01*
X84436500Y-114194000D02*
X84436500Y-113644000D01*
G75*
G02*
X84636500Y-113444000I200000J0D01*
G01*
X85036500Y-113444000D01*
G75*
G02*
X85236500Y-113644000I0J-200000D01*
G01*
X85236500Y-114194000D01*
G75*
G02*
X85036500Y-114394000I-200000J0D01*
G01*
X84636500Y-114394000D01*
G75*
G02*
X84436500Y-114194000I0J200000D01*
G01*
G37*
G36*
G01*
X86086500Y-114194000D02*
X86086500Y-113644000D01*
G75*
G02*
X86286500Y-113444000I200000J0D01*
G01*
X86686500Y-113444000D01*
G75*
G02*
X86886500Y-113644000I0J-200000D01*
G01*
X86886500Y-114194000D01*
G75*
G02*
X86686500Y-114394000I-200000J0D01*
G01*
X86286500Y-114394000D01*
G75*
G02*
X86086500Y-114194000I0J200000D01*
G01*
G37*
%TD*%
D32*
%TO.C,TEMP*%
X133900000Y-95700000D03*
%TD*%
%TO.C,C36*%
G36*
G01*
X142000000Y-97225000D02*
X141500000Y-97225000D01*
G75*
G02*
X141275000Y-97000000I0J225000D01*
G01*
X141275000Y-96550000D01*
G75*
G02*
X141500000Y-96325000I225000J0D01*
G01*
X142000000Y-96325000D01*
G75*
G02*
X142225000Y-96550000I0J-225000D01*
G01*
X142225000Y-97000000D01*
G75*
G02*
X142000000Y-97225000I-225000J0D01*
G01*
G37*
G36*
G01*
X142000000Y-95675000D02*
X141500000Y-95675000D01*
G75*
G02*
X141275000Y-95450000I0J225000D01*
G01*
X141275000Y-95000000D01*
G75*
G02*
X141500000Y-94775000I225000J0D01*
G01*
X142000000Y-94775000D01*
G75*
G02*
X142225000Y-95000000I0J-225000D01*
G01*
X142225000Y-95450000D01*
G75*
G02*
X142000000Y-95675000I-225000J0D01*
G01*
G37*
%TD*%
%TO.C,ENCA*%
X130400000Y-95700000D03*
%TD*%
%TO.C,ENCB*%
X126900000Y-95700000D03*
%TD*%
%TO.C,ENCC*%
X123400000Y-95700000D03*
%TD*%
M02*
