%TF.GenerationSoftware,KiCad,Pcbnew,(5.1.8)-1*%
%TF.CreationDate,2021-03-09T13:11:08-05:00*%
%TF.ProjectId,DRV8353S_dev_board,44525638-3335-4335-935f-6465765f626f,rev?*%
%TF.SameCoordinates,Original*%
%TF.FileFunction,Legend,Bot*%
%TF.FilePolarity,Positive*%
%FSLAX46Y46*%
G04 Gerber Fmt 4.6, Leading zero omitted, Abs format (unit mm)*
G04 Created by KiCad (PCBNEW (5.1.8)-1) date 2021-03-09 13:11:08*
%MOMM*%
%LPD*%
G01*
G04 APERTURE LIST*
%ADD10C,0.152400*%
%ADD11C,0.120000*%
%ADD12C,0.150000*%
G04 APERTURE END LIST*
D10*
%TO.C,D4*%
X128167000Y-112927500D02*
X130717000Y-112927500D01*
X128167000Y-111227500D02*
X130717000Y-111227500D01*
X128167000Y-112927500D02*
X128167000Y-111227500D01*
D11*
%TO.C,C15*%
X124215752Y-105691000D02*
X123693248Y-105691000D01*
X124215752Y-107161000D02*
X123693248Y-107161000D01*
%TO.C,C16*%
X115308748Y-112549000D02*
X115831252Y-112549000D01*
X115308748Y-114019000D02*
X115831252Y-114019000D01*
%TO.C,C37*%
X120527752Y-105954500D02*
X120005248Y-105954500D01*
X120527752Y-104484500D02*
X120005248Y-104484500D01*
%TO.C,R36*%
X124667242Y-107745000D02*
X125141758Y-107745000D01*
X124667242Y-108790000D02*
X125141758Y-108790000D01*
%TO.C,D4*%
D10*
X130266923Y-114295195D02*
X130266923Y-113482395D01*
X130073400Y-113482395D01*
X129957285Y-113521100D01*
X129879876Y-113598509D01*
X129841171Y-113675919D01*
X129802466Y-113830738D01*
X129802466Y-113946852D01*
X129841171Y-114101671D01*
X129879876Y-114179080D01*
X129957285Y-114256490D01*
X130073400Y-114295195D01*
X130266923Y-114295195D01*
X129105780Y-113753328D02*
X129105780Y-114295195D01*
X129299304Y-113443690D02*
X129492828Y-114024261D01*
X128989666Y-114024261D01*
%TO.C,C15*%
D12*
X124597357Y-105103142D02*
X124644976Y-105150761D01*
X124787833Y-105198380D01*
X124883071Y-105198380D01*
X125025928Y-105150761D01*
X125121166Y-105055523D01*
X125168785Y-104960285D01*
X125216404Y-104769809D01*
X125216404Y-104626952D01*
X125168785Y-104436476D01*
X125121166Y-104341238D01*
X125025928Y-104246000D01*
X124883071Y-104198380D01*
X124787833Y-104198380D01*
X124644976Y-104246000D01*
X124597357Y-104293619D01*
X123644976Y-105198380D02*
X124216404Y-105198380D01*
X123930690Y-105198380D02*
X123930690Y-104198380D01*
X124025928Y-104341238D01*
X124121166Y-104436476D01*
X124216404Y-104484095D01*
X122740214Y-104198380D02*
X123216404Y-104198380D01*
X123264023Y-104674571D01*
X123216404Y-104626952D01*
X123121166Y-104579333D01*
X122883071Y-104579333D01*
X122787833Y-104626952D01*
X122740214Y-104674571D01*
X122692595Y-104769809D01*
X122692595Y-105007904D01*
X122740214Y-105103142D01*
X122787833Y-105150761D01*
X122883071Y-105198380D01*
X123121166Y-105198380D01*
X123216404Y-105150761D01*
X123264023Y-105103142D01*
%TO.C,C16*%
X116212857Y-115321142D02*
X116260476Y-115368761D01*
X116403333Y-115416380D01*
X116498571Y-115416380D01*
X116641428Y-115368761D01*
X116736666Y-115273523D01*
X116784285Y-115178285D01*
X116831904Y-114987809D01*
X116831904Y-114844952D01*
X116784285Y-114654476D01*
X116736666Y-114559238D01*
X116641428Y-114464000D01*
X116498571Y-114416380D01*
X116403333Y-114416380D01*
X116260476Y-114464000D01*
X116212857Y-114511619D01*
X115260476Y-115416380D02*
X115831904Y-115416380D01*
X115546190Y-115416380D02*
X115546190Y-114416380D01*
X115641428Y-114559238D01*
X115736666Y-114654476D01*
X115831904Y-114702095D01*
X114403333Y-114416380D02*
X114593809Y-114416380D01*
X114689047Y-114464000D01*
X114736666Y-114511619D01*
X114831904Y-114654476D01*
X114879523Y-114844952D01*
X114879523Y-115225904D01*
X114831904Y-115321142D01*
X114784285Y-115368761D01*
X114689047Y-115416380D01*
X114498571Y-115416380D01*
X114403333Y-115368761D01*
X114355714Y-115321142D01*
X114308095Y-115225904D01*
X114308095Y-114987809D01*
X114355714Y-114892571D01*
X114403333Y-114844952D01*
X114498571Y-114797333D01*
X114689047Y-114797333D01*
X114784285Y-114844952D01*
X114831904Y-114892571D01*
X114879523Y-114987809D01*
%TO.C,C37*%
X120909357Y-103896642D02*
X120956976Y-103944261D01*
X121099833Y-103991880D01*
X121195071Y-103991880D01*
X121337928Y-103944261D01*
X121433166Y-103849023D01*
X121480785Y-103753785D01*
X121528404Y-103563309D01*
X121528404Y-103420452D01*
X121480785Y-103229976D01*
X121433166Y-103134738D01*
X121337928Y-103039500D01*
X121195071Y-102991880D01*
X121099833Y-102991880D01*
X120956976Y-103039500D01*
X120909357Y-103087119D01*
X120576023Y-102991880D02*
X119956976Y-102991880D01*
X120290309Y-103372833D01*
X120147452Y-103372833D01*
X120052214Y-103420452D01*
X120004595Y-103468071D01*
X119956976Y-103563309D01*
X119956976Y-103801404D01*
X120004595Y-103896642D01*
X120052214Y-103944261D01*
X120147452Y-103991880D01*
X120433166Y-103991880D01*
X120528404Y-103944261D01*
X120576023Y-103896642D01*
X119623642Y-102991880D02*
X118956976Y-102991880D01*
X119385547Y-103991880D01*
%TO.C,R36*%
X125547357Y-110149880D02*
X125880690Y-109673690D01*
X126118785Y-110149880D02*
X126118785Y-109149880D01*
X125737833Y-109149880D01*
X125642595Y-109197500D01*
X125594976Y-109245119D01*
X125547357Y-109340357D01*
X125547357Y-109483214D01*
X125594976Y-109578452D01*
X125642595Y-109626071D01*
X125737833Y-109673690D01*
X126118785Y-109673690D01*
X125214023Y-109149880D02*
X124594976Y-109149880D01*
X124928309Y-109530833D01*
X124785452Y-109530833D01*
X124690214Y-109578452D01*
X124642595Y-109626071D01*
X124594976Y-109721309D01*
X124594976Y-109959404D01*
X124642595Y-110054642D01*
X124690214Y-110102261D01*
X124785452Y-110149880D01*
X125071166Y-110149880D01*
X125166404Y-110102261D01*
X125214023Y-110054642D01*
X123737833Y-109149880D02*
X123928309Y-109149880D01*
X124023547Y-109197500D01*
X124071166Y-109245119D01*
X124166404Y-109387976D01*
X124214023Y-109578452D01*
X124214023Y-109959404D01*
X124166404Y-110054642D01*
X124118785Y-110102261D01*
X124023547Y-110149880D01*
X123833071Y-110149880D01*
X123737833Y-110102261D01*
X123690214Y-110054642D01*
X123642595Y-109959404D01*
X123642595Y-109721309D01*
X123690214Y-109626071D01*
X123737833Y-109578452D01*
X123833071Y-109530833D01*
X124023547Y-109530833D01*
X124118785Y-109578452D01*
X124166404Y-109626071D01*
X124214023Y-109721309D01*
%TD*%
M02*
